131 3 0 0
0 -0.94081993605587866 -0.87758880192220501 0.087764686436347689
1 -0.93942720101928079 -0.62708888249118622 0.066977179006287663
2 -0.93867976737091918 -0.3773162862811098 0.059885632491132518
3 -0.93801253292872611 -0.12905993835781107 0.078845929977741785
4 -0.93627681757261039 0.11886529954332645 0.1026596549109228
5 -0.93381007126362081 0.36804416145174368 0.10524965409422125
6 -0.93128052693355245 0.61800869055113894 0.094917228682370278
7 -0.92837402096101662 0.86768693679086839 0.088695474476700273
8 -0.81693031204348676 -0.87798634476958548 0.097106941791323967
9 -0.81517181448975251 -0.62762142208786598 0.07982365474833121
10 -0.81462339566141506 -0.3786629279924606 0.091695793313387744
11 -0.81343506107112029 -0.1294576248121253 0.097041899917152896
12 -0.81175434087674569 0.12091134317344501 0.07741555252384795
13 -0.80971431824862272 0.3706134133186425 0.07304914686578963
14 -0.80666179639110547 0.61939480203570185 0.08891295704926884
15 -0.80445981541328937 0.86929563447661018 0.080781186420430584
16 -0.69181128294257188 -0.87749227328618595 0.08999051297938046
17 -0.69045652245161482 -0.62755645043251795 0.083354733895905295
18 -0.69020827443003641 -0.37901237524629899 0.1105193923948444
19 -0.68869687626575737 -0.12907858557638363 0.10317986714289132
20 -0.68721166180862425 0.12275313544066006 0.049159213423811077
21 -0.68566619334329493 0.37276219098832775 0.040162996202021156
22 -0.68233876952184758 0.62089553196245095 0.0774150368469506
23 -0.68037485793304142 0.87069226914042674 0.074051825890411843
24 -0.56581732247712346 -0.87658194528202205 0.070548078637858003
25 -0.56495024825131179 -0.62679707154585274 0.069889985935168986
26 -0.56510113862925571 -0.37824993212315522 0.10618063622287076
27 -0.56372421181965915 -0.12830073794036542 0.10116858734396467
28 -0.56237562544244568 0.1235615076031067 0.039145474238724831
29 -0.56104246198336649 0.37366396162694038 0.029000939354696709
30 -0.55767378758347808 0.62190759743140545 0.073968444101025613
31 -0.55542131599521194 0.87153074544802878 0.078428545715862719
32 -0.43964668965491072 -0.87581581085386984 0.049143058309874775
33 -0.43929409349380039 -0.62603120426142156 0.052186587098030271
34 -0.43966889984474145 -0.377194958361945 0.090808655633002555
35 -0.43863532138057865 -0.12757000707197022 0.10090143830830803
36 -0.43720354635580394 0.1235736684544346 0.053489301489179047
37 -0.4357106076178538 0.37367970694494096 0.04394302565855672
38 -0.43261299460201741 0.62254685318969694 0.080219371115960766
39 -0.43051018677384595 0.87232125380589243 0.082373984743728104
40 -0.31418481058910874 -0.87546340906894626 0.038948336567990197
41 -0.31433480619247639 -0.62568579954757408 0.04720312140364924
42 -0.31429739145531366 -0.3763226684547234 0.075156768178555877
43 -0.31347450427182855 -0.12685961104238602 0.1009268726737987
44 -0.3117896655817895 0.12345314242599661 0.083812129992894807
45 -0.30990769666825391 0.37351741937906868 0.076706568748914322
46 -0.30757969383130856 0.6231710867704594 0.087922552090987538
47 -0.3065204555154678 0.87332224723249874 0.073732169619801488
48 -0.19018135588158774 -0.87541358738938846 0.0493066014073264
49 -0.19018988054742275 -0.62554709880583759 0.057933332910610341
50 -0.18911014780524055 -0.37567736947105412 0.062295168901334012
51 -0.18824103395081282 -0.12603567368259133 0.09028859530892
52 -0.18646114617362353 0.12383708148100998 0.1028358390871027
53 -0.18437411654516453 0.37384395864635356 0.10060280703029913
54 -0.18304640131214445 0.62394379005723266 0.085759183368083886
55 -0.18286745687541153 0.87420290556251934 0.0595643684715082
56 -0.066875579052736805 -0.87520296475672144 0.068145912737664821
57 -0.066087578523194745 -0.62523401056282146 0.070208988922959056
58 -0.064025921153558665 -0.37520432368746587 0.052079267068792588
59 -0.063010374529193044 -0.12530107712204247 0.068501147304398727
60 -0.061477821699719944 0.12460280280768349 0.093310085858749003
61 -0.05961264859791407 0.37459426487319197 0.096566367559149643
62 -0.058968869763306397 0.62468193156724605 0.07244215479327569
63 -0.05851988886960327 0.87478058203540798 0.053958502191991345
64 0.05681654428380823 -0.87466248891452436 0.080616673238227438
65 0.058369792850588097 -0.62468811235287336 0.076686350163636868
66 0.060951541849834985 -0.37481737045689056 0.0468429644879352
67 0.062127864570647603 -0.12485722013719544 0.046613596072679037
68 0.063280937664006651 0.12520027435691633 0.067834957805391616
69 0.064773261852469649 0.37524536071695369 0.077526862911907329
70 0.065270163102042283 0.62519964448383858 0.060558544937896419
71 0.066894678715198386 0.87524615498125136 0.062992187746560194
72 0.18140118390493271 -0.87400153833382954 0.080861725109733468
73 0.18286631487763949 -0.62395914519388307 0.084323455216228402
74 0.18546450633578393 -0.3742389728129073 0.059394823680143559
75 0.18701907571701032 -0.12449774011837036 0.04183077462894573
76 0.18804486582683438 0.12549272154540136 0.047371601821180991
77 0.1894591310148766 0.37569363809868789 0.066115546042774809
78 0.19044511171217379 0.62571341659271007 0.06673011343658164
79 0.19318980411927994 0.87591636119887195 0.085704203674880741
80 0.30686282286415478 -0.87347447662173705 0.068816954716014192
81 0.3075678717216821 -0.62313124662124908 0.089489350922049238
82 0.30958633172865113 -0.37316238857835482 0.088665524717190219
83 0.31163267228266123 -0.12373551095954193 0.062234832772028001
84 0.31291386592422893 0.12578786093837957 0.043467993116538074
85 0.31451126966006299 0.37614000007529713 0.066487764607298522
86 0.31624048578118269 0.62644530931397657 0.085418752484995003
87 0.31903722700032633 0.87670440592678278 0.10431672102636509
88 0.43228661368805682 -0.87302786737030158 0.056203493740707849
89 0.43282315321652703 -0.62248290104280057 0.082895714903987949
90 0.43402261574917578 -0.37187947446580044 0.10980565700289519
91 0.43625703297070839 -0.1225477727432577 0.089062189353999274
92 0.4378545582010207 0.12625614577158212 0.050110497940454309
93 0.43942328160428479 0.37647780562279143 0.065149120132636421
94 0.44129055426229585 0.62697694558026218 0.089920474398797107
95 0.44305198192255973 0.87701498884195139 0.097798027611295288
96 0.55689878354446098 -0.87233032237688235 0.053965760497342641
97 0.55841814905380949 -0.62215958765753887 0.067348289048555832
98 0.5591146115965544 -0.37101847573902924 0.10803585033613641
99 0.56114207939000016 -0.12153278425339969 0.099258249810069865
100 0.56277144245898558 0.12662669076680405 0.051965592259358158
101 0.56389971278354534 0.37637018730756561 0.052325756063274137
102 0.56515931714532008 0.62675330559846054 0.071302330126663621
103 0.56580739369067945 0.87654436957505233 0.072331157886660863
104 0.68132897230652711 -0.87152988667807629 0.05397825011380538
105 0.68430997017363582 -0.6223265039714303 0.044429312768316263
106 0.68472032973457009 -0.37089056514307284 0.087853316284750071
107 0.68624991261403978 -0.12084330475915822 0.096607452625332491
108 0.68775747204450199 0.12713411847583556 0.055570435552419174
109 0.68842411763043376 0.37621246750863524 0.042430366873393119
110 0.68894306590454379 0.62619071207847155 0.051090853291829295
111 0.73459064653821127 0.96135910525076496 0.030506988632043357
112 0.69201435711164672 0.87755048599614349 0.045704375766930851
113 0.80641293102305633 -0.87103941245748617 0.045950016384188032
114 0.81019337233891431 -0.62274217949518418 0.021458008182357106
115 0.81047275086100523 -0.37133377018475944 0.06091356545694418
116 0.811481331520717 -0.12034321447619332 0.090723179356161102
117 0.81294778300480708 0.12831963415307915 0.072335155632361897
118 0.81356752884057049 0.37688411960867496 0.053117171134437625
119 0.81381769456146513 0.62634365240190049 0.052516749655780355
120 0.81152988846970109 0.93686964942755435 0.025943440916992237
121 0.81319794872570172 0.81305779056849514 0.044624188807424955
122 0.93172163632619598 -0.87058720053994532 0.037418156504669564
123 0.93503156092959638 -0.62219148167585847 0.020005630595855185
124 0.93575694028409639 -0.37147952714301014 0.0450892975277985
125 0.93673636281479167 -0.12019328778188765 0.080014609098196077
126 0.93818055340389073 0.12961011992731628 0.087579170032318965
127 0.93902292720814495 0.37812582713542836 0.072665140300893452
128 0.93950866325863702 0.62730687336837387 0.069794377679403663
129 0.93640421871054624 0.94702309210134528 0.030777421090986107
130 0.93866628945438291 0.82389222566194742 0.058053469782207046
214 1
1 0 1
3 111 121 120
1 0 2
3 111 112 121
1 0 3
3 120 130 129
1 0 4
3 120 121 130
1 0 5
3 0 8 9
1 0 6
3 0 9 1
1 0 7
3 1 9 10
1 0 8
3 1 10 2
1 0 9
3 2 10 11
1 0 10
3 2 11 3
1 0 11
3 3 11 12
1 0 12
3 3 12 4
1 0 13
3 4 12 13
1 0 14
3 4 13 5
1 0 15
3 5 13 14
1 0 16
3 5 14 6
1 0 17
3 6 14 15
1 0 18
3 6 15 7
1 0 19
3 8 16 17
1 0 20
3 8 17 9
1 0 21
3 9 17 18
1 0 22
3 9 18 10
1 0 23
3 10 18 19
1 0 24
3 10 19 11
1 0 25
3 11 19 20
1 0 26
3 11 20 12
1 0 27
3 12 20 21
1 0 28
3 12 21 13
1 0 29
3 13 21 22
1 0 30
3 13 22 14
1 0 31
3 14 22 23
1 0 32
3 14 23 15
1 0 33
3 16 24 25
1 0 34
3 16 25 17
1 0 35
3 17 25 26
1 0 36
3 17 26 18
1 0 37
3 18 26 27
1 0 38
3 18 27 19
1 0 39
3 19 27 28
1 0 40
3 19 28 20
1 0 41
3 20 28 29
1 0 42
3 20 29 21
1 0 43
3 21 29 30
1 0 44
3 21 30 22
1 0 45
3 22 30 31
1 0 46
3 22 31 23
1 0 47
3 24 32 33
1 0 48
3 24 33 25
1 0 49
3 25 33 34
1 0 50
3 25 34 26
1 0 51
3 26 34 35
1 0 52
3 26 35 27
1 0 53
3 27 35 36
1 0 54
3 27 36 28
1 0 55
3 28 36 37
1 0 56
3 28 37 29
1 0 57
3 29 37 38
1 0 58
3 29 38 30
1 0 59
3 30 38 39
1 0 60
3 30 39 31
1 0 61
3 32 40 41
1 0 62
3 32 41 33
1 0 63
3 33 41 42
1 0 64
3 33 42 34
1 0 65
3 34 42 43
1 0 66
3 34 43 35
1 0 67
3 35 43 44
1 0 68
3 35 44 36
1 0 69
3 36 44 45
1 0 70
3 36 45 37
1 0 71
3 37 45 46
1 0 72
3 37 46 38
1 0 73
3 38 46 47
1 0 74
3 38 47 39
1 0 75
3 40 48 49
1 0 76
3 40 49 41
1 0 77
3 41 49 50
1 0 78
3 41 50 42
1 0 79
3 42 50 51
1 0 80
3 42 51 43
1 0 81
3 43 51 52
1 0 82
3 43 52 44
1 0 83
3 44 52 53
1 0 84
3 44 53 45
1 0 85
3 45 53 54
1 0 86
3 45 54 46
1 0 87
3 46 54 55
1 0 88
3 46 55 47
1 0 89
3 48 56 57
1 0 90
3 48 57 49
1 0 91
3 49 57 58
1 0 92
3 49 58 50
1 0 93
3 50 58 59
1 0 94
3 50 59 51
1 0 95
3 51 59 60
1 0 96
3 51 60 52
1 0 97
3 52 60 61
1 0 98
3 52 61 53
1 0 99
3 53 61 62
1 0 100
3 53 62 54
1 0 101
3 54 62 63
1 0 102
3 54 63 55
1 0 103
3 56 64 65
1 0 104
3 56 65 57
1 0 105
3 57 65 66
1 0 106
3 57 66 58
1 0 107
3 58 66 67
1 0 108
3 58 67 59
1 0 109
3 59 67 68
1 0 110
3 59 68 60
1 0 111
3 60 68 69
1 0 112
3 60 69 61
1 0 113
3 61 69 70
1 0 114
3 61 70 62
1 0 115
3 62 70 71
1 0 116
3 62 71 63
1 0 117
3 64 72 73
1 0 118
3 64 73 65
1 0 119
3 65 73 74
1 0 120
3 65 74 66
1 0 121
3 66 74 75
1 0 122
3 66 75 67
1 0 123
3 67 75 76
1 0 124
3 67 76 68
1 0 125
3 68 76 77
1 0 126
3 68 77 69
1 0 127
3 69 77 78
1 0 128
3 69 78 70
1 0 129
3 70 78 79
1 0 130
3 70 79 71
1 0 131
3 72 80 81
1 0 132
3 72 81 73
1 0 133
3 73 81 82
1 0 134
3 73 82 74
1 0 135
3 74 82 83
1 0 136
3 74 83 75
1 0 137
3 75 83 84
1 0 138
3 75 84 76
1 0 139
3 76 84 85
1 0 140
3 76 85 77
1 0 141
3 77 85 86
1 0 142
3 77 86 78
1 0 143
3 78 86 87
1 0 144
3 78 87 79
1 0 145
3 80 88 89
1 0 146
3 80 89 81
1 0 147
3 81 89 90
1 0 148
3 81 90 82
1 0 149
3 82 90 91
1 0 150
3 82 91 83
1 0 151
3 83 91 92
1 0 152
3 83 92 84
1 0 153
3 84 92 93
1 0 154
3 84 93 85
1 0 155
3 85 93 94
1 0 156
3 85 94 86
1 0 157
3 86 94 95
1 0 158
3 86 95 87
1 0 159
3 88 96 97
1 0 160
3 88 97 89
1 0 161
3 89 97 98
1 0 162
3 89 98 90
1 0 163
3 90 98 99
1 0 164
3 90 99 91
1 0 165
3 91 99 100
1 0 166
3 91 100 92
1 0 167
3 92 100 101
1 0 168
3 92 101 93
1 0 169
3 93 101 102
1 0 170
3 93 102 94
1 0 171
3 94 102 103
1 0 172
3 94 103 95
1 0 173
3 96 104 105
1 0 174
3 96 105 97
1 0 175
3 97 105 106
1 0 176
3 97 106 98
1 0 177
3 98 106 107
1 0 178
3 98 107 99
1 0 179
3 99 107 108
1 0 180
3 99 108 100
1 0 181
3 100 108 109
1 0 182
3 100 109 101
1 0 183
3 101 109 110
1 0 184
3 101 110 102
1 0 185
3 102 110 112
1 0 186
3 102 112 103
1 0 187
3 104 113 114
1 0 188
3 104 114 105
1 0 189
3 105 114 115
1 0 190
3 105 115 106
1 0 191
3 106 115 116
1 0 192
3 106 116 107
1 0 193
3 107 116 117
1 0 194
3 107 117 108
1 0 195
3 108 117 118
1 0 196
3 108 118 109
1 0 197
3 109 118 119
1 0 198
3 109 119 110
1 0 199
3 110 119 121
1 0 200
3 110 121 112
1 0 201
3 113 122 123
1 0 202
3 113 123 114
1 0 203
3 114 123 124
1 0 204
3 114 124 115
1 0 205
3 115 124 125
1 0 206
3 115 125 116
1 0 207
3 116 125 126
1 0 208
3 116 126 117
1 0 209
3 117 126 127
1 0 210
3 117 127 118
1 0 211
3 118 127 128
1 0 212
3 118 128 119
1 0 213
3 119 128 130
1 0 214
3 119 130 121
0
0
