131 3 0 0
0 -0.96661144599338278 -0.78494971176368145 0.078025703762121396
1 -0.88161089963879413 -0.60942250080695493 0.066308256517530265
2 -0.93867976737091918 -0.3773162862811098 0.059885632491132518
3 -0.89238638646529189 -0.08618697192443929 0.097360612258328552
4 -0.93627681757261039 0.11886529954332645 0.1026596549109228
5 -0.95701496553363397 0.37013631813652331 0.12348967317098203
6 -0.87733844704348429 0.56629547260098234 0.098507974750718194
7 -0.9027808310623272 0.81355152552974119 0.095708861062340167
8 -0.81693031204348676 -0.87798634476958548 0.097106941791323967
9 -0.87440357131217494 -0.58990400003550081 0.064936862478290586
10 -0.77172230180916446 -0.36969028434582318 0.10870437859466006
11 -0.86551247875852166 -0.060181385729648491 0.10170581206236155
12 -0.86067682945367563 0.039116404498530898 0.093768463877221292
13 -0.80971431824862272 0.3706134133186425 0.07304914686578963
14 -0.80666179639110547 0.61939480203570185 0.08891295704926884
15 -0.80445981541328937 0.86929563447661018 0.080781186420430584
16 -0.69181128294257188 -0.87749227328618595 0.08999051297938046
17 -0.72359036216189498 -0.65434961696113225 0.072181256073405406
18 -0.66040582512241741 -0.2989591120752596 0.13987269722172363
19 -0.73991035250494319 -0.22611536814516087 0.1274982923989022
20 -0.68721166180862425 0.12275313544066006 0.049159213423811077
21 -0.66265010782228906 0.30115845556253751 4.0160325356493437e-05
22 -0.73827867760774724 0.64385176981937853 0.099839025472189966
23 -0.68037485793304142 0.87069226914042674 0.074051825890411843
24 -0.56581732247712346 -0.87658194528202205 0.070548078637858003
25 -0.60309706445689693 -0.6520350459540758 0.055977988973204128
26 -0.58789937219385202 -0.30099975946416291 0.13425559367676276
27 -0.5464899377818887 -0.24518899373028452 0.12904403110796439
28 -0.56237562544244568 0.1235615076031067 0.039145474238724831
29 -0.55843385092657849 0.30994382038052842 -0.0073485879804501787
30 -0.54480368603291185 0.66009284899251386 0.097736038860105803
31 -0.55542131599521194 0.87153074544802878 0.078428545715862719
32 -0.43964668965491072 -0.87581581085386984 0.049143058309874775
33 -0.46529722474004748 -0.64929493733325283 0.034889326629619154
34 -0.43966889984474145 -0.377194958361945 0.090808655633002555
35 -0.40348562919669267 -0.18471498134775141 0.12207000558238404
36 -0.43720354635580394 0.1235736684544346 0.053489301489179047
37 -0.47201397801054984 0.29728939617743982 0.0030318144412321908
38 -0.43261299460201741 0.62254685318969694 0.080219371115960766
39 -0.44759295972777885 0.81377559491430784 0.089263066421937043
40 -0.3244119090890849 -0.81751860036650947 0.036695485225559411
41 -0.36293627400345457 -0.56718160923002414 0.040610502813590181
42 -0.31429739145531366 -0.3763226684547234 0.075156768178555877
43 -0.31347450427182855 -0.12685961104238602 0.1009268726737987
44 -0.26124934456239751 0.12032423009440951 0.093812007413896989
45 -0.30990769666825391 0.37351741937906868 0.076706568748914322
46 -0.30757969383130856 0.6231710867704594 0.087922552090987538
47 -0.3065204555154678 0.87332224723249874 0.073732169619801488
48 -0.19018135588158774 -0.87541358738938846 0.0493066014073264
49 -0.19018988054742275 -0.62554709880583759 0.057933332910610341
50 -0.18911014780524055 -0.37567736947105412 0.062295168901334012
51 -0.22664152543280247 -0.11028616382503713 0.11985159664381534
52 -0.1988381638701634 0.095759878701766651 0.10607549842544224
53 -0.15049706887886463 0.38328435540303074 0.11798048309104972
54 -0.19043817646723374 0.54905039738009009 0.10449055993348433
55 -0.14816934659599029 0.90448179056883926 0.0406219193013449
56 -0.066875579052736805 -0.87520296475672144 0.068145912737664821
57 -0.069986331480672917 -0.70105653897582743 0.095088254848978704
58 -0.064025921153558665 -0.37520432368746587 0.052079267068792588
59 -0.063010374529193044 -0.12530107712204247 0.068501147304398727
60 -0.11336661829769562 0.072426992411088867 0.097604933587527323
61 -0.053544428986509296 0.35353465613711099 0.11569135990723448
62 -0.058968869763306397 0.62468193156724605 0.07244215479327569
63 -0.05851988886960327 0.87478058203540798 0.053958502191991345
64 0.1020143044214238 -0.78433517157385657 0.090163881113336466
65 0.084649044061714071 -0.69787201940884802 0.098862961398314367
66 0.032764014850383952 -0.36120910814236529 0.020022127993073402
67 0.062127864570647603 -0.12485722013719544 0.046613596072679037
68 0.12016290937055982 0.077939006705732006 0.042623294968072489
69 0.090460567463669581 0.36557539316996468 0.088340292079983271
70 0.069962038448506195 0.72217971038682938 0.037828313005654916
71 0.0093416196605516227 0.86697304722036173 0.038942176341361184
72 0.18140118390493271 -0.87400153833382954 0.080861725109733468
73 0.18286631487763949 -0.62395914519388307 0.084323455216228402
74 0.18546450633578393 -0.3742389728129073 0.059394823680143559
75 0.20375929426941553 -0.1485695812778858 0.037392907441359022
76 0.23718655692041549 0.11665521181094249 0.021356094014676072
77 0.19404092609775986 0.39838785128083154 0.080523026055169311
78 0.19044511171217379 0.62571341659271007 0.06673011343658164
79 0.19318980411927994 0.87591636119887195 0.085704203674880741
80 0.30686282286415478 -0.87347447662173705 0.068816954716014192
81 0.3075678717216821 -0.62313124662124908 0.089489350922049238
82 0.26878116594807439 -0.46765076226575247 0.096895717577945101
83 0.26059804226849698 -0.087257821129544763 0.043095891419984794
84 0.35920053919322326 0.15290460805468373 0.020712884761715164
85 0.32294650606677594 0.48506018898865699 0.09135597508628171
86 0.31624048578118269 0.62644530931397657 0.085418752484995003
87 0.37802058670666522 0.76960983246713988 0.10119928379427154
88 0.47995310165217497 -0.85326316961545379 0.039469205581051638
89 0.39618714719641268 -0.57465306742600919 0.096407164836250947
90 0.45289086987441113 -0.30493498263535701 0.13782755823091941
91 0.43625703297070839 -0.1225477727432577 0.089062189353999274
92 0.43941015901253139 0.16267758836835522 0.028866336898478069
93 0.43942328160428479 0.37647780562279143 0.065149120132636421
94 0.4690428804825415 0.58293972136395722 0.094796008808021623
95 0.42225598628624106 0.90293098812235939 0.10680117381965755
96 0.57344345331728952 -0.80841361211172291 0.040893479996800985
97 0.50540826910457692 -0.67402652735801294 0.058894741020777019
98 0.53724666862591119 -0.30326659369899445 0.13831287221794658
99 0.56114207939000016 -0.12153278425339969 0.099258249810069865
100 0.5308177564259724 0.16482367862153671 0.03040906487187179
101 0.56389971278354534 0.37637018730756561 0.052325756063274137
102 0.52911735940620608 0.54136647510585445 0.080227648001557919
103 0.54863260658923141 0.86878270393076951 0.076483221523953621
104 0.62044736911309017 -0.83271645477430556 0.043419017024835839
105 0.68430997017363582 -0.6223265039714303 0.044429312768316263
106 0.68472032973457009 -0.37089056514307284 0.087853316284750071
107 0.68624991261403978 -0.12084330475915822 0.096607452625332491
108 0.64462612359285654 0.1946219790458181 0.028289205377407749
109 0.69155091027043269 0.25373562437476299 0.027689833280442611
110 0.67537716640403833 0.62330799820137395 0.051316066070225791
111 0.73843340530812129 0.95807496466714925 0.027100443471693256
112 0.71627224728379035 0.89346157420745731 0.035410685072776713
113 0.80641293102305633 -0.87103941245748617 0.045950016384188032
114 0.78823731783799333 -0.64311723881510974 -0.00051543148248495293
115 0.81047275086100523 -0.37133377018475944 0.06091356545694418
116 0.8544288793414555 -0.09372391614981665 0.10573697550588176
117 0.8690474689139176 0.060817759573910939 0.091974277177622868
118 0.81564205145035062 0.36752289561646889 0.038583465153156679
119 0.76583319855408183 0.66079377466114131 0.053102355523079459
120 0.81471470777833999 0.93353878214389929 0.014356540746671616
121 0.79389246103979438 0.81571923074099884 0.037646759003842949
122 0.93172163632619598 -0.87058720053994532 0.037418156504669564
123 0.93503156092959638 -0.62219148167585847 0.020005630595855185
124 0.98279391864846199 -0.3415953130391054 0.033920984763841602
125 0.93673636281479167 -0.12019328778188765 0.080014609098196077
126 0.96172076862097622 0.12178768867718884 0.108739785082417
127 0.94733415167230417 0.41236226232205947 0.062095037310800703
128 0.99024082440724759 0.70597843489882006 0.092858143276525529
129 0.91393458774782688 0.99430599795381591 0.011361483394808074
130 0.93866628945438291 0.82389222566194742 0.058053469782207046
214 1
1 0 1
3 111 121 120
1 0 2
3 111 112 121
1 0 3
3 120 130 129
1 0 4
3 120 121 130
1 0 5
3 0 8 9
1 0 6
3 0 9 1
1 0 7
3 1 9 10
1 0 8
3 1 10 2
1 0 9
3 2 10 11
1 0 10
3 2 11 3
1 0 11
3 3 11 12
1 0 12
3 3 12 4
1 0 13
3 4 12 13
1 0 14
3 4 13 5
1 0 15
3 5 13 14
1 0 16
3 5 14 6
1 0 17
3 6 14 15
1 0 18
3 6 15 7
1 0 19
3 8 16 17
1 0 20
3 8 17 9
1 0 21
3 9 17 18
1 0 22
3 9 18 10
1 0 23
3 10 18 19
1 0 24
3 10 19 11
1 0 25
3 11 19 20
1 0 26
3 11 20 12
1 0 27
3 12 20 21
1 0 28
3 12 21 13
1 0 29
3 13 21 22
1 0 30
3 13 22 14
1 0 31
3 14 22 23
1 0 32
3 14 23 15
1 0 33
3 16 24 25
1 0 34
3 16 25 17
1 0 35
3 17 25 26
1 0 36
3 17 26 18
1 0 37
3 18 26 27
1 0 38
3 18 27 19
1 0 39
3 19 27 28
1 0 40
3 19 28 20
1 0 41
3 20 28 29
1 0 42
3 20 29 21
1 0 43
3 21 29 30
1 0 44
3 21 30 22
1 0 45
3 22 30 31
1 0 46
3 22 31 23
1 0 47
3 24 32 33
1 0 48
3 24 33 25
1 0 49
3 25 33 34
1 0 50
3 25 34 26
1 0 51
3 26 34 35
1 0 52
3 26 35 27
1 0 53
3 27 35 36
1 0 54
3 27 36 28
1 0 55
3 28 36 37
1 0 56
3 28 37 29
1 0 57
3 29 37 38
1 0 58
3 29 38 30
1 0 59
3 30 38 39
1 0 60
3 30 39 31
1 0 61
3 32 40 41
1 0 62
3 32 41 33
1 0 63
3 33 41 42
1 0 64
3 33 42 34
1 0 65
3 34 42 43
1 0 66
3 34 43 35
1 0 67
3 35 43 44
1 0 68
3 35 44 36
1 0 69
3 36 44 45
1 0 70
3 36 45 37
1 0 71
3 37 45 46
1 0 72
3 37 46 38
1 0 73
3 38 46 47
1 0 74
3 38 47 39
1 0 75
3 40 48 49
1 0 76
3 40 49 41
1 0 77
3 41 49 50
1 0 78
3 41 50 42
1 0 79
3 42 50 51
1 0 80
3 42 51 43
1 0 81
3 43 51 52
1 0 82
3 43 52 44
1 0 83
3 44 52 53
1 0 84
3 44 53 45
1 0 85
3 45 53 54
1 0 86
3 45 54 46
1 0 87
3 46 54 55
1 0 88
3 46 55 47
1 0 89
3 48 56 57
1 0 90
3 48 57 49
1 0 91
3 49 57 58
1 0 92
3 49 58 50
1 0 93
3 50 58 59
1 0 94
3 50 59 51
1 0 95
3 51 59 60
1 0 96
3 51 60 52
1 0 97
3 52 60 61
1 0 98
3 52 61 53
1 0 99
3 53 61 62
1 0 100
3 53 62 54
1 0 101
3 54 62 63
1 0 102
3 54 63 55
1 0 103
3 56 64 65
1 0 104
3 56 65 57
1 0 105
3 57 65 66
1 0 106
3 57 66 58
1 0 107
3 58 66 67
1 0 108
3 58 67 59
1 0 109
3 59 67 68
1 0 110
3 59 68 60
1 0 111
3 60 68 69
1 0 112
3 60 69 61
1 0 113
3 61 69 70
1 0 114
3 61 70 62
1 0 115
3 62 70 71
1 0 116
3 62 71 63
1 0 117
3 64 72 73
1 0 118
3 64 73 65
1 0 119
3 65 73 74
1 0 120
3 65 74 66
1 0 121
3 66 74 75
1 0 122
3 66 75 67
1 0 123
3 67 75 76
1 0 124
3 67 76 68
1 0 125
3 68 76 77
1 0 126
3 68 77 69
1 0 127
3 69 77 78
1 0 128
3 69 78 70
1 0 129
3 70 78 79
1 0 130
3 70 79 71
1 0 131
3 72 80 81
1 0 132
3 72 81 73
1 0 133
3 73 81 82
1 0 134
3 73 82 74
1 0 135
3 74 82 83
1 0 136
3 74 83 75
1 0 137
3 75 83 84
1 0 138
3 75 84 76
1 0 139
3 76 84 85
1 0 140
3 76 85 77
1 0 141
3 77 85 86
1 0 142
3 77 86 78
1 0 143
3 78 86 87
1 0 144
3 78 87 79
1 0 145
3 80 88 89
1 0 146
3 80 89 81
1 0 147
3 81 89 90
1 0 148
3 81 90 82
1 0 149
3 82 90 91
1 0 150
3 82 91 83
1 0 151
3 83 91 92
1 0 152
3 83 92 84
1 0 153
3 84 92 93
1 0 154
3 84 93 85
1 0 155
3 85 93 94
1 0 156
3 85 94 86
1 0 157
3 86 94 95
1 0 158
3 86 95 87
1 0 159
3 88 96 97
1 0 160
3 88 97 89
1 0 161
3 89 97 98
1 0 162
3 89 98 90
1 0 163
3 90 98 99
1 0 164
3 90 99 91
1 0 165
3 91 99 100
1 0 166
3 91 100 92
1 0 167
3 92 100 101
1 0 168
3 92 101 93
1 0 169
3 93 101 102
1 0 170
3 93 102 94
1 0 171
3 94 102 103
1 0 172
3 94 103 95
1 0 173
3 96 104 105
1 0 174
3 96 105 97
1 0 175
3 97 105 106
1 0 176
3 97 106 98
1 0 177
3 98 106 107
1 0 178
3 98 107 99
1 0 179
3 99 107 108
1 0 180
3 99 108 100
1 0 181
3 100 108 109
1 0 182
3 100 109 101
1 0 183
3 101 109 110
1 0 184
3 101 110 102
1 0 185
3 102 110 112
1 0 186
3 102 112 103
1 0 187
3 104 113 114
1 0 188
3 104 114 105
1 0 189
3 105 114 115
1 0 190
3 105 115 106
1 0 191
3 106 115 116
1 0 192
3 106 116 107
1 0 193
3 107 116 117
1 0 194
3 107 117 108
1 0 195
3 108 117 118
1 0 196
3 108 118 109
1 0 197
3 109 118 119
1 0 198
3 109 119 110
1 0 199
3 110 119 121
1 0 200
3 110 121 112
1 0 201
3 113 122 123
1 0 202
3 113 123 114
1 0 203
3 114 123 124
1 0 204
3 114 124 115
1 0 205
3 115 124 125
1 0 206
3 115 125 116
1 0 207
3 116 125 126
1 0 208
3 116 126 117
1 0 209
3 117 126 127
1 0 210
3 117 127 118
1 0 211
3 118 127 128
1 0 212
3 118 128 119
1 0 213
3 119 128 130
1 0 214
3 119 130 121
0
0
