424  3  0  0
   0    -0.94068200972146476  -0.87750773421743211  0.085125449679155155
   1    -0.94068200972146476  -0.87750773421743211  -0.94999999999999996
   2    -0.93990721352711359  -0.62791349160706778  0.080807806856147274
   3    -0.93990721352711359  -0.62791349160706778  -0.94999999999999996
   4    -0.94005565237419342  -0.38026637377745298  0.11118862449690736
   5    -0.94005565237419342  -0.38026637377745298  -0.94999999999999996
   6    -0.93868876760568287  -0.13047854518006236  0.10319385316360344
   7    -0.93868876760568287  -0.13047854518006236  -0.94999999999999996
   8    -0.93725326445295154  0.12214738957883879  0.044373500231884543
   9    -0.93725326445295154  0.12214738957883879  -0.94999999999999996
  10    -0.93566823470851257  0.37204476437376099  0.034384395963399685
  11    -0.93566823470851257  0.37204476437376099  -0.94999999999999996
  12    -0.93202114582541173  0.61910336835380408  0.075225942446795618
  13    -0.93202114582541173  0.61910336835380408  -0.94999999999999996
  14    -0.92955168418478107  0.86849586381783617  0.074562591149192836
  15    -0.92955168418478107  0.86849586381783617  -0.94999999999999996
  16    -0.81455972890006723  -0.8764152286774799  0.06391072864805751
  17    -0.81455972890006723  -0.8764152286774799  -0.94999999999999996
  18    -0.81426197823842772  -0.62692383800678275  0.06420559616626062
  19    -0.81426197823842772  -0.62692383800678275  -0.94999999999999996
  20    -0.8148035428066982  -0.3792576574364499  0.10206551375752054
  21    -0.8148035428066982  -0.3792576574364499  -0.94999999999999996
  22    -0.81366970274360251  -0.12967285242302845  0.10088543418387974
  23    -0.81366970274360251  -0.12967285242302845  -0.94999999999999996
  24    -0.81231991524222258  0.12275394946208004  0.041248284892623763
  25    -0.81231991524222258  0.12275394946208004  -0.94999999999999996
  26    -0.81083909190819858  0.37276636741265878  0.030790446239472108
  27    -0.81083909190819858  0.37276636741265878  -0.94999999999999996
  28    -0.80722056550165167  0.62011037797536783  0.074940144422671745
  29    -0.80722056550165167  0.62011037797536783  -0.94999999999999996
  30    -0.80447647590527249  0.86934397131661734  0.080574722702111079
  31    -0.80447647590527249  0.86934397131661734  -0.94999999999999996
  32    -0.68849019340848439  -0.87560660585159011  0.044284317334589027
  33    -0.68849019340848439  -0.87560660585159011  -0.94999999999999996
  34    -0.68874398757993527  -0.62614302823099521  0.048926515041312998
  35    -0.68874398757993527  -0.62614302823099521  -0.94999999999999996
  36    -0.68936572395130069  -0.37804444571473972  0.086049781437860462
  37    -0.68936572395130069  -0.37804444571473972  -0.94999999999999996
  38    -0.68856064230621372  -0.12899795262611974  0.10138811011985355
  39    -0.68856064230621372  -0.12899795262611974  -0.94999999999999996
  40    -0.68706490769653827  0.12234589895672257  0.061516859982256457
  41    -0.68706490769653827  0.12234589895672257  -0.94999999999999996
  42    -0.68533436871347941  0.37237915110666053  0.052127464749558636
  43    -0.68533436871347941  0.37237915110666053  -0.94999999999999996
  44    -0.68211682458419898  0.62071697856286034  0.082656373455507387
  45    -0.68211682458419898  0.62071697856286034  -0.94999999999999996
  46    -0.67980968010077025  0.870384082908642  0.081270192210130709
  47    -0.67980968010077025  0.870384082908642  -0.94999999999999996
  48    -0.56342933576764798  -0.87549202590878394  0.039921145177260212
  49    -0.56342933576764798  -0.87549202590878394  -0.94999999999999996
  50    -0.56405515958522534  -0.6260365333748833  0.049066968467313413
  51    -0.56405515958522534  -0.6260365333748833  -0.94999999999999996
  52    -0.56404232604086613  -0.37705994885204308  0.070954625902634724
  53    -0.56404232604086613  -0.37705994885204308  -0.94999999999999996
  54    -0.56337398399523919  -0.12824330921691157  0.099254167087930251
  55    -0.56337398399523919  -0.12824330921691157  -0.94999999999999996
  56    -0.56163312833321433  0.12183099519911827  0.091867300665253324
  57    -0.56163312833321433  0.12183099519911827  -0.94999999999999996
  58    -0.55951184568510448  0.37180376536834847  0.085828774542029349
  59    -0.55951184568510448  0.37180376536834847  -0.94999999999999996
  60    -0.55718073957141401  0.62140673688032133  0.088753570877347907
  61    -0.55718073957141401  0.62140673688032133  -0.94999999999999996
  62    -0.5560252198409642  0.87177745303470422  0.06965028440659897
  63    -0.5560252198409642  0.87177745303470422  -0.94999999999999996
  64    -0.43977005885832177  -0.87588472274549545  0.054809837116989515
  65    -0.43977005885832177  -0.87588472274549545  -0.94999999999999996
  66    -0.44002165533732196  -0.62623452294492599  0.062126305657114383
  67    -0.44002165533732196  -0.62623452294492599  -0.94999999999999996
  68    -0.43890389181131861  -0.3763509082796711  0.059117190460685615
  69    -0.43890389181131861  -0.3763509082796711  -0.94999999999999996
  70    -0.43813267080710883  -0.12719210999556749  0.084744325408073765
  71    -0.43813267080710883  -0.12719210999556749  -0.94999999999999996
  72    -0.43639489403665965  0.12221543165349258  0.10289733321965124
  73    -0.43639489403665965  0.12221543165349258  -0.94999999999999996
  74    -0.43418363169184881  0.3720950684961114  0.10233373178728883
  75    -0.43418363169184881  0.3720950684961114  -0.94999999999999996
  76    -0.43280862241749019  0.62243194624118481  0.082944937581920564
  77    -0.43280862241749019  0.62243194624118481  -0.94999999999999996
  78    -0.43225568722948637  0.87298033596730717  0.056747098121831915
  79    -0.43225568722948637  0.87298033596730717  -0.94999999999999996
  80    -0.31643899108788487  -0.87607361143509332  0.072889062805267676
  81    -0.31643899108788487  -0.87607361143509332  -0.94999999999999996
  82    -0.31580653336740461  -0.62615966601136286  0.072469360771701199
  83    -0.31580653336740461  -0.62615966601136286  -0.94999999999999996
  84    -0.31382816635167465  -0.37583087036373231  0.049483153638860002
  85    -0.31382816635167465  -0.37583087036373231  -0.94999999999999996
  86    -0.31291678479387974  -0.12616018167805443  0.061419335758646568
  87    -0.31291678479387974  -0.12616018167805443  -0.94999999999999996
  88    -0.31150012155311341  0.12328630369878307  0.086667768408989376
  89    -0.31150012155311341  0.12328630369878307  -0.94999999999999996
  90    -0.30960318785084273  0.37312756682675352  0.091557889901095341
  91    -0.30960318785084273  0.37312756682675352  -0.94999999999999996
  92    -0.30878187895551257  0.62350290240745188  0.068010839927046401
  93    -0.30878187895551257  0.62350290240745188  -0.94999999999999996
  94    -0.30763786193787712  0.8737175572435012  0.05469313136910571
  95    -0.30763786193787712  0.8737175572435012  -0.94999999999999996
  96    -0.19250783660483639  -0.87581227469601486  0.082003045731939422
  97    -0.19250783660483639  -0.87581227469601486  -0.94999999999999996
  98    -0.19130468903813239  -0.62579651779057799  0.078572674610340426
  99    -0.19130468903813239  -0.62579651779057799  -0.94999999999999996
 100    -0.1889512713389368  -0.37548560055581032  0.048173745022437764
 101    -0.1889512713389368  -0.37548560055581032  -0.94999999999999996
 102    -0.18783505346196069  -0.12548979510716948  0.042770147420586414
 103    -0.18783505346196069  -0.12548979510716948  -0.94999999999999996
 104    -0.18676025042386241  0.12425597811354397  0.06066120312942988
 105    -0.18676025042386241  0.12425597811354397  -0.94999999999999996
 106    -0.18518623332060644  0.37410801041505976  0.072822281388278773
 107    -0.18518623332060644  0.37410801041505976  -0.94999999999999996
 108    -0.18432666496040057  0.62425208418278622  0.060146351520457213
 109    -0.18432666496040057  0.62425208418278622  -0.94999999999999996
 110    -0.18190490909597049  0.87416971165543034  0.06839933603513329
 111    -0.18190490909597049  0.87416971165543034  -0.94999999999999996
 112    -0.067627624430254857  -0.87529472411496423  0.07822482448463719
 113    -0.067627624430254857  -0.87529472411496423  -0.94999999999999996
 114    -0.06679877854470366  -0.6252941817035772  0.08663230040468857
 115    -0.06679877854470366  -0.6252941817035772  -0.94999999999999996
 116    -0.064600236091567093  -0.37518427124452625  0.067085080599472269
 117    -0.064600236091567093  -0.37518427124452625  -0.94999999999999996
 118    -0.063036292132411798  -0.12513417897913928  0.045481630962589864
 119    -0.063036292132411798  -0.12513417897913928  -0.94999999999999996
 120    -0.06197045754501513  0.1248165257145146  0.044362897091243463
 121    -0.06197045754501513  0.1248165257145146  -0.94999999999999996
 122    -0.060367242593194377  0.37474692098911605  0.065385621544762407
 123    -0.060367242593194377  0.37474692098911605  -0.94999999999999996
 124    -0.058866708630196184  0.62475782991940698  0.071961855761903185
 125    -0.058866708630196184  0.62475782991940698  -0.94999999999999996
 126    -0.055545664508706412  0.87468125142904274  0.09265347038276589
 127    -0.055545664508706412  0.87468125142904274  -0.94999999999999996
 128    0.057947871170773137  -0.87476846008375797  0.064331514655004307
 129    0.057947871170773137  -0.87476846008375797  -0.94999999999999996
 130    0.058060743393322997  -0.62466101568755106  0.088699731587588024
 131    0.058060743393322997  -0.62466101568755106  -0.94999999999999996
 132    0.059541073329569219  -0.37457544834177509  0.096778719092625184
 133    0.059541073329569219  -0.37457544834177509  -0.94999999999999996
 134    0.061540902906725772  -0.12467018021366133  0.070785821922507805
 135    0.061540902906725772  -0.12467018021366133  -0.94999999999999996
 136    0.062928710221753004  0.12518275114489941  0.045047728346447061
 137    0.062928710221753004  0.12518275114489941  -0.94999999999999996
 138    0.064701388974095331  0.37524704138601978  0.06692435489620846
 139    0.064701388974095331  0.37524704138601978  -0.94999999999999996
 140    0.066844156966088697  0.62534161976766123  0.089128064037664295
 141    0.066844156966088697  0.62534161976766123  -0.94999999999999996
 142    0.06983070281993374  0.87537095181413493  0.10508265280644832
 143    0.06983070281993374  0.87537095181413493  -0.94999999999999996
 144    0.18315447935785226  -0.87429250617295318  0.05439912455258647
 145    0.18315447935785226  -0.87429250617295318  -0.94999999999999996
 146    0.1834540821246391  -0.62407026235496077  0.078722088832542503
 147    0.1834540821246391  -0.62407026235496077  -0.94999999999999996
 148    0.18417141245428573  -0.37369983846488297  0.11146525455613066
 149    0.18417141245428573  -0.37369983846488297  -0.94999999999999996
 150    0.18622935236346905  -0.12389934662228332  0.094193002603691539
 151    0.18622935236346905  -0.12389934662228332  -0.94999999999999996
 152    0.1878696479305467  0.12557197223966776  0.051486767304479611
 153    0.1878696479305467  0.12557197223966776  -0.94999999999999996
 154    0.1894877993225568  0.37563700133389399  0.062451806327587782
 155    0.1894877993225568  0.37563700133389399  -0.94999999999999996
 156    0.19152151419777444  0.62586602770578359  0.086369206562991116
 157    0.19152151419777444  0.62586602770578359  -0.94999999999999996
 158    0.19336205223753478  0.87587839315576299  0.091492789659869428
 159    0.19336205223753478  0.87587839315576299  -0.94999999999999996
 160    0.30758531005785023  -0.87370359951325716  0.054522677984232437
 161    0.30758531005785023  -0.87370359951325716  -0.94999999999999996
 162    0.30912260494878685  -0.62369983374181892  0.061147393865608961
 163    0.30912260494878685  -0.62369983374181892  -0.94999999999999996
 164    0.30943483586965104  -0.37297655463261731  0.10352952748128066
 165    0.30943483586965104  -0.37297655463261731  -0.94999999999999996
 166    0.31118960803109774  -0.12310388640279794  0.099448225795158524
 167    0.31118960803109774  -0.12310388640279794  -0.94999999999999996
 168    0.31278777119119638  0.12593647147058779  0.052223436909865251
 169    0.31278777119119638  0.12593647147058779  -0.94999999999999996
 170    0.31390232871474494  0.37575570122315494  0.048111872648533449
 171    0.31390232871474494  0.37575570122315494  -0.94999999999999996
 172    0.31521289043969419  0.62596410948148951  0.064268445024474291
 173    0.31521289043969419  0.62596410948148951  -0.94999999999999996
 174    0.31597984212165636  0.87587482863679056  0.063829622004644426
 175    0.31597984212165636  0.87587482863679056  -0.94999999999999996
 176    0.43214913385939446  -0.87311534825158388  0.052797173013185303
 177    0.43214913385939446  -0.87311534825158388  -0.94999999999999996
 178    0.43507445268562361  -0.62372042876475164  0.036862865348178182
 179    0.43507445268562361  -0.62372042876475164  -0.94999999999999996
 180    0.43512894088546988  -0.37273582881813994  0.080022975400787719
 181    0.43512894088546988  -0.37273582881813994  -0.94999999999999996
 182    0.43634201509849857  -0.12243235307551337  0.095356966992043699
 183    0.43634201509849857  -0.12243235307551337  -0.94999999999999996
 184    0.43782756826191305  0.12651469850843899  0.059304885012626596
 185    0.43782756826191305  0.12651469850843899  -0.94999999999999996
 186    0.43857454955532227  0.37592967460449966  0.043256070430883815
 187    0.43857454955532227  0.37592967460449966  -0.94999999999999996
 188    0.43923899802808974  0.62590967715627477  0.048880019579904468
 189    0.43923899802808974  0.62590967715627477  -0.94999999999999996
 190    0.48932666454614165  0.97910228176123415  0.020829346072659138
 191    0.48932666454614165  0.97910228176123415  -0.94999999999999996
 192    0.44498728365320267  0.88798433263190102  0.038507891661501467
 193    0.44498728365320267  0.88798433263190102  -0.94999999999999996
 194    0.55738761395287628  -0.87272001876964722  0.043284825625926643
 195    0.55738761395287628  -0.87272001876964722  -0.94999999999999996
 196    0.56075780435759592  -0.62380843429042654  0.017998015986342437
 197    0.56075780435759592  -0.62380843429042654  -0.94999999999999996
 198    0.56081288172524946  -0.37285143618914096  0.05419039789870516
 199    0.56081288172524946  -0.37285143618914096  -0.94999999999999996
 200    0.56159762735880236  -0.12192653879810811  0.088059119841534236
 201    0.56159762735880236  -0.12192653879810811  -0.94999999999999996
 202    0.5630601888747524  0.12755059633631777  0.077981181519270304
 203    0.5630601888747524  0.12755059633631777  -0.94999999999999996
 204    0.56387989156060803  0.37667784207584554  0.059048885884006461
 205    0.56387989156060803  0.37667784207584554  -0.94999999999999996
 206    0.5644510758809973  0.62635808561172612  0.056926912065415614
 207    0.5644510758809973  0.62635808561172612  -0.94999999999999996
 208    0.56193659341209301  0.9661819724873939  0.020130825207295328
 209    0.56193659341209301  0.9661819724873939  -0.94999999999999996
 210    0.56363137319514167  0.84208159827899176  0.04251400247516067
 211    0.56363137319514167  0.84208159827899176  -0.94999999999999996
 212    0.68258902038665914  -0.87222710908664214  0.036945122220728453
 213    0.68258902038665914  -0.87222710908664214  -0.94999999999999996
 214    0.68520139081515186  -0.623045586331886  0.024708850513268252
 215    0.68520139081515186  -0.623045586331886  -0.94999999999999996
 216    0.68588436831342647  -0.37263548910749028  0.044241742031280222
 217    0.68588436831342647  -0.37263548910749028  -0.94999999999999996
 218    0.68683033700532237  -0.12171096966541874  0.076041995916158456
 219    0.68683033700532237  -0.12171096966541874  -0.94999999999999996
 220    0.68825221380502155  0.12848435887376133  0.088763286433355418
 221    0.68825221380502155  0.12848435887376133  -0.94999999999999996
 222    0.6892761228288582  0.3776215969637895  0.076099040846994162
 223    0.6892761228288582  0.3776215969637895  -0.94999999999999996
 224    0.69013571763185011  0.62718313210806254  0.073945577396140258
 225    0.69013571763185011  0.62718313210806254  -0.94999999999999996
 226    0.66582697860937046  0.97580701488862431  0.026306996800704047
 227    0.66582697860937046  0.97580701488862431  -0.94999999999999996
 228    0.70108863883806305  0.88652360491127491  0.052625039345977266
 229    0.70108863883806305  0.88652360491127491  -0.94999999999999996
 230    0.80701366427945809  -0.87117332548012572  0.042285385237234602
 231    0.80701366427945809  -0.87117332548012572  -0.94999999999999996
 232    0.80873062313461652  -0.62124643226724907  0.050337669173662239
 233    0.80873062313461652  -0.62124643226724907  -0.94999999999999996
 234    0.81038603873104098  -0.37170549085853954  0.051747649196136822
 235    0.81038603873104098  -0.37170549085853954  -0.94999999999999996
 236    0.8119346803011136  -0.12172053228601556  0.062651215746852645
 237    0.8119346803011136  -0.12172053228601556  -0.94999999999999996
 238    0.81320670917271554  0.12861006931300079  0.079876939438310535
 239    0.81320670917271554  0.12861006931300079  -0.94999999999999996
 240    0.81410258660994539  0.37777966934521545  0.072966769566525702
 241    0.81410258660994539  0.37777966934521545  -0.94999999999999996
 242    0.815042114648588  0.62740045967809532  0.075224847786718521
 243    0.815042114648588  0.62740045967809532  -0.94999999999999996
 244    0.8144579454557952  0.87653069336954759  0.06688051491143393
 245    0.8144579454557952  0.87653069336954759  -0.94999999999999996
 246    0.93078891263634767  -0.8695184951121665  0.055746503283871041
 247    0.93078891263634767  -0.8695184951121665  -0.94999999999999996
 248    0.93220748858166103  -0.61895185171601363  0.077268837982041677
 249    0.93220748858166103  -0.61895185171601363  -0.94999999999999996
 250    0.93468803523629806  -0.37014871784327885  0.067948545155924689
 251    0.93468803523629806  -0.37014871784327885  -0.94999999999999996
 252    0.93689089795746505  -0.12147195389528688  0.05680218308481972
 253    0.93689089795746505  -0.12147195389528688  -0.94999999999999996
 254    0.93806599632302334  0.12838625366327766  0.066365647109241283
 255    0.93806599632302334  0.12838625366327766  -0.94999999999999996
 256    0.93867162278143512  0.37742471706696606  0.061018602611463191
 257    0.93867162278143512  0.37742471706696606  -0.94999999999999996
 258    0.93944368362414599  0.62708857720065869  0.066738489222529535
 259    0.93944368362414599  0.62708857720065869  -0.94999999999999996
 260    0.93978650658659668  0.87692871465784794  0.075172195523018681
 261    0.93978650658659668  0.87692871465784794  -0.94999999999999996
 262    -0.71999999999999997  -0.46625  -0.73124999999999996
 263    -0.72999999999999998  -0.47749999999999998  -0.48125000000000001
 264    -0.73999999999999999  -0.48875000000000002  -0.23125000000000001
 265    -0.73499999999999999  -0.21625  -0.74062499999999998
 266    -0.73999999999999999  -0.22750000000000001  -0.49062499999999998
 267    -0.745  -0.23874999999999999  -0.24062500000000001
 268    -0.75  0.033750000000000002  -0.75
 269    -0.75  0.022499999999999999  -0.5
 270    -0.75  0.01125  -0.25
 271    -0.76500000000000001  0.28375  -0.75937500000000002
 272    -0.76000000000000001  0.27250000000000002  -0.50937500000000002
 273    -0.755  0.26124999999999998  -0.25937500000000002
 274    -0.78000000000000003  0.53374999999999995  -0.76875000000000004
 275    -0.77000000000000002  0.52249999999999996  -0.51875000000000004
 276    -0.76000000000000001  0.51124999999999998  -0.26874999999999999
 277    -0.59499999999999997  -0.47187499999999999  -0.734375
 278    -0.60499999999999998  -0.48125000000000001  -0.484375
 279    -0.61499999999999999  -0.49062499999999998  -0.234375
 280    -0.60999999999999999  -0.22187499999999999  -0.7421875
 281    -0.62  -0.24062500000000001  -0.2421875
 282    -0.625  0.028124999999999997  -0.75
 283    -0.625  0.0093749999999999997  -0.25
 284    -0.64000000000000001  0.27812500000000001  -0.7578125
 285    -0.63  0.25937500000000002  -0.2578125
 286    -0.65500000000000003  0.52812499999999996  -0.765625
 287    -0.64500000000000002  0.51875000000000004  -0.515625
 288    -0.63500000000000001  0.50937500000000002  -0.265625
 289    -0.46999999999999997  -0.47749999999999998  -0.73750000000000004
 290    -0.47999999999999998  -0.48499999999999999  -0.48749999999999999
 291    -0.48999999999999999  -0.49249999999999999  -0.23749999999999999
 292    -0.48499999999999999  -0.22750000000000001  -0.74375000000000002
 293    -0.495  -0.24249999999999999  -0.24374999999999999
 294    -0.5  0.022499999999999999  -0.75
 295    -0.5  0.0074999999999999997  -0.25
 296    -0.51500000000000001  0.27250000000000002  -0.75624999999999998
 297    -0.505  0.25750000000000001  -0.25624999999999998
 298    -0.53000000000000003  0.52249999999999996  -0.76249999999999996
 299    -0.52000000000000002  0.51500000000000001  -0.51249999999999996
 300    -0.51000000000000001  0.50749999999999995  -0.26250000000000001
 301    -0.34499999999999997  -0.48312500000000003  -0.74062499999999998
 302    -0.35499999999999998  -0.48875000000000002  -0.49062499999999998
 303    -0.36499999999999999  -0.49437500000000001  -0.24062500000000001
 304    -0.35999999999999999  -0.233125  -0.74531250000000004
 305    -0.37  -0.24437500000000001  -0.24531249999999999
 306    -0.375  0.016875000000000001  -0.75
 307    -0.375  0.0056249999999999998  -0.25
 308    -0.39000000000000001  0.26687499999999997  -0.75468749999999996
 309    -0.38  0.25562499999999999  -0.25468750000000001
 310    -0.40500000000000003  0.51687499999999997  -0.75937500000000002
 311    -0.39500000000000002  0.51124999999999998  -0.50937500000000002
 312    -0.38500000000000001  0.50562499999999999  -0.25937500000000002
 313    -0.22  -0.48875000000000002  -0.74375000000000002
 314    -0.23000000000000001  -0.49249999999999999  -0.49375000000000002
 315    -0.23999999999999999  -0.49625000000000002  -0.24374999999999999
 316    -0.23499999999999999  -0.23874999999999999  -0.74687499999999996
 317    -0.245  -0.24625  -0.24687500000000001
 318    -0.25  0.01125  -0.75
 319    -0.25  0.0037499999999999999  -0.25
 320    -0.26500000000000001  0.26124999999999998  -0.75312500000000004
 321    -0.255  0.25374999999999998  -0.25312499999999999
 322    -0.28000000000000003  0.51124999999999998  -0.75624999999999998
 323    -0.27000000000000002  0.50749999999999995  -0.50624999999999998
 324    -0.26000000000000001  0.50375000000000003  -0.25624999999999998
 325    -0.095000000000000001  -0.49437500000000001  -0.74687499999999996
 326    -0.105  -0.49625000000000002  -0.49687500000000001
 327    -0.115  -0.49812499999999998  -0.24687500000000001
 328    -0.11  -0.24437500000000001  -0.74843749999999998
 329    -0.12  -0.24812500000000001  -0.24843750000000001
 330    -0.125  0.0056249999999999998  -0.75
 331    -0.125  0.0018749999999999999  -0.25
 332    -0.14000000000000001  0.25562499999999999  -0.75156250000000002
 333    -0.13  0.25187500000000002  -0.25156250000000002
 334    -0.155  0.50562499999999999  -0.75312500000000004
 335    -0.14499999999999999  0.50375000000000003  -0.50312500000000004
 336    -0.13500000000000001  0.50187499999999996  -0.25312499999999999
 337    0.029999999999999999  -0.5  -0.75
 338    0.02  -0.5  -0.5
 339    0.01  -0.5  -0.25
 340    0.014999999999999999  -0.25  -0.75
 341    0.0050000000000000001  -0.25  -0.25
 342    0  0  -0.75
 343    0  0  -0.25
 344    -0.014999999999999999  0.25  -0.75
 345    -0.0050000000000000001  0.25  -0.25
 346    -0.029999999999999999  0.5  -0.75
 347    -0.02  0.5  -0.5
 348    -0.01  0.5  -0.25
 349    0.155  -0.50562499999999999  -0.75312500000000004
 350    0.14499999999999999  -0.50375000000000003  -0.50312500000000004
 351    0.13500000000000001  -0.50187499999999996  -0.25312499999999999
 352    0.14000000000000001  -0.25562499999999999  -0.75156250000000002
 353    0.13  -0.25187500000000002  -0.25156250000000002
 354    0.125  -0.0056249999999999998  -0.75
 355    0.125  -0.0018749999999999999  -0.25
 356    0.11  0.24437500000000001  -0.74843749999999998
 357    0.12  0.24812500000000001  -0.24843750000000001
 358    0.095000000000000001  0.49437500000000001  -0.74687499999999996
 359    0.105  0.49625000000000002  -0.49687500000000001
 360    0.115  0.49812499999999998  -0.24687500000000001
 361    0.28000000000000003  -0.51124999999999998  -0.75624999999999998
 362    0.27000000000000002  -0.50749999999999995  -0.50624999999999998
 363    0.26000000000000001  -0.50375000000000003  -0.25624999999999998
 364    0.26500000000000001  -0.26124999999999998  -0.75312500000000004
 365    0.255  -0.25374999999999998  -0.25312499999999999
 366    0.25  -0.01125  -0.75
 367    0.25  -0.0037499999999999999  -0.25
 368    0.23499999999999999  0.23874999999999999  -0.74687499999999996
 369    0.245  0.24625  -0.24687500000000001
 370    0.22  0.48875000000000002  -0.74375000000000002
 371    0.23000000000000001  0.49249999999999999  -0.49375000000000002
 372    0.23999999999999999  0.49625000000000002  -0.24374999999999999
 373    0.40500000000000003  -0.51687499999999997  -0.75937500000000002
 374    0.39500000000000002  -0.51124999999999998  -0.50937500000000002
 375    0.38500000000000001  -0.50562499999999999  -0.25937500000000002
 376    0.39000000000000001  -0.26687499999999997  -0.75468749999999996
 377    0.38  -0.25562499999999999  -0.25468750000000001
 378    0.375  -0.016875000000000001  -0.75
 379    0.375  -0.0056249999999999998  -0.25
 380    0.35999999999999999  0.233125  -0.74531250000000004
 381    0.37  0.24437500000000001  -0.24531249999999999
 382    0.34499999999999997  0.48312500000000003  -0.74062499999999998
 383    0.35499999999999998  0.48875000000000002  -0.49062499999999998
 384    0.36499999999999999  0.49437500000000001  -0.24062500000000001
 385    0.53000000000000003  -0.52249999999999996  -0.76249999999999996
 386    0.52000000000000002  -0.51500000000000001  -0.51249999999999996
 387    0.51000000000000001  -0.50749999999999995  -0.26250000000000001
 388    0.51500000000000001  -0.27250000000000002  -0.75624999999999998
 389    0.505  -0.25750000000000001  -0.25624999999999998
 390    0.5  -0.022499999999999999  -0.75
 391    0.5  -0.0074999999999999997  -0.25
 392    0.48499999999999999  0.22750000000000001  -0.74375000000000002
 393    0.495  0.24249999999999999  -0.24374999999999999
 394    0.46999999999999997  0.47749999999999998  -0.73750000000000004
 395    0.47999999999999998  0.48499999999999999  -0.48749999999999999
 396    0.48999999999999999  0.49249999999999999  -0.23749999999999999
 397    0.65500000000000003  -0.52812499999999996  -0.765625
 398    0.64500000000000002  -0.51875000000000004  -0.515625
 399    0.63500000000000001  -0.50937500000000002  -0.265625
 400    0.64000000000000001  -0.27812500000000001  -0.7578125
 401    0.63  -0.25937500000000002  -0.2578125
 402    0.625  -0.028124999999999997  -0.75
 403    0.625  -0.0093749999999999997  -0.25
 404    0.60999999999999999  0.22187499999999999  -0.7421875
 405    0.62  0.24062500000000001  -0.2421875
 406    0.59499999999999997  0.47187499999999999  -0.734375
 407    0.60499999999999998  0.48125000000000001  -0.484375
 408    0.61499999999999999  0.49062499999999998  -0.234375
 409    0.78000000000000003  -0.53374999999999995  -0.76875000000000004
 410    0.77000000000000002  -0.52249999999999996  -0.51875000000000004
 411    0.76000000000000001  -0.51124999999999998  -0.26874999999999999
 412    0.76500000000000001  -0.28375  -0.75937500000000002
 413    0.76000000000000001  -0.27250000000000002  -0.50937500000000002
 414    0.755  -0.26124999999999998  -0.25937500000000002
 415    0.75  -0.033750000000000002  -0.75
 416    0.75  -0.022499999999999999  -0.5
 417    0.75  -0.01125  -0.25
 418    0.73499999999999999  0.21625  -0.74062499999999998
 419    0.73999999999999999  0.22750000000000001  -0.49062499999999998
 420    0.745  0.23874999999999999  -0.24062500000000001
 421    0.71999999999999997  0.46625  -0.73124999999999996
 422    0.72999999999999998  0.47749999999999998  -0.48125000000000001
 423    0.73999999999999999  0.48875000000000002  -0.23125000000000001
# Generated by /tmp/dc-viability.8juxjd/tetgen-build/tetgen -pYM /tmp/dc-viability.8juxjd/shell-n8-phase2.poly
