1632  4  0
    0     207   211   402   205
    1     285    49   298   286
    2      68    84    66   461
    3     299   311   459   461
    4     186   202   435   439
    5     436   452   184   182
    6      32    16    18   467
    7     361   132   454   457
    8     365   353   351   440
    9       6    24    22   466
   10     297    51    67    49
   11     147   145   369   357
   12     409   397   395   464
   13      65    80    81   310
   14     275     4   272   469
   15     118   100   102   444
   16     454   371   457   456
   17      71    89   314    87
   18     215   235   217   417
   19      42    44   449   451
   20     293    40   448   462
   21     435   389   184   470
   22     112   334   346   113
   23     233   255   417   253
   24     270   274   273     5
   25      78    94    76   453
   26      48   298    64    49
   27     337   349   442   444
   28     332   453   463    94
   29      78    76    60   453
   30     107   125   342   123
   31     297    49    67    65
   32     322    96    97   334
   33     198   182   452   464
   34      43   292   294   279
   35     318   331   330    95
   36      91   109    93   330
   37     320   305   317   448
   38     186   206   202   439
   39     201   223   412   221
   40      84   461   468    82
   41     107   340   342   328
   42     140   368   126   142
   43     453   295    46    62
   44       9    27   279    25
   45     372   165   369   149
   46      63    79   307   306
   47     330   343   111   331
   48     314    73   316    89
   49     276   273    23    39
   50      57    75    59   304
   51      39    57    41   290
   52     342   330   111   109
   53     117   135   348   133
   54       9    27    11   279
   55      21    39    23   273
   56     274   271     4     5
   57     204   210   208   472
   58     313   301   299   459
   59       3   271   270     5
   60     271   274   270     5
   61     112   128   346   347
   62     266   472   242   246
   63     340   123   342   354
   64      54    52    68    70
   65      10   281    24     8
   66     308   320   307   453
   67     277   274   278     6
   68     343   331   110   111
   69     154   470   465   170
   70     184   389   447   470
   71       6   274   275     4
   72      80   323    98    96
   73     350   119   135   348
   74      77    95    79   318
   75      48   287   299   286
   76       9    10     8   280
   77      80   311   461   323
   78      28    12    26    10
   79     326   314    89    87
   80      61    63   294   306
   81     287   271    32   272
   82     198   196   182   464
   83     117   135   119   348
   84     340   326   328   105
   85     397   409   411   452
   86     369   145   370   357
   87     176   177   161   382
   88     228   224   204   472
   89     113   334   333    97
   90     422   419   254   460
   91     416   206   439   226
   92      42    26   451   462
   93      90    92   106   463
   94     404   392   439   472
   95     258   260   428   471
   96     113   334   346   333
   97     442    86    88   446
   98     136   134   120   440
   99      86   102   100   444
  100     124   122   108   441
  101      72    74    90   448
  102     256   422   254   458
  103     138   156   465   140
  104     383   176   395   450
  105     180   164   450   456
  106     140   356   126   368
  107     422   256   455   458
  108     272   443   287   469
  109     106   437   432   104
  110      28    42    26   451
  111     140   142   158   465
  112      93    95   318   330
  113     234   236   256   254
  114      45    47   282   294
  115     316    89    91   328
  116     342   355   354   127
  117     156   174   172   465
  118     272   289   275   469
  119     161   179   381   177
  120     456   130   144   146
  121      40   281   278    24
  122     167   185   386   183
  123     312    69   300    71
  124     122   124   138   441
  125     122   106   108   441
  126      86    84    68    70
  127     236   256   254   458
  128      47    62    46   295
  129     437   106    90    88
  130      52    54    68   433
  131     203   402   400   414
  132     200   198   452   455
  133     192   407   214   212
  134     169   388   386   185
  135     120   104   440   442
  136     222   431   226   471
  137     325   337   442   444
  138     164   180   450   457
  139      88   104   102   442
  140     269   263   430   267
  141      69   309   312   297
  142     218   198   220   455
  143     313   325   327   446
  144     290   292    41   276
  145     130   359   347   454
  146     452   436   184   387
  147     109   127   111   342
  148      91   109   330   107
  149      76    94    92   453
  150     223   245   429   241
  151       6    22     4   469
  152      22   278     6   466
  153     385   383   397   464
  154      62    44   453    60
  155     458   236   216   234
  156     127   367   355   354
  157     293   305   308   449
  158      20    22    38   469
  159     410   426   423   221
  160     381   163   161   369
  161     344   341   356   438
  162     334   112    97   113
  163     185   388   386   400
  164     321    97   333   334
  165      56    72   437   448
  166     337   339   325   442
  167     395   394   192   382
  168     169   187   171   388
  169     211   472   209   210
  170     285    33   286   270
  171     269   263   265   430
  172     300   285    53   297
  173     185   203   400   201
  174      64   311    80   310
  175     232   212   214   419
  176      19    37    21   270
  177      98   323   461   468
  178      48   467    32    50
  179      81   310   309    65
  180     375   363   361   436
  181      45    63   294    61
  182     420   424   421   257
  183      58    74    56   448
  184      97   115   333   113
  185     298    49    48   286
  186       3    21     5   270
  187     144   160   371   456
  188     434   256   455   425
  189     293   281   278    40
  190     139   157   366   155
  191     293   448   449   462
  192     446   459   325   444
  193     472   188   465   439
  194     417   421   255   420
  195     288   273    39    37
  196     431   224   226   242
  197     449    42   451   462
  198     322   310   309    81
  199     169   187   388   185
  200      82    84   100   468
  201       8     6   278   466
  202     273     5    21   270
  203     114   335   112    96
  204      51    69    53   297
  205      24   281   278     8
  206     463   441   344   108
  207     297    65   309   310
  208     166   182   164   464
  209     385   387   373   436
  210      49    33   286   285
  211      18    16     2   467
  212      12    30   451    14
  213       3     1   270   271
  214      19     1   270     3
  215      17    35    19   270
  216      33   271   270    17
  217     147   357   369   149
  218     325   444   459   468
  219     134   132   361   457
  220     270    33   286   271
  221      17     1   270    19
  222      17   271   270     1
  223     309    83    85   321
  224     277     9     8   280
  225     311   325   313   459
  226      86    84    70   459
  227     270    35   285    33
  228      33    51    35   285
  229     173   191   390   189
  230     314   312    87   326
  231     422   409   407   460
  232     236   238   256   455
  233      33   271    32    48
  234      26   284   462    10
  235     256   236   455   458
  236     297    65    67   309
  237     176   192   395   450
  238     128   114   347   112
  239      52   467    34    36
  240     375   361   373   436
  241     392   380   377   470
  242     322   334   335    96
  243     333   336   117   101
  244     220   240   238   471
  245     384   396   181   183
  246      97   115    99   333
  247      83   101    85   321
  248     242   224   246   472
  249      35    53   285    51
  250      65    83    67   309
  251     288   285    37    53
  252     310   298   297    65
  253      55    73   302    71
  254     389   435   184   401
  255      51    49   297   285
  256     309   321    85   324
  257      75    93    77   318
  258     298    49   297    65
  259     298   285   297    49
  260      69    87    71   312
  261     155   173   378   171
  262      89   107    91   328
  263     304    59    57   292
  264     321    99   333    97
  265     321    99   101   333
  266      99   117   101   333
  267      50    52    66   443
  268      39   288   290   273
  269     227   205   414   225
  270     129   345   346   358
  271      67   309    69   297
  272     336   321   101   333
  273     469    52    38    36
  274     270   288    37   273
  275      85   103    87   324
  276      97   334   321   322
  277     324   321   101   336
  278     319   332    94   320
  279      81   309   321    83
  280      81    99    83   321
  281     309    81   321   322
  282      97   322   321    81
  283     407   409   395   464
  284     368   441   445   465
  285     312   324    87   326
  286     303    56   437   448
  287     300   297    53    69
  288     120   437   440   104
  289     101   324    85   321
  290     333   348   117   336
  291      83   101   321    99
  292      71   312    87   314
  293     145   163   369   161
  294      48    50    66   461
  295     270    35    37   285
  296     101   119   103   336
  297     251   252   418   250
  298      98   100   116   468
  299     183   201   398   199
  300     384   396   381   181
  301      80    82    98   461
  302      67    85    69   309
  303     335   334   112    96
  304     160   162   178   176
  305      69    85   312   309
  306     324   309   312    85
  307     324   326   103    87
  308     288    55   290   302
  309      82   100    98   468
  310     117   348   119   336
  311     314   312   300    71
  312     288    39   290    55
  313     371   160   383   456
  314     312    85    87   324
  315      41    59    43   292
  316     387   375   436   447
  317     465   138   140   441
  318     101   336   103   324
  319     153   137   362   364
  320      14   283    30   284
  321      91   316   318    75
  322      66    84    82   461
  323     285    51    53   297
  324      54    36    38    52
  325       9   276   277     7
  326     324   326   338   103
  327     103   336   338   324
  328     119   336   338   103
  329     103   121   105   338
  330     326   105   338   103
  331     295   308   307   453
  332     328   316   330    91
  333     448   320   449   463
  334     337   323   335   468
  335       7   273    23   276
  336     273   276   290    39
  337     312   297   300    69
  338     114    96    98   335
  339     431   416   413   471
  340      55    73    57   302
  341     157   175   378   173
  342     288   270    37   285
  343      73    91    75   316
  344     304   292    57   290
  345      25   276   279     9
  346     270   273    37    21
  347     285   300    53   288
  348      42    44    60   449
  349      23    41    25   276
  350     279    43   282   294
  351      37    55    39   288
  352     375   389   377   447
  353      35    53    37   285
  354       5    23     7   273
  355     273   274     7     5
  356      29    47   282    45
  357       7   273   277   274
  358     129   147   357   145
  359      55   302    57   290
  360      53    71    55   300
  361     300   288    55    53
  362     192   176   194   450
  363     323   325   311   459
  364       7    25     9   276
  365      88    90   437   448
  366     276   273   277     7
  367     121   139   123   352
  368     280   276   277     9
  369      22   278   466   275
  370      99   117   333   115
  371     326   314   328    89
  372      21    39   273    37
  373     460   395   464   407
  374      87   105    89   326
  375      71   300   302    55
  376      55   300   302   288
  377      71   314   302   300
  378     290   302    57   304
  379     222   244   240   471
  380     316    89   328   314
  381     101   119   336   117
  382      71    89    73   314
  383     415   431   430   472
  384      29    47    31   282
  385     116   349   454   468
  386     431   413   428   471
  387     472   229   430   415
  388      57   302    73   304
  389      41   290    57   292
  390     290   276    41    39
  391      87   105   326   103
  392     137   155   364   153
  393     279   292    41    43
  394     279   276    41   292
  395      25   276    41   279
  396     302    71    73   314
  397     380   470   465   445
  398      25    43    27   279
  399     340   105   328   107
  400     411   399   397   452
  401     316   304    75    73
  402     318   331    95   319
  403     283   279   280    11
  404     315   327   437   446
  405     389   377   447   470
  406     123   141   125   354
  407     117   115   345   333
  408     202   222   416   226
  409     352   121   340   123
  410      89   105   328   326
  411     177   195   393   193
  412      72    86    70   446
  413     133   151   360   149
  414     294   307    63   295
  415     442    86   102    88
  416     330   107   109   342
  417     354   367   366   143
  418      73   302   316   304
  419     314   302   316    73
  420     237   259   423   257
  421     279   276   280     9
  422     105   123   107   340
  423     326   105   340   338
  424     338   121   340   352
  425     338   105   340   121
  426     200   182   184   452
  427     313   327   315   446
  428     294    43   282    45
  429     246   224   228   472
  430     247   430   243   267
  431       9    11   280   279
  432     316   304   318    75
  433     282   295   294    47
  434       3     4   271     5
  435     340   123   354   352
  436      30   453    46   451
  437     134   363   351   440
  438      91   107   330   328
  439      45    63    47   294
  440     330    91   318    93
  441     294    47   295    63
  442     282   295    47   283
  443     149   167   372   165
  444     447   445   136   152
  445     118   116   100   444
  446      93   111    95   330
  447     123   139   354   352
  448     107   125   109   342
  449     306   319    79   307
  450      74    76    92   463
  451     107   328   342   330
  452     354   123   342   125
  453     340   107   342   123
  454     247   229   225   430
  455     330   316   318    91
  456      47    62   295    63
  457     291    40   278   466
  458      42    60    58   449
  459     126   367   127   142
  460      11    27   282   279
  461     125   143   127   354
  462     342   125   127   354
  463     410   219   423   408
  464      44    62   453    46
  465     413   416   435   471
  466      95   110    94   331
  467     306   292   294    59
  468      56   303   291   305
  469     247   472   229   430
  470      43    61    45   294
  471      43    59   294   292
  472     259   260   427   258
  473      90   432   437   448
  474      56   305   293   448
  475      14    15    30   283
  476     198   452   455   458
  477     319    94   331    95
  478     355   368   126   356
  479      56   462   448    40
  480      27    45    29   282
  481     279    27   282    43
  482      11    29    13   282
  483     465   472   439   392
  484      95    79   319    94
  485     217   237   420   235
  486      20    18     2   467
  487     180   164   182   464
  488     332    92    94   463
  489     158   142   368   465
  490      13    31    15   282
  491     416   431   415   472
  492     132   150   148   457
  493     304   292   306    59
  494     409   411   452   455
  495     449   320   453   463
  496     106   463   441   432
  497      59    77    61   306
  498      61    79    63   306
  499      75   304   306    59
  500     318   304   306    75
  501      77    79   306   318
  502      75    77   306   318
  503     306    59   294    61
  504     330    95   331   111
  505     303    72    56   446
  506     282   279   283    11
  507     282    31   283    47
  508     110   108    92    94
  509      13    15   283   282
  510     244   226   431   471
  511     282    15   283    31
  512     102   442   444   446
  513      48   467   287    32
  514      31    46    30   283
  515     282    11   283    13
  516     283   296    46   284
  517     254   234   458   460
  518     313   315   301   446
  519     127   343   355   126
  520     318    79   319    95
  521     306   319   318    79
  522     467    32    50    34
  523     416   202   226   439
  524     150   134   363   436
  525     303   466    56   291
  526      56   466    40   291
  527     184   436   447   387
  528     463   106   441   108
  529     184   186   435   470
  530     403   416   415   472
  531     287    50   443   467
  532     283   284    46    30
  533      64   299   298    48
  534      56   462    58   448
  535     136   120   122   438
  536     470   380   465   392
  537      38    54   433   466
  538     409   407   460   464
  539     411   409   425   455
  540     299    64   311   461
  541     200   220   198   455
  542     295   453    46   296
  543      17    35   270    33
  544     200   198   182   452
  545     258   238   434   455
  546      74    92    90   463
  547     301   303   289   433
  548      30   453   451   284
  549     238   258   256   455
  550     166   164   457   464
  551     275    22   469   466
  552     142   126   140   124
  553     225   430   429   243
  554     130   456   454   146
  555     325   337   444   468
  556       2     4    20   467
  557     377   380   445   470
  558     120   437   104   438
  559      18    36   467    20
  560      49    33    48   286
  561     397   409   452   464
  562      89   107   328   105
  563     180   178   164   456
  564     126   108   110   124
  565     399   385   397   452
  566     172   174   190   465
  567      20     4    22   469
  568       8   277     6     7
  569      74   448   449   463
  570     319   332   331    94
  571     108   332    94   110
  572      92   108    90   106
  573      52   467    36   443
  574     463   448    90    74
  575     134   150   132   457
  576     214   407   450   460
  577     363   375   377   447
  578     299   433   443   459
  579     194   407   395   450
  580     238   258   434   471
  581     206   226   202   439
  582     134   116   118   444
  583     332    94   110   331
  584      68    66   443   461
  585     134   118   120   440
  586     442    86   446   102
  587      66    50   443   461
  588     283    47    46   295
  589      13    15    14   283
  590     332   108   344   110
  591     377   445   447   470
  592     434   256   425   258
  593     218   198   455   458
  594      65    80   310    64
  595     153   171   376   169
  596     385   387   436   452
  597     361   373   436   457
  598      40    42    26    24
  599     343   356   110   344
  600     343   355   126   356
  601     200   435   471   413
  602      63   307    62   295
  603     331   344   110   332
  604     240   264   431   244
  605     283    15    30    31
  606     331   344   343   110
  607     343   126   111   110
  608     164   180   457   464
  609      30    44    46    28
  610     140   158   156   465
  611     210   188   472   204
  612     408   219   423   420
  613     122   124   140   138
  614     363   365   440   447
  615     287   299   443   461
  616     188   472   465   190
  617     172   154   156   465
  618     320   308   448   449
  619      30    12   451    28
  620     344   124   108   441
  621      48    66    64   461
  622     291   289   433   466
  623     399   411   200   452
  624     283    13    12    14
  625       9    10   280    11
  626     232   234   254   460
  627     284   283    12    14
  628     344   432   438   441
  629     344   124   110   108
  630     127   343   342   355
  631     287    48   299   461
  632     359   130   347   128
  633      56   293   291    40
  634      34    32    18   467
  635     184   202   200   435
  636      54    72   446    56
  637     421   425   422   256
  638      54   469    52    38
  639     264   240   431   260
  640     380   472   465   392
  641     319    79    78    94
  642     307    79    78   319
  643      63   307    78    62
  644      63    79    78   307
  645      56   303   305   448
  646     349   347   361   454
  647     130   148   146   454
  648     399   200   184   452
  649     132   148   454   457
  650      20    36   467   469
  651     130   456   144   359
  652     106   122   432   441
  653     356   124   110   344
  654     126   124   110   356
  655     103   121   338   119
  656     120   104   122   106
  657     184   389   387   447
  658     392   389   404   435
  659       7   274     6     5
  660     413   416   401   435
  661     450   196   460   464
  662     356   124   344   441
  663      56   305   291   293
  664      10    24    26     8
  665     186   202   184   435
  666      92   108   106   463
  667      38    36    20   469
  668     222   431   416   226
  669     136   445   438   138
  670     216   214   450   460
  671      84    86   100   444
  672     214   194   196   450
  673     118   104   120   442
  674      54   469    38   433
  675      22    40    38   466
  676     118   104   102   120
  677     433   287   469   289
  678     375   363   436   447
  679     303   466   291   433
  680     449   296   451   453
  681     200   471   222   220
  682     438   365   445   447
  683     118   120   440   442
  684     281    10    24   462
  685      30   453   284    46
  686     341   432   437   438
  687     327   325   442   446
  688     353   365   438   440
  689       2   272     4   467
  690      68    54    70   433
  691     380   472   392   379
  692     106   124   122   108
  693     152   170   470   154
  694      52   469   443    36
  695     339   341   437   440
  696     456   450   176   383
  697     220   238   434   471
  698      42    28    26    44
  699     284   281    10   280
  700       7     9     8   277
  701       4     5     6   274
  702     192   194   395   450
  703      12    11    13   283
  704     280    11    10   283
  705      12   284    10   283
  706     280   283    10   284
  707     359   361   454   457
  708      52   467   443    50
  709     404   389   401   435
  710      12    11   283    10
  711     450   178   196   180
  712     180   196   450   464
  713     301   313   433   459
  714      58    74   448   449
  715     451    12    26    28
  716     305   293   448   449
  717      94   319   320   453
  718      77    95   318    93
  719     280   281     8   277
  720      10   281     8   280
  721     254   252   232   460
  722      78    60    62   453
  723     344   332   432   463
  724     278   274   275     6
  725      40   293   291   278
  726      64   311   461    80
  727     274     7     6   277
  728     298   311    64   310
  729     150   361   134   436
  730     416   404   401   435
  731     337   349   444   468
  732     431   240   244   471
  733      50    52    68    66
  734     419   232   252   460
  735      64    66    82   461
  736     183   201   185   398
  737      32   287   272   467
  738      16    34    32    18
  739      33    17    32   271
  740     115   133   345   131
  741       1     2     0   271
  742     130   456   359   454
  743     356   140   124   441
  744      69    87   312    85
  745     286   298   299    48
  746      12   284    14   451
  747     303    72   437    56
  748      38   466    56    54
  749     349   116   444   468
  750      82    98   461   468
  751       3     4     2   271
  752     114   116   454   468
  753     100    84   459   468
  754     272   271     2     4
  755      36    18   467    34
  756     335   114   454   468
  757      26    40    24   462
  758       2   272     0   271
  759       1    16    17   271
  760      48   467    50   287
  761     444   134   442   118
  762     286   271    48   287
  763      16   272    32   271
  764     452   409   455   458
  765     335    96    98   323
  766      33   271    48   286
  767     140   368   142   465
  768      48   271    32   287
  769       8   281   278   277
  770     275   289   466   469
  771       2   272    16     0
  772     332   108   463   344
  773       0    18    16     2
  774       0   272    16   271
  775      16   271    32    17
  776     356   438   445   441
  777      98   114   335   468
  778     322    96   335   323
  779      24    10    26   462
  780     458   218   196   216
  781     416   404   439   472
  782     397   383   395   464
  783      64    82    80   461
  784     272     2    16   467
  785       6     8   278   277
  786       4   271   275   272
  787     445   447   136   438
  788     138   465   445   441
  789     456   146   164   148
  790     272    16    32   467
  791     380   174   158   465
  792     307   320   319   453
  793     415   211   403   472
  794     391   472   404   403
  795     383   160   176   456
  796     356   368   441   445
  797     178   162   164   456
  798     200   471   434   413
  799       4   274   275   271
  800     106   104   432   438
  801     222   431   471   416
  802     138   136   122   438
  803     337   325   323   468
  804     226   244   222   471
  805     431   224   242   472
  806     114   128   130   112
  807     112   334    97    96
  808     212   407   406   394
  809      10   451    12    26
  810     236   238   258   256
  811     222   240   220   471
  812     465   138   445   154
  813     439   170   465   470
  814     188   186   170   439
  815     174   472   465   380
  816     404   416   403   472
  817     293   281    40   462
  818      65   298    64   310
  819      49   298    64    65
  820     234   214   216   460
  821     118   102   442   444
  822     310   322    80    81
  823     168   436   184   166
  824     382   394   192   177
  825      42    40    26   462
  826     347   114   130   454
  827      81    96    97   322
  828     323    96    80   322
  829     323   322    80   310
  830     146   128   130   144
  831     296   293   449   462
  832     296   449   451   462
  833     129   144   145   358
  834     238   220   434   455
  835      86    70   446   459
  836     120   104   106   438
  837     396   197   393   181
  838      54    70   433   446
  839     289   433   466   469
  840     272   443   469   467
  841     460   395   450   464
  842      56   462    40    58
  843     445   138   152   154
  844     116   100   444   468
  845     413   411   428   434
  846     472   430   266   431
  847     411   425   428   434
  848      72    90    88   448
  849     369   382   370   161
  850     303    54   433   446
  851      88   104    86   102
  852     234   216   458   460
  853     178   180   450   456
  854     246   430   266   472
  855     287   299   433   443
  856      72    54   446    70
  857     368   380   158   465
  858     470   186   439   170
  859     140   356   368   441
  860      88    72    86    70
  861     136   445   138   152
  862     102    84    86   100
  863      56   293    40   448
  864     365   353   438   445
  865     428   425   258   434
  866     436   184   166   182
  867     434   256   258   455
  868     134   363   349   351
  869      57    75   304    73
  870     114   132   130   454
  871     162   160   146   456
  872     134   118   440   442
  873     113   333   346   345
  874     100    84   444   459
  875     415   211   472   209
  876     411   413   200   434
  877     164   450   456   457
  878     181   199   183   396
  879     335   334   347   112
  880      76   449    74    58
  881     465   470   392   439
  882     221   426   423   239
  883     134   132   349   361
  884     307    62   295   453
  885     470   154   465   445
  886     114   128   347   130
  887     407   194   214   450
  888     317   315   329   437
  889     256   257   421   424
  890     112   114   347   335
  891     212   394   192   395
  892     411   425   434   455
  893     405   417   213   215
  894     194   214   196   216
  895     151   374   360   372
  896     433   313   446   459
  897     428   413   434   471
  898     144   162   160   146
  899     146   456   164   162
  900      68    52   433   443
  901     283   296   295    46
  902     218   458   196   198
  903     317   303   315   437
  904     382   177   192   176
  905     367   472   379   159
  906     303   466   433    54
  907     230   419   232   252
  908      30    14   284   451
  909     430   248   247   246
  910      90   106   432   463
  911     225   245   429   227
  912     332   453    94   320
  913     425   422   256   455
  914     238   218   455   236
  915     162   180   178   164
  916     448   463    90   432
  917      26   284    10   451
  918     150   363   440   447
  919     148   164   456   457
  920     257   420   423   237
  921     171   390   388   187
  922     134   361   349   363
  923     317   329   432   437
  924     454   148   456   457
  925     161   179   163   381
  926     450   383   456   457
  927     436   385   464   457
  928     168   166   150   447
  929      84    86   444   459
  930     308   305   320   448
  931     363   150   436   447
  932     323   325   459   468
  933     299   301   433   459
  934     444   100   459   468
  935       1     2   271     3
  936      38    22   466   469
  937     357   145   358   129
  938     275    22     6   469
  939     284   453   296    46
  940     466   303    56    54
  941     272    20     4   467
  942     301   303   433   446
  943     153   364   362   376
  944     198   452   458   464
  945     284   453   451   296
  946     196   216   450   460
  947     332    92   463   108
  948     186   470   439   435
  949     364   137   350   352
  950     134   447   440   136
  951     424   428   425   258
  952     463   441   432   344
  953     106   437   104    88
  954     444    86   446   459
  955     433    38   466   469
  956     272    20   467   469
  957      58   462    42   449
  958      40   281    24   462
  959      72    88    86   446
  960     130   359   144   128
  961     308   296   449   453
  962     114   347   335   454
  963     132   349   361   454
  964     432   320   448   463
  965     367   158   142   368
  966     430   229   225   415
  967     200   401   184   435
  968     166   150   436   457
  969     311   313   299   459
  970      84    68   459   461
  971      52   469   433   443
  972      42    28    44   451
  973     361   347   359   454
  974      24    40    22   466
  975     217   237   219   420
  976     371   160   370   383
  977     212   419   232   230
  978      46    44   451   453
  979     114   116   132   454
  980     368   126   367   355
  981     406   405   213   193
  982     449   463    76    74
  983     162   178   176   456
  984     357   133   345   360
  985     365   363   377   447
  986      56    74    72   448
  987     174   472   380   379
  988     287   433   469   443
  989      48   287    50   461
  990     367   472   159   174
  991     392   389   435   470
  992     170   152   470   168
  993     407   419   214   212
  994     380   368   445   465
  995     452   409   458   464
  996     127   367   354   143
  997     299   301   287   433
  998     289   303   291   433
  999     213   233   417   231
 1000     425   409   422   455
 1001     406   212   418   419
 1002     289   287   301   433
 1003     361   150   134   457
 1004     113   128   346   112
 1005     332   320   432   463
 1006     405   215   213   193
 1007     407   394   212   395
 1008      44    60   451   453
 1009     172   188   439   465
 1010       3    21   270    19
 1011     194   407   214   192
 1012     449    76    60    58
 1013      68   443   459   461
 1014     383   176   192   395
 1015     383   382   192   176
 1016     395   382   192   383
 1017     106   437    90   432
 1018     395   407   192   212
 1019     194   407   192   395
 1020     296   308   295   453
 1021     421   254   418   255
 1022     408   197   393   396
 1023     255   256   257   421
 1024     230   252   250   419
 1025     122   120   106   438
 1026     385   436   464   452
 1027     178   450   196   194
 1028     329   341   432   437
 1029     345   357   131   133
 1030     196   180   182   464
 1031     459   446   325   313
 1032     275     6     4   469
 1033      84    68    70   459
 1034     223   203   412   414
 1035      54   469   433    52
 1036     371   359   144   456
 1037     226   431   416   472
 1038      44    60   449   451
 1039      44    30    46   451
 1040      30    44    28   451
 1041     458   409   460   464
 1042      78   319    94   453
 1043     196   180   198   182
 1044     104    88   437   442
 1045      60   449   451   453
 1046     236   458   216   218
 1047     160   162   176   456
 1048     450   456   176   178
 1049      70   433   446   459
 1050     320   308   449   453
 1051     242   224   226   244
 1052     120   437   438   440
 1053      70    68   433   459
 1054     180   450   457   464
 1055     341   353   356   438
 1056     272   443   467   287
 1057      58   462   449   448
 1058      50   287   443   461
 1059     201   185   398   400
 1060       7    25   276    23
 1061     432   317   437   448
 1062     320   317   332   432
 1063     344   329   341   432
 1064     472   174   465   190
 1065     187   207   402   203
 1066     232   214   234   460
 1067     188   206   186   439
 1068      78   307   319   453
 1069     134   150   363   440
 1070     218   238   455   220
 1071     134   152   447   136
 1072     435   200   471   202
 1073     260   238   471   258
 1074     184   389   401   387
 1075     229   472   246   228
 1076     196   198   458   464
 1077     242   226   431   244
 1078     104   118   102   442
 1079     156   158   174   465
 1080     460   458   196   216
 1081     422   254   458   460
 1082     191   190   472   210
 1083     231   253   417   251
 1084      88   437   442   446
 1085     122   138   438   441
 1086     307    78    62   453
 1087     134   118   136   120
 1088     284    10   451    12
 1089     136   120   438   440
 1090     278    40    24   466
 1091      86   102   444   446
 1092     258   260   427   428
 1093     229   472   209   415
 1094     136   120   138   122
 1095     351   134   440   442
 1096     431   240   471   260
 1097     466    38    56    40
 1098     138   136   152   154
 1099     140   356   124   126
 1100     404   392   435   439
 1101     152   134   447   150
 1102     214   232   419   460
 1103     160   144   146   456
 1104     409   422   455   458
 1105      26   284   451   462
 1106      64   299    48   461
 1107     411   200   452   455
 1108     427   431   260   430
 1109     156   138   465   154
 1110      52    68    66   443
 1111     341   353   438   440
 1112     259   260   261   427
 1113     206   188   204   472
 1114     401   200   413   435
 1115     380   174   368   158
 1116     367   158   368   174
 1117     253   254   418   252
 1118     371   383   385   457
 1119     367   472   174   379
 1120     141   159   143   366
 1121      22   278   275     6
 1122     260   264   430   431
 1123     134   447   150   440
 1124     354   141   366   139
 1125     256   422   421   254
 1126     438   136   440   447
 1127     391   472   392   404
 1128     471   200   434   220
 1129     181   199   396   197
 1130     313   301   433   446
 1131     378   157   366   159
 1132     402   415   414   205
 1133     365   438   440   447
 1134     431   224   472   226
 1135     191   472   211   210
 1136     119   336   350   338
 1137     291   278   275   466
 1138     317   329   332   432
 1139     415   209   229   205
 1140     174   175   472   159
 1141     414   402   205   207
 1142     391   191   390   175
 1143     430   269   247   249
 1144     344   332   329   432
 1145     225   415   205   414
 1146     432   122   438   441
 1147     374   388   386   169
 1148     169   376   374   388
 1149     225   243   429   245
 1150     154   152   445   470
 1151     188   206   439   472
 1152     278    24     8   466
 1153     152   168   447   470
 1154     119   137   350   135
 1155     305   303   437   448
 1156     247   430   225   243
 1157     419   252   254   460
 1158     437   341   438   440
 1159     433    68   443   459
 1160     126   367   355   127
 1161     262   242   431   264
 1162     242   244   431   264
 1163     416   206   226   472
 1164     134   361   363   436
 1165     303   301   315   446
 1166      54   303    56   446
 1167      72    88   437   448
 1168     168   184   447   470
 1169     303   315   437   446
 1170      98   335   323   468
 1171     176   178   194   450
 1172     284   281   296   462
 1173     365   351   363   440
 1174     442   325   444   446
 1175     263   265   429   243
 1176     126   368   367   142
 1177     226   204   472   206
 1178     284   296   451   462
 1179     262   472   266   431
 1180     415   211   205   403
 1181     262   472   431   242
 1182     246   430   472   247
 1183     437   327   442   446
 1184     399   200   401   184
 1185     171   189   173   390
 1186     257   258   424   256
 1187     402   415   205   403
 1188     172   170   154   465
 1189     399   411   413   200
 1190     175   174   472   190
 1191     150   166   436   447
 1192     130   132   148   454
 1193     159   379   378   175
 1194     317   305   437   448
 1195     209   472   228   208
 1196     127   343   126   111
 1197     200   399   401   413
 1198     203   414   223   227
 1199     184   387   401   399
 1200     234   236   254   458
 1201     373   387   375   436
 1202     361   359   373   457
 1203     165   183   384   181
 1204     332   453   320   463
 1205     221   241   223   426
 1206     151   362   360   374
 1207     255   256   421   254
 1208     311   459   461   468
 1209     353   339   351   440
 1210     223   414   429   227
 1211     227   205   207   414
 1212     243   265   429   245
 1213     332    92   108    94
 1214     213   418   231   417
 1215      93   111   330   109
 1216     223   245   227   429
 1217     414   430   429   225
 1218     141   354   366   143
 1219     197   219   199   408
 1220     143   367   366   159
 1221     175   472   379   391
 1222     132   116   349   454
 1223     159   367   158   143
 1224     215   235   417   233
 1225     367   380   174   368
 1226     367   380   379   174
 1227     159   472   379   175
 1228     379   472   392   391
 1229     168   436   447   184
 1230     335   347   349   468
 1231     430   248   249   247
 1232     430   268   246   266
 1233     248   430   249   268
 1234     222   202   416   471
 1235     353   341   339   440
 1236     431   264   430   262
 1237     268   262   430   264
 1238     262   266   430   431
 1239     262   268   430   266
 1240     171   376   169   388
 1241     163   181   165   381
 1242     400   414   412   203
 1243     190   188   172   465
 1244     247   430   267   269
 1245     258   428   434   471
 1246      13    31   282    29
 1247     237   420   423   219
 1248     238   260   471   240
 1249     259   427   424   258
 1250     239   261   241   426
 1251     398   412   410   201
 1252     151   169   374   167
 1253     430   268   265   269
 1254     264   268   265   430
 1255     418   422   254   421
 1256     115   133   117   345
 1257     419   422   407   460
 1258     426   427   259   261
 1259      58   462    40    42
 1260     320   317   432   448
 1261     202   416   435   439
 1262     416   404   435   439
 1263     191   472   391   403
 1264     191   472   403   211
 1265     225   229   205   415
 1266      81    96   322    80
 1267     417   418   253   255
 1268     416   206   472   439
 1269     378   391   175   379
 1270     376   390   388   171
 1271     458   460   196   464
 1272     210   472   209   208
 1273     390   175   173   378
 1274     139   157   141   366
 1275     236   218   455   458
 1276     385   397   452   464
 1277      64   299   311   298
 1278     189   211   191   402
 1279     139   352   366   354
 1280     366   379   378   159
 1281     229   472   228   209
 1282     247   472   246   229
 1283     205   403   211   402
 1284     211   415   205   209
 1285     189   211   402   207
 1286     378   390   376   171
 1287     403   402   191   211
 1288     390   403   402   191
 1289     190   191   472   175
 1290     175   472   391   191
 1291      81    99   321    97
 1292     378   157   155   366
 1293     364   155   376   153
 1294     142   367   127   143
 1295     445   377   447   365
 1296     377   380   365   445
 1297     183   185   386   398
 1298     378   391   390   175
 1299     390   403   191   391
 1300     378   171   376   155
 1301     241   265   429   261
 1302     402   191   189   390
 1303     390   402   187   189
 1304      37    55   288    53
 1305     272   287   289   469
 1306     400   203   412   201
 1307     157   175   159   378
 1308     147   165   369   163
 1309     294   307   306    63
 1310     173   191   175   390
 1311     113   131   345   129
 1312     135   153   137   362
 1313     155   173   157   378
 1314     350   348   135   362
 1315     185   400   386   398
 1316     425   256   424   258
 1317     221   219   423   410
 1318     378   390   171   173
 1319     372   357   360   149
 1320     390   402   388   187
 1321       8    24     6   466
 1322     347   128   346   359
 1323     150   361   436   457
 1324     207   414   203   227
 1325      27    45   282    43
 1326     153   171   155   376
 1327     289   291   275   466
 1328     263   430   429   265
 1329     262   472   242   266
 1330     378   155   376   364
 1331     366   378   364   155
 1332     137   155   139   364
 1333     352   139   364   137
 1334     182   166   436   464
 1335     208   228   204   472
 1336     201   223   203   412
 1337     366   139   364   352
 1338     155   139   364   366
 1339     402   414   203   207
 1340     217   219   408   420
 1341     225   227   429   414
 1342     109   127   342   125
 1343     187   207   189   402
 1344     223   221   426   412
 1345     184   387   399   452
 1346     268   430   246   248
 1347      76   449    60   453
 1348     164   148   166   457
 1349     223   241   429   426
 1350     241   265   245   429
 1351     402   187   400   388
 1352     203   187   400   402
 1353     185   203   187   400
 1354     388   187   400   185
 1355     167   185   169   386
 1356     373   385   436   457
 1357     412   201   398   400
 1358     419   212   418   230
 1359     423   427   424   259
 1360     235   257   237   420
 1361     368   140   441   465
 1362     296   281   293   462
 1363     150   166   148   457
 1364     418   422   419   254
 1365     200   471   202   222
 1366     272    20   469     4
 1367     255   420   421   257
 1368     396   181   393   381
 1369     327   339   437   442
 1370     381   181   393   179
 1371     116   132   349   444
 1372     412   223   429   426
 1373     412   414   429   223
 1374     419   407   214   460
 1375     132   134   349   444
 1376     263   243   429   267
 1377     430   267   429   243
 1378     263   267   429   430
 1379     356   353   368   445
 1380     431   428   260   471
 1381     429   241   261   426
 1382     430   265   261   429
 1383     426   430   261   429
 1384     167   151   372   374
 1385     303    72   446   437
 1386     188   210   472   190
 1387     427   260   261   430
 1388     437   339   440   442
 1389     265   430   261   264
 1390     260   264   261   430
 1391     341   344   432   438
 1392     122   106   432   438
 1393     134   444   442   349
 1394     349   134   351   442
 1395     325   339   327   442
 1396     193   212   213   406
 1397     217   405   215   417
 1398     199   219   410   408
 1399     197   199   396   408
 1400     423   259   424   257
 1401     368   353   365   445
 1402      92    76   453   463
 1403     308   305   448   449
 1404     454   371   359   457
 1405     349   351   337   442
 1406     257   259   424   258
 1407     281   284    10   462
 1408     447   445   152   470
 1409     235   420   417   255
 1410     199   221   410   219
 1411     352   121   350   338
 1412     119   338   350   121
 1413     138   438   441   445
 1414     438   356   445   353
 1415     237   259   239   423
 1416      94    92   453   463
 1417     137   121   350   352
 1418     131   149   133   357
 1419     317   305   303   437
 1420     239   426   423   259
 1421     387   385   399   452
 1422     380   368   365   445
 1423     119   348   350   336
 1424     396   199   410   408
 1425     424   428   258   427
 1426     398   199   410   396
 1427     423   427   259   426
 1428     214   196   216   450
 1429     221   201   410   412
 1430     221   412   410   426
 1431     168   436   166   447
 1432     419   252   418   254
 1433     398   201   410   199
 1434     199   221   201   410
 1435     420   424   257   423
 1436     219   239   221   423
 1437     373   371   385   457
 1438     467    52    34    50
 1439      88    72   437   446
 1440     360   133   345   348
 1441     186   168   170   470
 1442     362   151   360   135
 1443     350   364   362   137
 1444     165   183   167   384
 1445     398   396   183   199
 1446     387   389   375   447
 1447     170   172   439   465
 1448     134   132   116   444
 1449     168   150   152   447
 1450     323   311   461   468
 1451     349   337   335   468
 1452     359   371   373   457
 1453     362   137   135   350
 1454     333   348   345   117
 1455     119   137   121   350
 1456      33    51   285    49
 1457     374   169   386   167
 1458     113   345   346   129
 1459     371   359   358   144
 1460      98   116   114   468
 1461      80   311   323   310
 1462     148   146   454   456
 1463     408   420   405   217
 1464     151   169   153   374
 1465     151   362   374   153
 1466     153   376   374   169
 1467     362   376   374   153
 1468     384   167   165   372
 1469     183   167   384   386
 1470     349   347   454   468
 1471     416   202   435   471
 1472     231   418   251   417
 1473     461    84   468   459
 1474     167   374   372   386
 1475     329   315   327   437
 1476     167   386   372   384
 1477     377   389   392   470
 1478     113   128   129   346
 1479     183   398   384   396
 1480     386   398   384   183
 1481     200   411   434   455
 1482     443   299   459   461
 1483     383   371   456   457
 1484     436   166   457   464
 1485     149   167   151   372
 1486     124   140   138   441
 1487     117   348   345   133
 1488     392   435   439   470
 1489      75    93   318    91
 1490     347   335   454   468
 1491     115   113   345   333
 1492     135   348   360   362
 1493     151   372   360   149
 1494     357   133   360   149
 1495     382   177   161   381
 1496     161   145   370   369
 1497     135   133   360   348
 1498     133   151   135   360
 1499      36   443   467   469
 1500     351   339   337   442
 1501     220   200   434   455
 1502     147   165   149   369
 1503     129   144   358   128
 1504     163   165   369   381
 1505      11    29   282    27
 1506     165   384   381   181
 1507     382   381   161   369
 1508     427   431   428   260
 1509     145   163   147   369
 1510     323    80    98   461
 1511     165   384   369   381
 1512     405   418   213   417
 1513     165   372   369   384
 1514     463   449    76   453
 1515     149   357   369   372
 1516     382   177   381   394
 1517     253   254   255   418
 1518     182   436   452   464
 1519     250   252   418   419
 1520     406   212   213   418
 1521     381   177   393   394
 1522     251   252   253   418
 1523     250   419   418   230
 1524     231   250   251   418
 1525     358   128   346   129
 1526     358   357   370   145
 1527     426   430   427   261
 1528     383   385   457   464
 1529     113   131   115   345
 1530     129   147   131   357
 1531     345   357   129   131
 1532     358   359   346   128
 1533     347   334   346   112
 1534     231   250   418   230
 1535      61    79   306    77
 1536     359   128   358   144
 1537      67    85   309    83
 1538     105   123   340   121
 1539      51    69   297    67
 1540     345   357   358   129
 1541     161   382   370   176
 1542     144   160   370   371
 1543     311   323   459   468
 1544     450   383   457   464
 1545     383   160   370   176
 1546     160   144   370   145
 1547     419   407   406   212
 1548     186   184   168   470
 1549     358   145   370   144
 1550     160   145   370   161
 1551     395   383   450   464
 1552     383   176   370   382
 1553     233   255   235   417
 1554      41    59   292    57
 1555     144   371   370   358
 1556     176   160   370   161
 1557     409   422   458   460
 1558     339   351   440   442
 1559     356   344   438   441
 1560     179   177   393   381
 1561     188   170   172   439
 1562     405   197   393   408
 1563     339   341   327   437
 1564     327   341   329   437
 1565     417   421   418   255
 1566     217   197   405   408
 1567     249   268   430   269
 1568     217   420   417   235
 1569     405   420   417   217
 1570     253   417   251   418
 1571     406   418   213   405
 1572     432   104   437   438
 1573     405   197   195   393
 1574     131   149   357   147
 1575     212   230   213   418
 1576     195   217   197   405
 1577     179   197   181   393
 1578     163   181   381   179
 1579      73    91   316    89
 1580     231   253   233   417
 1581     125   143   354   141
 1582     204   226   472   224
 1583     213   233   215   417
 1584     239   261   426   259
 1585     406   394   193   212
 1586     135   153   362   151
 1587       1    16   271     0
 1588     195   405   193   215
 1589     230   418   231   213
 1590     104   437   440   442
 1591     460   395   407   450
 1592     393   177   193   394
 1593     393   394   193   406
 1594     192   394   193   177
 1595     212   394   193   192
 1596     406   405   193   393
 1597     177   195   179   393
 1598     393   405   193   195
 1599     366   379   159   367
 1600     330   343   342   111
 1601      25    43   279    41
 1602      23    41   276    39
 1603       5    23   273    21
 1604      19    37   270    35
 1605      39    57   290    55
 1606     367   159   158   174
 1607     343   127   342   111
 1608     158   143   367   142
 1609     221   241   426   239
 1610      53    71   300    69
 1611     296   293   308   449
 1612     421   425   256   424
 1613     197   219   408   217
 1614     171   189   390   187
 1615      59    77   306    75
 1616     123   141   354   139
 1617      95   110   331   111
 1618     454   371   456   359
 1619     179   197   393   195
 1620     188   210   206   204
 1621     219   239   423   237
 1622     235   257   420   255
 1623     121   139   352   137
 1624     195   217   405   215
 1625      43    61   294    59
 1626      31    46   283    47
 1627     141   159   366   157
 1628     343   126   110   356
 1629      65    83   309    81
 1630      85   103   324   101
 1631     414   430   225   415
# Generated by /tmp/dc-viability.8juxjd/tetgen-build/tetgen -pYMq1.4 /tmp/dc-viability.8juxjd/shell-n8-quality.poly
