434  3  0  0
   0    -0.94158986717470783  -0.87853199042978736  0.10349912861567828
   1    -0.94158986717470783  -0.87853199042978736  -0.94999999999999996
   2    -0.94115535927705651  -0.6288560518235502  0.097960529062751406
   3    -0.94115535927705651  -0.6288560518235502  -0.94999999999999996
   4    -0.96265758018030445  -0.26749707103009035  0.0092183742127827477
   5    -0.96265758018030445  -0.26749707103009035  -0.94999999999999996
   6    -0.92838733272240126  -0.36168311917726986  0.035654356570260316
   7    -0.92838733272240126  -0.36168311917726986  -0.94999999999999996
   8    -0.96265758018030445  -0.23634267200702519  0.0076606542616294892
   9    -0.96265758018030445  -0.23634267200702519  -0.94999999999999996
  10    -0.92764419677566767  -0.14329024926875197  0.03062574626373768
  11    -0.92764419677566767  -0.14329024926875197  -0.94999999999999996
  12    -0.93642912106185983  0.12031810373702634  0.077508847322645111
  13    -0.93642912106185983  0.12031810373702634  -0.94999999999999996
  14    -0.9346725760873007  0.36952950578103966  0.079879446270986462
  15    -0.9346725760873007  0.36952950578103966  -0.94999999999999996
  16    -0.9318116507317411  0.61886059028519036  0.080146820925640488
  17    -0.9318116507317411  0.61886059028519036  -0.94999999999999996
  18    -0.92772447072689623  0.86723070839710825  0.097561008804213395
  19    -0.92772447072689623  0.86723070839710825  -0.94999999999999996
  20    -0.81585543478683076  -0.87758546765998058  0.088179049951716937
  21    -0.81585543478683076  -0.87758546765998058  -0.94999999999999996
  22    -0.81635178484501447  -0.62863499376038623  0.10030676589269744
  23    -0.81635178484501447  -0.62863499376038623  -0.94999999999999996
  24    -0.81403651784871656  -0.37710846874455539  0.059901087008459183
  25    -0.81403651784871656  -0.37710846874455539  -0.94999999999999996
  26    -0.81275015063162193  -0.12734361267893171  0.054495485702129753
  27    -0.81275015063162193  -0.12734361267893171  -0.94999999999999996
  28    -0.8114529537920766  0.12066300664534053  0.084184014517209221
  29    -0.8114529537920766  0.12066300664534053  -0.94999999999999996
  30    -0.80972780039392056  0.37032638840194798  0.080246770350070801
  31    -0.80972780039392056  0.37032638840194798  -0.94999999999999996
  32    -0.80708321324271226  0.61986326536699698  0.079265432606094685
  33    -0.80708321324271226  0.61986326536699698  -0.94999999999999996
  34    -0.80265855441759171  0.86822669917969697  0.1028530004431525
  35    -0.80265855441759171  0.86822669917969697  -0.94999999999999996
  36    -0.69021337287039497  -0.87678827734325038  0.073026280153755452
  37    -0.69021337287039497  -0.87678827734325038  -0.94999999999999996
  38    -0.69136435187727108  -0.62824360895088571  0.10003118338414278
  39    -0.69136435187727108  -0.62824360895088571  -0.94999999999999996
  40    -0.68991590940161573  -0.3781755075905856  0.091263263791919041
  41    -0.68991590940161573  -0.3781755075905856  -0.94999999999999996
  42    -0.68821899615006099  -0.12834482692576732  0.086804292808993849
  43    -0.68821899615006099  -0.12834482692576732  -0.94999999999999996
  44    -0.68659007163801  0.12119870496480192  0.087757153405441463
  45    -0.68659007163801  0.12119870496480192  -0.94999999999999996
  46    -0.68518318028488356  0.3716357751448861  0.067778076927659303
  47    -0.68518318028488356  0.3716357751448861  -0.94999999999999996
  48    -0.68325344251395759  0.62154853963205459  0.061015677710094189
  49    -0.68325344251395759  0.62154853963205459  -0.94999999999999996
  50    -0.67929354307882728  0.87021683284446971  0.084334528735141884
  51    -0.67929354307882728  0.87021683284446971  -0.94999999999999996
  52    -0.5648110039243901  -0.87620466721653001  0.05995196092871307
  53    -0.5648110039243901  -0.87620466721653001  -0.94999999999999996
  54    -0.56576095532672965  -0.62734941170901792  0.08619193442057331
  55    -0.56576095532672965  -0.62734941170901792  -0.94999999999999996
  56    -0.56520279772110327  -0.37812164787894864  0.10289309912993244
  57    -0.56520279772110327  -0.37812164787894864  -0.94999999999999996
  58    -0.56349105124409404  -0.12831709294320229  0.10181849391883022
  59    -0.56349105124409404  -0.12831709294320229  -0.94999999999999996
  60    -0.56180262528091884  0.12215029247690752  0.080103417668189542
  61    -0.56180262528091884  0.12215029247690752  -0.94999999999999996
  62    -0.56056589237115817  0.372760521507427  0.055240183698074513
  63    -0.56056589237115817  0.372760521507427  -0.94999999999999996
  64    -0.55904035640963512  0.62269995297336855  0.050388709087419423
  65    -0.55904035640963512  0.62269995297336855  -0.94999999999999996
  66    -0.55636959488008686  0.87205783198240583  0.061282816834764997
  67    -0.55636959488008686  0.87205783198240583  -0.94999999999999996
  68    -0.43955564052372131  -0.87578871742110653  0.048831187902653367
  69    -0.43955564052372131  -0.87578871742110653  -0.94999999999999996
  70    -0.4397665283831515  -0.62631875082375021  0.06234497186651318
  71    -0.4397665283831515  -0.62631875082375021  -0.94999999999999996
  72    -0.43972810001342405  -0.37711235843358165  0.086915254229239083
  73    -0.43972810001342405  -0.37711235843358165  -0.94999999999999996
  74    -0.4384203851557455  -0.12734444926286459  0.090520358182699198
  75    -0.4384203851557455  -0.12734444926286459  -0.94999999999999996
  76    -0.43697360092906484  0.12318204314683628  0.065352303942181181
  77    -0.43697360092906484  0.12318204314683628  -0.94999999999999996
  78    -0.43549681723076755  0.37334957400630092  0.055036421004189505
  79    -0.43549681723076755  0.37334957400630092  -0.94999999999999996
  80    -0.43362088619467609  0.623019726127926  0.063286552574543201
  81    -0.43362088619467609  0.623019726127926  -0.94999999999999996
  82    -0.43233420884718643  0.87304311361452791  0.055441473189446817
  83    -0.43233420884718643  0.87304311361452791  -0.94999999999999996
  84    -0.31491341867645295  -0.87560223710724072  0.047021051084510802
  85    -0.31491341867645295  -0.87560223710724072  -0.94999999999999996
  86    -0.31407755606979115  -0.62563758232955147  0.042841641487080591
  87    -0.31407755606979115  -0.62563758232955147  -0.94999999999999996
  88    -0.31401291632368394  -0.37607843899648319  0.06115494521251124
  89    -0.31401291632368394  -0.37607843899648319  -0.94999999999999996
  90    -0.31319890648481657  -0.12634681955092852  0.072465746220809771
  91    -0.31319890648481657  -0.12634681955092852  -0.94999999999999996
  92    -0.31198612082518007  0.12385643764908361  0.05930813072097809
  93    -0.31198612082518007  0.12385643764908361  -0.94999999999999996
  94    -0.30994130587082641  0.37360102462457578  0.070954957599838109
  95    -0.30994130587082641  0.37360102462457578  -0.94999999999999996
  96    -0.30729279071875382  0.6231141168552321  0.094061320973716625
  97    -0.30729279071875382  0.6231141168552321  -0.94999999999999996
  98    -0.30732440530608884  0.87355134978924975  0.064199701702608192
  99    -0.30732440530608884  0.87355134978924975  -0.94999999999999996
 100    -0.19166753739441689  -0.87558290202950184  0.066174148312177633
 101    -0.19166753739441689  -0.87558290202950184  -0.94999999999999996
 102    -0.18951576921141158  -0.62539643268031797  0.044499993521356654
 103    -0.18951576921141158  -0.62539643268031797  -0.94999999999999996
 104    -0.18863868174766685  -0.37547921652622224  0.04531631738985295
 105    -0.18863868174766685  -0.37547921652622224  -0.94999999999999996
 106    -0.18803334594792726  -0.1257303099502366  0.066584611492927159
 107    -0.18803334594792726  -0.1257303099502366  -0.94999999999999996
 108    -0.18679320618683365  0.12420954562403277  0.072913254754882889
 109    -0.18679320618683365  0.12420954562403277  -0.94999999999999996
 110    -0.18422703380888808  0.37392444789112567  0.095978375106957781
 111    -0.18422703380888808  0.37392444789112567  -0.94999999999999996
 112    -0.1811296621666616  0.62359309885757042  0.12169769203851988
 113    -0.1811296621666616  0.62359309885757042  -0.94999999999999996
 114    -0.18220012581831449  0.87408079635992775  0.073895991668538941
 115    -0.18220012581831449  0.87408079635992775  -0.94999999999999996
 116    -0.069083771289561363  -0.87528666332018079  0.096360864960321646
 117    -0.069083771289561363  -0.87528666332018079  -0.94999999999999996
 118    -0.066064211283457769  -0.62518317659750233  0.068399709404834488
 119    -0.066064211283457769  -0.62518317659750233  -0.94999999999999996
 120    -0.063813023930621229  -0.37514779385962554  0.045693882489446544
 121    -0.063813023930621229  -0.37514779385962554  -0.94999999999999996
 122    -0.062967856368956632  -0.12525088109715726  0.069060418838990417
 123    -0.062967856368956632  -0.12525088109715726  -0.94999999999999996
 124    -0.061591103738821942  0.12467917742964399  0.09033116345006198
 125    -0.061591103738821942  0.12467917742964399  -0.94999999999999996
 126    -0.059085481505794485  0.37458314210726995  0.10691349388458941
 127    -0.059085481505794485  0.37458314210726995  -0.94999999999999996
 128    -0.056385106563342502  0.62449354513685185  0.12084195088618711
 129    -0.056385106563342502  0.62449354513685185  -0.94999999999999996
 130    -0.05730575950988006  0.87468771689004432  0.077232261141624389
 131    -0.05730575950988006  0.87468771689004432  -0.94999999999999996
 132    0.054571851463467699  -0.87455557412736473  0.11192712195426927
 133    0.054571851463467699  -0.87455557412736473  -0.94999999999999996
 134    0.057541563295891315  -0.62461886050722781  0.090888512107486191
 135    0.057541563295891315  -0.62461886050722781  -0.94999999999999996
 136    0.060850468887494527  -0.37479707010023339  0.050701604508249551
 137    0.060850468887494527  -0.37479707010023339  -0.94999999999999996
 138    0.062074591932175488  -0.12478142326950498  0.063971919950689918
 139    0.062074591932175488  -0.12478142326950498  -0.94999999999999996
 140    0.063364023331392641  0.12528760896794877  0.086683933129096419
 141    0.063364023331392641  0.12528760896794877  -0.94999999999999996
 142    0.065241969907475869  0.37528234135838345  0.091321705971712769
 143    0.065241969907475869  0.37528234135838345  -0.94999999999999996
 144    0.067067255010105881  0.6252737703312703  0.093723596635791537
 145    0.067067255010105881  0.6252737703312703  -0.94999999999999996
 146    0.067328314353344118  0.87524922869808275  0.074293756225229143
 147    0.067328314353344118  0.87524922869808275  -0.94999999999999996
 148    0.17977998623466876  -0.87374827051770387  0.10487389866209079
 149    0.17977998623466876  -0.87374827051770387  -0.94999999999999996
 150    0.1820816601272304  -0.62384656758834711  0.09644541862833908
 151    0.1820816601272304  -0.62384656758834711  -0.94999999999999996
 152    0.18570409342250327  -0.3743959607753421  0.050282316628298789
 153    0.18570409342250327  -0.3743959607753421  -0.94999999999999996
 154    0.18714398891236478  -0.12447274446658645  0.048550275927237548
 155    0.18714398891236478  -0.12447274446658645  -0.94999999999999996
 156    0.18811636479347787  0.12565348857534178  0.063911711219370212
 157    0.18811636479347787  0.12565348857534178  -0.94999999999999996
 158    0.18924677324950862  0.37560383540773645  0.06259407607466265
 159    0.18924677324950862  0.37560383540773645  -0.94999999999999996
 160    0.19030423193516594  0.62556858870952503  0.062016644386355263
 161    0.19030423193516594  0.62556858870952503  -0.94999999999999996
 162    0.19186947262528076  0.87567466138660344  0.069795797312406122
 163    0.19186947262528076  0.87567466138660344  -0.94999999999999996
 164    0.30605296670749504  -0.87324525712014922  0.082256777652495616
 165    0.30605296670749504  -0.87324525712014922  -0.94999999999999996
 166    0.30711834150541678  -0.62304929669856557  0.094094364372213274
 167    0.30711834150541678  -0.62304929669856557  -0.94999999999999996
 168    0.31038578562802954  -0.37377824697019718  0.057354300211042722
 169    0.31038578562802954  -0.37377824697019718  -0.94999999999999996
 170    0.31208566736352872  -0.12413452351098653  0.043372025687676771
 171    0.31208566736352872  -0.12413452351098653  -0.94999999999999996
 172    0.31294092046367561  0.12586678739238111  0.048607667047894765
 173    0.31294092046367561  0.12586678739238111  -0.94999999999999996
 174    0.31336553391981131  0.37557413356603486  0.038520734587173373
 175    0.31336553391981131  0.37557413356603486  -0.94999999999999996
 176    0.31373077920300713  0.62539374803502579  0.033817057184582826
 177    0.31373077920300713  0.62539374803502579  -0.94999999999999996
 178    0.31639193857447201  0.87595746941857922  0.065680131126197652
 179    0.31639193857447201  0.87595746941857922  -0.94999999999999996
 180    0.4324242534542137  -0.87302766482686645  0.057130983773226354
 181    0.4324242534542137  -0.87302766482686645  -0.94999999999999996
 182    0.43236002049897498  -0.62230730545213642  0.089178058623829992
 183    0.43236002049897498  -0.62230730545213642  -0.94999999999999996
 184    0.43477197557011843  -0.37272803603142196  0.076647270673841222
 185    0.43477197557011843  -0.37272803603142196  -0.94999999999999996
 186    0.43683400860292798  -0.12332977516017757  0.059126427284025306
 187    0.43683400860292798  -0.12332977516017757  -0.94999999999999996
 188    0.43800997212273174  0.12645482589534751  0.056794213567007243
 189    0.43800997212273174  0.12645482589534751  -0.94999999999999996
 190    0.49276923885987173  0.49889889676593907  0.012020864659178692
 191    0.49276923885987173  0.49889889676593907  -0.94999999999999996
 192    0.44610678668570286  0.39991188332275546  0.030105545494636898
 193    0.44610678668570286  0.39991188332275546  -0.94999999999999996
 194    0.49276923885987173  0.50374710793449673  0.012142069938392633
 195    0.49276923885987173  0.50374710793449673  -0.94999999999999996
 196    0.44607381276849961  0.60243733466307936  0.020404446769265193
 197    0.44607381276849961  0.60243733466307936  -0.94999999999999996
 198    0.44092913736768347  0.87616717527697363  0.063957986788657981
 199    0.44092913736768347  0.87616717527697363  -0.94999999999999996
 200    0.55763535422658839  -0.87258917127710633  0.046512030296789346
 201    0.55763535422658839  -0.87258917127710633  -0.94999999999999996
 202    0.55783586247975414  -0.62177944210078295  0.078398646747853656
 203    0.55783586247975414  -0.62177944210078295  -0.94999999999999996
 204    0.55943156749004141  -0.37166164808091701  0.088151311266656568
 205    0.55943156749004141  -0.37166164808091701  -0.94999999999999996
 206    0.56162050505929229  -0.12230108826454054  0.075878202303768641
 207    0.56162050505929229  -0.12230108826454054  -0.94999999999999996
 208    0.56319450430925133  0.12739193156232087  0.073659920730952427
 209    0.56319450430925133  0.12739193156232087  -0.94999999999999996
 210    0.50144115460679128  0.49889889676593907  0.012237662552851683
 211    0.50144115460679128  0.49889889676593907  -0.94999999999999996
 212    0.55160817939230478  0.40046462659300597  0.04325734942248953
 213    0.55160817939230478  0.40046462659300597  -0.94999999999999996
 214    0.50144115460679128  0.50374710793449673  0.012358867832065622
 215    0.50144115460679128  0.50374710793449673  -0.94999999999999996
 216    0.55178985601981412  0.602857723745303  0.033462901468468392
 217    0.55178985601981412  0.602857723745303  -0.94999999999999996
 218    0.56556318762411206  0.87642108457670476  0.066739220691558188
 219    0.56556318762411206  0.87642108457670476  -0.94999999999999996
 220    0.68166324669887146  -0.87158393342361229  0.051994167008395084
 221    0.68166324669887146  -0.87158393342361229  -0.94999999999999996
 222    0.68333386344918245  -0.6214745099440977  0.064443287281860676
 223    0.68333386344918245  -0.6214745099440977  -0.94999999999999996
 224    0.68466061036319437  -0.37121520681698239  0.079602697535574765
 225    0.68466061036319437  -0.37121520681698239  -0.94999999999999996
 226    0.68663965673538263  -0.12186917800266514  0.072323545304027584
 227    0.68663965673538263  -0.12186917800266514  -0.94999999999999996
 228    0.68824283603517833  0.12789592495705118  0.075041933832077495
 229    0.68824283603517833  0.12789592495705118  -0.94999999999999996
 230    0.68888905772449061  0.37720966675872858  0.066187968991723745
 231    0.68888905772449061  0.37720966675872858  -0.94999999999999996
 232    0.6897272653397597  0.62678789893640185  0.063990644740265071
 233    0.6897272653397597  0.62678789893640185  -0.94999999999999996
 234    0.69025795942834445  0.87669060865694481  0.071140299731170822
 235    0.69025795942834445  0.87669060865694481  -0.94999999999999996
 236    0.80512326357791741  -0.86998589800253834  0.06640469878161101
 237    0.80512326357791741  -0.86998589800253834  -0.94999999999999996
 238    0.80840380615138363  -0.62094989698710945  0.057529484204248582
 239    0.80840380615138363  -0.62094989698710945  -0.94999999999999996
 240    0.80998750043808532  -0.37102839058495918  0.066439967913796416
 241    0.80998750043808532  -0.37102839058495918  -0.94999999999999996
 242    0.81174552584536275  -0.12180524959834357  0.060680096668385655
 243    0.81174552584536275  -0.12180524959834357  -0.94999999999999996
 244    0.81319045701145209  0.12804127638588078  0.067635489509125124
 245    0.81319045701145209  0.12804127638588078  -0.94999999999999996
 246    0.81424396586956893  0.37798416367230114  0.076094947025525134
 247    0.81424396586956893  0.37798416367230114  -0.94999999999999996
 248    0.81567675850705945  0.62804665999796139  0.087115840601966144
 249    0.81567675850705945  0.62804665999796139  -0.94999999999999996
 250    0.87120696098029138  0.99802784094370256  0.042859988251271387
 251    0.87120696098029138  0.99802784094370256  -0.94999999999999996
 252    0.82475555023366565  0.90040074052601893  0.069123162349204001
 253    0.82475555023366565  0.90040074052601893  -0.94999999999999996
 254    0.92827802423186423  -0.86774159925414718  0.087062407052365509
 255    0.92827802423186423  -0.86774159925414718  -0.94999999999999996
 256    0.93251431911426996  -0.61937657696418436  0.069738477241915273
 257    0.93251431911426996  -0.61937657696418436  -0.94999999999999996
 258    0.93476388020814649  -0.36995722535471398  0.071405852153432328
 259    0.93476388020814649  -0.36995722535471398  -0.94999999999999996
 260    0.93667676070571615  -0.1208432768793116  0.067346517454457758
 261    0.93667676070571615  -0.1208432768793116  -0.94999999999999996
 262    0.93821505404663941  0.1288416028213642  0.073656005072238934
 263    0.93821505404663941  0.1288416028213642  -0.94999999999999996
 264    0.93961170137864292  0.3789946952067712  0.088247010632060918
 265    0.93961170137864292  0.3789946952067712  -0.94999999999999996
 266    0.94146511691903911  0.62939441528916795  0.10702088475067953
 267    0.94146511691903911  0.62939441528916795  -0.94999999999999996
 268    0.93718712754422029  0.98998766815140726  0.042484129040841499
 269    0.93718712754422029  0.98998766815140726  -0.94999999999999996
 270    0.94006846958703538  0.86763716603419305  0.083343486188679095
 271    0.94006846958703538  0.86763716603419305  -0.94999999999999996
 272    -0.71999999999999997  -0.46625  -0.73124999999999996
 273    -0.72999999999999998  -0.47749999999999998  -0.48125000000000001
 274    -0.73999999999999999  -0.48875000000000002  -0.23125000000000001
 275    -0.73499999999999999  -0.21625  -0.74062499999999998
 276    -0.73999999999999999  -0.22750000000000001  -0.49062499999999998
 277    -0.745  -0.23874999999999999  -0.24062500000000001
 278    -0.75  0.033750000000000002  -0.75
 279    -0.75  0.022499999999999999  -0.5
 280    -0.75  0.01125  -0.25
 281    -0.76500000000000001  0.28375  -0.75937500000000002
 282    -0.76000000000000001  0.27250000000000002  -0.50937500000000002
 283    -0.755  0.26124999999999998  -0.25937500000000002
 284    -0.78000000000000003  0.53374999999999995  -0.76875000000000004
 285    -0.77000000000000002  0.52249999999999996  -0.51875000000000004
 286    -0.76000000000000001  0.51124999999999998  -0.26874999999999999
 287    -0.59499999999999997  -0.47187499999999999  -0.734375
 288    -0.60499999999999998  -0.48125000000000001  -0.484375
 289    -0.61499999999999999  -0.49062499999999998  -0.234375
 290    -0.60999999999999999  -0.22187499999999999  -0.7421875
 291    -0.62  -0.24062500000000001  -0.2421875
 292    -0.625  0.028124999999999997  -0.75
 293    -0.625  0.0093749999999999997  -0.25
 294    -0.64000000000000001  0.27812500000000001  -0.7578125
 295    -0.63  0.25937500000000002  -0.2578125
 296    -0.65500000000000003  0.52812499999999996  -0.765625
 297    -0.64500000000000002  0.51875000000000004  -0.515625
 298    -0.63500000000000001  0.50937500000000002  -0.265625
 299    -0.46999999999999997  -0.47749999999999998  -0.73750000000000004
 300    -0.47999999999999998  -0.48499999999999999  -0.48749999999999999
 301    -0.48999999999999999  -0.49249999999999999  -0.23749999999999999
 302    -0.48499999999999999  -0.22750000000000001  -0.74375000000000002
 303    -0.495  -0.24249999999999999  -0.24374999999999999
 304    -0.5  0.022499999999999999  -0.75
 305    -0.5  0.0074999999999999997  -0.25
 306    -0.51500000000000001  0.27250000000000002  -0.75624999999999998
 307    -0.505  0.25750000000000001  -0.25624999999999998
 308    -0.53000000000000003  0.52249999999999996  -0.76249999999999996
 309    -0.52000000000000002  0.51500000000000001  -0.51249999999999996
 310    -0.51000000000000001  0.50749999999999995  -0.26250000000000001
 311    -0.34499999999999997  -0.48312500000000003  -0.74062499999999998
 312    -0.35499999999999998  -0.48875000000000002  -0.49062499999999998
 313    -0.36499999999999999  -0.49437500000000001  -0.24062500000000001
 314    -0.35999999999999999  -0.233125  -0.74531250000000004
 315    -0.37  -0.24437500000000001  -0.24531249999999999
 316    -0.375  0.016875000000000001  -0.75
 317    -0.375  0.0056249999999999998  -0.25
 318    -0.39000000000000001  0.26687499999999997  -0.75468749999999996
 319    -0.38  0.25562499999999999  -0.25468750000000001
 320    -0.40500000000000003  0.51687499999999997  -0.75937500000000002
 321    -0.39500000000000002  0.51124999999999998  -0.50937500000000002
 322    -0.38500000000000001  0.50562499999999999  -0.25937500000000002
 323    -0.22  -0.48875000000000002  -0.74375000000000002
 324    -0.23000000000000001  -0.49249999999999999  -0.49375000000000002
 325    -0.23999999999999999  -0.49625000000000002  -0.24374999999999999
 326    -0.23499999999999999  -0.23874999999999999  -0.74687499999999996
 327    -0.245  -0.24625  -0.24687500000000001
 328    -0.25  0.01125  -0.75
 329    -0.25  0.0037499999999999999  -0.25
 330    -0.26500000000000001  0.26124999999999998  -0.75312500000000004
 331    -0.255  0.25374999999999998  -0.25312499999999999
 332    -0.28000000000000003  0.51124999999999998  -0.75624999999999998
 333    -0.27000000000000002  0.50749999999999995  -0.50624999999999998
 334    -0.26000000000000001  0.50375000000000003  -0.25624999999999998
 335    -0.095000000000000001  -0.49437500000000001  -0.74687499999999996
 336    -0.105  -0.49625000000000002  -0.49687500000000001
 337    -0.115  -0.49812499999999998  -0.24687500000000001
 338    -0.11  -0.24437500000000001  -0.74843749999999998
 339    -0.12  -0.24812500000000001  -0.24843750000000001
 340    -0.125  0.0056249999999999998  -0.75
 341    -0.125  0.0018749999999999999  -0.25
 342    -0.14000000000000001  0.25562499999999999  -0.75156250000000002
 343    -0.13  0.25187500000000002  -0.25156250000000002
 344    -0.155  0.50562499999999999  -0.75312500000000004
 345    -0.14499999999999999  0.50375000000000003  -0.50312500000000004
 346    -0.13500000000000001  0.50187499999999996  -0.25312499999999999
 347    0.029999999999999999  -0.5  -0.75
 348    0.02  -0.5  -0.5
 349    0.01  -0.5  -0.25
 350    0.014999999999999999  -0.25  -0.75
 351    0.0050000000000000001  -0.25  -0.25
 352    0  0  -0.75
 353    0  0  -0.25
 354    -0.014999999999999999  0.25  -0.75
 355    -0.0050000000000000001  0.25  -0.25
 356    -0.029999999999999999  0.5  -0.75
 357    -0.02  0.5  -0.5
 358    -0.01  0.5  -0.25
 359    0.155  -0.50562499999999999  -0.75312500000000004
 360    0.14499999999999999  -0.50375000000000003  -0.50312500000000004
 361    0.13500000000000001  -0.50187499999999996  -0.25312499999999999
 362    0.14000000000000001  -0.25562499999999999  -0.75156250000000002
 363    0.13  -0.25187500000000002  -0.25156250000000002
 364    0.125  -0.0056249999999999998  -0.75
 365    0.125  -0.0018749999999999999  -0.25
 366    0.11  0.24437500000000001  -0.74843749999999998
 367    0.12  0.24812500000000001  -0.24843750000000001
 368    0.095000000000000001  0.49437500000000001  -0.74687499999999996
 369    0.105  0.49625000000000002  -0.49687500000000001
 370    0.115  0.49812499999999998  -0.24687500000000001
 371    0.28000000000000003  -0.51124999999999998  -0.75624999999999998
 372    0.27000000000000002  -0.50749999999999995  -0.50624999999999998
 373    0.26000000000000001  -0.50375000000000003  -0.25624999999999998
 374    0.26500000000000001  -0.26124999999999998  -0.75312500000000004
 375    0.255  -0.25374999999999998  -0.25312499999999999
 376    0.25  -0.01125  -0.75
 377    0.25  -0.0037499999999999999  -0.25
 378    0.23499999999999999  0.23874999999999999  -0.74687499999999996
 379    0.245  0.24625  -0.24687500000000001
 380    0.22  0.48875000000000002  -0.74375000000000002
 381    0.23000000000000001  0.49249999999999999  -0.49375000000000002
 382    0.23999999999999999  0.49625000000000002  -0.24374999999999999
 383    0.40500000000000003  -0.51687499999999997  -0.75937500000000002
 384    0.39500000000000002  -0.51124999999999998  -0.50937500000000002
 385    0.38500000000000001  -0.50562499999999999  -0.25937500000000002
 386    0.39000000000000001  -0.26687499999999997  -0.75468749999999996
 387    0.38  -0.25562499999999999  -0.25468750000000001
 388    0.375  -0.016875000000000001  -0.75
 389    0.375  -0.0056249999999999998  -0.25
 390    0.35999999999999999  0.233125  -0.74531250000000004
 391    0.37  0.24437500000000001  -0.24531249999999999
 392    0.34499999999999997  0.48312500000000003  -0.74062499999999998
 393    0.35499999999999998  0.48875000000000002  -0.49062499999999998
 394    0.36499999999999999  0.49437500000000001  -0.24062500000000001
 395    0.53000000000000003  -0.52249999999999996  -0.76249999999999996
 396    0.52000000000000002  -0.51500000000000001  -0.51249999999999996
 397    0.51000000000000001  -0.50749999999999995  -0.26250000000000001
 398    0.51500000000000001  -0.27250000000000002  -0.75624999999999998
 399    0.505  -0.25750000000000001  -0.25624999999999998
 400    0.5  -0.022499999999999999  -0.75
 401    0.5  -0.0074999999999999997  -0.25
 402    0.48499999999999999  0.22750000000000001  -0.74375000000000002
 403    0.495  0.24249999999999999  -0.24374999999999999
 404    0.46999999999999997  0.47749999999999998  -0.73750000000000004
 405    0.47999999999999998  0.48499999999999999  -0.48749999999999999
 406    0.48999999999999999  0.49249999999999999  -0.23749999999999999
 407    0.65500000000000003  -0.52812499999999996  -0.765625
 408    0.64500000000000002  -0.51875000000000004  -0.515625
 409    0.63500000000000001  -0.50937500000000002  -0.265625
 410    0.64000000000000001  -0.27812500000000001  -0.7578125
 411    0.63  -0.25937500000000002  -0.2578125
 412    0.625  -0.028124999999999997  -0.75
 413    0.625  -0.0093749999999999997  -0.25
 414    0.60999999999999999  0.22187499999999999  -0.7421875
 415    0.62  0.24062500000000001  -0.2421875
 416    0.59499999999999997  0.47187499999999999  -0.734375
 417    0.60499999999999998  0.48125000000000001  -0.484375
 418    0.61499999999999999  0.49062499999999998  -0.234375
 419    0.78000000000000003  -0.53374999999999995  -0.76875000000000004
 420    0.77000000000000002  -0.52249999999999996  -0.51875000000000004
 421    0.76000000000000001  -0.51124999999999998  -0.26874999999999999
 422    0.76500000000000001  -0.28375  -0.75937500000000002
 423    0.76000000000000001  -0.27250000000000002  -0.50937500000000002
 424    0.755  -0.26124999999999998  -0.25937500000000002
 425    0.75  -0.033750000000000002  -0.75
 426    0.75  -0.022499999999999999  -0.5
 427    0.75  -0.01125  -0.25
 428    0.73499999999999999  0.21625  -0.74062499999999998
 429    0.73999999999999999  0.22750000000000001  -0.49062499999999998
 430    0.745  0.23874999999999999  -0.24062500000000001
 431    0.71999999999999997  0.46625  -0.73124999999999996
 432    0.72999999999999998  0.47749999999999998  -0.48125000000000001
 433    0.73999999999999999  0.48875000000000002  -0.23125000000000001
# Generated by /tmp/dc-viability.8juxjd/tetgen-build/tetgen -pYM /tmp/dc-viability.8juxjd/shell-n8-phase3.poly
