424 3 0 0
0 -0.94081993605587866 -0.87758880192220501 0.087764686436347689
1 -0.94081993605587866 -0.87758880192220501 -0.94999999999999996
2 -0.93942720101928079 -0.62708888249118622 0.066977179006287663
3 -0.93942720101928079 -0.62708888249118622 -0.94999999999999996
4 -0.93867976737091918 -0.3773162862811098 0.059885632491132518
5 -0.93867976737091918 -0.3773162862811098 -0.94999999999999996
6 -0.93801253292872611 -0.12905993835781107 0.078845929977741785
7 -0.93801253292872611 -0.12905993835781107 -0.94999999999999996
8 -0.93627681757261039 0.11886529954332645 0.1026596549109228
9 -0.93627681757261039 0.11886529954332645 -0.94999999999999996
10 -0.93381007126362081 0.36804416145174368 0.10524965409422125
11 -0.93381007126362081 0.36804416145174368 -0.94999999999999996
12 -0.93128052693355245 0.61800869055113894 0.094917228682370278
13 -0.93128052693355245 0.61800869055113894 -0.94999999999999996
14 -0.92837402096101662 0.86768693679086839 0.088695474476700273
15 -0.92837402096101662 0.86768693679086839 -0.94999999999999996
16 -0.81693031204348676 -0.87798634476958548 0.097106941791323967
17 -0.81693031204348676 -0.87798634476958548 -0.94999999999999996
18 -0.81517181448975251 -0.62762142208786598 0.07982365474833121
19 -0.81517181448975251 -0.62762142208786598 -0.94999999999999996
20 -0.81462339566141506 -0.3786629279924606 0.091695793313387744
21 -0.81462339566141506 -0.3786629279924606 -0.94999999999999996
22 -0.81343506107112029 -0.1294576248121253 0.097041899917152896
23 -0.81343506107112029 -0.1294576248121253 -0.94999999999999996
24 -0.81175434087674569 0.12091134317344501 0.07741555252384795
25 -0.81175434087674569 0.12091134317344501 -0.94999999999999996
26 -0.80971431824862272 0.3706134133186425 0.07304914686578963
27 -0.80971431824862272 0.3706134133186425 -0.94999999999999996
28 -0.80666179639110547 0.61939480203570185 0.08891295704926884
29 -0.80666179639110547 0.61939480203570185 -0.94999999999999996
30 -0.80445981541328937 0.86929563447661018 0.080781186420430584
31 -0.80445981541328937 0.86929563447661018 -0.94999999999999996
32 -0.69181128294257188 -0.87749227328618595 0.08999051297938046
33 -0.69181128294257188 -0.87749227328618595 -0.94999999999999996
34 -0.69045652245161482 -0.62755645043251795 0.083354733895905295
35 -0.69045652245161482 -0.62755645043251795 -0.94999999999999996
36 -0.69020827443003641 -0.37901237524629899 0.1105193923948444
37 -0.69020827443003641 -0.37901237524629899 -0.94999999999999996
38 -0.68869687626575737 -0.12907858557638363 0.10317986714289132
39 -0.68869687626575737 -0.12907858557638363 -0.94999999999999996
40 -0.68721166180862425 0.12275313544066006 0.049159213423811077
41 -0.68721166180862425 0.12275313544066006 -0.94999999999999996
42 -0.68566619334329493 0.37276219098832775 0.040162996202021156
43 -0.68566619334329493 0.37276219098832775 -0.94999999999999996
44 -0.68233876952184758 0.62089553196245095 0.0774150368469506
45 -0.68233876952184758 0.62089553196245095 -0.94999999999999996
46 -0.68037485793304142 0.87069226914042674 0.074051825890411843
47 -0.68037485793304142 0.87069226914042674 -0.94999999999999996
48 -0.56581732247712346 -0.87658194528202205 0.070548078637858003
49 -0.56581732247712346 -0.87658194528202205 -0.94999999999999996
50 -0.56495024825131179 -0.62679707154585274 0.069889985935168986
51 -0.56495024825131179 -0.62679707154585274 -0.94999999999999996
52 -0.56510113862925571 -0.37824993212315522 0.10618063622287076
53 -0.56510113862925571 -0.37824993212315522 -0.94999999999999996
54 -0.56372421181965915 -0.12830073794036542 0.10116858734396467
55 -0.56372421181965915 -0.12830073794036542 -0.94999999999999996
56 -0.56237562544244568 0.1235615076031067 0.039145474238724831
57 -0.56237562544244568 0.1235615076031067 -0.94999999999999996
58 -0.56104246198336649 0.37366396162694038 0.029000939354696709
59 -0.56104246198336649 0.37366396162694038 -0.94999999999999996
60 -0.55767378758347808 0.62190759743140545 0.073968444101025613
61 -0.55767378758347808 0.62190759743140545 -0.94999999999999996
62 -0.55542131599521194 0.87153074544802878 0.078428545715862719
63 -0.55542131599521194 0.87153074544802878 -0.94999999999999996
64 -0.43964668965491072 -0.87581581085386984 0.049143058309874775
65 -0.43964668965491072 -0.87581581085386984 -0.94999999999999996
66 -0.43929409349380039 -0.62603120426142156 0.052186587098030271
67 -0.43929409349380039 -0.62603120426142156 -0.94999999999999996
68 -0.43966889984474145 -0.377194958361945 0.090808655633002555
69 -0.43966889984474145 -0.377194958361945 -0.94999999999999996
70 -0.43863532138057865 -0.12757000707197022 0.10090143830830803
71 -0.43863532138057865 -0.12757000707197022 -0.94999999999999996
72 -0.43720354635580394 0.1235736684544346 0.053489301489179047
73 -0.43720354635580394 0.1235736684544346 -0.94999999999999996
74 -0.4357106076178538 0.37367970694494096 0.04394302565855672
75 -0.4357106076178538 0.37367970694494096 -0.94999999999999996
76 -0.43261299460201741 0.62254685318969694 0.080219371115960766
77 -0.43261299460201741 0.62254685318969694 -0.94999999999999996
78 -0.43051018677384595 0.87232125380589243 0.082373984743728104
79 -0.43051018677384595 0.87232125380589243 -0.94999999999999996
80 -0.31418481058910874 -0.87546340906894626 0.038948336567990197
81 -0.31418481058910874 -0.87546340906894626 -0.94999999999999996
82 -0.31433480619247639 -0.62568579954757408 0.04720312140364924
83 -0.31433480619247639 -0.62568579954757408 -0.94999999999999996
84 -0.31429739145531366 -0.3763226684547234 0.075156768178555877
85 -0.31429739145531366 -0.3763226684547234 -0.94999999999999996
86 -0.31347450427182855 -0.12685961104238602 0.1009268726737987
87 -0.31347450427182855 -0.12685961104238602 -0.94999999999999996
88 -0.3117896655817895 0.12345314242599661 0.083812129992894807
89 -0.3117896655817895 0.12345314242599661 -0.94999999999999996
90 -0.30990769666825391 0.37351741937906868 0.076706568748914322
91 -0.30990769666825391 0.37351741937906868 -0.94999999999999996
92 -0.30757969383130856 0.6231710867704594 0.087922552090987538
93 -0.30757969383130856 0.6231710867704594 -0.94999999999999996
94 -0.3065204555154678 0.87332224723249874 0.073732169619801488
95 -0.3065204555154678 0.87332224723249874 -0.94999999999999996
96 -0.19018135588158774 -0.87541358738938846 0.0493066014073264
97 -0.19018135588158774 -0.87541358738938846 -0.94999999999999996
98 -0.19018988054742275 -0.62554709880583759 0.057933332910610341
99 -0.19018988054742275 -0.62554709880583759 -0.94999999999999996
100 -0.18911014780524055 -0.37567736947105412 0.062295168901334012
101 -0.18911014780524055 -0.37567736947105412 -0.94999999999999996
102 -0.18824103395081282 -0.12603567368259133 0.09028859530892
103 -0.18824103395081282 -0.12603567368259133 -0.94999999999999996
104 -0.18646114617362353 0.12383708148100998 0.1028358390871027
105 -0.18646114617362353 0.12383708148100998 -0.94999999999999996
106 -0.18437411654516453 0.37384395864635356 0.10060280703029913
107 -0.18437411654516453 0.37384395864635356 -0.94999999999999996
108 -0.18304640131214445 0.62394379005723266 0.085759183368083886
109 -0.18304640131214445 0.62394379005723266 -0.94999999999999996
110 -0.18286745687541153 0.87420290556251934 0.0595643684715082
111 -0.18286745687541153 0.87420290556251934 -0.94999999999999996
112 -0.066875579052736805 -0.87520296475672144 0.068145912737664821
113 -0.066875579052736805 -0.87520296475672144 -0.94999999999999996
114 -0.066087578523194745 -0.62523401056282146 0.070208988922959056
115 -0.066087578523194745 -0.62523401056282146 -0.94999999999999996
116 -0.064025921153558665 -0.37520432368746587 0.052079267068792588
117 -0.064025921153558665 -0.37520432368746587 -0.94999999999999996
118 -0.063010374529193044 -0.12530107712204247 0.068501147304398727
119 -0.063010374529193044 -0.12530107712204247 -0.94999999999999996
120 -0.061477821699719944 0.12460280280768349 0.093310085858749003
121 -0.061477821699719944 0.12460280280768349 -0.94999999999999996
122 -0.05961264859791407 0.37459426487319197 0.096566367559149643
123 -0.05961264859791407 0.37459426487319197 -0.94999999999999996
124 -0.058968869763306397 0.62468193156724605 0.07244215479327569
125 -0.058968869763306397 0.62468193156724605 -0.94999999999999996
126 -0.05851988886960327 0.87478058203540798 0.053958502191991345
127 -0.05851988886960327 0.87478058203540798 -0.94999999999999996
128 0.05681654428380823 -0.87466248891452436 0.080616673238227438
129 0.05681654428380823 -0.87466248891452436 -0.94999999999999996
130 0.058369792850588097 -0.62468811235287336 0.076686350163636868
131 0.058369792850588097 -0.62468811235287336 -0.94999999999999996
132 0.060951541849834985 -0.37481737045689056 0.0468429644879352
133 0.060951541849834985 -0.37481737045689056 -0.94999999999999996
134 0.062127864570647603 -0.12485722013719544 0.046613596072679037
135 0.062127864570647603 -0.12485722013719544 -0.94999999999999996
136 0.063280937664006651 0.12520027435691633 0.067834957805391616
137 0.063280937664006651 0.12520027435691633 -0.94999999999999996
138 0.064773261852469649 0.37524536071695369 0.077526862911907329
139 0.064773261852469649 0.37524536071695369 -0.94999999999999996
140 0.065270163102042283 0.62519964448383858 0.060558544937896419
141 0.065270163102042283 0.62519964448383858 -0.94999999999999996
142 0.066894678715198386 0.87524615498125136 0.062992187746560194
143 0.066894678715198386 0.87524615498125136 -0.94999999999999996
144 0.18140118390493271 -0.87400153833382954 0.080861725109733468
145 0.18140118390493271 -0.87400153833382954 -0.94999999999999996
146 0.18286631487763949 -0.62395914519388307 0.084323455216228402
147 0.18286631487763949 -0.62395914519388307 -0.94999999999999996
148 0.18546450633578393 -0.3742389728129073 0.059394823680143559
149 0.18546450633578393 -0.3742389728129073 -0.94999999999999996
150 0.18701907571701032 -0.12449774011837036 0.04183077462894573
151 0.18701907571701032 -0.12449774011837036 -0.94999999999999996
152 0.18804486582683438 0.12549272154540136 0.047371601821180991
153 0.18804486582683438 0.12549272154540136 -0.94999999999999996
154 0.1894591310148766 0.37569363809868789 0.066115546042774809
155 0.1894591310148766 0.37569363809868789 -0.94999999999999996
156 0.19044511171217379 0.62571341659271007 0.06673011343658164
157 0.19044511171217379 0.62571341659271007 -0.94999999999999996
158 0.19318980411927994 0.87591636119887195 0.085704203674880741
159 0.19318980411927994 0.87591636119887195 -0.94999999999999996
160 0.30686282286415478 -0.87347447662173705 0.068816954716014192
161 0.30686282286415478 -0.87347447662173705 -0.94999999999999996
162 0.3075678717216821 -0.62313124662124908 0.089489350922049238
163 0.3075678717216821 -0.62313124662124908 -0.94999999999999996
164 0.30958633172865113 -0.37316238857835482 0.088665524717190219
165 0.30958633172865113 -0.37316238857835482 -0.94999999999999996
166 0.31163267228266123 -0.12373551095954193 0.062234832772028001
167 0.31163267228266123 -0.12373551095954193 -0.94999999999999996
168 0.31291386592422893 0.12578786093837957 0.043467993116538074
169 0.31291386592422893 0.12578786093837957 -0.94999999999999996
170 0.31451126966006299 0.37614000007529713 0.066487764607298522
171 0.31451126966006299 0.37614000007529713 -0.94999999999999996
172 0.31624048578118269 0.62644530931397657 0.085418752484995003
173 0.31624048578118269 0.62644530931397657 -0.94999999999999996
174 0.31903722700032633 0.87670440592678278 0.10431672102636509
175 0.31903722700032633 0.87670440592678278 -0.94999999999999996
176 0.43228661368805682 -0.87302786737030158 0.056203493740707849
177 0.43228661368805682 -0.87302786737030158 -0.94999999999999996
178 0.43282315321652703 -0.62248290104280057 0.082895714903987949
179 0.43282315321652703 -0.62248290104280057 -0.94999999999999996
180 0.43402261574917578 -0.37187947446580044 0.10980565700289519
181 0.43402261574917578 -0.37187947446580044 -0.94999999999999996
182 0.43625703297070839 -0.1225477727432577 0.089062189353999274
183 0.43625703297070839 -0.1225477727432577 -0.94999999999999996
184 0.4378545582010207 0.12625614577158212 0.050110497940454309
185 0.4378545582010207 0.12625614577158212 -0.94999999999999996
186 0.43942328160428479 0.37647780562279143 0.065149120132636421
187 0.43942328160428479 0.37647780562279143 -0.94999999999999996
188 0.44129055426229585 0.62697694558026218 0.089920474398797107
189 0.44129055426229585 0.62697694558026218 -0.94999999999999996
190 0.44305198192255973 0.87701498884195139 0.097798027611295288
191 0.44305198192255973 0.87701498884195139 -0.94999999999999996
192 0.55689878354446098 -0.87233032237688235 0.053965760497342641
193 0.55689878354446098 -0.87233032237688235 -0.94999999999999996
194 0.55841814905380949 -0.62215958765753887 0.067348289048555832
195 0.55841814905380949 -0.62215958765753887 -0.94999999999999996
196 0.5591146115965544 -0.37101847573902924 0.10803585033613641
197 0.5591146115965544 -0.37101847573902924 -0.94999999999999996
198 0.56114207939000016 -0.12153278425339969 0.099258249810069865
199 0.56114207939000016 -0.12153278425339969 -0.94999999999999996
200 0.56277144245898558 0.12662669076680405 0.051965592259358158
201 0.56277144245898558 0.12662669076680405 -0.94999999999999996
202 0.56389971278354534 0.37637018730756561 0.052325756063274137
203 0.56389971278354534 0.37637018730756561 -0.94999999999999996
204 0.56515931714532008 0.62675330559846054 0.071302330126663621
205 0.56515931714532008 0.62675330559846054 -0.94999999999999996
206 0.56580739369067945 0.87654436957505233 0.072331157886660863
207 0.56580739369067945 0.87654436957505233 -0.94999999999999996
208 0.68132897230652711 -0.87152988667807629 0.05397825011380538
209 0.68132897230652711 -0.87152988667807629 -0.94999999999999996
210 0.68430997017363582 -0.6223265039714303 0.044429312768316263
211 0.68430997017363582 -0.6223265039714303 -0.94999999999999996
212 0.68472032973457009 -0.37089056514307284 0.087853316284750071
213 0.68472032973457009 -0.37089056514307284 -0.94999999999999996
214 0.68624991261403978 -0.12084330475915822 0.096607452625332491
215 0.68624991261403978 -0.12084330475915822 -0.94999999999999996
216 0.68775747204450199 0.12713411847583556 0.055570435552419174
217 0.68775747204450199 0.12713411847583556 -0.94999999999999996
218 0.68842411763043376 0.37621246750863524 0.042430366873393119
219 0.68842411763043376 0.37621246750863524 -0.94999999999999996
220 0.68894306590454379 0.62619071207847155 0.051090853291829295
221 0.68894306590454379 0.62619071207847155 -0.94999999999999996
222 0.73459064653821127 0.96135910525076496 0.030506988632043357
223 0.73459064653821127 0.96135910525076496 -0.94999999999999996
224 0.69201435711164672 0.87755048599614349 0.045704375766930851
225 0.69201435711164672 0.87755048599614349 -0.94999999999999996
226 0.80641293102305633 -0.87103941245748617 0.045950016384188032
227 0.80641293102305633 -0.87103941245748617 -0.94999999999999996
228 0.81019337233891431 -0.62274217949518418 0.021458008182357106
229 0.81019337233891431 -0.62274217949518418 -0.94999999999999996
230 0.81047275086100523 -0.37133377018475944 0.06091356545694418
231 0.81047275086100523 -0.37133377018475944 -0.94999999999999996
232 0.811481331520717 -0.12034321447619332 0.090723179356161102
233 0.811481331520717 -0.12034321447619332 -0.94999999999999996
234 0.81294778300480708 0.12831963415307915 0.072335155632361897
235 0.81294778300480708 0.12831963415307915 -0.94999999999999996
236 0.81356752884057049 0.37688411960867496 0.053117171134437625
237 0.81356752884057049 0.37688411960867496 -0.94999999999999996
238 0.81381769456146513 0.62634365240190049 0.052516749655780355
239 0.81381769456146513 0.62634365240190049 -0.94999999999999996
240 0.81152988846970109 0.93686964942755435 0.025943440916992237
241 0.81152988846970109 0.93686964942755435 -0.94999999999999996
242 0.81319794872570172 0.81305779056849514 0.044624188807424955
243 0.81319794872570172 0.81305779056849514 -0.94999999999999996
244 0.93172163632619598 -0.87058720053994532 0.037418156504669564
245 0.93172163632619598 -0.87058720053994532 -0.94999999999999996
246 0.93503156092959638 -0.62219148167585847 0.020005630595855185
247 0.93503156092959638 -0.62219148167585847 -0.94999999999999996
248 0.93575694028409639 -0.37147952714301014 0.0450892975277985
249 0.93575694028409639 -0.37147952714301014 -0.94999999999999996
250 0.93673636281479167 -0.12019328778188765 0.080014609098196077
251 0.93673636281479167 -0.12019328778188765 -0.94999999999999996
252 0.93818055340389073 0.12961011992731628 0.087579170032318965
253 0.93818055340389073 0.12961011992731628 -0.94999999999999996
254 0.93902292720814495 0.37812582713542836 0.072665140300893452
255 0.93902292720814495 0.37812582713542836 -0.94999999999999996
256 0.93950866325863702 0.62730687336837387 0.069794377679403663
257 0.93950866325863702 0.62730687336837387 -0.94999999999999996
258 0.93640421871054624 0.94702309210134528 0.030777421090986107
259 0.93640421871054624 0.94702309210134528 -0.94999999999999996
260 0.93866628945438291 0.82389222566194742 0.058053469782207046
261 0.93866628945438291 0.82389222566194742 -0.94999999999999996
262 -0.71999999999999997 -0.46625 -0.73124999999999996
263 -0.72999999999999998 -0.47749999999999998 -0.48125000000000001
264 -0.73999999999999999 -0.48875000000000002 -0.23125000000000001
265 -0.73499999999999999 -0.21625 -0.74062499999999998
266 -0.73999999999999999 -0.22750000000000001 -0.49062499999999998
267 -0.745 -0.23874999999999999 -0.24062500000000001
268 -0.75 0.033750000000000002 -0.75
269 -0.75 0.022499999999999999 -0.5
270 -0.75 0.01125 -0.25
271 -0.76500000000000001 0.28375 -0.75937500000000002
272 -0.76000000000000001 0.27250000000000002 -0.50937500000000002
273 -0.755 0.26124999999999998 -0.25937500000000002
274 -0.78000000000000003 0.53374999999999995 -0.76875000000000004
275 -0.77000000000000002 0.52249999999999996 -0.51875000000000004
276 -0.76000000000000001 0.51124999999999998 -0.26874999999999999
277 -0.59499999999999997 -0.47187499999999999 -0.734375
278 -0.60499999999999998 -0.48125000000000001 -0.484375
279 -0.61499999999999999 -0.49062499999999998 -0.234375
280 -0.60999999999999999 -0.22187499999999999 -0.7421875
281 -0.62 -0.24062500000000001 -0.2421875
282 -0.625 0.028124999999999997 -0.75
283 -0.625 0.0093749999999999997 -0.25
284 -0.64000000000000001 0.27812500000000001 -0.7578125
285 -0.63 0.25937500000000002 -0.2578125
286 -0.65500000000000003 0.52812499999999996 -0.765625
287 -0.64500000000000002 0.51875000000000004 -0.515625
288 -0.63500000000000001 0.50937500000000002 -0.265625
289 -0.46999999999999997 -0.47749999999999998 -0.73750000000000004
290 -0.47999999999999998 -0.48499999999999999 -0.48749999999999999
291 -0.48999999999999999 -0.49249999999999999 -0.23749999999999999
292 -0.48499999999999999 -0.22750000000000001 -0.74375000000000002
293 -0.495 -0.24249999999999999 -0.24374999999999999
294 -0.5 0.022499999999999999 -0.75
295 -0.5 0.0074999999999999997 -0.25
296 -0.51500000000000001 0.27250000000000002 -0.75624999999999998
297 -0.505 0.25750000000000001 -0.25624999999999998
298 -0.53000000000000003 0.52249999999999996 -0.76249999999999996
299 -0.52000000000000002 0.51500000000000001 -0.51249999999999996
300 -0.51000000000000001 0.50749999999999995 -0.26250000000000001
301 -0.34499999999999997 -0.48312500000000003 -0.74062499999999998
302 -0.35499999999999998 -0.48875000000000002 -0.49062499999999998
303 -0.36499999999999999 -0.49437500000000001 -0.24062500000000001
304 -0.35999999999999999 -0.233125 -0.74531250000000004
305 -0.37 -0.24437500000000001 -0.24531249999999999
306 -0.375 0.016875000000000001 -0.75
307 -0.375 0.0056249999999999998 -0.25
308 -0.39000000000000001 0.26687499999999997 -0.75468749999999996
309 -0.38 0.25562499999999999 -0.25468750000000001
310 -0.40500000000000003 0.51687499999999997 -0.75937500000000002
311 -0.39500000000000002 0.51124999999999998 -0.50937500000000002
312 -0.38500000000000001 0.50562499999999999 -0.25937500000000002
313 -0.22 -0.48875000000000002 -0.74375000000000002
314 -0.23000000000000001 -0.49249999999999999 -0.49375000000000002
315 -0.23999999999999999 -0.49625000000000002 -0.24374999999999999
316 -0.23499999999999999 -0.23874999999999999 -0.74687499999999996
317 -0.245 -0.24625 -0.24687500000000001
318 -0.25 0.01125 -0.75
319 -0.25 0.0037499999999999999 -0.25
320 -0.26500000000000001 0.26124999999999998 -0.75312500000000004
321 -0.255 0.25374999999999998 -0.25312499999999999
322 -0.28000000000000003 0.51124999999999998 -0.75624999999999998
323 -0.27000000000000002 0.50749999999999995 -0.50624999999999998
324 -0.26000000000000001 0.50375000000000003 -0.25624999999999998
325 -0.095000000000000001 -0.49437500000000001 -0.74687499999999996
326 -0.105 -0.49625000000000002 -0.49687500000000001
327 -0.115 -0.49812499999999998 -0.24687500000000001
328 -0.11 -0.24437500000000001 -0.74843749999999998
329 -0.12 -0.24812500000000001 -0.24843750000000001
330 -0.125 0.0056249999999999998 -0.75
331 -0.125 0.0018749999999999999 -0.25
332 -0.14000000000000001 0.25562499999999999 -0.75156250000000002
333 -0.13 0.25187500000000002 -0.25156250000000002
334 -0.155 0.50562499999999999 -0.75312500000000004
335 -0.14499999999999999 0.50375000000000003 -0.50312500000000004
336 -0.13500000000000001 0.50187499999999996 -0.25312499999999999
337 0.029999999999999999 -0.5 -0.75
338 0.02 -0.5 -0.5
339 0.01 -0.5 -0.25
340 0.014999999999999999 -0.25 -0.75
341 0.0050000000000000001 -0.25 -0.25
342 0 0 -0.75
343 0 0 -0.25
344 -0.014999999999999999 0.25 -0.75
345 -0.0050000000000000001 0.25 -0.25
346 -0.029999999999999999 0.5 -0.75
347 -0.02 0.5 -0.5
348 -0.01 0.5 -0.25
349 0.155 -0.50562499999999999 -0.75312500000000004
350 0.14499999999999999 -0.50375000000000003 -0.50312500000000004
351 0.13500000000000001 -0.50187499999999996 -0.25312499999999999
352 0.14000000000000001 -0.25562499999999999 -0.75156250000000002
353 0.13 -0.25187500000000002 -0.25156250000000002
354 0.125 -0.0056249999999999998 -0.75
355 0.125 -0.0018749999999999999 -0.25
356 0.11 0.24437500000000001 -0.74843749999999998
357 0.12 0.24812500000000001 -0.24843750000000001
358 0.095000000000000001 0.49437500000000001 -0.74687499999999996
359 0.105 0.49625000000000002 -0.49687500000000001
360 0.115 0.49812499999999998 -0.24687500000000001
361 0.28000000000000003 -0.51124999999999998 -0.75624999999999998
362 0.27000000000000002 -0.50749999999999995 -0.50624999999999998
363 0.26000000000000001 -0.50375000000000003 -0.25624999999999998
364 0.26500000000000001 -0.26124999999999998 -0.75312500000000004
365 0.255 -0.25374999999999998 -0.25312499999999999
366 0.25 -0.01125 -0.75
367 0.25 -0.0037499999999999999 -0.25
368 0.23499999999999999 0.23874999999999999 -0.74687499999999996
369 0.245 0.24625 -0.24687500000000001
370 0.22 0.48875000000000002 -0.74375000000000002
371 0.23000000000000001 0.49249999999999999 -0.49375000000000002
372 0.23999999999999999 0.49625000000000002 -0.24374999999999999
373 0.40500000000000003 -0.51687499999999997 -0.75937500000000002
374 0.39500000000000002 -0.51124999999999998 -0.50937500000000002
375 0.38500000000000001 -0.50562499999999999 -0.25937500000000002
376 0.39000000000000001 -0.26687499999999997 -0.75468749999999996
377 0.38 -0.25562499999999999 -0.25468750000000001
378 0.375 -0.016875000000000001 -0.75
379 0.375 -0.0056249999999999998 -0.25
380 0.35999999999999999 0.233125 -0.74531250000000004
381 0.37 0.24437500000000001 -0.24531249999999999
382 0.34499999999999997 0.48312500000000003 -0.74062499999999998
383 0.35499999999999998 0.48875000000000002 -0.49062499999999998
384 0.36499999999999999 0.49437500000000001 -0.24062500000000001
385 0.53000000000000003 -0.52249999999999996 -0.76249999999999996
386 0.52000000000000002 -0.51500000000000001 -0.51249999999999996
387 0.51000000000000001 -0.50749999999999995 -0.26250000000000001
388 0.51500000000000001 -0.27250000000000002 -0.75624999999999998
389 0.505 -0.25750000000000001 -0.25624999999999998
390 0.5 -0.022499999999999999 -0.75
391 0.5 -0.0074999999999999997 -0.25
392 0.48499999999999999 0.22750000000000001 -0.74375000000000002
393 0.495 0.24249999999999999 -0.24374999999999999
394 0.46999999999999997 0.47749999999999998 -0.73750000000000004
395 0.47999999999999998 0.48499999999999999 -0.48749999999999999
396 0.48999999999999999 0.49249999999999999 -0.23749999999999999
397 0.65500000000000003 -0.52812499999999996 -0.765625
398 0.64500000000000002 -0.51875000000000004 -0.515625
399 0.63500000000000001 -0.50937500000000002 -0.265625
400 0.64000000000000001 -0.27812500000000001 -0.7578125
401 0.63 -0.25937500000000002 -0.2578125
402 0.625 -0.028124999999999997 -0.75
403 0.625 -0.0093749999999999997 -0.25
404 0.60999999999999999 0.22187499999999999 -0.7421875
405 0.62 0.24062500000000001 -0.2421875
406 0.59499999999999997 0.47187499999999999 -0.734375
407 0.60499999999999998 0.48125000000000001 -0.484375
408 0.61499999999999999 0.49062499999999998 -0.234375
409 0.78000000000000003 -0.53374999999999995 -0.76875000000000004
410 0.77000000000000002 -0.52249999999999996 -0.51875000000000004
411 0.76000000000000001 -0.51124999999999998 -0.26874999999999999
412 0.76500000000000001 -0.28375 -0.75937500000000002
413 0.76000000000000001 -0.27250000000000002 -0.50937500000000002
414 0.755 -0.26124999999999998 -0.25937500000000002
415 0.75 -0.033750000000000002 -0.75
416 0.75 -0.022499999999999999 -0.5
417 0.75 -0.01125 -0.25
418 0.73499999999999999 0.21625 -0.74062499999999998
419 0.73999999999999999 0.22750000000000001 -0.49062499999999998
420 0.745 0.23874999999999999 -0.24062500000000001
421 0.71999999999999997 0.46625 -0.73124999999999996
422 0.72999999999999998 0.47749999999999998 -0.48125000000000001
423 0.73999999999999999 0.48875000000000002 -0.23125000000000001
840 1
1 0 1
3 222 242 240
1 0 2
3 223 243 241
1 0 1
3 222 224 242
1 0 2
3 223 225 243
1 0 1
3 240 260 258
1 0 2
3 241 261 259
1 0 1
3 240 242 260
1 0 2
3 241 243 261
1 0 1
3 0 16 18
1 0 2
3 1 17 19
1 0 1
3 0 18 2
1 0 2
3 1 19 3
1 0 1
3 2 18 20
1 0 2
3 3 19 21
1 0 1
3 2 20 4
1 0 2
3 3 21 5
1 0 1
3 4 20 22
1 0 2
3 5 21 23
1 0 1
3 4 22 6
1 0 2
3 5 23 7
1 0 1
3 6 22 24
1 0 2
3 7 23 25
1 0 1
3 6 24 8
1 0 2
3 7 25 9
1 0 1
3 8 24 26
1 0 2
3 9 25 27
1 0 1
3 8 26 10
1 0 2
3 9 27 11
1 0 1
3 10 26 28
1 0 2
3 11 27 29
1 0 1
3 10 28 12
1 0 2
3 11 29 13
1 0 1
3 12 28 30
1 0 2
3 13 29 31
1 0 1
3 12 30 14
1 0 2
3 13 31 15
1 0 1
3 16 32 34
1 0 2
3 17 33 35
1 0 1
3 16 34 18
1 0 2
3 17 35 19
1 0 1
3 18 34 36
1 0 2
3 19 35 37
1 0 1
3 18 36 20
1 0 2
3 19 37 21
1 0 1
3 20 36 38
1 0 2
3 21 37 39
1 0 1
3 20 38 22
1 0 2
3 21 39 23
1 0 1
3 22 38 40
1 0 2
3 23 39 41
1 0 1
3 22 40 24
1 0 2
3 23 41 25
1 0 1
3 24 40 42
1 0 2
3 25 41 43
1 0 1
3 24 42 26
1 0 2
3 25 43 27
1 0 1
3 26 42 44
1 0 2
3 27 43 45
1 0 1
3 26 44 28
1 0 2
3 27 45 29
1 0 1
3 28 44 46
1 0 2
3 29 45 47
1 0 1
3 28 46 30
1 0 2
3 29 47 31
1 0 1
3 32 48 50
1 0 2
3 33 49 51
1 0 1
3 32 50 34
1 0 2
3 33 51 35
1 0 1
3 34 50 52
1 0 2
3 35 51 53
1 0 1
3 34 52 36
1 0 2
3 35 53 37
1 0 1
3 36 52 54
1 0 2
3 37 53 55
1 0 1
3 36 54 38
1 0 2
3 37 55 39
1 0 1
3 38 54 56
1 0 2
3 39 55 57
1 0 1
3 38 56 40
1 0 2
3 39 57 41
1 0 1
3 40 56 58
1 0 2
3 41 57 59
1 0 1
3 40 58 42
1 0 2
3 41 59 43
1 0 1
3 42 58 60
1 0 2
3 43 59 61
1 0 1
3 42 60 44
1 0 2
3 43 61 45
1 0 1
3 44 60 62
1 0 2
3 45 61 63
1 0 1
3 44 62 46
1 0 2
3 45 63 47
1 0 1
3 48 64 66
1 0 2
3 49 65 67
1 0 1
3 48 66 50
1 0 2
3 49 67 51
1 0 1
3 50 66 68
1 0 2
3 51 67 69
1 0 1
3 50 68 52
1 0 2
3 51 69 53
1 0 1
3 52 68 70
1 0 2
3 53 69 71
1 0 1
3 52 70 54
1 0 2
3 53 71 55
1 0 1
3 54 70 72
1 0 2
3 55 71 73
1 0 1
3 54 72 56
1 0 2
3 55 73 57
1 0 1
3 56 72 74
1 0 2
3 57 73 75
1 0 1
3 56 74 58
1 0 2
3 57 75 59
1 0 1
3 58 74 76
1 0 2
3 59 75 77
1 0 1
3 58 76 60
1 0 2
3 59 77 61
1 0 1
3 60 76 78
1 0 2
3 61 77 79
1 0 1
3 60 78 62
1 0 2
3 61 79 63
1 0 1
3 64 80 82
1 0 2
3 65 81 83
1 0 1
3 64 82 66
1 0 2
3 65 83 67
1 0 1
3 66 82 84
1 0 2
3 67 83 85
1 0 1
3 66 84 68
1 0 2
3 67 85 69
1 0 1
3 68 84 86
1 0 2
3 69 85 87
1 0 1
3 68 86 70
1 0 2
3 69 87 71
1 0 1
3 70 86 88
1 0 2
3 71 87 89
1 0 1
3 70 88 72
1 0 2
3 71 89 73
1 0 1
3 72 88 90
1 0 2
3 73 89 91
1 0 1
3 72 90 74
1 0 2
3 73 91 75
1 0 1
3 74 90 92
1 0 2
3 75 91 93
1 0 1
3 74 92 76
1 0 2
3 75 93 77
1 0 1
3 76 92 94
1 0 2
3 77 93 95
1 0 1
3 76 94 78
1 0 2
3 77 95 79
1 0 1
3 80 96 98
1 0 2
3 81 97 99
1 0 1
3 80 98 82
1 0 2
3 81 99 83
1 0 1
3 82 98 100
1 0 2
3 83 99 101
1 0 1
3 82 100 84
1 0 2
3 83 101 85
1 0 1
3 84 100 102
1 0 2
3 85 101 103
1 0 1
3 84 102 86
1 0 2
3 85 103 87
1 0 1
3 86 102 104
1 0 2
3 87 103 105
1 0 1
3 86 104 88
1 0 2
3 87 105 89
1 0 1
3 88 104 106
1 0 2
3 89 105 107
1 0 1
3 88 106 90
1 0 2
3 89 107 91
1 0 1
3 90 106 108
1 0 2
3 91 107 109
1 0 1
3 90 108 92
1 0 2
3 91 109 93
1 0 1
3 92 108 110
1 0 2
3 93 109 111
1 0 1
3 92 110 94
1 0 2
3 93 111 95
1 0 1
3 96 112 114
1 0 2
3 97 113 115
1 0 1
3 96 114 98
1 0 2
3 97 115 99
1 0 1
3 98 114 116
1 0 2
3 99 115 117
1 0 1
3 98 116 100
1 0 2
3 99 117 101
1 0 1
3 100 116 118
1 0 2
3 101 117 119
1 0 1
3 100 118 102
1 0 2
3 101 119 103
1 0 1
3 102 118 120
1 0 2
3 103 119 121
1 0 1
3 102 120 104
1 0 2
3 103 121 105
1 0 1
3 104 120 122
1 0 2
3 105 121 123
1 0 1
3 104 122 106
1 0 2
3 105 123 107
1 0 1
3 106 122 124
1 0 2
3 107 123 125
1 0 1
3 106 124 108
1 0 2
3 107 125 109
1 0 1
3 108 124 126
1 0 2
3 109 125 127
1 0 1
3 108 126 110
1 0 2
3 109 127 111
1 0 1
3 112 128 130
1 0 2
3 113 129 131
1 0 1
3 112 130 114
1 0 2
3 113 131 115
1 0 1
3 114 130 132
1 0 2
3 115 131 133
1 0 1
3 114 132 116
1 0 2
3 115 133 117
1 0 1
3 116 132 134
1 0 2
3 117 133 135
1 0 1
3 116 134 118
1 0 2
3 117 135 119
1 0 1
3 118 134 136
1 0 2
3 119 135 137
1 0 1
3 118 136 120
1 0 2
3 119 137 121
1 0 1
3 120 136 138
1 0 2
3 121 137 139
1 0 1
3 120 138 122
1 0 2
3 121 139 123
1 0 1
3 122 138 140
1 0 2
3 123 139 141
1 0 1
3 122 140 124
1 0 2
3 123 141 125
1 0 1
3 124 140 142
1 0 2
3 125 141 143
1 0 1
3 124 142 126
1 0 2
3 125 143 127
1 0 1
3 128 144 146
1 0 2
3 129 145 147
1 0 1
3 128 146 130
1 0 2
3 129 147 131
1 0 1
3 130 146 148
1 0 2
3 131 147 149
1 0 1
3 130 148 132
1 0 2
3 131 149 133
1 0 1
3 132 148 150
1 0 2
3 133 149 151
1 0 1
3 132 150 134
1 0 2
3 133 151 135
1 0 1
3 134 150 152
1 0 2
3 135 151 153
1 0 1
3 134 152 136
1 0 2
3 135 153 137
1 0 1
3 136 152 154
1 0 2
3 137 153 155
1 0 1
3 136 154 138
1 0 2
3 137 155 139
1 0 1
3 138 154 156
1 0 2
3 139 155 157
1 0 1
3 138 156 140
1 0 2
3 139 157 141
1 0 1
3 140 156 158
1 0 2
3 141 157 159
1 0 1
3 140 158 142
1 0 2
3 141 159 143
1 0 1
3 144 160 162
1 0 2
3 145 161 163
1 0 1
3 144 162 146
1 0 2
3 145 163 147
1 0 1
3 146 162 164
1 0 2
3 147 163 165
1 0 1
3 146 164 148
1 0 2
3 147 165 149
1 0 1
3 148 164 166
1 0 2
3 149 165 167
1 0 1
3 148 166 150
1 0 2
3 149 167 151
1 0 1
3 150 166 168
1 0 2
3 151 167 169
1 0 1
3 150 168 152
1 0 2
3 151 169 153
1 0 1
3 152 168 170
1 0 2
3 153 169 171
1 0 1
3 152 170 154
1 0 2
3 153 171 155
1 0 1
3 154 170 172
1 0 2
3 155 171 173
1 0 1
3 154 172 156
1 0 2
3 155 173 157
1 0 1
3 156 172 174
1 0 2
3 157 173 175
1 0 1
3 156 174 158
1 0 2
3 157 175 159
1 0 1
3 160 176 178
1 0 2
3 161 177 179
1 0 1
3 160 178 162
1 0 2
3 161 179 163
1 0 1
3 162 178 180
1 0 2
3 163 179 181
1 0 1
3 162 180 164
1 0 2
3 163 181 165
1 0 1
3 164 180 182
1 0 2
3 165 181 183
1 0 1
3 164 182 166
1 0 2
3 165 183 167
1 0 1
3 166 182 184
1 0 2
3 167 183 185
1 0 1
3 166 184 168
1 0 2
3 167 185 169
1 0 1
3 168 184 186
1 0 2
3 169 185 187
1 0 1
3 168 186 170
1 0 2
3 169 187 171
1 0 1
3 170 186 188
1 0 2
3 171 187 189
1 0 1
3 170 188 172
1 0 2
3 171 189 173
1 0 1
3 172 188 190
1 0 2
3 173 189 191
1 0 1
3 172 190 174
1 0 2
3 173 191 175
1 0 1
3 176 192 194
1 0 2
3 177 193 195
1 0 1
3 176 194 178
1 0 2
3 177 195 179
1 0 1
3 178 194 196
1 0 2
3 179 195 197
1 0 1
3 178 196 180
1 0 2
3 179 197 181
1 0 1
3 180 196 198
1 0 2
3 181 197 199
1 0 1
3 180 198 182
1 0 2
3 181 199 183
1 0 1
3 182 198 200
1 0 2
3 183 199 201
1 0 1
3 182 200 184
1 0 2
3 183 201 185
1 0 1
3 184 200 202
1 0 2
3 185 201 203
1 0 1
3 184 202 186
1 0 2
3 185 203 187
1 0 1
3 186 202 204
1 0 2
3 187 203 205
1 0 1
3 186 204 188
1 0 2
3 187 205 189
1 0 1
3 188 204 206
1 0 2
3 189 205 207
1 0 1
3 188 206 190
1 0 2
3 189 207 191
1 0 1
3 192 208 210
1 0 2
3 193 209 211
1 0 1
3 192 210 194
1 0 2
3 193 211 195
1 0 1
3 194 210 212
1 0 2
3 195 211 213
1 0 1
3 194 212 196
1 0 2
3 195 213 197
1 0 1
3 196 212 214
1 0 2
3 197 213 215
1 0 1
3 196 214 198
1 0 2
3 197 215 199
1 0 1
3 198 214 216
1 0 2
3 199 215 217
1 0 1
3 198 216 200
1 0 2
3 199 217 201
1 0 1
3 200 216 218
1 0 2
3 201 217 219
1 0 1
3 200 218 202
1 0 2
3 201 219 203
1 0 1
3 202 218 220
1 0 2
3 203 219 221
1 0 1
3 202 220 204
1 0 2
3 203 221 205
1 0 1
3 204 220 224
1 0 2
3 205 221 225
1 0 1
3 204 224 206
1 0 2
3 205 225 207
1 0 1
3 208 226 228
1 0 2
3 209 227 229
1 0 1
3 208 228 210
1 0 2
3 209 229 211
1 0 1
3 210 228 230
1 0 2
3 211 229 231
1 0 1
3 210 230 212
1 0 2
3 211 231 213
1 0 1
3 212 230 232
1 0 2
3 213 231 233
1 0 1
3 212 232 214
1 0 2
3 213 233 215
1 0 1
3 214 232 234
1 0 2
3 215 233 235
1 0 1
3 214 234 216
1 0 2
3 215 235 217
1 0 1
3 216 234 236
1 0 2
3 217 235 237
1 0 1
3 216 236 218
1 0 2
3 217 237 219
1 0 1
3 218 236 238
1 0 2
3 219 237 239
1 0 1
3 218 238 220
1 0 2
3 219 239 221
1 0 1
3 220 238 242
1 0 2
3 221 239 243
1 0 1
3 220 242 224
1 0 2
3 221 243 225
1 0 1
3 226 244 246
1 0 2
3 227 245 247
1 0 1
3 226 246 228
1 0 2
3 227 247 229
1 0 1
3 228 246 248
1 0 2
3 229 247 249
1 0 1
3 228 248 230
1 0 2
3 229 249 231
1 0 1
3 230 248 250
1 0 2
3 231 249 251
1 0 1
3 230 250 232
1 0 2
3 231 251 233
1 0 1
3 232 250 252
1 0 2
3 233 251 253
1 0 1
3 232 252 234
1 0 2
3 233 253 235
1 0 1
3 234 252 254
1 0 2
3 235 253 255
1 0 1
3 234 254 236
1 0 2
3 235 255 237
1 0 1
3 236 254 256
1 0 2
3 237 255 257
1 0 1
3 236 256 238
1 0 2
3 237 257 239
1 0 1
3 238 256 260
1 0 2
3 239 257 261
1 0 1
3 238 260 242
1 0 2
3 239 261 243
1 0 2
3 0 2 1
1 0 2
3 2 1 3
1 0 2
3 0 16 1
1 0 2
3 16 1 17
1 0 2
3 2 4 3
1 0 2
3 4 3 5
1 0 2
3 4 6 5
1 0 2
3 6 5 7
1 0 2
3 6 8 7
1 0 2
3 8 7 9
1 0 2
3 8 10 9
1 0 2
3 10 9 11
1 0 2
3 10 12 11
1 0 2
3 12 11 13
1 0 2
3 12 14 13
1 0 2
3 14 13 15
1 0 2
3 14 30 15
1 0 2
3 30 15 31
1 0 2
3 16 32 17
1 0 2
3 32 17 33
1 0 2
3 30 46 31
1 0 2
3 46 31 47
1 0 2
3 32 48 33
1 0 2
3 48 33 49
1 0 2
3 46 62 47
1 0 2
3 62 47 63
1 0 2
3 48 64 49
1 0 2
3 64 49 65
1 0 2
3 62 78 63
1 0 2
3 78 63 79
1 0 2
3 64 80 65
1 0 2
3 80 65 81
1 0 2
3 78 94 79
1 0 2
3 94 79 95
1 0 2
3 80 96 81
1 0 2
3 96 81 97
1 0 2
3 94 110 95
1 0 2
3 110 95 111
1 0 2
3 96 112 97
1 0 2
3 112 97 113
1 0 2
3 110 126 111
1 0 2
3 126 111 127
1 0 2
3 112 128 113
1 0 2
3 128 113 129
1 0 2
3 126 142 127
1 0 2
3 142 127 143
1 0 2
3 128 144 129
1 0 2
3 144 129 145
1 0 2
3 142 158 143
1 0 2
3 158 143 159
1 0 2
3 144 160 145
1 0 2
3 160 145 161
1 0 2
3 158 174 159
1 0 2
3 174 159 175
1 0 2
3 160 176 161
1 0 2
3 176 161 177
1 0 2
3 174 190 175
1 0 2
3 190 175 191
1 0 2
3 176 192 177
1 0 2
3 192 177 193
1 0 2
3 190 206 191
1 0 2
3 206 191 207
1 0 2
3 192 208 193
1 0 2
3 208 193 209
1 0 2
3 206 224 207
1 0 2
3 224 207 225
1 0 2
3 208 226 209
1 0 2
3 226 209 227
1 0 2
3 222 224 223
1 0 2
3 224 223 225
1 0 2
3 222 240 223
1 0 2
3 240 223 241
1 0 2
3 226 244 227
1 0 2
3 244 227 245
1 0 2
3 240 258 241
1 0 2
3 258 241 259
1 0 2
3 244 246 245
1 0 2
3 246 245 247
1 0 2
3 246 248 247
1 0 2
3 248 247 249
1 0 2
3 248 250 249
1 0 2
3 250 249 251
1 0 2
3 250 252 251
1 0 2
3 252 251 253
1 0 2
3 252 254 253
1 0 2
3 254 253 255
1 0 2
3 254 256 255
1 0 2
3 256 255 257
1 0 2
3 256 260 257
1 0 2
3 260 257 261
1 0 2
3 258 260 259
1 0 2
3 260 259 261
1 0 3
3 262 263 266
1 0 3
3 262 263 278
1 0 3
3 262 265 266
1 0 3
3 262 265 280
1 0 3
3 262 277 278
1 0 3
3 262 277 280
1 0 3
3 263 264 267
1 0 3
3 263 264 279
1 0 3
3 263 266 267
1 0 3
3 263 278 279
1 0 3
3 264 267 281
1 0 3
3 264 279 281
1 0 3
3 265 266 269
1 0 3
3 265 268 269
1 0 3
3 265 268 282
1 0 3
3 265 280 282
1 0 3
3 266 267 270
1 0 3
3 266 269 270
1 0 3
3 267 270 283
1 0 3
3 267 281 283
1 0 3
3 268 269 272
1 0 3
3 268 271 272
1 0 3
3 268 271 284
1 0 3
3 268 282 284
1 0 3
3 269 270 273
1 0 3
3 269 272 273
1 0 3
3 270 273 285
1 0 3
3 270 283 285
1 0 3
3 271 272 275
1 0 3
3 271 274 275
1 0 3
3 271 274 286
1 0 3
3 271 284 286
1 0 3
3 272 273 276
1 0 3
3 272 275 276
1 0 3
3 273 276 288
1 0 3
3 273 285 288
1 0 3
3 274 275 287
1 0 3
3 274 286 287
1 0 3
3 275 276 288
1 0 3
3 275 287 288
1 0 3
3 277 278 290
1 0 3
3 277 280 292
1 0 3
3 277 289 290
1 0 3
3 277 289 292
1 0 3
3 278 279 291
1 0 3
3 278 290 291
1 0 3
3 279 281 293
1 0 3
3 279 291 293
1 0 3
3 280 282 294
1 0 3
3 280 292 294
1 0 3
3 281 283 295
1 0 3
3 281 293 295
1 0 3
3 282 284 296
1 0 3
3 282 294 296
1 0 3
3 283 285 297
1 0 3
3 283 295 297
1 0 3
3 284 286 298
1 0 3
3 284 296 298
1 0 3
3 285 288 300
1 0 3
3 285 297 300
1 0 3
3 286 287 299
1 0 3
3 286 298 299
1 0 3
3 287 288 300
1 0 3
3 287 299 300
1 0 3
3 289 290 302
1 0 3
3 289 292 304
1 0 3
3 289 301 302
1 0 3
3 289 301 304
1 0 3
3 290 291 303
1 0 3
3 290 302 303
1 0 3
3 291 293 305
1 0 3
3 291 303 305
1 0 3
3 292 294 306
1 0 3
3 292 304 306
1 0 3
3 293 295 307
1 0 3
3 293 305 307
1 0 3
3 294 296 308
1 0 3
3 294 306 308
1 0 3
3 295 297 309
1 0 3
3 295 307 309
1 0 3
3 296 298 310
1 0 3
3 296 308 310
1 0 3
3 297 300 312
1 0 3
3 297 309 312
1 0 3
3 298 299 311
1 0 3
3 298 310 311
1 0 3
3 299 300 312
1 0 3
3 299 311 312
1 0 3
3 301 302 314
1 0 3
3 301 304 316
1 0 3
3 301 313 314
1 0 3
3 301 313 316
1 0 3
3 302 303 315
1 0 3
3 302 314 315
1 0 3
3 303 305 317
1 0 3
3 303 315 317
1 0 3
3 304 306 318
1 0 3
3 304 316 318
1 0 3
3 305 307 319
1 0 3
3 305 317 319
1 0 3
3 306 308 320
1 0 3
3 306 318 320
1 0 3
3 307 309 321
1 0 3
3 307 319 321
1 0 3
3 308 310 322
1 0 3
3 308 320 322
1 0 3
3 309 312 324
1 0 3
3 309 321 324
1 0 3
3 310 311 323
1 0 3
3 310 322 323
1 0 3
3 311 312 324
1 0 3
3 311 323 324
1 0 3
3 313 314 326
1 0 3
3 313 316 328
1 0 3
3 313 325 326
1 0 3
3 313 325 328
1 0 3
3 314 315 327
1 0 3
3 314 326 327
1 0 3
3 315 317 329
1 0 3
3 315 327 329
1 0 3
3 316 318 330
1 0 3
3 316 328 330
1 0 3
3 317 319 331
1 0 3
3 317 329 331
1 0 3
3 318 320 332
1 0 3
3 318 330 332
1 0 3
3 319 321 333
1 0 3
3 319 331 333
1 0 3
3 320 322 334
1 0 3
3 320 332 334
1 0 3
3 321 324 336
1 0 3
3 321 333 336
1 0 3
3 322 323 335
1 0 3
3 322 334 335
1 0 3
3 323 324 336
1 0 3
3 323 335 336
1 0 3
3 325 326 338
1 0 3
3 325 328 340
1 0 3
3 325 337 338
1 0 3
3 325 337 340
1 0 3
3 326 327 339
1 0 3
3 326 338 339
1 0 3
3 327 329 341
1 0 3
3 327 339 341
1 0 3
3 328 330 342
1 0 3
3 328 340 342
1 0 3
3 329 331 343
1 0 3
3 329 341 343
1 0 3
3 330 332 344
1 0 3
3 330 342 344
1 0 3
3 331 333 345
1 0 3
3 331 343 345
1 0 3
3 332 334 346
1 0 3
3 332 344 346
1 0 3
3 333 336 348
1 0 3
3 333 345 348
1 0 3
3 334 335 347
1 0 3
3 334 346 347
1 0 3
3 335 336 348
1 0 3
3 335 347 348
1 0 3
3 337 338 350
1 0 3
3 337 340 352
1 0 3
3 337 349 350
1 0 3
3 337 349 352
1 0 3
3 338 339 351
1 0 3
3 338 350 351
1 0 3
3 339 341 353
1 0 3
3 339 351 353
1 0 3
3 340 342 354
1 0 3
3 340 352 354
1 0 3
3 341 343 355
1 0 3
3 341 353 355
1 0 3
3 342 344 356
1 0 3
3 342 354 356
1 0 3
3 343 345 357
1 0 3
3 343 355 357
1 0 3
3 344 346 358
1 0 3
3 344 356 358
1 0 3
3 345 348 360
1 0 3
3 345 357 360
1 0 3
3 346 347 359
1 0 3
3 346 358 359
1 0 3
3 347 348 360
1 0 3
3 347 359 360
1 0 3
3 349 350 362
1 0 3
3 349 352 364
1 0 3
3 349 361 362
1 0 3
3 349 361 364
1 0 3
3 350 351 363
1 0 3
3 350 362 363
1 0 3
3 351 353 365
1 0 3
3 351 363 365
1 0 3
3 352 354 366
1 0 3
3 352 364 366
1 0 3
3 353 355 367
1 0 3
3 353 365 367
1 0 3
3 354 356 368
1 0 3
3 354 366 368
1 0 3
3 355 357 369
1 0 3
3 355 367 369
1 0 3
3 356 358 370
1 0 3
3 356 368 370
1 0 3
3 357 360 372
1 0 3
3 357 369 372
1 0 3
3 358 359 371
1 0 3
3 358 370 371
1 0 3
3 359 360 372
1 0 3
3 359 371 372
1 0 3
3 361 362 374
1 0 3
3 361 364 376
1 0 3
3 361 373 374
1 0 3
3 361 373 376
1 0 3
3 362 363 375
1 0 3
3 362 374 375
1 0 3
3 363 365 377
1 0 3
3 363 375 377
1 0 3
3 364 366 378
1 0 3
3 364 376 378
1 0 3
3 365 367 379
1 0 3
3 365 377 379
1 0 3
3 366 368 380
1 0 3
3 366 378 380
1 0 3
3 367 369 381
1 0 3
3 367 379 381
1 0 3
3 368 370 382
1 0 3
3 368 380 382
1 0 3
3 369 372 384
1 0 3
3 369 381 384
1 0 3
3 370 371 383
1 0 3
3 370 382 383
1 0 3
3 371 372 384
1 0 3
3 371 383 384
1 0 3
3 373 374 386
1 0 3
3 373 376 388
1 0 3
3 373 385 386
1 0 3
3 373 385 388
1 0 3
3 374 375 387
1 0 3
3 374 386 387
1 0 3
3 375 377 389
1 0 3
3 375 387 389
1 0 3
3 376 378 390
1 0 3
3 376 388 390
1 0 3
3 377 379 391
1 0 3
3 377 389 391
1 0 3
3 378 380 392
1 0 3
3 378 390 392
1 0 3
3 379 381 393
1 0 3
3 379 391 393
1 0 3
3 380 382 394
1 0 3
3 380 392 394
1 0 3
3 381 384 396
1 0 3
3 381 393 396
1 0 3
3 382 383 395
1 0 3
3 382 394 395
1 0 3
3 383 384 396
1 0 3
3 383 395 396
1 0 3
3 385 386 398
1 0 3
3 385 388 400
1 0 3
3 385 397 398
1 0 3
3 385 397 400
1 0 3
3 386 387 399
1 0 3
3 386 398 399
1 0 3
3 387 389 401
1 0 3
3 387 399 401
1 0 3
3 388 390 402
1 0 3
3 388 400 402
1 0 3
3 389 391 403
1 0 3
3 389 401 403
1 0 3
3 390 392 404
1 0 3
3 390 402 404
1 0 3
3 391 393 405
1 0 3
3 391 403 405
1 0 3
3 392 394 406
1 0 3
3 392 404 406
1 0 3
3 393 396 408
1 0 3
3 393 405 408
1 0 3
3 394 395 407
1 0 3
3 394 406 407
1 0 3
3 395 396 408
1 0 3
3 395 407 408
1 0 3
3 397 398 410
1 0 3
3 397 400 412
1 0 3
3 397 409 410
1 0 3
3 397 409 412
1 0 3
3 398 399 411
1 0 3
3 398 410 411
1 0 3
3 399 401 414
1 0 3
3 399 411 414
1 0 3
3 400 402 415
1 0 3
3 400 412 415
1 0 3
3 401 403 417
1 0 3
3 401 414 417
1 0 3
3 402 404 418
1 0 3
3 402 415 418
1 0 3
3 403 405 420
1 0 3
3 403 417 420
1 0 3
3 404 406 421
1 0 3
3 404 418 421
1 0 3
3 405 408 423
1 0 3
3 405 420 423
1 0 3
3 406 407 422
1 0 3
3 406 421 422
1 0 3
3 407 408 423
1 0 3
3 407 422 423
1 0 3
3 409 410 413
1 0 3
3 409 412 413
1 0 3
3 410 411 414
1 0 3
3 410 413 414
1 0 3
3 412 413 416
1 0 3
3 412 415 416
1 0 3
3 413 414 417
1 0 3
3 413 416 417
1 0 3
3 415 416 419
1 0 3
3 415 418 419
1 0 3
3 416 417 420
1 0 3
3 416 419 420
1 0 3
3 418 419 422
1 0 3
3 418 421 422
1 0 3
3 419 420 423
1 0 3
3 419 422 423
1
0 0 0 -0.5
0
