1349  4  0
    0     260   258   423   259
    1      53    37   288   287
    2      91   328    93   316
    3     363   152   375   154
    4     330   316   318    93
    5     314   326    91   328
    6     316   302    75   314
    7      71    89    73   311
    8     148   164   361   373
    9     290   287    57   302
   10     422   426   423   261
   11       5   275     9   276
   12      28   283    46    44
   13     287    37   288   272
   14     335   338   121   105
   15      34   285    50   286
   16     272    37   288   273
   17     292   290    43    59
   18     150   134   361   148
   19     117   116   336   101
   20     316   314    75    91
   21      83    98   321    99
   22      34    35    50   285
   23     320   333   332    99
   24     333   346   345   114
   25     321    99    98   333
   26     101   119   335   117
   27     341   108   106   122
   28     345   346   130   114
   29     296   281    47   294
   30     298   283    46   286
   31     314    89    91   326
   32     105   123   338   121
   33     301    52   289   288
   34      92   319    78    94
   35      75    93    77   316
   36     399   186   401   387
   37     253   432   271   251
   38     294   308    63   296
   39     103   121   335   119
   40     282   279   283    12
   41     308   296    67    65
   42     310   295    62   298
   43     278   279   282    13
   44     113   344   115   332
   45     332   345   115   333
   46     308   296    65    63
   47     317    92   329   331
   48      42    44   293   280
   49     237   257   419   255
   50     285    18    16   286
   51     233   253   431   249
   52      21    39   272    37
   53      61   304    77   306
   54     106   122   104   120
   55     117   132   133   348
   56       3    23    25   272
   57      66   309    82   310
   58     292   275    43   290
   59     115   131   345   344
   60     181   396   384   180
   61     278   275    43   292
   62     116   336   349   348
   63     279    12   282    13
   64       4     5     8   276
   65     334   331    94   319
   66     169   187   386   185
   67     299    69   311   312
   68     155   173   376   171
   69      91   326   107   328
   70     308   321    83   309
   71     103   121   105   335
   72       8    24    26     4
   73     341   329   106   108
   74      71    89   311    87
   75     315   317    90   329
   76     273     6     3     2
   77     282    15    14   285
   78      49    67   296    65
   79     395   407   201   203
   80     310   298    62    64
   81     117   132   348   116
   82     308   321   320    83
   83     274     6   277     4
   84      53   288    52   300
   85     173   193   390   189
   86     217   211   213   416
   87     329    92   106   108
   88     285    35    50    51
   89     191   215   404   211
   90     110   126   108   343
   91     182   385   397   180
   92     116   117   336   348
   93     141   354   366   143
   94     313    68    86    70
   95     142   158   370   160
   96     307    60   305    76
   97     362   137   347   350
   98      85   103   323   101
   99     152   136   363   361
  100     204   399   206   411
  101     202   409   222   200
  102     280   277   293    42
  103     233   253   235   431
  104      37   273   272    21
  105     112   334    96   346
  106     171   376   374   388
  107     274     4   277   273
  108     115   130   114   345
  109     270   432   271   267
  110     114   346    96   334
  111     112   346    96   114
  112      76   319    78    92
  113     276     5     8     9
  114     109   342   111   330
  115     320   333    99   321
  116     184   186   399   387
  117     107   123   340   338
  118     269   268   251   432
  119     326   311   314    89
  120     407   205   203   395
  121      71   311    73   299
  122     385   184   399   387
  123      14    32   286    16
  124     318   306   320    79
  125     387   186   401   389
  126      39    57    41   287
  127     232   433   252   248
  128     114   346   128   112
  129     245   265   247   428
  130     235   432   234   417
  131      58   291   293   305
  132     417   433   432   234
  133     226   411   206   413
  134     319    76   317    92
  135     315    74    88    90
  136     194   214   406   196
  137      40    42    58    56
  138     106   339   104   327
  139     323   105   326   338
  140     181   203   395   201
  141     148   166   164   150
  142     212   210   406   192
  143     337   100   102   325
  144     152   154   363   136
  145     416   211   404   215
  146     305    76   317   319
  147      36    21    20   273
  148     309   308    67    83
  149     272    41   287    39
  150     311    85   323   324
  151     101   336   323   324
  152     101   324   323    85
  153     244   242   228   427
  154      61    79   306    77
  155     312    85   311   324
  156       8     4    26    10
  157      48   298    50    66
  158      20   273   274    36
  159       4   273   274     6
  160     143   161   368   159
  161      23    41    25   272
  162     241   261   243   422
  163     302   290    59    57
  164       5     6     7   273
  165       0   273    20     1
  166     278    13   281    29
  167     416   432   431   235
  168     311   299    71    69
  169     272    41    25   275
  170      52    54    70   301
  171      38    24   274    22
  172       6    26     4    10
  173      89   107    91   326
  174      21    39    23   272
  175      43   278    27   275
  176      41    59    43   290
  177      77   306   318    79
  178      25    41    43   275
  179       8   279     9    10
  180       3     1   272   273
  181       1    23     3   272
  182      21   273   272     1
  183     314   299   302    73
  184      21     1    20   273
  185     117   348   335   336
  186     302   299    57    73
  187      52   301    70    68
  188     272    39   287    37
  189      37    55    39   287
  190     334   112   110   346
  191     110   331   108    94
  192     312    69   311    85
  193     164   180   372   373
  194     299   287    57    55
  195      58    42   293   291
  196      89   107   326   105
  197     288   287   300    53
  198     104    86    88   325
  199      15    16   285    17
  200     301   300    68    52
  201     323   338   335   105
  202     374   388   386   171
  203      73   311   314   299
  204     312   300   299    69
  205     287    55   299    53
  206      53    71    55   299
  207     292    45    43   278
  208     300   287   299    53
  209     300    53   299    69
  210     111   129   113   344
  211     169   187   171   386
  212      69    87    71   311
  213      43    61    45   292
  214     159   177   380   175
  215     323   105   335   103
  216     278   279    11   275
  217     323   101   335   336
  218     117   336   335   101
  219      85   103    87   323
  220      87    85   323   311
  221     151   359   149   371
  222     101   119   103   335
  223     323   103   335   101
  224     302   287    57   299
  225      12    11    13   279
  226      19    35   285   284
  227     305   291   303    58
  228      15    33    17   284
  229      77    93   318   316
  230     314   328    91   316
  231     423   427   424   260
  232      27     7    25   275
  233     326   323    89   105
  234     311   323    89   326
  235      95   113   332   111
  236      73    89   314   311
  237     311    87    89   323
  238      87   105    89   323
  239      11     5   275     9
  240      23    41   272    39
  241      73    91    75   314
  242     316   302   304    75
  243      75   316    77   304
  244     132   116   349   348
  245     189   390   388   402
  246     429   433   430   264
  247     111   344   332   330
  248      73   314    75   302
  249      83    99   321   320
  250      93   111    95   330
  251     119   117   347   335
  252     174   196   192   190
  253     326   105   107   338
  254     105   123   107   338
  255     326   328   340   107
  256     107   338   340   326
  257      84   325    86   102
  258     109   340   125   342
  259     427   242   228   226
  260     160   176   382   162
  261       8    24   277    26
  262      36    38   289   274
  263      24     6   277   274
  264      58   305    74   303
  265      32    50    48   286
  266     291    40   277   274
  267     433   270   432   268
  268      77    95    79   318
  269     287   272   290    41
  270     275    41   290   272
  271      43   275    27    25
  272     238   421   258   256
  273     272     3     7    25
  274      25   275     7   272
  275      11     7    27   275
  276     290   275    43    41
  277      27   278    11   275
  278     276   272     7   275
  279      13    31    15   281
  280     272   273     7     3
  281     276   273     7   272
  282     432   252   268   253
  283     133   151   359   149
  284     232   230   418   433
  285     290    41    57   287
  286     276   273     5     7
  287     106    92    90   108
  288       7   275     5   276
  289      55    73    57   299
  290     161   179   380   177
  291     231   249   431   247
  292      11     5     7   275
  293     304   292    59   290
  294     402   209   400   189
  295      77   304   318   306
  296      57    75    59   302
  297     304   302    59    75
  298     290   302    59   304
  299      27    45    29   278
  300     342   328   109   340
  301     276   279    11     9
  302     276   275    11   279
  303       9   275    11   276
  304     368   381   163   369
  305     213   233   416   231
  306      11    29    13   278
  307     278   279    13    11
  308     284    15   285    17
  309       9    10   279    11
  310      59    77    61   304
  311     197   177   392   199
  312      82   322    80   310
  313     405   198   199   393
  314     128   114   130   346
  315     278    45   294   292
  316      29    47    31   281
  317      29    45   281   278
  318      19    34    18   285
  319     231   213   414   416
  320      15    31   284   281
  321     111   113   332   344
  322      66    64    48   298
  323     342   340   125   354
  324      77   316   318   304
  325     281    45   294   278
  326     284   297    51   285
  327      65    83    67   308
  328     308   306    63    79
  329     294   296    63    47
  330      93   328   330   316
  331     281    45    47   294
  332     294   306    63   308
  333      91   109    93   328
  334      61    79    63   306
  335     292   304    61   306
  336      91   109   328   107
  337     304   292    61    59
  338     201   220   408   200
  339     294   306    61    63
  340     294   292    61   306
  341     294    45    61   292
  342     221   239   419   237
  343      45    63    47   294
  344     131   344   129   356
  345     342   344   111   330
  346      17    35   284    33
  347     186   170   389   387
  348     191   197   392   195
  349      94   334   110   331
  350      66    67    82   309
  351     281    13   282    15
  352     190   214   210   406
  353     345   358   130   346
  354     296   309    67   297
  355     113   131   115   344
  356     107   125   109   340
  357     330   111    95   332
  358     257   258   420   256
  359     342   356   127   344
  360     340   328   109   107
  361     308    79   320   306
  362     127   344   111   342
  363     330   328   109   342
  364     330    93   109   328
  365      97   115    99   332
  366     332    99    97   320
  367     354   342   127   125
  368      11    29   278    27
  369     342   354   127   356
  370     143   356   127   354
  371     109   127   111   342
  372     318   330    95   332
  373     318    93    95   330
  374     295   283    46   298
  375     344   357   131   345
  376     278    13   282   281
  377     332   320    97    95
  378      41    59   290    57
  379     308    79    81   320
  380      49    67    51   296
  381     320   318    95   332
  382     320    79    95   318
  383     369   382   381   162
  384      98   322    80    82
  385      98   114    96   334
  386     127   356   129   344
  387     127   145   129   356
  388      87   105   323   103
  389     137   155   362   153
  390     307   295    62   310
  391      81    99    83   320
  392      95   113    97   332
  393     245   265   428   263
  394      79    97    81   320
  395     320   308    83    81
  396      22     6   274     2
  397     321   334    98   322
  398     332    99   333   115
  399     143   161   145   368
  400      54    56    70   301
  401     225   243   422   241
  402      63    81    65   308
  403      10    28    26   280
  404     349   348   361   132
  405      24     6   274    22
  406      32    18    34   286
  407      72   303    74   315
  408     157   175   378   173
  409      47    65    49   296
  410      35    51   285   284
  411     341   353   355   124
  412     284    17   285    19
  413      17    35    19   284
  414      47   281   284    31
  415     296   281   284    47
  416     296   309   308    67
  417     296    51   297    67
  418      31    49    33   284
  419      33    51    35   284
  420      48   286    50   298
  421      49   296   284    47
  422      49    51   284   296
  423     286    18    34   285
  424     174   196   190   176
  425      73    91   314    89
  426      32   286    16    18
  427      13    14    12   282
  428     367   158   379   382
  429     344   357   356   131
  430     213   191   404   211
  431      44   295   293   280
  432     307    60    62   295
  433     119   137   347   135
  434     281    15   285   284
  435     282    15   285   281
  436      64   298    62    48
  437     334   333    98   114
  438     150   166   373   152
  439     388   400   386   187
  440     346   112   110   128
  441     346   126   110   343
  442     243   263   425   261
  443      99   114    98   333
  444      24     4   277     6
  445     310    64    80    82
  446     285    51    50    66
  447      33    51   284    49
  448     286   285    50    66
  449      17    18    16   285
  450     152   136   361   134
  451      43    61   292    59
  452      66   298    50   286
  453     387   170   375   168
  454      92    94   108   331
  455     274    40   277    24
  456     124   343   108   126
  457     128   112   130   114
  458     291   289   303    56
  459     298   286    46    48
  460     325   312    84   313
  461     345   131   130   357
  462     346   343   110   331
  463     415   228   430   230
  464     128   126   110   346
  465      15    16    14   285
  466     134   118   349   132
  467      83    98    82   321
  468     298   310    66    64
  469      16    18    34    32
  470     309   322   321    82
  471      51    67    66   297
  472     109   127   342   125
  473     163   381   179   178
  474     297   285    66    51
  475     297   310   309    66
  476      44    60   293   295
  477     394   176   382   174
  478     309   322    82   310
  479     285   298   297    66
  480     297   310    66   298
  481      67   309    66   297
  482     333   346   114   334
  483     115   345   114   333
  484     321   309    82    83
  485      83   309    82    67
  486      98   322    82   321
  487     432   252   234   433
  488     310    64    82    66
  489      84    69    68   312
  490     154   138   156   365
  491     186   170   188   389
  492     418   212   403   415
  493      96   322    94    80
  494      44   283    46   295
  495      94   319    78   322
  496      54    56   289    40
  497      92    94    78    76
  498      96   322    80   334
  499      98   334    80   322
  500      96   334    80    98
  501     331   334   110   346
  502     110   343   108   331
  503      24    40   277    42
  504      96   334    94   322
  505     319   322    94   334
  506     174   394   391   379
  507      80   310    78    64
  508     268   250   252   270
  509     322   307    78   310
  510      76   307    78   319
  511     244   226   228   242
  512     301    56   303   289
  513       2     6   274   273
  514     331   319    92    94
  515      96   334   110    94
  516      96   112   110   334
  517      94   112   110    96
  518     307   322    78   319
  519      38    40   274    24
  520      46    28    30   283
  521      80    96    78    94
  522      52    54   289    36
  523     393   406   198   394
  524     317    76    90    92
  525      14   286    30   283
  526      14    32    30   286
  527     322    80    78    94
  528     322   310    78    80
  529     253   268   432   251
  530      46   286    30    48
  531     122   108   106   124
  532      64    80    62    78
  533     110    94   108    92
  534     291    56   303    58
  535     305    60   293    58
  536      46   298    62   295
  537      48   286    30    32
  538      14   283    30    12
  539      76    60    62   307
  540      64    48    62    46
  541     279     8   276   280
  542      39    57   287    55
  543     286   285    14    16
  544     310    64    62    78
  545      46    48    62   298
  546     307   310    62    78
  547     283   282    14   286
  548     283    12    14   282
  549     286   282    14   285
  550      78    60    62    76
  551      46   283    30   286
  552      28    12    30   283
  553      76   307    62    78
  554     313   325    88    86
  555      44   295    62    60
  556      46   295    62    44
  557      37   273    36   288
  558     307    60   293   305
  559     167   185   383   183
  560     118   100   102   337
  561     276   273     4     5
  562     336   100   337   324
  563     315   313    88    72
  564     315   327    88   313
  565      10    28   280    12
  566      26     6     4    24
  567      37    21    36   273
  568     327   329   106   341
  569      36    22   274    20
  570     312    69    68   300
  571      38    40   289   274
  572     108   343   341   329
  573      38    54   289    40
  574     341   339   106   327
  575     301    54   289    52
  576     108   331   329    92
  577      26    10   277     8
  578     363   361   375   152
  579     307   295   293    60
  580      70    54    72    56
  581       2     0    20    22
  582      58    60   293    42
  583      84   312    68   313
  584      36   288    52    37
  585     301    56   289    54
  586      22    36   274    38
  587     120   122   351   339
  588      24     6    22     2
  589      54    40    38    56
  590      52   288   301   300
  591      20    22    38    36
  592       0     1     2   273
  593       3   273     2     1
  594      53    37    52   288
  595     300    53    68    52
  596     300    69    68    53
  597     409   224   421   424
  598      22    40    38    24
  599      72   313    88    70
  600      72    58    74   303
  601      42    56   291    58
  602     291    42   293   277
  603      74   317    90   315
  604      24    42   277    26
  605     291    42   277    40
  606     276   273   277     4
  607     324   101   100    85
  608     426   430   427   262
  609      22     2   274    20
  610     343   331   329   108
  611      36   288   289    52
  612     312    85    84    69
  613       8   276   277     4
  614       8     4   277    24
  615     274   273   289    36
  616      36   273   289   288
  617      36    54   289    38
  618      20     0   274   273
  619       2     0   274    20
  620       2   273   274     0
  621      42    60   293    44
  622     341   108   122   124
  623     228   208   415   413
  624     122   339   120   106
  625     289    40   291   274
  626      56    40   291   289
  627      56    42   291    40
  628     319   307   305    76
  629     277    10   280     8
  630     331   319   317    92
  631      44   295   280   283
  632      26    44   280    28
  633      42    44   280    26
  634      42    26   280   277
  635       8   276   280   277
  636      28   283   280    12
  637      28    44   280   283
  638     277    26   280    10
  639     283   279   280    12
  640     124   343   341   108
  641      81    99   320    97
  642     317   303    74   305
  643     337   118   120   102
  644     116   336   100   349
  645     122   339   106   341
  646     315   303    74   317
  647     312   324    84    85
  648     329    92    90   106
  649     136   118   349   134
  650      84   325   102   100
  651     324   312    84   325
  652     313   312    68   300
  653     142   355   370   367
  654     401   399   206   186
  655      68   301    70   313
  656      84   313    86   325
  657     313    84    86    68
  658     118   337   349   116
  659     313   300    68   301
  660     315    72    88    74
  661     341   353   122   339
  662     317   305    74    76
  663     337   100    84   324
  664     325   100    84   337
  665     337   324    84   325
  666     101   324   100   336
  667     122   124   138   353
  668     192   188   403   212
  669     337   336   349   100
  670     239   259   241   419
  671     150   152   361   134
  672     341   124   122   353
  673     184   385   182   168
  674     164   166   180   385
  675     244   230   430   228
  676     337   118   349   120
  677     387   168   375   373
  678     164   166   373   150
  679     337   100   116   118
  680     258   259   420   423
  681     102   337   104   120
  682     154   138   363   136
  683     337   339   104   120
  684     106   327    90   329
  685     329   317    90    92
  686      56    58    72   303
  687      70    56    72   301
  688      70   301    72   313
  689     315   329    90   327
  690     168   166   182   184
  691      74    92    90    76
  692     301   303    72   315
  693     301    56    72   303
  694     313   301    72   315
  695      72    56    74    58
  696      58    76    74   305
  697      58    76   305    60
  698     120   339   104   106
  699     337   325   104   339
  700     327   339   104   325
  701     170   154   375   152
  702      86   325   104   102
  703      74    76    90   317
  704     104   327    90   106
  705     102   325   104   337
  706     118   116   349   132
  707      70   313    88    86
  708      90    74    88    72
  709      90   327    88   315
  710     104   327    88    90
  711     106   104    88    90
  712     104   325    88   327
  713     313   327    88   325
  714     138   365   351   353
  715     164   385   373   166
  716     150   148   373   164
  717     210   190   192   212
  718     138   124   140   353
  719     190   214   406   194
  720     377   375   389   170
  721     387   170   389   375
  722     391   188   403   192
  723     358   343   355   126
  724     188   208   403   212
  725     244   427   430   262
  726     152   168   375   170
  727     216   210   418   232
  728     184   385   397   182
  729     192   394   406   391
  730     219   234   417   235
  731     182   184   202   397
  732     120   337   351   349
  733     124   353   355   140
  734     156   158   367   140
  735       8   279    10   280
  736     116   337   349   100
  737     182   385   180   166
  738     373   385   387   168
  739     409   224   222   421
  740     180   182   202   397
  741     152   168   150   166
  742     349   132   361   134
  743     168   385   182   166
  744     411   224   409   424
  745     136   120   351   349
  746     136   120   349   118
  747     186   399   206   204
  748     150   148   361   373
  749     225   243   227   422
  750     170   168   387   186
  751     136   349   351   363
  752     395   396   201   408
  753     258   424   240   242
  754     148   134   132   150
  755     118   116   132   134
  756     373   152   361   150
  757     349   134   361   136
  758     370   158   382   160
  759     182   166   180   164
  760     227   243   425   422
  761     221   239   223   419
  762     180   385   373   164
  763     221   236   237   420
  764     421   256   420   258
  765     186   168   387   184
  766     361   136   363   349
  767     222   224   240   421
  768     152   166   373   168
  769     385   168   373   166
  770     181   203   183   395
  771     365   138   363   154
  772     366   380   378   159
  773     184   168   387   385
  774     148   134   361   132
  775     138   122   351   120
  776     120   339   351   337
  777     363   138   351   136
  778     210   190   406   192
  779     138   120   351   136
  780     155   376   362   374
  781     363   365   351   138
  782     373   152   375   361
  783     373   168   375   152
  784     395   181   201   396
  785     125   340   352   354
  786     155   374   362   153
  787     228   413   430   427
  788     180   385   372   373
  789     122   353   351   339
  790     138   353   351   122
  791     227   422   425   410
  792     170   154   377   375
  793      55    73   299    71
  794     363   154   377   365
  795     375   154   377   363
  796     415   230   418   212
  797     359   137   135   347
  798     172   192   188   391
  799     229   428   425   245
  800     231   428   247   431
  801     401   208   403   188
  802     129   147   356   145
  803     260   261   423   426
  804     422   426   261   425
  805     230   244   430   246
  806     185   207   398   205
  807     413   411   206   399
  808     173   390   388   189
  809     394   192   406   190
  810     204   411   206   224
  811     413   399   206   401
  812     399   385   397   184
  813     172   156   379   377
  814      99   114   333   115
  815     226   224   206   411
  816     216   196   406   214
  817     204   224   206   226
  818     200   397   202   409
  819     149   133   360   359
  820     263   245   425   428
  821     200   409   408   396
  822     397   396   200   180
  823     409   396   200   397
  824     180   397   202   200
  825     377   154   172   156
  826     217   235   219   416
  827     208   413   228   226
  828     415   208   403   401
  829     158   156   379   174
  830     195   217   197   404
  831     264   244   246   262
  832     172   377   391   389
  833     220   409   408   200
  834     421   224   240   424
  835     421   424   240   258
  836     184   186   206   204
  837     238   421   240   258
  838     421   238   236   256
  839     256   254   236   421
  840     410   205   395   398
  841     383   398   395   185
  842     409   200   220   222
  843     222   421   220   409
  844     222   238   220   421
  845     236   421   220   238
  846     222   421   240   238
  847     242   427   260   424
  848     182   184   204   202
  849     242   424   260   258
  850     202   184   204   397
  851     208   186   401   206
  852     184   186   204   399
  853     397   409   204   202
  854     184   399   204   397
  855     195   217   404   215
  856     222   409   204   224
  857     202   409   204   222
  858     222   224   204   202
  859     409   411   204   224
  860     397   411   204   409
  861     399   411   204   397
  862     424   224   226   411
  863     427   411   226   413
  864     242   262   427   244
  865     424   427   226   242
  866     424   411   226   427
  867     240   224   226   424
  868     242   224   226   240
  869     240   424   226   242
  870     406   214   418   216
  871     242   258   260   240
  872     234   433   252   232
  873     178   162   381   382
  874     172   192   391   174
  875     242   262   260   427
  876     215   217   404   416
  877     226   413   228   427
  878     418   406   403   212
  879     264   433   246   248
  880     353   365   367   140
  881     179   393   392   199
  882     380   161   159   368
  883     124   343   355   341
  884     367   365   379   156
  885     246   244   228   230
  886     401   413   208   206
  887     186   208   401   188
  888     367   156   379   158
  889     142   144   370   358
  890     377   154   156   365
  891     160   162   370   146
  892     210   230   418   232
  893     228   230   415   208
  894     190   174   394   192
  895     191   195   404   215
  896     208   226   228   206
  897     415   212   403   208
  898     406   192   403   212
  899     208   230   415   212
  900     394   190   406   194
  901     417   218   219   405
  902     270   248   252   433
  903     389   170   172   377
  904     111   129   344   127
  905     160   146   370   144
  906     206   413   208   226
  907     406   216   418   218
  908     174   192   391   394
  909     415   433   418   230
  910     188   170   172   389
  911     190   196   394   176
  912     381   162   163   369
  913     401   186   188   389
  914     205   227   410   225
  915     147   369   368   163
  916     138   365   140   156
  917     138   353   140   365
  918     122   124   140   138
  919     124   126   355   343
  920     382   174   379   394
  921     270   433   432   266
  922     185   183   395   383
  923     218   405   199   219
  924     358   126   355   142
  925     124   140   355   142
  926     394   178   382   176
  927     252   432   268   433
  928     377   170   172   154
  929     176   178   162   160
  930     156   365   379   377
  931     174   156   379   172
  932     270   433   252   268
  933     142   126   355   124
  934     196   214   216   194
  935     416   235   431   233
  936     140   142   367   355
  937     158   174   382   176
  938     142   160   370   144
  939     262   264   429   430
  940     174   190   394   176
  941     208   401   415   413
  942     131   357   146   130
  943      32    50   286    34
  944     140   158   367   142
  945     243   261   425   422
  946     394   198   393   178
  947     162   160   144   146
  948     367   158   370   142
  949     140   365   367   156
  950     142   358   370   355
  951     130   128   144   146
  952     402   213   414   209
  953     353   140   367   355
  954     251   432   271   269
  955     172   389   391   188
  956     125   143   127   354
  957     367   158   382   370
  958     194   196   406   394
  959     270   433   266   248
  960     369   382   162   370
  961     160   158   382   176
  962     246   433   232   248
  963     230   433   232   246
  964     246   248   232   230
  965     392   193   404   390
  966     264   248   266   433
  967     188   389   403   401
  968     232   212   216   230
  969     210   230   216   212
  970     232   230   216   210
  971     248   264   266   246
  972     426   430   262   429
  973     406   218   405   198
  974     415   230   430   433
  975     196   190   394   194
  976     358   144   370   146
  977     368   163   380   161
  978     379   172   391   174
  979     346   343   358   126
  980     357   130   358   146
  981     345   358   357   130
  982     147   369   163   162
  983     144   126   358   142
  984     146   130   358   144
  985     128   126   358   144
  986     128   346   358   126
  987     130   128   358   144
  988     130   346   358   128
  989     165   164   372   149
  990     246   433   430   230
  991     228   427   430   244
  992     176   178   382   162
  993     160   162   382   370
  994     268   252   251   253
  995     176   196   394   198
  996     198   178   394   176
  997     234   218   417   418
  998     393   406   405   198
  999     246   264   430   433
 1000     393   178   179   381
 1001     246   244   430   262
 1002     386   398   185   187
 1003     382   158   379   174
 1004     262   264   430   246
 1005     415   413   430   228
 1006     379   377   391   172
 1007     392   193   390   175
 1008     212   210   418   406
 1009     212   230   418   210
 1010     214   210   418   216
 1011     210   214   418   406
 1012     406   391   403   192
 1013     391   389   403   188
 1014     216   218   406   196
 1015     394   196   406   198
 1016     218   198   406   196
 1017     234   218   418   216
 1018     234   232   418   433
 1019     216   232   418   234
 1020     181   200   201   396
 1021     398   207   412   410
 1022     417   433   234   418
 1023     266   433   432   264
 1024     162   146   369   370
 1025     429   433   264   432
 1026     121   139   350   137
 1027     402   416   414   213
 1028     405   418   417   218
 1029     405   418   218   406
 1030     381   394   178   382
 1031       5     6   273     4
 1032     381   394   393   178
 1033     404   417   219   405
 1034     356   369   368   147
 1035     416   432   235   417
 1036     171   189   173   388
 1037     231   428   414   229
 1038     357   370   369   146
 1039     412   229   425   227
 1040     422   225   410   227
 1041     157   175   159   378
 1042     159   380   378   175
 1043     229   209   414   231
 1044     263   264   429   262
 1045       8   279   276     9
 1046     259   419   257   420
 1047     265   428   263   429
 1048     181   180   384   165
 1049     266   270   267   432
 1050     167   169   371   383
 1051     357   370   146   358
 1052     266   265   264   432
 1053     129   147   131   356
 1054     145   356   368   147
 1055     178   162   163   381
 1056      19    34   285    35
 1057     219   234   218   417
 1058     175   197   177   392
 1059     269   270   268   432
 1060     162   146   147   369
 1061     231   249   233   431
 1062     131   356   147   357
 1063     146   357   147   369
 1064     146   131   147   357
 1065     405   218   199   198
 1066     261   262   426   260
 1067     145   143   368   356
 1068     354   356   368   143
 1069     159   177   161   380
 1070     145   163   147   368
 1071     159   157   378   366
 1072     163   381   380   179
 1073     161   179   163   380
 1074     141   366   352   364
 1075     393   198   179   178
 1076     199   198   179   393
 1077     145   163   368   161
 1078     356   369   147   357
 1079     380   393   179   381
 1080     199   177   392   179
 1081     392   175   390   378
 1082     392   195   404   191
 1083      57    75   302    73
 1084     390   175   173   378
 1085     231   209   414   213
 1086     187   171   386   388
 1087     392   175   380   177
 1088     368   381   380   163
 1089     392   177   380   179
 1090     173   193   175   390
 1091     259   419   422   241
 1092     197   219   199   404
 1093     392   405   199   393
 1094     195   392   404   197
 1095     191   193   404   392
 1096     199   197   404   392
 1097     141   159   143   366
 1098     141   354   352   366
 1099     243   263   245   425
 1100     213   191   193   404
 1101      27    45   278    43
 1102     380   392   378   175
 1103     223   241   419   239
 1104     241   419   422   225
 1105     271   249   431   253
 1106     229   247   231   428
 1107     425   429   263   428
 1108     261   259   423   422
 1109     368   380   366   159
 1110     187   189   388   400
 1111     368   143   366   354
 1112     159   143   366   368
 1113     390   193   402   189
 1114     416   217   404   219
 1115     213   211   404   416
 1116     405   219   404   199
 1117      31    49   284    47
 1118     213   233   217   416
 1119     193   197   392   191
 1120     175   197   392   193
 1121     425   429   426   263
 1122      63    81   308    79
 1123     266   265   432   267
 1124     219   417   416   235
 1125     404   417   416   219
 1126     205   207   398   410
 1127     239   259   419   257
 1128     213   193   402   404
 1129     416   213   402   404
 1130     233   231   431   416
 1131     271   432   431   267
 1132     404   193   402   390
 1133     185   398   395   205
 1134     261   262   263   426
 1135     432   253   431   235
 1136     213   189   402   193
 1137     267   249   431   271
 1138     213   209   402   189
 1139     416   231   431   414
 1140     137   155   139   362
 1141     414   231   431   428
 1142     253   432   431   271
 1143     151   169   371   167
 1144     157   366   364   378
 1145     247   267   249   431
 1146     247   428   265   431
 1147     429   264   265   432
 1148     227   245   229   425
 1149     432   267   265   431
 1150     428   432   265   431
 1151     263   264   265   429
 1152     386   171   169   374
 1153     340   123   352   338
 1154     139   157   141   364
 1155     125   123   352   340
 1156     180   396   384   397
 1157     181   396   395   383
 1158     187   209   189   400
 1159     260   424   423   258
 1160     209   402   400   414
 1161     429   262   426   263
 1162     376   390   388   173
 1163     157   141   364   366
 1164     200   396   181   180
 1165     205   227   207   410
 1166     261   260   423   259
 1167     227   410   425   412
 1168     207   229   209   412
 1169      37    55   287    53
 1170     262   427   426   260
 1171     187   400   386   398
 1172     209   207   412   400
 1173     400   207   412   398
 1174     125   354   352   141
 1175     407   205   395   410
 1176     425   263   426   261
 1177     414   428   412   229
 1178     229   209   412   414
 1179     421   409   408   220
 1180     400   414   412   209
 1181     207   227   412   410
 1182     123   141   352   139
 1183     364   141   139   352
 1184     412   428   425   229
 1185     400   398   187   207
 1186     421   220   408   420
 1187     423   427   260   426
 1188     376   173   388   171
 1189     361   164   360   373
 1190     420   424   421   258
 1191      13    14   282    15
 1192     149   167   371   165
 1193     335   338   350   121
 1194     123   141   125   352
 1195     364   155   362   139
 1196     364   139   362   350
 1197     164   373   372   360
 1198     241   261   422   259
 1199     189   402   388   400
 1200      75    93   316    91
 1201     117   135   119   347
 1202     155   364   362   376
 1203     350   139   362   137
 1204     171   155   374   376
 1205     173   378   376   390
 1206     155   173   157   376
 1207     364   157   376   155
 1208     157   378   376   173
 1209     364   378   376   157
 1210     285   298    66   286
 1211     133   151   135   359
 1212     149   371   372   165
 1213     360   149   372   164
 1214     201   220   221   408
 1215     121   338   350   123
 1216     362   374   359   153
 1217     359   137   347   362
 1218     350   137   347   121
 1219     183   205   185   395
 1220     135   153   137   359
 1221     185   207   187   398
 1222     117   348   347   335
 1223     121   139   123   350
 1224     121   119   347   335
 1225     350   121   347   335
 1226     153   171   155   374
 1227     169   386   383   185
 1228     117   133   347   348
 1229     119   137   121   347
 1230     408   396   201   200
 1231     347   133   135   359
 1232     359   374   371   153
 1233     352   364   350   139
 1234     352   123   350   338
 1235     139   123   350   352
 1236     372   165   384   180
 1237     153   137   359   362
 1238     203   225   205   407
 1239     167   185   169   383
 1240     180   385   384   372
 1241     383   183   395   181
 1242     171   189   388   187
 1243     197   219   404   217
 1244     383   169   371   386
 1245      79    97   320    95
 1246     221   420   237   419
 1247     236   421   420   220
 1248     185   386   383   398
 1249     359   149   372   360
 1250      29    47   281    45
 1251     151   359   371   153
 1252     153   374   371   169
 1253     374   386   371   169
 1254     151   169   153   371
 1255     419   423   259   422
 1256     165   183   167   383
 1257     383   167   165   371
 1258     217   211   416   215
 1259     257   258   259   420
 1260     257   419   255   420
 1261     359   371   372   149
 1262     254   421   420   236
 1263     149   167   151   371
 1264     428   432   429   265
 1265     237   254   255   420
 1266     397   385   384   180
 1267     181   383   384   396
 1268     421   254   420   256
 1269     165   180   372   164
 1270     371   383   384   165
 1271     371   165   384   372
 1272     165   383   384   181
 1273     149   148   360   133
 1274     347   133   360   348
 1275     359   133   360   347
 1276     149   164   360   148
 1277     148   164   360   361
 1278     132   348   360   133
 1279     132   133   360   148
 1280     132   148   360   361
 1281     361   348   360   132
 1282      97   115   332   113
 1283     139   157   364   155
 1284     410   225   407   205
 1285     422   225   407   410
 1286     422   419   407   225
 1287     141   159   366   157
 1288     221   407   201   408
 1289     408   407   201   395
 1290     255   419   237   420
 1291     201   223   203   407
 1292     407   419   223   225
 1293     420   254   255   256
 1294     237   257   239   419
 1295     223   241   225   419
 1296     269   270   432   271
 1297     380   393   392   179
 1298     220   420   221   408
 1299      10   279    11    12
 1300     407   408   221   420
 1301     420   256   255   257
 1302      15    33   284    31
 1303     187   209   400   207
 1304      77    95   318    93
 1305     235   252   432   253
 1306     407   420   221   419
 1307     223   407   221   419
 1308     115   130   345   131
 1309     252   268   251   250
 1310       1    23   272    21
 1311      65    83   308    81
 1312     165   183   383   181
 1313     113   131   344   129
 1314     227   245   425   243
 1315     237   254   420   236
 1316       6   273     3     7
 1317     107   125   340   123
 1318     321   334   333    98
 1319      13    31   281    29
 1320     117   135   347   133
 1321      53    71   299    69
 1322     336   101   116   100
 1323     420   424   258   423
 1324     201   223   407   221
 1325     217   235   416   233
 1326     221   236   420   220
 1327     247   267   431   265
 1328     207   229   412   227
 1329     127   145   356   143
 1330     183   205   395   203
 1331      10   279    12   280
 1332     332   345   344   115
 1333     229   247   428   245
 1334     284   297   296    51
 1335     125   143   354   141
 1336     432   235   234   252
 1337      45    63   294    61
 1338     135   153   359   151
 1339      59    77   304    75
 1340     419   423   420   259
 1341     392   405   404   199
 1342      47    65   296    63
 1343     153   171   374   169
 1344      17    18   285    19
 1345     324    85   100    84
 1346     203   225   407   223
 1347      93   111   330   109
 1348      69    87   311    85
# Generated by /tmp/dc-viability.8juxjd/tetgen-build/tetgen -pYM /tmp/dc-viability.8juxjd/shell-n8-phase3.poly
