473  3  0  0
   0    -0.9402295478724827  -0.87720055117846563  0.080698819907311717
   1    -0.9402295478724827  -0.87720055117846563  -0.94999999999999996
   2    -0.94045661352207865  -0.62846635817296281  0.092084520049413171
   3    -0.94045661352207865  -0.62846635817296281  -0.94999999999999996
   4    -0.93991914232179941  -0.37949257375377049  0.098002982045662865
   5    -0.93991914232179941  -0.37949257375377049  -0.94999999999999996
   6    -0.93829785196002713  -0.12908395861211566  0.077375754777508132
   7    -0.93829785196002713  -0.12908395861211566  -0.94999999999999996
   8    -0.93659413276790038  0.12059136900539705  0.071057768381136574
   9    -0.93659413276790038  0.12059136900539705  -0.94999999999999996
  10    -0.9341877528151632  0.36903521450718463  0.087874735423413119
  11    -0.9341877528151632  0.36903521450718463  -0.94999999999999996
  12    -0.93204967517708948  0.61873279484727073  0.081595038321319091
  13    -0.93204967517708948  0.61873279484727073  -0.94999999999999996
  14    -0.92985404091169355  0.86887575181510313  0.067241967229554556
  15    -0.92985404091169355  0.86887575181510313  -0.94999999999999996
  16    -0.81564989109889607  -0.87728667071417532  0.082351990515606238
  17    -0.81564989109889607  -0.87728667071417532  -0.94999999999999996
  18    -0.81646290956819756  -0.62909034088407789  0.10960041064612899
  19    -0.81646290956819756  -0.62909034088407789  -0.94999999999999996
  20    -0.81538834951753936  -0.37937992954964989  0.10516797234845676
  21    -0.81538834951753936  -0.37937992954964989  -0.94999999999999996
  22    -0.81320899437639893  -0.12726937828084123  0.05090821625125299
  23    -0.81320899437639893  -0.12726937828084123  -0.94999999999999996
  24    -0.81184552595508142  0.12285391903125889  0.038025949677241599
  25    -0.81184552595508142  0.12285391903125889  -0.94999999999999996
  26    -0.80953130806920659  0.37056155214473441  0.075344774392804237
  27    -0.80953130806920659  0.37056155214473441  -0.94999999999999996
  28    -0.80761977525123252  0.6200856900846714  0.075231603195080404
  29    -0.80761977525123252  0.6200856900846714  -0.94999999999999996
  30    -0.80539314508780901  0.87015006047622356  0.063980506664441134
  31    -0.80539314508780901  0.87015006047622356  -0.94999999999999996
  32    -0.68998970058119924  -0.87658504138171633  0.06779661916859725
  33    -0.68998970058119924  -0.87658504138171633  -0.94999999999999996
  34    -0.69133029839572879  -0.62842678484056913  0.10404736108600701
  35    -0.69133029839572879  -0.62842678484056913  -0.94999999999999996
  36    -0.69043031495682383  -0.37872939841250436  0.10323233436960573
  37    -0.69043031495682383  -0.37872939841250436  -0.94999999999999996
  38    -0.68818335341796044  -0.12656237992329292  0.042314966025156671
  39    -0.68818335341796044  -0.12656237992329292  -0.94999999999999996
  40    -0.68693559517435721  0.12368046724533785  0.027773786409281805
  41    -0.68693559517435721  0.12368046724533785  -0.94999999999999996
  42    -0.6846794114851642  0.37150961125544457  0.071734208511967226
  43    -0.6846794114851642  0.37150961125544457  -0.94999999999999996
  44    -0.68257435007305434  0.62084805432787304  0.079411321192368975
  45    -0.68257435007305434  0.62084805432787304  -0.94999999999999996
  46    -0.67993869003046425  0.87066328383852454  0.075561025609834062
  47    -0.67993869003046425  0.87066328383852454  -0.94999999999999996
  48    -0.56418692251874458  -0.87588645984154612  0.050415007855851179
  49    -0.56418692251874458  -0.87588645984154612  -0.94999999999999996
  50    -0.56569318932446599  -0.62740029544435783  0.08796965536856069
  51    -0.56569318932446599  -0.62740029544435783  -0.94999999999999996
  52    -0.56535943897102636  -0.37807968321919588  0.10200369866893214
  53    -0.56535943897102636  -0.37807968321919588  -0.94999999999999996
  54    -0.56329883397573088  -0.12675955753810134  0.057219737175407182
  55    -0.56329883397573088  -0.12675955753810134  -0.94999999999999996
  56    -0.5618250814398269  0.12345110274931909  0.043992716397512482
  57    -0.5618250814398269  0.12345110274931909  -0.94999999999999996
  58    -0.55960092779616766  0.37200177816351276  0.078802894100135454
  59    -0.55960092779616766  0.37200177816351276  -0.94999999999999996
  60    -0.55757860219820565  0.62159490203165835  0.082979785393734865
  61    -0.55757860219820565  0.62159490203165835  -0.94999999999999996
  62    -0.55502503599893649  0.87144268736386721  0.08006619233885727
  63    -0.55502503599893649  0.87144268736386721  -0.94999999999999996
  64    -0.43939566753626635  -0.87570266737404245  0.046759113155292201
  65    -0.43939566753626635  -0.87570266737404245  -0.94999999999999996
  66    -0.4401636987527156  -0.62656119851502723  0.072419055913962443
  67    -0.4401636987527156  -0.62656119851502723  -0.94999999999999996
  68    -0.44020030126190296  -0.37741901297314256  0.10016158298904096
  69    -0.44020030126190296  -0.37741901297314256  -0.94999999999999996
  70    -0.43847803705765864  -0.12714011914981455  0.086546485281692231
  71    -0.43847803705765864  -0.12714011914981455  -0.94999999999999996
  72    -0.43659025326082046  0.12295838857522512  0.07766321935773654
  73    -0.43659025326082046  0.12295838857522512  -0.94999999999999996
  74    -0.43455335817341506  0.37247838692698965  0.088206589144112862
  75    -0.43455335817341506  0.37247838692698965  -0.94999999999999996
  76    -0.43322985949714998  0.62265095581111929  0.074471259109212193
  77    -0.43322985949714998  0.62265095581111929  -0.94999999999999996
  78    -0.43150132502746158  0.87273548476720131  0.065148001387749704
  79    -0.43150132502746158  0.87273548476720131  -0.94999999999999996
  80    -0.31572839627098498  -0.87580316895382604  0.058823987213979606
  81    -0.31572839627098498  -0.87580316895382604  -0.94999999999999996
  82    -0.31492027964007363  -0.6259649070126192  0.060678298348507499
  83    -0.31492027964007363  -0.6259649070126192  -0.94999999999999996
  84    -0.31477637782829671  -0.37657116356712367  0.087954228372995491
  85    -0.31477637782829671  -0.37657116356712367  -0.94999999999999996
  86    -0.31350741630662315  -0.12689211347042323  0.10314441245246431
  87    -0.31350741630662315  -0.12689211347042323  -0.94999999999999996
  88    -0.31145229981741263  0.12308160137528262  0.10125235625067701
  89    -0.31145229981741263  0.12308160137528262  -0.94999999999999996
  90    -0.30982105196566101  0.37323182856733961  0.087306830423160522
  91    -0.30982105196566101  0.37323182856733961  -0.94999999999999996
  92    -0.3091017761246202  0.62365128821529037  0.060465171687593335
  93    -0.3091017761246202  0.62365128821529037  -0.94999999999999996
  94    -0.30795039506680494  0.87377236951471549  0.050560586763388218
  95    -0.30795039506680494  0.87377236951471549  -0.94999999999999996
  96    -0.19208703827715723  -0.87568857378907827  0.071645820745300404
  97    -0.19208703827715723  -0.87568857378907827  -0.94999999999999996
  98    -0.18982623575308472  -0.6255252265822131  0.051805834265447499
  99    -0.18982623575308472  -0.6255252265822131  -0.94999999999999996
 100    -0.18918026317909672  -0.37574461239986423  0.066001193812729092
 101    -0.18918026317909672  -0.37574461239986423  -0.94999999999999996
 102    -0.18831915957341244  -0.1260641719549811  0.09176940269651615
 103    -0.18831915957341244  -0.1260641719549811  -0.94999999999999996
 104    -0.18654134371578915  0.12386448257230387  0.096400488236436391
 105    -0.18654134371578915  0.12386448257230387  -0.94999999999999996
 106    -0.1853592553957546  0.37409079414405377  0.07396939721140533
 107    -0.1853592553957546  0.37409079414405377  -0.94999999999999996
 108    -0.18448354367703229  0.62431758129886572  0.054265633049749455
 109    -0.18448354367703229  0.62431758129886572  -0.94999999999999996
 110    -0.18287820149547365  0.87429178248571737  0.057212556318801067
 111    -0.18287820149547365  0.87429178248571737  -0.94999999999999996
 112    -0.067961231581622997  -0.8752630666471013  0.078366928680581802
 113    -0.067961231581622997  -0.8752630666471013  -0.94999999999999996
 114    -0.064935383694340529  -0.62516397030676862  0.048103399537924779
 115    -0.064935383694340529  -0.62516397030676862  -0.94999999999999996
 116    -0.063717786390926803  -0.37519267113232668  0.045379555649592541
 117    -0.063717786390926803  -0.37519267113232668  -0.94999999999999996
 118    -0.063050520835056897  -0.12529479096046664  0.065714131265391579
 119    -0.063050520835056897  -0.12529479096046664  -0.94999999999999996
 120    -0.061711277036152708  0.12467193197914958  0.076842987704911339
 121    -0.061711277036152708  0.12467193197914958  -0.94999999999999996
 122    -0.060775960593974172  0.37474693052277519  0.061647184246827733
 123    -0.060775960593974172  0.37474693052277519  -0.94999999999999996
 124    -0.0591098893952125  0.62478054358038815  0.062343022097945996
 125    -0.0591098893952125  0.62478054358038815  -0.94999999999999996
 126    -0.056340992601788584  0.87472698229450074  0.084481526488513398
 127    -0.056340992601788584  0.87472698229450074  -0.94999999999999996
 128    0.056248859400677018  -0.87464434317255746  0.085243536059425598
 129    0.056248859400677018  -0.87464434317255746  -0.94999999999999996
 130    0.059153793174327257  -0.62470232277597049  0.062024738506041524
 131    0.059153793174327257  -0.62470232277597049  -0.94999999999999996
 132    0.061122168814789261  -0.37480687414734987  0.043096435026049096
 133    0.061122168814789261  -0.37480687414734987  -0.94999999999999996
 134    0.062107098784168771  -0.12484882385842762  0.045784238746156315
 135    0.062107098784168771  -0.12484882385842762  -0.94999999999999996
 136    0.063262319844348311  0.12523365938935366  0.065036420172010584
 137    0.063262319844348311  0.12523365938935366  -0.94999999999999996
 138    0.064388847546955591  0.37527902041874306  0.067451059782597481
 139    0.064388847546955591  0.37527902041874306  -0.94999999999999996
 140    0.066886222392511824  0.62535592109685423  0.084444562396924328
 141    0.066886222392511824  0.62535592109685423  -0.94999999999999996
 142    0.070477703876473563  0.87546867364181435  0.11603773466385521
 143    0.070477703876473563  0.87546867364181435  -0.94999999999999996
 144    0.18081123141580913  -0.87391027384275821  0.088155740645623454
 145    0.18081123141580913  -0.87391027384275821  -0.94999999999999996
 146    0.18261364094334065  -0.62384777032807948  0.090801084730008599
 147    0.18261364094334065  -0.62384777032807948  -0.94999999999999996
 148    0.18520376883277673  -0.37415590387258857  0.065632507004104307
 149    0.18520376883277673  -0.37415590387258857  -0.94999999999999996
 150    0.1870303058870591  -0.12448501894092701  0.043238605043024958
 151    0.1870303058870591  -0.12448501894092701  -0.94999999999999996
 152    0.18835478607792036  0.12572131678502629  0.064836953291997707
 153    0.18835478607792036  0.12572131678502629  -0.94999999999999996
 154    0.18991500586993837  0.37594715156170394  0.085260423696468218
 155    0.18991500586993837  0.37594715156170394  -0.94999999999999996
 156    0.19253818865240238  0.62609865354024863  0.10283101747352295
 157    0.19253818865240238  0.62609865354024863  -0.94999999999999996
 158    0.19571357273468781  0.8762887442997136  0.12536432110186593
 159    0.19571357273468781  0.8762887442997136  -0.94999999999999996
 160    0.30611693380885968  -0.87326329143315384  0.079827824188699742
 161    0.30611693380885968  -0.87326329143315384  -0.94999999999999996
 162    0.30661990615366813  -0.62273673516635897  0.10981397755940428
 163    0.30661990615366813  -0.62273673516635897  -0.94999999999999996
 164    0.30923690794863495  -0.37311102417523145  0.092561112206632323
 165    0.30923690794863495  -0.37311102417523145  -0.94999999999999996
 166    0.31182627256309975  -0.12398971862114684  0.051032823337931701
 167    0.31182627256309975  -0.12398971862114684  -0.94999999999999996
 168    0.31333814282113709  0.1261333224470336  0.06315984254977422
 169    0.31333814282113709  0.1261333224470336  -0.94999999999999996
 170    0.31497412593693591  0.37652908560493564  0.088666093951824052
 171    0.31497412593693591  0.37652908560493564  -0.94999999999999996
 172    0.31687739476824739  0.62657690365060792  0.096355397102445978
 173    0.31687739476824739  0.62657690365060792  -0.94999999999999996
 174    0.31874931869947232  0.87660459289769399  0.10321090729527269
 175    0.31874931869947232  0.87660459289769399  -0.94999999999999996
 176    0.43182354515449461  -0.8728335876334683  0.064213556518244577
 177    0.43182354515449461  -0.8728335876334683  -0.94999999999999996
 178    0.43171235890152043  -0.62187274972835593  0.10622216056313441
 179    0.43171235890152043  -0.62187274972835593  -0.94999999999999996
 180    0.43389438518495482  -0.37211324784706401  0.10177756398683621
 181    0.43389438518495482  -0.37211324784706401  -0.94999999999999996
 182    0.43670638725557176  -0.12352464996365971  0.053627031337482048
 183    0.43670638725557176  -0.12352464996365971  -0.94999999999999996
 184    0.43812656649510284  0.12622505113234933  0.050743468871210819
 185    0.43812656649510284  0.12622505113234933  -0.94999999999999996
 186    0.43932759039440383  0.37655363284647181  0.069557047237667979
 187    0.43932759039440383  0.37655363284647181  -0.94999999999999996
 188    0.44033387042928396  0.62643913412039609  0.07091158131557436
 189    0.44033387042928396  0.62643913412039609  -0.94999999999999996
 190    0.44109307860454411  0.87629000287968695  0.070857634765063349
 191    0.44109307860454411  0.87629000287968695  -0.94999999999999996
 192    0.55792203288663544  -0.8727910908417682  0.042053356749411561
 193    0.55792203288663544  -0.8727910908417682  -0.94999999999999996
 194    0.55765361930043467  -0.62159401327805752  0.084705106824427112
 195    0.55765361930043467  -0.62159401327805752  -0.94999999999999996
 196    0.55904401399568449  -0.37135211266120327  0.097721764720771293
 197    0.55904401399568449  -0.37135211266120327  -0.94999999999999996
 198    0.56162524041548478  -0.12289470667840997  0.058151354075652223
 199    0.56162524041548478  -0.12289470667840997  -0.94999999999999996
 200    0.56291955837151242  0.12631416292070952  0.042422543425510169
 201    0.56291955837151242  0.12631416292070952  -0.94999999999999996
 202    0.56367297265731764  0.37631982824340393  0.050360150720751506
 203    0.56367297265731764  0.37631982824340393  -0.94999999999999996
 204    0.62362401395870493  0.74678603638077312  0.022880677030156865
 205    0.62362401395870493  0.74678603638077312  -0.94999999999999996
 206    0.57522751381819837  0.64879717371913814  0.040990425506385375
 207    0.57522751381819837  0.64879717371913814  -0.94999999999999996
 208    0.62024621925711465  0.87494988554402664  0.025787387774005292
 209    0.62024621925711465  0.87494988554402664  -0.94999999999999996
 210    0.55901342263026577  0.8755054806398922  0.041238752929702333
 211    0.55901342263026577  0.8755054806398922  -0.94999999999999996
 212    0.68398762623919074  -0.87293831439517522  0.020382159679426696
 213    0.68398762623919074  -0.87293831439517522  -0.94999999999999996
 214    0.68382547515605352  -0.62179365445800783  0.05726752076004088
 215    0.68382547515605352  -0.62179365445800783  -0.94999999999999996
 216    0.68439770820237444  -0.37078349663124199  0.089694519798480032
 217    0.68439770820237444  -0.37078349663124199  -0.94999999999999996
 218    0.68649888600568643  -0.12168992458030972  0.074933333200238594
 219    0.68649888600568643  -0.12168992458030972  -0.94999999999999996
 220    0.68792232300175127  0.12711612426780106  0.054587533572117986
 221    0.68792232300175127  0.12711612426780106  -0.94999999999999996
 222    0.68870405678546875  0.37670424728884122  0.053550119680502092
 223    0.68870405678546875  0.37670424728884122  -0.94999999999999996
 224    0.68723588894988108  0.73122771210385717  0.020697774870060644
 225    0.68723588894988108  0.73122771210385717  -0.94999999999999996
 226    0.68828173378371749  0.60724485050809651  0.040346095298315288
 227    0.68828173378371749  0.60724485050809651  -0.94999999999999996
 228    0.68687637556525905  0.87460971332475557  0.021182356856909557
 229    0.68687637556525905  0.87460971332475557  -0.94999999999999996
 230    0.80859723482710788  -0.87224444925389144  0.020166947389617239
 231    0.80859723482710788  -0.87224444925389144  -0.94999999999999996
 232    0.80921583364240068  -0.6216702531681304  0.042855018483050067
 233    0.80921583364240068  -0.6216702531681304  -0.94999999999999996
 234    0.80983496374825692  -0.37050159243787151  0.07748882501797158
 235    0.80983496374825692  -0.37050159243787151  -0.94999999999999996
 236    0.81145610825102432  -0.12042109142122592  0.088595231018198078
 237    0.81145610825102432  -0.12042109142122592  -0.94999999999999996
 238    0.81304676461316738  0.12838266788811198  0.073895124227783271
 239    0.81304676461316738  0.12838266788811198  -0.94999999999999996
 240    0.81418909454171939  0.37775504890246658  0.071130853872169802
 241    0.81418909454171939  0.37775504890246658  -0.94999999999999996
 242    0.81225199169225304  0.73350267636247757  0.025722778965730095
 243    0.81225199169225304  0.73350267636247757  -0.94999999999999996
 244    0.81364232992855201  0.61009979808730075  0.053336373975311331
 245    0.81364232992855201  0.61009979808730075  -0.94999999999999996
 246    0.81431756680935963  0.85047402574033659  0.028443079770406464
 247    0.81431756680935963  0.85047402574033659  -0.94999999999999996
 248    0.85815661975361268  0.91808389451272043  0.042562228607772867
 249    0.85815661975361268  0.91808389451272043  -0.94999999999999996
 250    0.93167369327418736  -0.87024240700089883  0.042418070627950645
 251    0.93167369327418736  -0.87024240700089883  -0.94999999999999996
 252    0.93354117718605523  -0.62059304204085031  0.048463972238033781
 253    0.93354117718605523  -0.62059304204085031  -0.94999999999999996
 254    0.93515556985808401  -0.37041305719658374  0.064301981078934228
 255    0.93515556985808401  -0.37041305719658374  -0.94999999999999996
 256    0.93656922589875857  -0.11999955737503802  0.083541461381951967
 257    0.93656922589875857  -0.11999955737503802  -0.94999999999999996
 258    0.93804520651106871  0.12892144448953738  0.075981831873318181
 259    0.93804520651106871  0.12892144448953738  -0.94999999999999996
 260    0.93932448353578968  0.37831482771706892  0.076820376171462826
 261    0.93932448353578968  0.37831482771706892  -0.94999999999999996
 262    0.87533003010004329  0.74981932205893342  0.032768852959231064
 263    0.87533003010004329  0.74981932205893342  -0.94999999999999996
 264    0.92643934749150636  0.65154383801721538  0.059191149131686036
 265    0.92643934749150636  0.65154383801721538  -0.94999999999999996
 266    0.87533003010004329  0.75124360585958894  0.03283116537550973
 267    0.87533003010004329  0.75124360585958894  -0.94999999999999996
 268    0.92609035548264029  0.85145501165108572  0.051448366223416218
 269    0.92609035548264029  0.85145501165108572  -0.94999999999999996
 270    -0.71999999999999997  -0.46625  -0.73124999999999996
 271    -0.72999999999999998  -0.47749999999999998  -0.48125000000000001
 272    -0.73999999999999999  -0.48875000000000002  -0.23125000000000001
 273    -0.73499999999999999  -0.21625  -0.74062499999999998
 274    -0.73999999999999999  -0.22750000000000001  -0.49062499999999998
 275    -0.745  -0.23874999999999999  -0.24062500000000001
 276    -0.75  0.033750000000000002  -0.75
 277    -0.75  0.022499999999999999  -0.5
 278    -0.75  0.01125  -0.25
 279    -0.76500000000000001  0.28375  -0.75937500000000002
 280    -0.76000000000000001  0.27250000000000002  -0.50937500000000002
 281    -0.755  0.26124999999999998  -0.25937500000000002
 282    -0.78000000000000003  0.53374999999999995  -0.76875000000000004
 283    -0.77000000000000002  0.52249999999999996  -0.51875000000000004
 284    -0.76000000000000001  0.51124999999999998  -0.26874999999999999
 285    -0.59499999999999997  -0.47187499999999999  -0.734375
 286    -0.60499999999999998  -0.48125000000000001  -0.484375
 287    -0.61499999999999999  -0.49062499999999998  -0.234375
 288    -0.60999999999999999  -0.22187499999999999  -0.7421875
 289    -0.62  -0.24062500000000001  -0.2421875
 290    -0.625  0.028124999999999997  -0.75
 291    -0.625  0.0093749999999999997  -0.25
 292    -0.64000000000000001  0.27812500000000001  -0.7578125
 293    -0.63  0.25937500000000002  -0.2578125
 294    -0.65500000000000003  0.52812499999999996  -0.765625
 295    -0.64500000000000002  0.51875000000000004  -0.515625
 296    -0.63500000000000001  0.50937500000000002  -0.265625
 297    -0.46999999999999997  -0.47749999999999998  -0.73750000000000004
 298    -0.47999999999999998  -0.48499999999999999  -0.48749999999999999
 299    -0.48999999999999999  -0.49249999999999999  -0.23749999999999999
 300    -0.48499999999999999  -0.22750000000000001  -0.74375000000000002
 301    -0.495  -0.24249999999999999  -0.24374999999999999
 302    -0.5  0.022499999999999999  -0.75
 303    -0.5  0.0074999999999999997  -0.25
 304    -0.51500000000000001  0.27250000000000002  -0.75624999999999998
 305    -0.505  0.25750000000000001  -0.25624999999999998
 306    -0.53000000000000003  0.52249999999999996  -0.76249999999999996
 307    -0.52000000000000002  0.51500000000000001  -0.51249999999999996
 308    -0.51000000000000001  0.50749999999999995  -0.26250000000000001
 309    -0.34499999999999997  -0.48312500000000003  -0.74062499999999998
 310    -0.35499999999999998  -0.48875000000000002  -0.49062499999999998
 311    -0.36499999999999999  -0.49437500000000001  -0.24062500000000001
 312    -0.35999999999999999  -0.233125  -0.74531250000000004
 313    -0.37  -0.24437500000000001  -0.24531249999999999
 314    -0.375  0.016875000000000001  -0.75
 315    -0.375  0.0056249999999999998  -0.25
 316    -0.39000000000000001  0.26687499999999997  -0.75468749999999996
 317    -0.38  0.25562499999999999  -0.25468750000000001
 318    -0.40500000000000003  0.51687499999999997  -0.75937500000000002
 319    -0.39500000000000002  0.51124999999999998  -0.50937500000000002
 320    -0.38500000000000001  0.50562499999999999  -0.25937500000000002
 321    -0.22  -0.48875000000000002  -0.74375000000000002
 322    -0.23000000000000001  -0.49249999999999999  -0.49375000000000002
 323    -0.23999999999999999  -0.49625000000000002  -0.24374999999999999
 324    -0.23499999999999999  -0.23874999999999999  -0.74687499999999996
 325    -0.245  -0.24625  -0.24687500000000001
 326    -0.25  0.01125  -0.75
 327    -0.25  0.0037499999999999999  -0.25
 328    -0.26500000000000001  0.26124999999999998  -0.75312500000000004
 329    -0.255  0.25374999999999998  -0.25312499999999999
 330    -0.28000000000000003  0.51124999999999998  -0.75624999999999998
 331    -0.27000000000000002  0.50749999999999995  -0.50624999999999998
 332    -0.26000000000000001  0.50375000000000003  -0.25624999999999998
 333    -0.095000000000000001  -0.49437500000000001  -0.74687499999999996
 334    -0.105  -0.49625000000000002  -0.49687500000000001
 335    -0.115  -0.49812499999999998  -0.24687500000000001
 336    -0.11  -0.24437500000000001  -0.74843749999999998
 337    -0.12  -0.24812500000000001  -0.24843750000000001
 338    -0.125  0.0056249999999999998  -0.75
 339    -0.125  0.0018749999999999999  -0.25
 340    -0.14000000000000001  0.25562499999999999  -0.75156250000000002
 341    -0.13  0.25187500000000002  -0.25156250000000002
 342    -0.155  0.50562499999999999  -0.75312500000000004
 343    -0.14499999999999999  0.50375000000000003  -0.50312500000000004
 344    -0.13500000000000001  0.50187499999999996  -0.25312499999999999
 345    0.029999999999999999  -0.5  -0.75
 346    0.02  -0.5  -0.5
 347    0.01  -0.5  -0.25
 348    0.014999999999999999  -0.25  -0.75
 349    0.0050000000000000001  -0.25  -0.25
 350    0  0  -0.75
 351    0  0  -0.25
 352    -0.014999999999999999  0.25  -0.75
 353    -0.0050000000000000001  0.25  -0.25
 354    -0.029999999999999999  0.5  -0.75
 355    -0.02  0.5  -0.5
 356    -0.01  0.5  -0.25
 357    0.155  -0.50562499999999999  -0.75312500000000004
 358    0.14499999999999999  -0.50375000000000003  -0.50312500000000004
 359    0.13500000000000001  -0.50187499999999996  -0.25312499999999999
 360    0.14000000000000001  -0.25562499999999999  -0.75156250000000002
 361    0.13  -0.25187500000000002  -0.25156250000000002
 362    0.125  -0.0056249999999999998  -0.75
 363    0.125  -0.0018749999999999999  -0.25
 364    0.11  0.24437500000000001  -0.74843749999999998
 365    0.12  0.24812500000000001  -0.24843750000000001
 366    0.095000000000000001  0.49437500000000001  -0.74687499999999996
 367    0.105  0.49625000000000002  -0.49687500000000001
 368    0.115  0.49812499999999998  -0.24687500000000001
 369    0.28000000000000003  -0.51124999999999998  -0.75624999999999998
 370    0.27000000000000002  -0.50749999999999995  -0.50624999999999998
 371    0.26000000000000001  -0.50375000000000003  -0.25624999999999998
 372    0.26500000000000001  -0.26124999999999998  -0.75312500000000004
 373    0.255  -0.25374999999999998  -0.25312499999999999
 374    0.25  -0.01125  -0.75
 375    0.25  -0.0037499999999999999  -0.25
 376    0.23499999999999999  0.23874999999999999  -0.74687499999999996
 377    0.245  0.24625  -0.24687500000000001
 378    0.22  0.48875000000000002  -0.74375000000000002
 379    0.23000000000000001  0.49249999999999999  -0.49375000000000002
 380    0.23999999999999999  0.49625000000000002  -0.24374999999999999
 381    0.40500000000000003  -0.51687499999999997  -0.75937500000000002
 382    0.39500000000000002  -0.51124999999999998  -0.50937500000000002
 383    0.38500000000000001  -0.50562499999999999  -0.25937500000000002
 384    0.39000000000000001  -0.26687499999999997  -0.75468749999999996
 385    0.38  -0.25562499999999999  -0.25468750000000001
 386    0.375  -0.016875000000000001  -0.75
 387    0.375  -0.0056249999999999998  -0.25
 388    0.35999999999999999  0.233125  -0.74531250000000004
 389    0.37  0.24437500000000001  -0.24531249999999999
 390    0.34499999999999997  0.48312500000000003  -0.74062499999999998
 391    0.35499999999999998  0.48875000000000002  -0.49062499999999998
 392    0.36499999999999999  0.49437500000000001  -0.24062500000000001
 393    0.53000000000000003  -0.52249999999999996  -0.76249999999999996
 394    0.52000000000000002  -0.51500000000000001  -0.51249999999999996
 395    0.51000000000000001  -0.50749999999999995  -0.26250000000000001
 396    0.51500000000000001  -0.27250000000000002  -0.75624999999999998
 397    0.505  -0.25750000000000001  -0.25624999999999998
 398    0.5  -0.022499999999999999  -0.75
 399    0.5  -0.0074999999999999997  -0.25
 400    0.48499999999999999  0.22750000000000001  -0.74375000000000002
 401    0.495  0.24249999999999999  -0.24374999999999999
 402    0.46999999999999997  0.47749999999999998  -0.73750000000000004
 403    0.47999999999999998  0.48499999999999999  -0.48749999999999999
 404    0.48999999999999999  0.49249999999999999  -0.23749999999999999
 405    0.65500000000000003  -0.52812499999999996  -0.765625
 406    0.64500000000000002  -0.51875000000000004  -0.515625
 407    0.63500000000000001  -0.50937500000000002  -0.265625
 408    0.64000000000000001  -0.27812500000000001  -0.7578125
 409    0.63  -0.25937500000000002  -0.2578125
 410    0.625  -0.028124999999999997  -0.75
 411    0.625  -0.0093749999999999997  -0.25
 412    0.60999999999999999  0.22187499999999999  -0.7421875
 413    0.62  0.24062500000000001  -0.2421875
 414    0.59499999999999997  0.47187499999999999  -0.734375
 415    0.60499999999999998  0.48125000000000001  -0.484375
 416    0.61499999999999999  0.49062499999999998  -0.234375
 417    0.78000000000000003  -0.53374999999999995  -0.76875000000000004
 418    0.77000000000000002  -0.52249999999999996  -0.51875000000000004
 419    0.76000000000000001  -0.51124999999999998  -0.26874999999999999
 420    0.76500000000000001  -0.28375  -0.75937500000000002
 421    0.76000000000000001  -0.27250000000000002  -0.50937500000000002
 422    0.755  -0.26124999999999998  -0.25937500000000002
 423    0.75  -0.033750000000000002  -0.75
 424    0.75  -0.022499999999999999  -0.5
 425    0.75  -0.01125  -0.25
 426    0.73499999999999999  0.21625  -0.74062499999999998
 427    0.73999999999999999  0.22750000000000001  -0.49062499999999998
 428    0.745  0.23874999999999999  -0.24062500000000001
 429    0.71999999999999997  0.46625  -0.73124999999999996
 430    0.72999999999999998  0.47749999999999998  -0.48125000000000001
 431    0.73999999999999999  0.48875000000000002  -0.23125000000000001
 432    -0.23711119328418923  0.35734552575733575  -0.094021253034520802
 433    -0.54228361585375284  -0.24649374610741989  -0.090628818403736502
 434    0.74347255374596921  0.10328276837892343  -0.072513475678498709
 435    0.49395367004451418  0.33891363728310531  -0.1081353637311574
 436    0.29357558653565652  -0.11213431467054069  -0.10370533242461369
 437    -0.28431304091924003  0.15418956308494658  -0.093550206845471232
 438    -0.028998948225794095  0.27429166965436913  -0.07133473105472185
 439    0.45560656062747995  0.50724711730220751  -0.048025564370468787
 440    -0.01081550119175736  0.07649399766646435  -0.085893223460843091
 441    -0.030533557476963985  0.47631609886616061  -0.047815017179787422
 442    -0.15483894519049682  -0.0561192665018189  -0.072903456162642988
 443    -0.56218875341651575  -0.45380039451383164  -0.040372141034629175
 444    -0.16923679667988453  -0.24356388798480311  -0.043081611930480997
 445    0.14990129637399466  0.34909964118724018  -0.099486252072827464
 446    -0.36536723532866555  -0.086031953767563951  -0.072630213937862051
 447    0.22325163729340874  0.10934843070705343  -0.093900616768257658
 448    -0.46515424549540707  0.29229473532972272  -0.07765105865427932
 449    -0.55054244428394628  0.45569391854970681  -0.075781327929445003
 450    0.49512595682766508  -0.51343414553853617  -0.021349579336923809
 451    -0.72912121932929774  0.5764021295721713  -0.011131584398786155
 452    0.51485891641863446  -0.11183386652049897  -0.11340344049986401
 453    -0.50650844680176066  0.60946153196736752  -0.12062281812457966
 454    0.075947703641327996  -0.46060361186748761  -0.087608009893732089
 455    0.71967130688855363  -0.053288391181519207  -0.048680355289641777
 456    0.27834495576048435  -0.56129262292281434  -0.01044031478691212
 457    0.26427889018873124  -0.33763042829731799  -0.078612656821363577
 458    0.70336668138528047  -0.24498296485069487  -0.01784817603205123
 459    -0.36354566450572534  -0.335574888803648  -0.083074775368766188
 460    0.69982109052126062  -0.43164822983098977  -0.062205521226871396
 461    -0.40285334586719951  -0.56863211502317379  -0.0470562461935553
 462    -0.71246859653753125  0.33420887545738959  -0.054021261755201354
 463    -0.31372351102522572  0.51778137641107846  -0.047649793919268504
 464    0.48368108800771642  -0.30904998748144391  -0.080271963313936268
 465    0.25341677276292585  0.57693732642430517  -0.013175946008397421
 466    -0.70891278782125022  -0.073911182475351486  -0.066358057333740714
 467    -0.72047930171687191  -0.55605375572981941  0.023735241610004315
 468    -0.18078789521695857  -0.43165867991708351  -0.097808316372809664
 469    -0.71505149949252422  -0.30704678732460289  -0.037626322668425964
 470    0.31132466444086898  0.32125300690597242  -0.067532801223471495
 471    0.72316946708970231  0.32684996481345779  -0.039793013977864132
 472    0.57758142172266358  0.69061215329407222  -0.25012052945867086
# Generated by /tmp/dc-viability.8juxjd/tetgen-build/tetgen -pYMq1.4 /tmp/dc-viability.8juxjd/shell-n8-quality.poly
