204 3 0 0
0 -0.91963481410219106 -0.83585858588096373 0.085270109068946762
1 -0.91963481410219106 -0.83585858588096373 -0.94999999999999996
2 -0.91938022771901839 -0.50388471487992559 0.094753741088506399
3 -0.91938022771901839 -0.50388471487992559 -0.94999999999999996
4 -0.91778441625014662 -0.17059048833913779 0.077552939443056329
5 -0.91778441625014662 -0.17059048833913779 -0.94999999999999996
6 -0.91532134072068583 0.16223456482522741 0.070809275259068868
7 -0.91532134072068583 0.16223456482522741 -0.94999999999999996
8 -0.9124679241182756 0.49422344305204324 0.081034617602808917
9 -0.9124679241182756 0.49422344305204324 -0.94999999999999996
10 -0.90921142814042899 0.82718587719448655 0.072829890898590238
11 -0.90921142814042899 0.82718587719448655 -0.94999999999999996
12 -0.75323902275268906 -0.83577680254325437 0.084854547002028408
13 -0.75323902275268906 -0.83577680254325437 -0.94999999999999996
14 -0.75326523915915733 -0.50374935681291066 0.10184618068814563
15 -0.75326523915915733 -0.50374935681291066 -0.94999999999999996
16 -0.75116655714421054 -0.1689522624371646 0.056614360242973713
17 -0.75116655714421054 -0.1689522624371646 -0.94999999999999996
18 -0.74886826977501064 0.16442954462834117 0.042808350772181036
19 -0.74886826977501064 0.16442954462834117 -0.94999999999999996
20 -0.74626374828975928 0.49588849344036567 0.072524661285563993
21 -0.74626374828975928 0.49588849344036567 -0.94999999999999996
22 -0.74266232391556986 0.8284993609380702 0.076749210338199786
23 -0.74266232391556986 0.8284993609380702 -0.94999999999999996
24 -0.58563597900243669 -0.8347437583569598 0.063427785003753831
25 -0.58563597900243669 -0.8347437583569598 -0.94999999999999996
26 -0.58624915476539019 -0.50275522705996412 0.092909161282246203
27 -0.58624915476539019 -0.50275522705996412 -0.94999999999999996
28 -0.58459488939188509 -0.1687050630721264 0.065053583238076418
29 -0.58459488939188509 -0.1687050630721264 -0.94999999999999996
30 -0.58216723726135433 0.16475248948746846 0.051751611519374754
31 -0.58216723726135433 0.16475248948746846 -0.94999999999999996
32 -0.57959578202735063 0.49678947184525263 0.077360055003449876
33 -0.57959578202735063 0.49678947184525263 -0.94999999999999996
34 -0.57602148020083299 0.82954325243062321 0.083164203813222287
35 -0.57602148020083299 0.82954325243062321 -0.94999999999999996
36 -0.4189589686045459 -0.8341996577623314 0.05295412484594271
37 -0.4189589686045459 -0.8341996577623314 -0.94999999999999996
38 -0.41914948209578257 -0.50182356325914901 0.082704526724490857
39 -0.41914948209578257 -0.50182356325914901 -0.94999999999999996
40 -0.41803920377396808 -0.16881410597722193 0.092379063769039926
41 -0.41803920377396808 -0.16881410597722193 -0.94999999999999996
42 -0.41534841726541832 0.16457891388924872 0.083398830347608602
43 -0.41534841726541832 0.16457891388924872 -0.94999999999999996
44 -0.41328582692937604 0.49777063419432388 0.077691254680940638
45 -0.41328582692937604 0.49777063419432388 -0.94999999999999996
46 -0.41101164134932366 0.83115304373995125 0.066217894955940826
47 -0.41101164134932366 0.83115304373995125 -0.94999999999999996
48 -0.25352358163995525 -0.83403320030459605 0.060256765488250104
49 -0.25352358163995525 -0.83403320030459605 -0.94999999999999996
50 -0.25210311688896936 -0.50095988152628501 0.06773089836992327
51 -0.25210311688896936 -0.50095988152628501 -0.94999999999999996
52 -0.25117586435742656 -0.16813217028409747 0.096657101491481434
53 -0.25117586435742656 -0.16813217028409747 -0.94999999999999996
54 -0.24877488879428 0.16518408261729806 0.094337191635819356
55 -0.24877488879428 0.16518408261729806 -0.94999999999999996
56 -0.24723893719738402 0.49883872053868494 0.068490762656299678
57 -0.24723893719738402 0.49883872053868494 -0.94999999999999996
58 -0.24568742455101319 0.83237118383877462 0.053090223926268498
59 -0.24568742455101319 0.83237118383877462 -0.94999999999999996
60 -0.088055008976338847 -0.8336302683385024 0.06944974619092005
61 -0.088055008976338847 -0.8336302683385024 -0.94999999999999996
62 -0.085202522980793047 -0.5002697364411135 0.0513082098196877
63 -0.085202522980793047 -0.5002697364411135 -0.94999999999999996
64 -0.084089470431812488 -0.16709263841239888 0.06909181155327089
65 -0.084089470431812488 -0.16709263841239888 -0.94999999999999996
66 -0.082399254690433882 0.16622084021665212 0.074375730580141367
67 -0.082399254690433882 0.16622084021665212 -0.94999999999999996
68 -0.080707787873713452 0.49966646420818911 0.064659618588903275
69 -0.080707787873713452 0.49966646420818911 -0.94999999999999996
70 -0.078088919635161111 0.83302534501603342 0.072654616609433093
71 -0.078088919635161111 0.83302534501603342 -0.94999999999999996
72 0.077562220332871065 -0.83285311125234585 0.080834009328339951
73 0.077562220332871065 -0.83285311125234585 -0.94999999999999996
74 0.080750097282150352 -0.4996188183759 0.058286061451679465
75 0.080750097282150352 -0.4996188183759 -0.94999999999999996
76 0.082696868329315706 -0.16642742820071874 0.049029594685958161
77 0.082696868329315706 -0.16642742820071874 -0.94999999999999996
78 0.084274156209415252 0.16697316595976336 0.061831903777255323
79 0.084274156209415252 0.16697316595976336 -0.94999999999999996
80 0.086670160755311892 0.50046816570347485 0.082289276421966151
81 0.086670160755311892 0.50046816570347485 -0.94999999999999996
82 0.090404711367673474 0.83391372580072776 0.10683947606332747
83 0.090404711367673474 0.83391372580072776 -0.94999999999999996
84 0.24363658291343193 -0.8318474277688428 0.087889715607243818
85 0.24363658291343193 -0.8318474277688428 -0.94999999999999996
86 0.24599482481339657 -0.49850312035565614 0.087653063422199556
87 0.24599482481339657 -0.49850312035565614 -0.94999999999999996
88 0.24899701180408612 -0.16575187153161566 0.055618346716615912
89 0.24899701180408612 -0.16575187153161566 -0.94999999999999996
90 0.25111657093623108 0.16759938802980678 0.064044366145178694
91 0.25111657093623108 0.16759938802980678 -0.94999999999999996
92 0.25366122168865679 0.50132350653085811 0.095833611716647005
93 0.25366122168865679 0.50132350653085811 -0.94999999999999996
94 0.25668245103703102 0.83474163496924991 0.10985137183221427
95 0.25668245103703102 0.83474163496924991 -0.94999999999999996
96 0.41071773290007951 -0.83100978499517963 0.076851891552396884
97 0.41071773290007951 -0.83100978499517963 -0.94999999999999996
98 0.41215056675126038 -0.49726385635759529 0.099383088417558607
99 0.41215056675126038 -0.49726385635759529 -0.94999999999999996
100 0.41532677964424747 -0.16498472978701578 0.063851618251193842
101 0.41532677964424747 -0.16498472978701578 -0.94999999999999996
102 0.41756606410148417 0.16787772005979565 0.054277703160579512
103 0.41756606410148417 0.16787772005979565 -0.94999999999999996
104 0.41921707966833643 0.50151284795683249 0.075100612350802842
105 0.41921707966833643 0.50151284795683249 -0.94999999999999996
106 0.42055325870658222 0.83468641618282535 0.076262358902882202
107 0.42055325870658222 0.83468641618282535 -0.94999999999999996
108 0.57870805461102837 -0.83086149389445185 0.048472637538569376
109 0.57870805461102837 -0.83086149389445185 -0.94999999999999996
110 0.57950228987925678 -0.49658904844744278 0.084194168998607072
111 0.57950228987925678 -0.49658904844744278 -0.94999999999999996
112 0.58189624332970658 -0.16402848466744219 0.069479940624066983
113 0.58189624332970658 -0.16402848466744219 -0.94999999999999996
114 0.58392693465405077 0.16818013193734782 0.047571337237187553
115 0.58392693465405077 0.16818013193734782 -0.94999999999999996
116 0.58448946926281065 0.50109313389449617 0.047390906774482489
117 0.58448946926281065 0.50109313389449617 -0.94999999999999996
118 0.65146185233723664 0.91324024988277175 0.02585054461674996
119 0.65146185233723664 0.91324024988277175 -0.94999999999999996
120 0.59200939350614135 0.81514941825505605 0.038587637222452273
121 0.59200939350614135 0.81514941825505605 -0.94999999999999996
122 0.74624068348545347 -0.83074674107791113 0.026251718029599625
123 0.74624068348545347 -0.83074674107791113 -0.94999999999999996
124 0.74691663490253313 -0.49624285616451386 0.065345406361706521
125 0.74691663490253313 -0.49624285616451386 -0.94999999999999996
126 0.74859827675817581 -0.16267537289500333 0.081734884376650413
127 0.74859827675817581 -0.16267537289500333 -0.94999999999999996
128 0.75070431474690513 0.16952611147062713 0.06808206581718762
129 0.75070431474690513 0.16952611147062713 -0.94999999999999996
130 0.75092783515369799 0.5014212338405537 0.04935281063630749
131 0.75092783515369799 0.5014212338405537 -0.94999999999999996
132 0.74976669639865223 0.93426503795154348 0.032390906042764539
133 0.74976669639865223 0.93426503795154348 -0.94999999999999996
134 0.75022352040679297 0.767916716818978 0.033248208686977546
135 0.75022352040679297 0.767916716818978 -0.94999999999999996
136 0.91155805167363235 -0.82903402331588549 0.038236114750326899
137 0.91155805167363235 -0.82903402331588549 -0.94999999999999996
138 0.91349739440733912 -0.49552558191826263 0.058212427712590359
139 0.91349739440733912 -0.49552558191826263 -0.94999999999999996
140 0.91550905389243387 -0.16200077602847041 0.077990928357671185
141 0.91550905389243387 -0.16200077602847041 -0.94999999999999996
142 0.91747535433709648 0.17063321204663062 0.080184014742838344
143 0.91747535433709648 0.17063321204663062 -0.94999999999999996
144 0.91806260245357585 0.50228307997440502 0.064253356491772134
145 0.91806260245357585 0.50228307997440502 -0.94999999999999996
146 0.83351951435134131 0.99911313405261959 0.041601952014788168
147 0.83351951435134131 0.99911313405261959 -0.94999999999999996
148 0.90110109848815334 0.86702552119852749 0.054153674147015086
149 0.90110109848815334 0.86702552119852749 -0.94999999999999996
150 -0.64888888888888896 -0.3066666666666667 -0.65555555555555567
151 -0.65777777777777779 -0.32000000000000006 -0.32222222222222224
152 -0.66666666666666674 0.026666666666666672 -0.66666666666666674
153 -0.66666666666666674 0.013333333333333336 -0.33333333333333337
154 -0.68444444444444452 0.35999999999999993 -0.67777777777777781
155 -0.67555555555555558 0.34666666666666657 -0.3444444444444445
156 -0.48222222222222222 -0.31333333333333335 -0.65833333333333344
157 -0.49111111111111111 -0.32333333333333336 -0.32500000000000001
158 -0.5 0.02 -0.66666666666666674
159 -0.5 0.01 -0.33333333333333337
160 -0.51777777777777778 0.35333333333333328 -0.67500000000000004
161 -0.50888888888888884 0.34333333333333327 -0.34166666666666673
162 -0.31555555555555559 -0.32000000000000006 -0.6611111111111112
163 -0.32444444444444448 -0.32666666666666672 -0.32777777777777783
164 -0.33333333333333337 0.013333333333333336 -0.66666666666666674
165 -0.33333333333333337 0.006666666666666668 -0.33333333333333337
166 -0.35111111111111115 0.34666666666666657 -0.67222222222222228
167 -0.34222222222222226 0.33999999999999991 -0.33888888888888891
168 -0.14888888888888885 -0.32666666666666672 -0.66388888888888897
169 -0.15777777777777774 -0.33000000000000002 -0.3305555555555556
170 -0.16666666666666663 0.0066666666666666654 -0.66666666666666674
171 -0.16666666666666663 0.0033333333333333327 -0.33333333333333337
172 -0.18444444444444441 0.33999999999999991 -0.66944444444444451
173 -0.17555555555555552 0.33666666666666661 -0.33611111111111114
174 0.017777777777777785 -0.33333333333333337 -0.66666666666666674
175 0.0088888888888888924 -0.33333333333333337 -0.33333333333333337
176 0 0 -0.66666666666666674
177 0 0 -0.33333333333333337
178 -0.017777777777777778 0.33333333333333326 -0.66666666666666674
179 -0.0088888888888888889 0.33333333333333326 -0.33333333333333337
180 0.18444444444444452 -0.34000000000000002 -0.66944444444444451
181 0.17555555555555563 -0.33666666666666673 -0.33611111111111114
182 0.16666666666666674 -0.0066666666666666697 -0.66666666666666674
183 0.16666666666666674 -0.0033333333333333348 -0.33333333333333337
184 0.14888888888888896 0.32666666666666661 -0.66388888888888897
185 0.15777777777777785 0.3299999999999999 -0.3305555555555556
186 0.35111111111111104 -0.34666666666666668 -0.67222222222222228
187 0.34222222222222215 -0.34000000000000002 -0.33888888888888891
188 0.33333333333333326 -0.013333333333333331 -0.66666666666666674
189 0.33333333333333326 -0.0066666666666666654 -0.33333333333333337
190 0.31555555555555548 0.31999999999999995 -0.6611111111111112
191 0.32444444444444437 0.32666666666666661 -0.32777777777777783
192 0.51777777777777778 -0.35333333333333339 -0.67500000000000004
193 0.50888888888888895 -0.34333333333333338 -0.34166666666666673
194 0.5 -0.02 -0.66666666666666674
195 0.5 -0.01 -0.33333333333333337
196 0.48222222222222222 0.31333333333333324 -0.65833333333333344
197 0.49111111111111111 0.32333333333333325 -0.32500000000000001
198 0.68444444444444452 -0.36000000000000004 -0.67777777777777781
199 0.67555555555555569 -0.34666666666666668 -0.3444444444444445
200 0.66666666666666674 -0.026666666666666672 -0.66666666666666674
201 0.66666666666666674 -0.013333333333333336 -0.33333333333333337
202 0.64888888888888896 0.30666666666666659 -0.65555555555555567
203 0.65777777777777791 0.31999999999999995 -0.32222222222222224
400 1
1 0 1
3 118 134 132
1 0 2
3 119 135 133
1 0 1
3 118 120 134
1 0 2
3 119 121 135
1 0 1
3 132 148 146
1 0 2
3 133 149 147
1 0 1
3 132 134 148
1 0 2
3 133 135 149
1 0 1
3 0 12 14
1 0 2
3 1 13 15
1 0 1
3 0 14 2
1 0 2
3 1 15 3
1 0 1
3 2 14 16
1 0 2
3 3 15 17
1 0 1
3 2 16 4
1 0 2
3 3 17 5
1 0 1
3 4 16 18
1 0 2
3 5 17 19
1 0 1
3 4 18 6
1 0 2
3 5 19 7
1 0 1
3 6 18 20
1 0 2
3 7 19 21
1 0 1
3 6 20 8
1 0 2
3 7 21 9
1 0 1
3 8 20 22
1 0 2
3 9 21 23
1 0 1
3 8 22 10
1 0 2
3 9 23 11
1 0 1
3 12 24 26
1 0 2
3 13 25 27
1 0 1
3 12 26 14
1 0 2
3 13 27 15
1 0 1
3 14 26 28
1 0 2
3 15 27 29
1 0 1
3 14 28 16
1 0 2
3 15 29 17
1 0 1
3 16 28 30
1 0 2
3 17 29 31
1 0 1
3 16 30 18
1 0 2
3 17 31 19
1 0 1
3 18 30 32
1 0 2
3 19 31 33
1 0 1
3 18 32 20
1 0 2
3 19 33 21
1 0 1
3 20 32 34
1 0 2
3 21 33 35
1 0 1
3 20 34 22
1 0 2
3 21 35 23
1 0 1
3 24 36 38
1 0 2
3 25 37 39
1 0 1
3 24 38 26
1 0 2
3 25 39 27
1 0 1
3 26 38 40
1 0 2
3 27 39 41
1 0 1
3 26 40 28
1 0 2
3 27 41 29
1 0 1
3 28 40 42
1 0 2
3 29 41 43
1 0 1
3 28 42 30
1 0 2
3 29 43 31
1 0 1
3 30 42 44
1 0 2
3 31 43 45
1 0 1
3 30 44 32
1 0 2
3 31 45 33
1 0 1
3 32 44 46
1 0 2
3 33 45 47
1 0 1
3 32 46 34
1 0 2
3 33 47 35
1 0 1
3 36 48 50
1 0 2
3 37 49 51
1 0 1
3 36 50 38
1 0 2
3 37 51 39
1 0 1
3 38 50 52
1 0 2
3 39 51 53
1 0 1
3 38 52 40
1 0 2
3 39 53 41
1 0 1
3 40 52 54
1 0 2
3 41 53 55
1 0 1
3 40 54 42
1 0 2
3 41 55 43
1 0 1
3 42 54 56
1 0 2
3 43 55 57
1 0 1
3 42 56 44
1 0 2
3 43 57 45
1 0 1
3 44 56 58
1 0 2
3 45 57 59
1 0 1
3 44 58 46
1 0 2
3 45 59 47
1 0 1
3 48 60 62
1 0 2
3 49 61 63
1 0 1
3 48 62 50
1 0 2
3 49 63 51
1 0 1
3 50 62 64
1 0 2
3 51 63 65
1 0 1
3 50 64 52
1 0 2
3 51 65 53
1 0 1
3 52 64 66
1 0 2
3 53 65 67
1 0 1
3 52 66 54
1 0 2
3 53 67 55
1 0 1
3 54 66 68
1 0 2
3 55 67 69
1 0 1
3 54 68 56
1 0 2
3 55 69 57
1 0 1
3 56 68 70
1 0 2
3 57 69 71
1 0 1
3 56 70 58
1 0 2
3 57 71 59
1 0 1
3 60 72 74
1 0 2
3 61 73 75
1 0 1
3 60 74 62
1 0 2
3 61 75 63
1 0 1
3 62 74 76
1 0 2
3 63 75 77
1 0 1
3 62 76 64
1 0 2
3 63 77 65
1 0 1
3 64 76 78
1 0 2
3 65 77 79
1 0 1
3 64 78 66
1 0 2
3 65 79 67
1 0 1
3 66 78 80
1 0 2
3 67 79 81
1 0 1
3 66 80 68
1 0 2
3 67 81 69
1 0 1
3 68 80 82
1 0 2
3 69 81 83
1 0 1
3 68 82 70
1 0 2
3 69 83 71
1 0 1
3 72 84 86
1 0 2
3 73 85 87
1 0 1
3 72 86 74
1 0 2
3 73 87 75
1 0 1
3 74 86 88
1 0 2
3 75 87 89
1 0 1
3 74 88 76
1 0 2
3 75 89 77
1 0 1
3 76 88 90
1 0 2
3 77 89 91
1 0 1
3 76 90 78
1 0 2
3 77 91 79
1 0 1
3 78 90 92
1 0 2
3 79 91 93
1 0 1
3 78 92 80
1 0 2
3 79 93 81
1 0 1
3 80 92 94
1 0 2
3 81 93 95
1 0 1
3 80 94 82
1 0 2
3 81 95 83
1 0 1
3 84 96 98
1 0 2
3 85 97 99
1 0 1
3 84 98 86
1 0 2
3 85 99 87
1 0 1
3 86 98 100
1 0 2
3 87 99 101
1 0 1
3 86 100 88
1 0 2
3 87 101 89
1 0 1
3 88 100 102
1 0 2
3 89 101 103
1 0 1
3 88 102 90
1 0 2
3 89 103 91
1 0 1
3 90 102 104
1 0 2
3 91 103 105
1 0 1
3 90 104 92
1 0 2
3 91 105 93
1 0 1
3 92 104 106
1 0 2
3 93 105 107
1 0 1
3 92 106 94
1 0 2
3 93 107 95
1 0 1
3 96 108 110
1 0 2
3 97 109 111
1 0 1
3 96 110 98
1 0 2
3 97 111 99
1 0 1
3 98 110 112
1 0 2
3 99 111 113
1 0 1
3 98 112 100
1 0 2
3 99 113 101
1 0 1
3 100 112 114
1 0 2
3 101 113 115
1 0 1
3 100 114 102
1 0 2
3 101 115 103
1 0 1
3 102 114 116
1 0 2
3 103 115 117
1 0 1
3 102 116 104
1 0 2
3 103 117 105
1 0 1
3 104 116 120
1 0 2
3 105 117 121
1 0 1
3 104 120 106
1 0 2
3 105 121 107
1 0 1
3 108 122 124
1 0 2
3 109 123 125
1 0 1
3 108 124 110
1 0 2
3 109 125 111
1 0 1
3 110 124 126
1 0 2
3 111 125 127
1 0 1
3 110 126 112
1 0 2
3 111 127 113
1 0 1
3 112 126 128
1 0 2
3 113 127 129
1 0 1
3 112 128 114
1 0 2
3 113 129 115
1 0 1
3 114 128 130
1 0 2
3 115 129 131
1 0 1
3 114 130 116
1 0 2
3 115 131 117
1 0 1
3 116 130 134
1 0 2
3 117 131 135
1 0 1
3 116 134 120
1 0 2
3 117 135 121
1 0 1
3 122 136 138
1 0 2
3 123 137 139
1 0 1
3 122 138 124
1 0 2
3 123 139 125
1 0 1
3 124 138 140
1 0 2
3 125 139 141
1 0 1
3 124 140 126
1 0 2
3 125 141 127
1 0 1
3 126 140 142
1 0 2
3 127 141 143
1 0 1
3 126 142 128
1 0 2
3 127 143 129
1 0 1
3 128 142 144
1 0 2
3 129 143 145
1 0 1
3 128 144 130
1 0 2
3 129 145 131
1 0 1
3 130 144 148
1 0 2
3 131 145 149
1 0 1
3 130 148 134
1 0 2
3 131 149 135
1 0 2
3 0 2 1
1 0 2
3 2 1 3
1 0 2
3 0 12 1
1 0 2
3 12 1 13
1 0 2
3 2 4 3
1 0 2
3 4 3 5
1 0 2
3 4 6 5
1 0 2
3 6 5 7
1 0 2
3 6 8 7
1 0 2
3 8 7 9
1 0 2
3 8 10 9
1 0 2
3 10 9 11
1 0 2
3 10 22 11
1 0 2
3 22 11 23
1 0 2
3 12 24 13
1 0 2
3 24 13 25
1 0 2
3 22 34 23
1 0 2
3 34 23 35
1 0 2
3 24 36 25
1 0 2
3 36 25 37
1 0 2
3 34 46 35
1 0 2
3 46 35 47
1 0 2
3 36 48 37
1 0 2
3 48 37 49
1 0 2
3 46 58 47
1 0 2
3 58 47 59
1 0 2
3 48 60 49
1 0 2
3 60 49 61
1 0 2
3 58 70 59
1 0 2
3 70 59 71
1 0 2
3 60 72 61
1 0 2
3 72 61 73
1 0 2
3 70 82 71
1 0 2
3 82 71 83
1 0 2
3 72 84 73
1 0 2
3 84 73 85
1 0 2
3 82 94 83
1 0 2
3 94 83 95
1 0 2
3 84 96 85
1 0 2
3 96 85 97
1 0 2
3 94 106 95
1 0 2
3 106 95 107
1 0 2
3 96 108 97
1 0 2
3 108 97 109
1 0 2
3 106 120 107
1 0 2
3 120 107 121
1 0 2
3 108 122 109
1 0 2
3 122 109 123
1 0 2
3 118 120 119
1 0 2
3 120 119 121
1 0 2
3 118 132 119
1 0 2
3 132 119 133
1 0 2
3 122 136 123
1 0 2
3 136 123 137
1 0 2
3 132 146 133
1 0 2
3 146 133 147
1 0 2
3 136 138 137
1 0 2
3 138 137 139
1 0 2
3 138 140 139
1 0 2
3 140 139 141
1 0 2
3 140 142 141
1 0 2
3 142 141 143
1 0 2
3 142 144 143
1 0 2
3 144 143 145
1 0 2
3 144 148 145
1 0 2
3 148 145 149
1 0 2
3 146 148 147
1 0 2
3 148 147 149
1 0 3
3 150 151 153
1 0 3
3 150 151 157
1 0 3
3 150 152 153
1 0 3
3 150 152 158
1 0 3
3 150 156 157
1 0 3
3 150 156 158
1 0 3
3 151 153 159
1 0 3
3 151 157 159
1 0 3
3 152 153 155
1 0 3
3 152 154 155
1 0 3
3 152 154 160
1 0 3
3 152 158 160
1 0 3
3 153 155 161
1 0 3
3 153 159 161
1 0 3
3 154 155 161
1 0 3
3 154 160 161
1 0 3
3 156 157 163
1 0 3
3 156 158 164
1 0 3
3 156 162 163
1 0 3
3 156 162 164
1 0 3
3 157 159 165
1 0 3
3 157 163 165
1 0 3
3 158 160 166
1 0 3
3 158 164 166
1 0 3
3 159 161 167
1 0 3
3 159 165 167
1 0 3
3 160 161 167
1 0 3
3 160 166 167
1 0 3
3 162 163 169
1 0 3
3 162 164 170
1 0 3
3 162 168 169
1 0 3
3 162 168 170
1 0 3
3 163 165 171
1 0 3
3 163 169 171
1 0 3
3 164 166 172
1 0 3
3 164 170 172
1 0 3
3 165 167 173
1 0 3
3 165 171 173
1 0 3
3 166 167 173
1 0 3
3 166 172 173
1 0 3
3 168 169 175
1 0 3
3 168 170 176
1 0 3
3 168 174 175
1 0 3
3 168 174 176
1 0 3
3 169 171 177
1 0 3
3 169 175 177
1 0 3
3 170 172 178
1 0 3
3 170 176 178
1 0 3
3 171 173 179
1 0 3
3 171 177 179
1 0 3
3 172 173 179
1 0 3
3 172 178 179
1 0 3
3 174 175 181
1 0 3
3 174 176 182
1 0 3
3 174 180 181
1 0 3
3 174 180 182
1 0 3
3 175 177 183
1 0 3
3 175 181 183
1 0 3
3 176 178 184
1 0 3
3 176 182 184
1 0 3
3 177 179 185
1 0 3
3 177 183 185
1 0 3
3 178 179 185
1 0 3
3 178 184 185
1 0 3
3 180 181 187
1 0 3
3 180 182 188
1 0 3
3 180 186 187
1 0 3
3 180 186 188
1 0 3
3 181 183 189
1 0 3
3 181 187 189
1 0 3
3 182 184 190
1 0 3
3 182 188 190
1 0 3
3 183 185 191
1 0 3
3 183 189 191
1 0 3
3 184 185 191
1 0 3
3 184 190 191
1 0 3
3 186 187 193
1 0 3
3 186 188 194
1 0 3
3 186 192 193
1 0 3
3 186 192 194
1 0 3
3 187 189 195
1 0 3
3 187 193 195
1 0 3
3 188 190 196
1 0 3
3 188 194 196
1 0 3
3 189 191 197
1 0 3
3 189 195 197
1 0 3
3 190 191 197
1 0 3
3 190 196 197
1 0 3
3 192 193 199
1 0 3
3 192 194 200
1 0 3
3 192 198 199
1 0 3
3 192 198 200
1 0 3
3 193 195 201
1 0 3
3 193 199 201
1 0 3
3 194 196 202
1 0 3
3 194 200 202
1 0 3
3 195 197 203
1 0 3
3 195 201 203
1 0 3
3 196 197 203
1 0 3
3 196 202 203
1 0 3
3 198 199 201
1 0 3
3 198 200 201
1 0 3
3 200 201 203
1 0 3
3 200 202 203
1
0 0 0 -0.5
0
