424  3  0  0
   0    -0.94081993605587866  -0.87758880192220501  0.087764686436347689
   1    -0.94081993605587866  -0.87758880192220501  -0.94999999999999996
   2    -0.93942720101928079  -0.62708888249118622  0.066977179006287663
   3    -0.93942720101928079  -0.62708888249118622  -0.94999999999999996
   4    -0.93867976737091918  -0.3773162862811098  0.059885632491132518
   5    -0.93867976737091918  -0.3773162862811098  -0.94999999999999996
   6    -0.93801253292872611  -0.12905993835781107  0.078845929977741785
   7    -0.93801253292872611  -0.12905993835781107  -0.94999999999999996
   8    -0.93627681757261039  0.11886529954332645  0.1026596549109228
   9    -0.93627681757261039  0.11886529954332645  -0.94999999999999996
  10    -0.93381007126362081  0.36804416145174368  0.10524965409422125
  11    -0.93381007126362081  0.36804416145174368  -0.94999999999999996
  12    -0.93128052693355245  0.61800869055113894  0.094917228682370278
  13    -0.93128052693355245  0.61800869055113894  -0.94999999999999996
  14    -0.92837402096101662  0.86768693679086839  0.088695474476700273
  15    -0.92837402096101662  0.86768693679086839  -0.94999999999999996
  16    -0.81693031204348676  -0.87798634476958548  0.097106941791323967
  17    -0.81693031204348676  -0.87798634476958548  -0.94999999999999996
  18    -0.81517181448975251  -0.62762142208786598  0.07982365474833121
  19    -0.81517181448975251  -0.62762142208786598  -0.94999999999999996
  20    -0.81462339566141506  -0.3786629279924606  0.091695793313387744
  21    -0.81462339566141506  -0.3786629279924606  -0.94999999999999996
  22    -0.81343506107112029  -0.1294576248121253  0.097041899917152896
  23    -0.81343506107112029  -0.1294576248121253  -0.94999999999999996
  24    -0.81175434087674569  0.12091134317344501  0.07741555252384795
  25    -0.81175434087674569  0.12091134317344501  -0.94999999999999996
  26    -0.80971431824862272  0.3706134133186425  0.07304914686578963
  27    -0.80971431824862272  0.3706134133186425  -0.94999999999999996
  28    -0.80666179639110547  0.61939480203570185  0.08891295704926884
  29    -0.80666179639110547  0.61939480203570185  -0.94999999999999996
  30    -0.80445981541328937  0.86929563447661018  0.080781186420430584
  31    -0.80445981541328937  0.86929563447661018  -0.94999999999999996
  32    -0.69181128294257188  -0.87749227328618595  0.08999051297938046
  33    -0.69181128294257188  -0.87749227328618595  -0.94999999999999996
  34    -0.69045652245161482  -0.62755645043251795  0.083354733895905295
  35    -0.69045652245161482  -0.62755645043251795  -0.94999999999999996
  36    -0.69020827443003641  -0.37901237524629899  0.1105193923948444
  37    -0.69020827443003641  -0.37901237524629899  -0.94999999999999996
  38    -0.68869687626575737  -0.12907858557638363  0.10317986714289132
  39    -0.68869687626575737  -0.12907858557638363  -0.94999999999999996
  40    -0.68721166180862425  0.12275313544066006  0.049159213423811077
  41    -0.68721166180862425  0.12275313544066006  -0.94999999999999996
  42    -0.68566619334329493  0.37276219098832775  0.040162996202021156
  43    -0.68566619334329493  0.37276219098832775  -0.94999999999999996
  44    -0.68233876952184758  0.62089553196245095  0.0774150368469506
  45    -0.68233876952184758  0.62089553196245095  -0.94999999999999996
  46    -0.68037485793304142  0.87069226914042674  0.074051825890411843
  47    -0.68037485793304142  0.87069226914042674  -0.94999999999999996
  48    -0.56581732247712346  -0.87658194528202205  0.070548078637858003
  49    -0.56581732247712346  -0.87658194528202205  -0.94999999999999996
  50    -0.56495024825131179  -0.62679707154585274  0.069889985935168986
  51    -0.56495024825131179  -0.62679707154585274  -0.94999999999999996
  52    -0.56510113862925571  -0.37824993212315522  0.10618063622287076
  53    -0.56510113862925571  -0.37824993212315522  -0.94999999999999996
  54    -0.56372421181965915  -0.12830073794036542  0.10116858734396467
  55    -0.56372421181965915  -0.12830073794036542  -0.94999999999999996
  56    -0.56237562544244568  0.1235615076031067  0.039145474238724831
  57    -0.56237562544244568  0.1235615076031067  -0.94999999999999996
  58    -0.56104246198336649  0.37366396162694038  0.029000939354696709
  59    -0.56104246198336649  0.37366396162694038  -0.94999999999999996
  60    -0.55767378758347808  0.62190759743140545  0.073968444101025613
  61    -0.55767378758347808  0.62190759743140545  -0.94999999999999996
  62    -0.55542131599521194  0.87153074544802878  0.078428545715862719
  63    -0.55542131599521194  0.87153074544802878  -0.94999999999999996
  64    -0.43964668965491072  -0.87581581085386984  0.049143058309874775
  65    -0.43964668965491072  -0.87581581085386984  -0.94999999999999996
  66    -0.43929409349380039  -0.62603120426142156  0.052186587098030271
  67    -0.43929409349380039  -0.62603120426142156  -0.94999999999999996
  68    -0.43966889984474145  -0.377194958361945  0.090808655633002555
  69    -0.43966889984474145  -0.377194958361945  -0.94999999999999996
  70    -0.43863532138057865  -0.12757000707197022  0.10090143830830803
  71    -0.43863532138057865  -0.12757000707197022  -0.94999999999999996
  72    -0.43720354635580394  0.1235736684544346  0.053489301489179047
  73    -0.43720354635580394  0.1235736684544346  -0.94999999999999996
  74    -0.4357106076178538  0.37367970694494096  0.04394302565855672
  75    -0.4357106076178538  0.37367970694494096  -0.94999999999999996
  76    -0.43261299460201741  0.62254685318969694  0.080219371115960766
  77    -0.43261299460201741  0.62254685318969694  -0.94999999999999996
  78    -0.43051018677384595  0.87232125380589243  0.082373984743728104
  79    -0.43051018677384595  0.87232125380589243  -0.94999999999999996
  80    -0.31418481058910874  -0.87546340906894626  0.038948336567990197
  81    -0.31418481058910874  -0.87546340906894626  -0.94999999999999996
  82    -0.31433480619247639  -0.62568579954757408  0.04720312140364924
  83    -0.31433480619247639  -0.62568579954757408  -0.94999999999999996
  84    -0.31429739145531366  -0.3763226684547234  0.075156768178555877
  85    -0.31429739145531366  -0.3763226684547234  -0.94999999999999996
  86    -0.31347450427182855  -0.12685961104238602  0.1009268726737987
  87    -0.31347450427182855  -0.12685961104238602  -0.94999999999999996
  88    -0.3117896655817895  0.12345314242599661  0.083812129992894807
  89    -0.3117896655817895  0.12345314242599661  -0.94999999999999996
  90    -0.30990769666825391  0.37351741937906868  0.076706568748914322
  91    -0.30990769666825391  0.37351741937906868  -0.94999999999999996
  92    -0.30757969383130856  0.6231710867704594  0.087922552090987538
  93    -0.30757969383130856  0.6231710867704594  -0.94999999999999996
  94    -0.3065204555154678  0.87332224723249874  0.073732169619801488
  95    -0.3065204555154678  0.87332224723249874  -0.94999999999999996
  96    -0.19018135588158774  -0.87541358738938846  0.0493066014073264
  97    -0.19018135588158774  -0.87541358738938846  -0.94999999999999996
  98    -0.19018988054742275  -0.62554709880583759  0.057933332910610341
  99    -0.19018988054742275  -0.62554709880583759  -0.94999999999999996
 100    -0.18911014780524055  -0.37567736947105412  0.062295168901334012
 101    -0.18911014780524055  -0.37567736947105412  -0.94999999999999996
 102    -0.18824103395081282  -0.12603567368259133  0.09028859530892
 103    -0.18824103395081282  -0.12603567368259133  -0.94999999999999996
 104    -0.18646114617362353  0.12383708148100998  0.1028358390871027
 105    -0.18646114617362353  0.12383708148100998  -0.94999999999999996
 106    -0.18437411654516453  0.37384395864635356  0.10060280703029913
 107    -0.18437411654516453  0.37384395864635356  -0.94999999999999996
 108    -0.18304640131214445  0.62394379005723266  0.085759183368083886
 109    -0.18304640131214445  0.62394379005723266  -0.94999999999999996
 110    -0.18286745687541153  0.87420290556251934  0.0595643684715082
 111    -0.18286745687541153  0.87420290556251934  -0.94999999999999996
 112    -0.066875579052736805  -0.87520296475672144  0.068145912737664821
 113    -0.066875579052736805  -0.87520296475672144  -0.94999999999999996
 114    -0.066087578523194745  -0.62523401056282146  0.070208988922959056
 115    -0.066087578523194745  -0.62523401056282146  -0.94999999999999996
 116    -0.064025921153558665  -0.37520432368746587  0.052079267068792588
 117    -0.064025921153558665  -0.37520432368746587  -0.94999999999999996
 118    -0.063010374529193044  -0.12530107712204247  0.068501147304398727
 119    -0.063010374529193044  -0.12530107712204247  -0.94999999999999996
 120    -0.061477821699719944  0.12460280280768349  0.093310085858749003
 121    -0.061477821699719944  0.12460280280768349  -0.94999999999999996
 122    -0.05961264859791407  0.37459426487319197  0.096566367559149643
 123    -0.05961264859791407  0.37459426487319197  -0.94999999999999996
 124    -0.058968869763306397  0.62468193156724605  0.07244215479327569
 125    -0.058968869763306397  0.62468193156724605  -0.94999999999999996
 126    -0.05851988886960327  0.87478058203540798  0.053958502191991345
 127    -0.05851988886960327  0.87478058203540798  -0.94999999999999996
 128    0.05681654428380823  -0.87466248891452436  0.080616673238227438
 129    0.05681654428380823  -0.87466248891452436  -0.94999999999999996
 130    0.058369792850588097  -0.62468811235287336  0.076686350163636868
 131    0.058369792850588097  -0.62468811235287336  -0.94999999999999996
 132    0.060951541849834985  -0.37481737045689056  0.0468429644879352
 133    0.060951541849834985  -0.37481737045689056  -0.94999999999999996
 134    0.062127864570647603  -0.12485722013719544  0.046613596072679037
 135    0.062127864570647603  -0.12485722013719544  -0.94999999999999996
 136    0.063280937664006651  0.12520027435691633  0.067834957805391616
 137    0.063280937664006651  0.12520027435691633  -0.94999999999999996
 138    0.064773261852469649  0.37524536071695369  0.077526862911907329
 139    0.064773261852469649  0.37524536071695369  -0.94999999999999996
 140    0.065270163102042283  0.62519964448383858  0.060558544937896419
 141    0.065270163102042283  0.62519964448383858  -0.94999999999999996
 142    0.066894678715198386  0.87524615498125136  0.062992187746560194
 143    0.066894678715198386  0.87524615498125136  -0.94999999999999996
 144    0.18140118390493271  -0.87400153833382954  0.080861725109733468
 145    0.18140118390493271  -0.87400153833382954  -0.94999999999999996
 146    0.18286631487763949  -0.62395914519388307  0.084323455216228402
 147    0.18286631487763949  -0.62395914519388307  -0.94999999999999996
 148    0.18546450633578393  -0.3742389728129073  0.059394823680143559
 149    0.18546450633578393  -0.3742389728129073  -0.94999999999999996
 150    0.18701907571701032  -0.12449774011837036  0.04183077462894573
 151    0.18701907571701032  -0.12449774011837036  -0.94999999999999996
 152    0.18804486582683438  0.12549272154540136  0.047371601821180991
 153    0.18804486582683438  0.12549272154540136  -0.94999999999999996
 154    0.1894591310148766  0.37569363809868789  0.066115546042774809
 155    0.1894591310148766  0.37569363809868789  -0.94999999999999996
 156    0.19044511171217379  0.62571341659271007  0.06673011343658164
 157    0.19044511171217379  0.62571341659271007  -0.94999999999999996
 158    0.19318980411927994  0.87591636119887195  0.085704203674880741
 159    0.19318980411927994  0.87591636119887195  -0.94999999999999996
 160    0.30686282286415478  -0.87347447662173705  0.068816954716014192
 161    0.30686282286415478  -0.87347447662173705  -0.94999999999999996
 162    0.3075678717216821  -0.62313124662124908  0.089489350922049238
 163    0.3075678717216821  -0.62313124662124908  -0.94999999999999996
 164    0.30958633172865113  -0.37316238857835482  0.088665524717190219
 165    0.30958633172865113  -0.37316238857835482  -0.94999999999999996
 166    0.31163267228266123  -0.12373551095954193  0.062234832772028001
 167    0.31163267228266123  -0.12373551095954193  -0.94999999999999996
 168    0.31291386592422893  0.12578786093837957  0.043467993116538074
 169    0.31291386592422893  0.12578786093837957  -0.94999999999999996
 170    0.31451126966006299  0.37614000007529713  0.066487764607298522
 171    0.31451126966006299  0.37614000007529713  -0.94999999999999996
 172    0.31624048578118269  0.62644530931397657  0.085418752484995003
 173    0.31624048578118269  0.62644530931397657  -0.94999999999999996
 174    0.31903722700032633  0.87670440592678278  0.10431672102636509
 175    0.31903722700032633  0.87670440592678278  -0.94999999999999996
 176    0.43228661368805682  -0.87302786737030158  0.056203493740707849
 177    0.43228661368805682  -0.87302786737030158  -0.94999999999999996
 178    0.43282315321652703  -0.62248290104280057  0.082895714903987949
 179    0.43282315321652703  -0.62248290104280057  -0.94999999999999996
 180    0.43402261574917578  -0.37187947446580044  0.10980565700289519
 181    0.43402261574917578  -0.37187947446580044  -0.94999999999999996
 182    0.43625703297070839  -0.1225477727432577  0.089062189353999274
 183    0.43625703297070839  -0.1225477727432577  -0.94999999999999996
 184    0.4378545582010207  0.12625614577158212  0.050110497940454309
 185    0.4378545582010207  0.12625614577158212  -0.94999999999999996
 186    0.43942328160428479  0.37647780562279143  0.065149120132636421
 187    0.43942328160428479  0.37647780562279143  -0.94999999999999996
 188    0.44129055426229585  0.62697694558026218  0.089920474398797107
 189    0.44129055426229585  0.62697694558026218  -0.94999999999999996
 190    0.44305198192255973  0.87701498884195139  0.097798027611295288
 191    0.44305198192255973  0.87701498884195139  -0.94999999999999996
 192    0.55689878354446098  -0.87233032237688235  0.053965760497342641
 193    0.55689878354446098  -0.87233032237688235  -0.94999999999999996
 194    0.55841814905380949  -0.62215958765753887  0.067348289048555832
 195    0.55841814905380949  -0.62215958765753887  -0.94999999999999996
 196    0.5591146115965544  -0.37101847573902924  0.10803585033613641
 197    0.5591146115965544  -0.37101847573902924  -0.94999999999999996
 198    0.56114207939000016  -0.12153278425339969  0.099258249810069865
 199    0.56114207939000016  -0.12153278425339969  -0.94999999999999996
 200    0.56277144245898558  0.12662669076680405  0.051965592259358158
 201    0.56277144245898558  0.12662669076680405  -0.94999999999999996
 202    0.56389971278354534  0.37637018730756561  0.052325756063274137
 203    0.56389971278354534  0.37637018730756561  -0.94999999999999996
 204    0.56515931714532008  0.62675330559846054  0.071302330126663621
 205    0.56515931714532008  0.62675330559846054  -0.94999999999999996
 206    0.56580739369067945  0.87654436957505233  0.072331157886660863
 207    0.56580739369067945  0.87654436957505233  -0.94999999999999996
 208    0.68132897230652711  -0.87152988667807629  0.05397825011380538
 209    0.68132897230652711  -0.87152988667807629  -0.94999999999999996
 210    0.68430997017363582  -0.6223265039714303  0.044429312768316263
 211    0.68430997017363582  -0.6223265039714303  -0.94999999999999996
 212    0.68472032973457009  -0.37089056514307284  0.087853316284750071
 213    0.68472032973457009  -0.37089056514307284  -0.94999999999999996
 214    0.68624991261403978  -0.12084330475915822  0.096607452625332491
 215    0.68624991261403978  -0.12084330475915822  -0.94999999999999996
 216    0.68775747204450199  0.12713411847583556  0.055570435552419174
 217    0.68775747204450199  0.12713411847583556  -0.94999999999999996
 218    0.68842411763043376  0.37621246750863524  0.042430366873393119
 219    0.68842411763043376  0.37621246750863524  -0.94999999999999996
 220    0.68894306590454379  0.62619071207847155  0.051090853291829295
 221    0.68894306590454379  0.62619071207847155  -0.94999999999999996
 222    0.73459064653821127  0.96135910525076496  0.030506988632043357
 223    0.73459064653821127  0.96135910525076496  -0.94999999999999996
 224    0.69201435711164672  0.87755048599614349  0.045704375766930851
 225    0.69201435711164672  0.87755048599614349  -0.94999999999999996
 226    0.80641293102305633  -0.87103941245748617  0.045950016384188032
 227    0.80641293102305633  -0.87103941245748617  -0.94999999999999996
 228    0.81019337233891431  -0.62274217949518418  0.021458008182357106
 229    0.81019337233891431  -0.62274217949518418  -0.94999999999999996
 230    0.81047275086100523  -0.37133377018475944  0.06091356545694418
 231    0.81047275086100523  -0.37133377018475944  -0.94999999999999996
 232    0.811481331520717  -0.12034321447619332  0.090723179356161102
 233    0.811481331520717  -0.12034321447619332  -0.94999999999999996
 234    0.81294778300480708  0.12831963415307915  0.072335155632361897
 235    0.81294778300480708  0.12831963415307915  -0.94999999999999996
 236    0.81356752884057049  0.37688411960867496  0.053117171134437625
 237    0.81356752884057049  0.37688411960867496  -0.94999999999999996
 238    0.81381769456146513  0.62634365240190049  0.052516749655780355
 239    0.81381769456146513  0.62634365240190049  -0.94999999999999996
 240    0.81152988846970109  0.93686964942755435  0.025943440916992237
 241    0.81152988846970109  0.93686964942755435  -0.94999999999999996
 242    0.81319794872570172  0.81305779056849514  0.044624188807424955
 243    0.81319794872570172  0.81305779056849514  -0.94999999999999996
 244    0.93172163632619598  -0.87058720053994532  0.037418156504669564
 245    0.93172163632619598  -0.87058720053994532  -0.94999999999999996
 246    0.93503156092959638  -0.62219148167585847  0.020005630595855185
 247    0.93503156092959638  -0.62219148167585847  -0.94999999999999996
 248    0.93575694028409639  -0.37147952714301014  0.0450892975277985
 249    0.93575694028409639  -0.37147952714301014  -0.94999999999999996
 250    0.93673636281479167  -0.12019328778188765  0.080014609098196077
 251    0.93673636281479167  -0.12019328778188765  -0.94999999999999996
 252    0.93818055340389073  0.12961011992731628  0.087579170032318965
 253    0.93818055340389073  0.12961011992731628  -0.94999999999999996
 254    0.93902292720814495  0.37812582713542836  0.072665140300893452
 255    0.93902292720814495  0.37812582713542836  -0.94999999999999996
 256    0.93950866325863702  0.62730687336837387  0.069794377679403663
 257    0.93950866325863702  0.62730687336837387  -0.94999999999999996
 258    0.93640421871054624  0.94702309210134528  0.030777421090986107
 259    0.93640421871054624  0.94702309210134528  -0.94999999999999996
 260    0.93866628945438291  0.82389222566194742  0.058053469782207046
 261    0.93866628945438291  0.82389222566194742  -0.94999999999999996
 262    -0.71999999999999997  -0.46625  -0.73124999999999996
 263    -0.72999999999999998  -0.47749999999999998  -0.48125000000000001
 264    -0.73999999999999999  -0.48875000000000002  -0.23125000000000001
 265    -0.73499999999999999  -0.21625  -0.74062499999999998
 266    -0.73999999999999999  -0.22750000000000001  -0.49062499999999998
 267    -0.745  -0.23874999999999999  -0.24062500000000001
 268    -0.75  0.033750000000000002  -0.75
 269    -0.75  0.022499999999999999  -0.5
 270    -0.75  0.01125  -0.25
 271    -0.76500000000000001  0.28375  -0.75937500000000002
 272    -0.76000000000000001  0.27250000000000002  -0.50937500000000002
 273    -0.755  0.26124999999999998  -0.25937500000000002
 274    -0.78000000000000003  0.53374999999999995  -0.76875000000000004
 275    -0.77000000000000002  0.52249999999999996  -0.51875000000000004
 276    -0.76000000000000001  0.51124999999999998  -0.26874999999999999
 277    -0.59499999999999997  -0.47187499999999999  -0.734375
 278    -0.60499999999999998  -0.48125000000000001  -0.484375
 279    -0.61499999999999999  -0.49062499999999998  -0.234375
 280    -0.60999999999999999  -0.22187499999999999  -0.7421875
 281    -0.62  -0.24062500000000001  -0.2421875
 282    -0.625  0.028124999999999997  -0.75
 283    -0.625  0.0093749999999999997  -0.25
 284    -0.64000000000000001  0.27812500000000001  -0.7578125
 285    -0.63  0.25937500000000002  -0.2578125
 286    -0.65500000000000003  0.52812499999999996  -0.765625
 287    -0.64500000000000002  0.51875000000000004  -0.515625
 288    -0.63500000000000001  0.50937500000000002  -0.265625
 289    -0.46999999999999997  -0.47749999999999998  -0.73750000000000004
 290    -0.47999999999999998  -0.48499999999999999  -0.48749999999999999
 291    -0.48999999999999999  -0.49249999999999999  -0.23749999999999999
 292    -0.48499999999999999  -0.22750000000000001  -0.74375000000000002
 293    -0.495  -0.24249999999999999  -0.24374999999999999
 294    -0.5  0.022499999999999999  -0.75
 295    -0.5  0.0074999999999999997  -0.25
 296    -0.51500000000000001  0.27250000000000002  -0.75624999999999998
 297    -0.505  0.25750000000000001  -0.25624999999999998
 298    -0.53000000000000003  0.52249999999999996  -0.76249999999999996
 299    -0.52000000000000002  0.51500000000000001  -0.51249999999999996
 300    -0.51000000000000001  0.50749999999999995  -0.26250000000000001
 301    -0.34499999999999997  -0.48312500000000003  -0.74062499999999998
 302    -0.35499999999999998  -0.48875000000000002  -0.49062499999999998
 303    -0.36499999999999999  -0.49437500000000001  -0.24062500000000001
 304    -0.35999999999999999  -0.233125  -0.74531250000000004
 305    -0.37  -0.24437500000000001  -0.24531249999999999
 306    -0.375  0.016875000000000001  -0.75
 307    -0.375  0.0056249999999999998  -0.25
 308    -0.39000000000000001  0.26687499999999997  -0.75468749999999996
 309    -0.38  0.25562499999999999  -0.25468750000000001
 310    -0.40500000000000003  0.51687499999999997  -0.75937500000000002
 311    -0.39500000000000002  0.51124999999999998  -0.50937500000000002
 312    -0.38500000000000001  0.50562499999999999  -0.25937500000000002
 313    -0.22  -0.48875000000000002  -0.74375000000000002
 314    -0.23000000000000001  -0.49249999999999999  -0.49375000000000002
 315    -0.23999999999999999  -0.49625000000000002  -0.24374999999999999
 316    -0.23499999999999999  -0.23874999999999999  -0.74687499999999996
 317    -0.245  -0.24625  -0.24687500000000001
 318    -0.25  0.01125  -0.75
 319    -0.25  0.0037499999999999999  -0.25
 320    -0.26500000000000001  0.26124999999999998  -0.75312500000000004
 321    -0.255  0.25374999999999998  -0.25312499999999999
 322    -0.28000000000000003  0.51124999999999998  -0.75624999999999998
 323    -0.27000000000000002  0.50749999999999995  -0.50624999999999998
 324    -0.26000000000000001  0.50375000000000003  -0.25624999999999998
 325    -0.095000000000000001  -0.49437500000000001  -0.74687499999999996
 326    -0.105  -0.49625000000000002  -0.49687500000000001
 327    -0.115  -0.49812499999999998  -0.24687500000000001
 328    -0.11  -0.24437500000000001  -0.74843749999999998
 329    -0.12  -0.24812500000000001  -0.24843750000000001
 330    -0.125  0.0056249999999999998  -0.75
 331    -0.125  0.0018749999999999999  -0.25
 332    -0.14000000000000001  0.25562499999999999  -0.75156250000000002
 333    -0.13  0.25187500000000002  -0.25156250000000002
 334    -0.155  0.50562499999999999  -0.75312500000000004
 335    -0.14499999999999999  0.50375000000000003  -0.50312500000000004
 336    -0.13500000000000001  0.50187499999999996  -0.25312499999999999
 337    0.029999999999999999  -0.5  -0.75
 338    0.02  -0.5  -0.5
 339    0.01  -0.5  -0.25
 340    0.014999999999999999  -0.25  -0.75
 341    0.0050000000000000001  -0.25  -0.25
 342    0  0  -0.75
 343    0  0  -0.25
 344    -0.014999999999999999  0.25  -0.75
 345    -0.0050000000000000001  0.25  -0.25
 346    -0.029999999999999999  0.5  -0.75
 347    -0.02  0.5  -0.5
 348    -0.01  0.5  -0.25
 349    0.155  -0.50562499999999999  -0.75312500000000004
 350    0.14499999999999999  -0.50375000000000003  -0.50312500000000004
 351    0.13500000000000001  -0.50187499999999996  -0.25312499999999999
 352    0.14000000000000001  -0.25562499999999999  -0.75156250000000002
 353    0.13  -0.25187500000000002  -0.25156250000000002
 354    0.125  -0.0056249999999999998  -0.75
 355    0.125  -0.0018749999999999999  -0.25
 356    0.11  0.24437500000000001  -0.74843749999999998
 357    0.12  0.24812500000000001  -0.24843750000000001
 358    0.095000000000000001  0.49437500000000001  -0.74687499999999996
 359    0.105  0.49625000000000002  -0.49687500000000001
 360    0.115  0.49812499999999998  -0.24687500000000001
 361    0.28000000000000003  -0.51124999999999998  -0.75624999999999998
 362    0.27000000000000002  -0.50749999999999995  -0.50624999999999998
 363    0.26000000000000001  -0.50375000000000003  -0.25624999999999998
 364    0.26500000000000001  -0.26124999999999998  -0.75312500000000004
 365    0.255  -0.25374999999999998  -0.25312499999999999
 366    0.25  -0.01125  -0.75
 367    0.25  -0.0037499999999999999  -0.25
 368    0.23499999999999999  0.23874999999999999  -0.74687499999999996
 369    0.245  0.24625  -0.24687500000000001
 370    0.22  0.48875000000000002  -0.74375000000000002
 371    0.23000000000000001  0.49249999999999999  -0.49375000000000002
 372    0.23999999999999999  0.49625000000000002  -0.24374999999999999
 373    0.40500000000000003  -0.51687499999999997  -0.75937500000000002
 374    0.39500000000000002  -0.51124999999999998  -0.50937500000000002
 375    0.38500000000000001  -0.50562499999999999  -0.25937500000000002
 376    0.39000000000000001  -0.26687499999999997  -0.75468749999999996
 377    0.38  -0.25562499999999999  -0.25468750000000001
 378    0.375  -0.016875000000000001  -0.75
 379    0.375  -0.0056249999999999998  -0.25
 380    0.35999999999999999  0.233125  -0.74531250000000004
 381    0.37  0.24437500000000001  -0.24531249999999999
 382    0.34499999999999997  0.48312500000000003  -0.74062499999999998
 383    0.35499999999999998  0.48875000000000002  -0.49062499999999998
 384    0.36499999999999999  0.49437500000000001  -0.24062500000000001
 385    0.53000000000000003  -0.52249999999999996  -0.76249999999999996
 386    0.52000000000000002  -0.51500000000000001  -0.51249999999999996
 387    0.51000000000000001  -0.50749999999999995  -0.26250000000000001
 388    0.51500000000000001  -0.27250000000000002  -0.75624999999999998
 389    0.505  -0.25750000000000001  -0.25624999999999998
 390    0.5  -0.022499999999999999  -0.75
 391    0.5  -0.0074999999999999997  -0.25
 392    0.48499999999999999  0.22750000000000001  -0.74375000000000002
 393    0.495  0.24249999999999999  -0.24374999999999999
 394    0.46999999999999997  0.47749999999999998  -0.73750000000000004
 395    0.47999999999999998  0.48499999999999999  -0.48749999999999999
 396    0.48999999999999999  0.49249999999999999  -0.23749999999999999
 397    0.65500000000000003  -0.52812499999999996  -0.765625
 398    0.64500000000000002  -0.51875000000000004  -0.515625
 399    0.63500000000000001  -0.50937500000000002  -0.265625
 400    0.64000000000000001  -0.27812500000000001  -0.7578125
 401    0.63  -0.25937500000000002  -0.2578125
 402    0.625  -0.028124999999999997  -0.75
 403    0.625  -0.0093749999999999997  -0.25
 404    0.60999999999999999  0.22187499999999999  -0.7421875
 405    0.62  0.24062500000000001  -0.2421875
 406    0.59499999999999997  0.47187499999999999  -0.734375
 407    0.60499999999999998  0.48125000000000001  -0.484375
 408    0.61499999999999999  0.49062499999999998  -0.234375
 409    0.78000000000000003  -0.53374999999999995  -0.76875000000000004
 410    0.77000000000000002  -0.52249999999999996  -0.51875000000000004
 411    0.76000000000000001  -0.51124999999999998  -0.26874999999999999
 412    0.76500000000000001  -0.28375  -0.75937500000000002
 413    0.76000000000000001  -0.27250000000000002  -0.50937500000000002
 414    0.755  -0.26124999999999998  -0.25937500000000002
 415    0.75  -0.033750000000000002  -0.75
 416    0.75  -0.022499999999999999  -0.5
 417    0.75  -0.01125  -0.25
 418    0.73499999999999999  0.21625  -0.74062499999999998
 419    0.73999999999999999  0.22750000000000001  -0.49062499999999998
 420    0.745  0.23874999999999999  -0.24062500000000001
 421    0.71999999999999997  0.46625  -0.73124999999999996
 422    0.72999999999999998  0.47749999999999998  -0.48125000000000001
 423    0.73999999999999999  0.48875000000000002  -0.23125000000000001
# Generated by /tmp/dc-viability.8juxjd/tetgen-build/tetgen -pYM /tmp/dc-viability.8juxjd/shell-n8-nearzero.poly
