432 3 0 0
0 -0.9402295478724827 -0.87720055117846563 0.080698819907311717
1 -0.9402295478724827 -0.87720055117846563 -0.94999999999999996
2 -0.94045661352207865 -0.62846635817296281 0.092084520049413171
3 -0.94045661352207865 -0.62846635817296281 -0.94999999999999996
4 -0.93991914232179941 -0.37949257375377049 0.098002982045662865
5 -0.93991914232179941 -0.37949257375377049 -0.94999999999999996
6 -0.93829785196002713 -0.12908395861211566 0.077375754777508132
7 -0.93829785196002713 -0.12908395861211566 -0.94999999999999996
8 -0.93659413276790038 0.12059136900539705 0.071057768381136574
9 -0.93659413276790038 0.12059136900539705 -0.94999999999999996
10 -0.9341877528151632 0.36903521450718463 0.087874735423413119
11 -0.9341877528151632 0.36903521450718463 -0.94999999999999996
12 -0.93204967517708948 0.61873279484727073 0.081595038321319091
13 -0.93204967517708948 0.61873279484727073 -0.94999999999999996
14 -0.92985404091169355 0.86887575181510313 0.067241967229554556
15 -0.92985404091169355 0.86887575181510313 -0.94999999999999996
16 -0.81564989109889607 -0.87728667071417532 0.082351990515606238
17 -0.81564989109889607 -0.87728667071417532 -0.94999999999999996
18 -0.81646290956819756 -0.62909034088407789 0.10960041064612899
19 -0.81646290956819756 -0.62909034088407789 -0.94999999999999996
20 -0.81538834951753936 -0.37937992954964989 0.10516797234845676
21 -0.81538834951753936 -0.37937992954964989 -0.94999999999999996
22 -0.81320899437639893 -0.12726937828084123 0.05090821625125299
23 -0.81320899437639893 -0.12726937828084123 -0.94999999999999996
24 -0.81184552595508142 0.12285391903125889 0.038025949677241599
25 -0.81184552595508142 0.12285391903125889 -0.94999999999999996
26 -0.80953130806920659 0.37056155214473441 0.075344774392804237
27 -0.80953130806920659 0.37056155214473441 -0.94999999999999996
28 -0.80761977525123252 0.6200856900846714 0.075231603195080404
29 -0.80761977525123252 0.6200856900846714 -0.94999999999999996
30 -0.80539314508780901 0.87015006047622356 0.063980506664441134
31 -0.80539314508780901 0.87015006047622356 -0.94999999999999996
32 -0.68998970058119924 -0.87658504138171633 0.06779661916859725
33 -0.68998970058119924 -0.87658504138171633 -0.94999999999999996
34 -0.69133029839572879 -0.62842678484056913 0.10404736108600701
35 -0.69133029839572879 -0.62842678484056913 -0.94999999999999996
36 -0.69043031495682383 -0.37872939841250436 0.10323233436960573
37 -0.69043031495682383 -0.37872939841250436 -0.94999999999999996
38 -0.68818335341796044 -0.12656237992329292 0.042314966025156671
39 -0.68818335341796044 -0.12656237992329292 -0.94999999999999996
40 -0.68693559517435721 0.12368046724533785 0.027773786409281805
41 -0.68693559517435721 0.12368046724533785 -0.94999999999999996
42 -0.6846794114851642 0.37150961125544457 0.071734208511967226
43 -0.6846794114851642 0.37150961125544457 -0.94999999999999996
44 -0.68257435007305434 0.62084805432787304 0.079411321192368975
45 -0.68257435007305434 0.62084805432787304 -0.94999999999999996
46 -0.67993869003046425 0.87066328383852454 0.075561025609834062
47 -0.67993869003046425 0.87066328383852454 -0.94999999999999996
48 -0.56418692251874458 -0.87588645984154612 0.050415007855851179
49 -0.56418692251874458 -0.87588645984154612 -0.94999999999999996
50 -0.56569318932446599 -0.62740029544435783 0.08796965536856069
51 -0.56569318932446599 -0.62740029544435783 -0.94999999999999996
52 -0.56535943897102636 -0.37807968321919588 0.10200369866893214
53 -0.56535943897102636 -0.37807968321919588 -0.94999999999999996
54 -0.56329883397573088 -0.12675955753810134 0.057219737175407182
55 -0.56329883397573088 -0.12675955753810134 -0.94999999999999996
56 -0.5618250814398269 0.12345110274931909 0.043992716397512482
57 -0.5618250814398269 0.12345110274931909 -0.94999999999999996
58 -0.55960092779616766 0.37200177816351276 0.078802894100135454
59 -0.55960092779616766 0.37200177816351276 -0.94999999999999996
60 -0.55757860219820565 0.62159490203165835 0.082979785393734865
61 -0.55757860219820565 0.62159490203165835 -0.94999999999999996
62 -0.55502503599893649 0.87144268736386721 0.08006619233885727
63 -0.55502503599893649 0.87144268736386721 -0.94999999999999996
64 -0.43939566753626635 -0.87570266737404245 0.046759113155292201
65 -0.43939566753626635 -0.87570266737404245 -0.94999999999999996
66 -0.4401636987527156 -0.62656119851502723 0.072419055913962443
67 -0.4401636987527156 -0.62656119851502723 -0.94999999999999996
68 -0.44020030126190296 -0.37741901297314256 0.10016158298904096
69 -0.44020030126190296 -0.37741901297314256 -0.94999999999999996
70 -0.43847803705765864 -0.12714011914981455 0.086546485281692231
71 -0.43847803705765864 -0.12714011914981455 -0.94999999999999996
72 -0.43659025326082046 0.12295838857522512 0.07766321935773654
73 -0.43659025326082046 0.12295838857522512 -0.94999999999999996
74 -0.43455335817341506 0.37247838692698965 0.088206589144112862
75 -0.43455335817341506 0.37247838692698965 -0.94999999999999996
76 -0.43322985949714998 0.62265095581111929 0.074471259109212193
77 -0.43322985949714998 0.62265095581111929 -0.94999999999999996
78 -0.43150132502746158 0.87273548476720131 0.065148001387749704
79 -0.43150132502746158 0.87273548476720131 -0.94999999999999996
80 -0.31572839627098498 -0.87580316895382604 0.058823987213979606
81 -0.31572839627098498 -0.87580316895382604 -0.94999999999999996
82 -0.31492027964007363 -0.6259649070126192 0.060678298348507499
83 -0.31492027964007363 -0.6259649070126192 -0.94999999999999996
84 -0.31477637782829671 -0.37657116356712367 0.087954228372995491
85 -0.31477637782829671 -0.37657116356712367 -0.94999999999999996
86 -0.31350741630662315 -0.12689211347042323 0.10314441245246431
87 -0.31350741630662315 -0.12689211347042323 -0.94999999999999996
88 -0.31145229981741263 0.12308160137528262 0.10125235625067701
89 -0.31145229981741263 0.12308160137528262 -0.94999999999999996
90 -0.30982105196566101 0.37323182856733961 0.087306830423160522
91 -0.30982105196566101 0.37323182856733961 -0.94999999999999996
92 -0.3091017761246202 0.62365128821529037 0.060465171687593335
93 -0.3091017761246202 0.62365128821529037 -0.94999999999999996
94 -0.30795039506680494 0.87377236951471549 0.050560586763388218
95 -0.30795039506680494 0.87377236951471549 -0.94999999999999996
96 -0.19208703827715723 -0.87568857378907827 0.071645820745300404
97 -0.19208703827715723 -0.87568857378907827 -0.94999999999999996
98 -0.18982623575308472 -0.6255252265822131 0.051805834265447499
99 -0.18982623575308472 -0.6255252265822131 -0.94999999999999996
100 -0.18918026317909672 -0.37574461239986423 0.066001193812729092
101 -0.18918026317909672 -0.37574461239986423 -0.94999999999999996
102 -0.18831915957341244 -0.1260641719549811 0.09176940269651615
103 -0.18831915957341244 -0.1260641719549811 -0.94999999999999996
104 -0.18654134371578915 0.12386448257230387 0.096400488236436391
105 -0.18654134371578915 0.12386448257230387 -0.94999999999999996
106 -0.1853592553957546 0.37409079414405377 0.07396939721140533
107 -0.1853592553957546 0.37409079414405377 -0.94999999999999996
108 -0.18448354367703229 0.62431758129886572 0.054265633049749455
109 -0.18448354367703229 0.62431758129886572 -0.94999999999999996
110 -0.18287820149547365 0.87429178248571737 0.057212556318801067
111 -0.18287820149547365 0.87429178248571737 -0.94999999999999996
112 -0.067961231581622997 -0.8752630666471013 0.078366928680581802
113 -0.067961231581622997 -0.8752630666471013 -0.94999999999999996
114 -0.064935383694340529 -0.62516397030676862 0.048103399537924779
115 -0.064935383694340529 -0.62516397030676862 -0.94999999999999996
116 -0.063717786390926803 -0.37519267113232668 0.045379555649592541
117 -0.063717786390926803 -0.37519267113232668 -0.94999999999999996
118 -0.063050520835056897 -0.12529479096046664 0.065714131265391579
119 -0.063050520835056897 -0.12529479096046664 -0.94999999999999996
120 -0.061711277036152708 0.12467193197914958 0.076842987704911339
121 -0.061711277036152708 0.12467193197914958 -0.94999999999999996
122 -0.060775960593974172 0.37474693052277519 0.061647184246827733
123 -0.060775960593974172 0.37474693052277519 -0.94999999999999996
124 -0.0591098893952125 0.62478054358038815 0.062343022097945996
125 -0.0591098893952125 0.62478054358038815 -0.94999999999999996
126 -0.056340992601788584 0.87472698229450074 0.084481526488513398
127 -0.056340992601788584 0.87472698229450074 -0.94999999999999996
128 0.056248859400677018 -0.87464434317255746 0.085243536059425598
129 0.056248859400677018 -0.87464434317255746 -0.94999999999999996
130 0.059153793174327257 -0.62470232277597049 0.062024738506041524
131 0.059153793174327257 -0.62470232277597049 -0.94999999999999996
132 0.061122168814789261 -0.37480687414734987 0.043096435026049096
133 0.061122168814789261 -0.37480687414734987 -0.94999999999999996
134 0.062107098784168771 -0.12484882385842762 0.045784238746156315
135 0.062107098784168771 -0.12484882385842762 -0.94999999999999996
136 0.063262319844348311 0.12523365938935366 0.065036420172010584
137 0.063262319844348311 0.12523365938935366 -0.94999999999999996
138 0.064388847546955591 0.37527902041874306 0.067451059782597481
139 0.064388847546955591 0.37527902041874306 -0.94999999999999996
140 0.066886222392511824 0.62535592109685423 0.084444562396924328
141 0.066886222392511824 0.62535592109685423 -0.94999999999999996
142 0.070477703876473563 0.87546867364181435 0.11603773466385521
143 0.070477703876473563 0.87546867364181435 -0.94999999999999996
144 0.18081123141580913 -0.87391027384275821 0.088155740645623454
145 0.18081123141580913 -0.87391027384275821 -0.94999999999999996
146 0.18261364094334065 -0.62384777032807948 0.090801084730008599
147 0.18261364094334065 -0.62384777032807948 -0.94999999999999996
148 0.18520376883277673 -0.37415590387258857 0.065632507004104307
149 0.18520376883277673 -0.37415590387258857 -0.94999999999999996
150 0.1870303058870591 -0.12448501894092701 0.043238605043024958
151 0.1870303058870591 -0.12448501894092701 -0.94999999999999996
152 0.18835478607792036 0.12572131678502629 0.064836953291997707
153 0.18835478607792036 0.12572131678502629 -0.94999999999999996
154 0.18991500586993837 0.37594715156170394 0.085260423696468218
155 0.18991500586993837 0.37594715156170394 -0.94999999999999996
156 0.19253818865240238 0.62609865354024863 0.10283101747352295
157 0.19253818865240238 0.62609865354024863 -0.94999999999999996
158 0.19571357273468781 0.8762887442997136 0.12536432110186593
159 0.19571357273468781 0.8762887442997136 -0.94999999999999996
160 0.30611693380885968 -0.87326329143315384 0.079827824188699742
161 0.30611693380885968 -0.87326329143315384 -0.94999999999999996
162 0.30661990615366813 -0.62273673516635897 0.10981397755940428
163 0.30661990615366813 -0.62273673516635897 -0.94999999999999996
164 0.30923690794863495 -0.37311102417523145 0.092561112206632323
165 0.30923690794863495 -0.37311102417523145 -0.94999999999999996
166 0.31182627256309975 -0.12398971862114684 0.051032823337931701
167 0.31182627256309975 -0.12398971862114684 -0.94999999999999996
168 0.31333814282113709 0.1261333224470336 0.06315984254977422
169 0.31333814282113709 0.1261333224470336 -0.94999999999999996
170 0.31497412593693591 0.37652908560493564 0.088666093951824052
171 0.31497412593693591 0.37652908560493564 -0.94999999999999996
172 0.31687739476824739 0.62657690365060792 0.096355397102445978
173 0.31687739476824739 0.62657690365060792 -0.94999999999999996
174 0.31874931869947232 0.87660459289769399 0.10321090729527269
175 0.31874931869947232 0.87660459289769399 -0.94999999999999996
176 0.43182354515449461 -0.8728335876334683 0.064213556518244577
177 0.43182354515449461 -0.8728335876334683 -0.94999999999999996
178 0.43171235890152043 -0.62187274972835593 0.10622216056313441
179 0.43171235890152043 -0.62187274972835593 -0.94999999999999996
180 0.43389438518495482 -0.37211324784706401 0.10177756398683621
181 0.43389438518495482 -0.37211324784706401 -0.94999999999999996
182 0.43670638725557176 -0.12352464996365971 0.053627031337482048
183 0.43670638725557176 -0.12352464996365971 -0.94999999999999996
184 0.43812656649510284 0.12622505113234933 0.050743468871210819
185 0.43812656649510284 0.12622505113234933 -0.94999999999999996
186 0.43932759039440383 0.37655363284647181 0.069557047237667979
187 0.43932759039440383 0.37655363284647181 -0.94999999999999996
188 0.44033387042928396 0.62643913412039609 0.07091158131557436
189 0.44033387042928396 0.62643913412039609 -0.94999999999999996
190 0.44109307860454411 0.87629000287968695 0.070857634765063349
191 0.44109307860454411 0.87629000287968695 -0.94999999999999996
192 0.55792203288663544 -0.8727910908417682 0.042053356749411561
193 0.55792203288663544 -0.8727910908417682 -0.94999999999999996
194 0.55765361930043467 -0.62159401327805752 0.084705106824427112
195 0.55765361930043467 -0.62159401327805752 -0.94999999999999996
196 0.55904401399568449 -0.37135211266120327 0.097721764720771293
197 0.55904401399568449 -0.37135211266120327 -0.94999999999999996
198 0.56162524041548478 -0.12289470667840997 0.058151354075652223
199 0.56162524041548478 -0.12289470667840997 -0.94999999999999996
200 0.56291955837151242 0.12631416292070952 0.042422543425510169
201 0.56291955837151242 0.12631416292070952 -0.94999999999999996
202 0.56367297265731764 0.37631982824340393 0.050360150720751506
203 0.56367297265731764 0.37631982824340393 -0.94999999999999996
204 0.62362401395870493 0.74678603638077312 0.022880677030156865
205 0.62362401395870493 0.74678603638077312 -0.94999999999999996
206 0.57522751381819837 0.64879717371913814 0.040990425506385375
207 0.57522751381819837 0.64879717371913814 -0.94999999999999996
208 0.62024621925711465 0.87494988554402664 0.025787387774005292
209 0.62024621925711465 0.87494988554402664 -0.94999999999999996
210 0.55901342263026577 0.8755054806398922 0.041238752929702333
211 0.55901342263026577 0.8755054806398922 -0.94999999999999996
212 0.68398762623919074 -0.87293831439517522 0.020382159679426696
213 0.68398762623919074 -0.87293831439517522 -0.94999999999999996
214 0.68382547515605352 -0.62179365445800783 0.05726752076004088
215 0.68382547515605352 -0.62179365445800783 -0.94999999999999996
216 0.68439770820237444 -0.37078349663124199 0.089694519798480032
217 0.68439770820237444 -0.37078349663124199 -0.94999999999999996
218 0.68649888600568643 -0.12168992458030972 0.074933333200238594
219 0.68649888600568643 -0.12168992458030972 -0.94999999999999996
220 0.68792232300175127 0.12711612426780106 0.054587533572117986
221 0.68792232300175127 0.12711612426780106 -0.94999999999999996
222 0.68870405678546875 0.37670424728884122 0.053550119680502092
223 0.68870405678546875 0.37670424728884122 -0.94999999999999996
224 0.68723588894988108 0.73122771210385717 0.020697774870060644
225 0.68723588894988108 0.73122771210385717 -0.94999999999999996
226 0.68828173378371749 0.60724485050809651 0.040346095298315288
227 0.68828173378371749 0.60724485050809651 -0.94999999999999996
228 0.68687637556525905 0.87460971332475557 0.021182356856909557
229 0.68687637556525905 0.87460971332475557 -0.94999999999999996
230 0.80859723482710788 -0.87224444925389144 0.020166947389617239
231 0.80859723482710788 -0.87224444925389144 -0.94999999999999996
232 0.80921583364240068 -0.6216702531681304 0.042855018483050067
233 0.80921583364240068 -0.6216702531681304 -0.94999999999999996
234 0.80983496374825692 -0.37050159243787151 0.07748882501797158
235 0.80983496374825692 -0.37050159243787151 -0.94999999999999996
236 0.81145610825102432 -0.12042109142122592 0.088595231018198078
237 0.81145610825102432 -0.12042109142122592 -0.94999999999999996
238 0.81304676461316738 0.12838266788811198 0.073895124227783271
239 0.81304676461316738 0.12838266788811198 -0.94999999999999996
240 0.81418909454171939 0.37775504890246658 0.071130853872169802
241 0.81418909454171939 0.37775504890246658 -0.94999999999999996
242 0.81225199169225304 0.73350267636247757 0.025722778965730095
243 0.81225199169225304 0.73350267636247757 -0.94999999999999996
244 0.81364232992855201 0.61009979808730075 0.053336373975311331
245 0.81364232992855201 0.61009979808730075 -0.94999999999999996
246 0.81431756680935963 0.85047402574033659 0.028443079770406464
247 0.81431756680935963 0.85047402574033659 -0.94999999999999996
248 0.85815661975361268 0.91808389451272043 0.042562228607772867
249 0.85815661975361268 0.91808389451272043 -0.94999999999999996
250 0.93167369327418736 -0.87024240700089883 0.042418070627950645
251 0.93167369327418736 -0.87024240700089883 -0.94999999999999996
252 0.93354117718605523 -0.62059304204085031 0.048463972238033781
253 0.93354117718605523 -0.62059304204085031 -0.94999999999999996
254 0.93515556985808401 -0.37041305719658374 0.064301981078934228
255 0.93515556985808401 -0.37041305719658374 -0.94999999999999996
256 0.93656922589875857 -0.11999955737503802 0.083541461381951967
257 0.93656922589875857 -0.11999955737503802 -0.94999999999999996
258 0.93804520651106871 0.12892144448953738 0.075981831873318181
259 0.93804520651106871 0.12892144448953738 -0.94999999999999996
260 0.93932448353578968 0.37831482771706892 0.076820376171462826
261 0.93932448353578968 0.37831482771706892 -0.94999999999999996
262 0.87533003010004329 0.74981932205893342 0.032768852959231064
263 0.87533003010004329 0.74981932205893342 -0.94999999999999996
264 0.92643934749150636 0.65154383801721538 0.059191149131686036
265 0.92643934749150636 0.65154383801721538 -0.94999999999999996
266 0.87533003010004329 0.75124360585958894 0.03283116537550973
267 0.87533003010004329 0.75124360585958894 -0.94999999999999996
268 0.92609035548264029 0.85145501165108572 0.051448366223416218
269 0.92609035548264029 0.85145501165108572 -0.94999999999999996
270 -0.71999999999999997 -0.46625 -0.73124999999999996
271 -0.72999999999999998 -0.47749999999999998 -0.48125000000000001
272 -0.73999999999999999 -0.48875000000000002 -0.23125000000000001
273 -0.73499999999999999 -0.21625 -0.74062499999999998
274 -0.73999999999999999 -0.22750000000000001 -0.49062499999999998
275 -0.745 -0.23874999999999999 -0.24062500000000001
276 -0.75 0.033750000000000002 -0.75
277 -0.75 0.022499999999999999 -0.5
278 -0.75 0.01125 -0.25
279 -0.76500000000000001 0.28375 -0.75937500000000002
280 -0.76000000000000001 0.27250000000000002 -0.50937500000000002
281 -0.755 0.26124999999999998 -0.25937500000000002
282 -0.78000000000000003 0.53374999999999995 -0.76875000000000004
283 -0.77000000000000002 0.52249999999999996 -0.51875000000000004
284 -0.76000000000000001 0.51124999999999998 -0.26874999999999999
285 -0.59499999999999997 -0.47187499999999999 -0.734375
286 -0.60499999999999998 -0.48125000000000001 -0.484375
287 -0.61499999999999999 -0.49062499999999998 -0.234375
288 -0.60999999999999999 -0.22187499999999999 -0.7421875
289 -0.62 -0.24062500000000001 -0.2421875
290 -0.625 0.028124999999999997 -0.75
291 -0.625 0.0093749999999999997 -0.25
292 -0.64000000000000001 0.27812500000000001 -0.7578125
293 -0.63 0.25937500000000002 -0.2578125
294 -0.65500000000000003 0.52812499999999996 -0.765625
295 -0.64500000000000002 0.51875000000000004 -0.515625
296 -0.63500000000000001 0.50937500000000002 -0.265625
297 -0.46999999999999997 -0.47749999999999998 -0.73750000000000004
298 -0.47999999999999998 -0.48499999999999999 -0.48749999999999999
299 -0.48999999999999999 -0.49249999999999999 -0.23749999999999999
300 -0.48499999999999999 -0.22750000000000001 -0.74375000000000002
301 -0.495 -0.24249999999999999 -0.24374999999999999
302 -0.5 0.022499999999999999 -0.75
303 -0.5 0.0074999999999999997 -0.25
304 -0.51500000000000001 0.27250000000000002 -0.75624999999999998
305 -0.505 0.25750000000000001 -0.25624999999999998
306 -0.53000000000000003 0.52249999999999996 -0.76249999999999996
307 -0.52000000000000002 0.51500000000000001 -0.51249999999999996
308 -0.51000000000000001 0.50749999999999995 -0.26250000000000001
309 -0.34499999999999997 -0.48312500000000003 -0.74062499999999998
310 -0.35499999999999998 -0.48875000000000002 -0.49062499999999998
311 -0.36499999999999999 -0.49437500000000001 -0.24062500000000001
312 -0.35999999999999999 -0.233125 -0.74531250000000004
313 -0.37 -0.24437500000000001 -0.24531249999999999
314 -0.375 0.016875000000000001 -0.75
315 -0.375 0.0056249999999999998 -0.25
316 -0.39000000000000001 0.26687499999999997 -0.75468749999999996
317 -0.38 0.25562499999999999 -0.25468750000000001
318 -0.40500000000000003 0.51687499999999997 -0.75937500000000002
319 -0.39500000000000002 0.51124999999999998 -0.50937500000000002
320 -0.38500000000000001 0.50562499999999999 -0.25937500000000002
321 -0.22 -0.48875000000000002 -0.74375000000000002
322 -0.23000000000000001 -0.49249999999999999 -0.49375000000000002
323 -0.23999999999999999 -0.49625000000000002 -0.24374999999999999
324 -0.23499999999999999 -0.23874999999999999 -0.74687499999999996
325 -0.245 -0.24625 -0.24687500000000001
326 -0.25 0.01125 -0.75
327 -0.25 0.0037499999999999999 -0.25
328 -0.26500000000000001 0.26124999999999998 -0.75312500000000004
329 -0.255 0.25374999999999998 -0.25312499999999999
330 -0.28000000000000003 0.51124999999999998 -0.75624999999999998
331 -0.27000000000000002 0.50749999999999995 -0.50624999999999998
332 -0.26000000000000001 0.50375000000000003 -0.25624999999999998
333 -0.095000000000000001 -0.49437500000000001 -0.74687499999999996
334 -0.105 -0.49625000000000002 -0.49687500000000001
335 -0.115 -0.49812499999999998 -0.24687500000000001
336 -0.11 -0.24437500000000001 -0.74843749999999998
337 -0.12 -0.24812500000000001 -0.24843750000000001
338 -0.125 0.0056249999999999998 -0.75
339 -0.125 0.0018749999999999999 -0.25
340 -0.14000000000000001 0.25562499999999999 -0.75156250000000002
341 -0.13 0.25187500000000002 -0.25156250000000002
342 -0.155 0.50562499999999999 -0.75312500000000004
343 -0.14499999999999999 0.50375000000000003 -0.50312500000000004
344 -0.13500000000000001 0.50187499999999996 -0.25312499999999999
345 0.029999999999999999 -0.5 -0.75
346 0.02 -0.5 -0.5
347 0.01 -0.5 -0.25
348 0.014999999999999999 -0.25 -0.75
349 0.0050000000000000001 -0.25 -0.25
350 0 0 -0.75
351 0 0 -0.25
352 -0.014999999999999999 0.25 -0.75
353 -0.0050000000000000001 0.25 -0.25
354 -0.029999999999999999 0.5 -0.75
355 -0.02 0.5 -0.5
356 -0.01 0.5 -0.25
357 0.155 -0.50562499999999999 -0.75312500000000004
358 0.14499999999999999 -0.50375000000000003 -0.50312500000000004
359 0.13500000000000001 -0.50187499999999996 -0.25312499999999999
360 0.14000000000000001 -0.25562499999999999 -0.75156250000000002
361 0.13 -0.25187500000000002 -0.25156250000000002
362 0.125 -0.0056249999999999998 -0.75
363 0.125 -0.0018749999999999999 -0.25
364 0.11 0.24437500000000001 -0.74843749999999998
365 0.12 0.24812500000000001 -0.24843750000000001
366 0.095000000000000001 0.49437500000000001 -0.74687499999999996
367 0.105 0.49625000000000002 -0.49687500000000001
368 0.115 0.49812499999999998 -0.24687500000000001
369 0.28000000000000003 -0.51124999999999998 -0.75624999999999998
370 0.27000000000000002 -0.50749999999999995 -0.50624999999999998
371 0.26000000000000001 -0.50375000000000003 -0.25624999999999998
372 0.26500000000000001 -0.26124999999999998 -0.75312500000000004
373 0.255 -0.25374999999999998 -0.25312499999999999
374 0.25 -0.01125 -0.75
375 0.25 -0.0037499999999999999 -0.25
376 0.23499999999999999 0.23874999999999999 -0.74687499999999996
377 0.245 0.24625 -0.24687500000000001
378 0.22 0.48875000000000002 -0.74375000000000002
379 0.23000000000000001 0.49249999999999999 -0.49375000000000002
380 0.23999999999999999 0.49625000000000002 -0.24374999999999999
381 0.40500000000000003 -0.51687499999999997 -0.75937500000000002
382 0.39500000000000002 -0.51124999999999998 -0.50937500000000002
383 0.38500000000000001 -0.50562499999999999 -0.25937500000000002
384 0.39000000000000001 -0.26687499999999997 -0.75468749999999996
385 0.38 -0.25562499999999999 -0.25468750000000001
386 0.375 -0.016875000000000001 -0.75
387 0.375 -0.0056249999999999998 -0.25
388 0.35999999999999999 0.233125 -0.74531250000000004
389 0.37 0.24437500000000001 -0.24531249999999999
390 0.34499999999999997 0.48312500000000003 -0.74062499999999998
391 0.35499999999999998 0.48875000000000002 -0.49062499999999998
392 0.36499999999999999 0.49437500000000001 -0.24062500000000001
393 0.53000000000000003 -0.52249999999999996 -0.76249999999999996
394 0.52000000000000002 -0.51500000000000001 -0.51249999999999996
395 0.51000000000000001 -0.50749999999999995 -0.26250000000000001
396 0.51500000000000001 -0.27250000000000002 -0.75624999999999998
397 0.505 -0.25750000000000001 -0.25624999999999998
398 0.5 -0.022499999999999999 -0.75
399 0.5 -0.0074999999999999997 -0.25
400 0.48499999999999999 0.22750000000000001 -0.74375000000000002
401 0.495 0.24249999999999999 -0.24374999999999999
402 0.46999999999999997 0.47749999999999998 -0.73750000000000004
403 0.47999999999999998 0.48499999999999999 -0.48749999999999999
404 0.48999999999999999 0.49249999999999999 -0.23749999999999999
405 0.65500000000000003 -0.52812499999999996 -0.765625
406 0.64500000000000002 -0.51875000000000004 -0.515625
407 0.63500000000000001 -0.50937500000000002 -0.265625
408 0.64000000000000001 -0.27812500000000001 -0.7578125
409 0.63 -0.25937500000000002 -0.2578125
410 0.625 -0.028124999999999997 -0.75
411 0.625 -0.0093749999999999997 -0.25
412 0.60999999999999999 0.22187499999999999 -0.7421875
413 0.62 0.24062500000000001 -0.2421875
414 0.59499999999999997 0.47187499999999999 -0.734375
415 0.60499999999999998 0.48125000000000001 -0.484375
416 0.61499999999999999 0.49062499999999998 -0.234375
417 0.78000000000000003 -0.53374999999999995 -0.76875000000000004
418 0.77000000000000002 -0.52249999999999996 -0.51875000000000004
419 0.76000000000000001 -0.51124999999999998 -0.26874999999999999
420 0.76500000000000001 -0.28375 -0.75937500000000002
421 0.76000000000000001 -0.27250000000000002 -0.50937500000000002
422 0.755 -0.26124999999999998 -0.25937500000000002
423 0.75 -0.033750000000000002 -0.75
424 0.75 -0.022499999999999999 -0.5
425 0.75 -0.01125 -0.25
426 0.73499999999999999 0.21625 -0.74062499999999998
427 0.73999999999999999 0.22750000000000001 -0.49062499999999998
428 0.745 0.23874999999999999 -0.24062500000000001
429 0.71999999999999997 0.46625 -0.73124999999999996
430 0.72999999999999998 0.47749999999999998 -0.48125000000000001
431 0.73999999999999999 0.48875000000000002 -0.23125000000000001
856 1
1 0 1
3 204 208 210
1 0 2
3 205 209 211
1 0 1
3 204 210 206
1 0 2
3 205 211 207
1 0 1
3 262 268 266
1 0 2
3 263 269 267
1 0 1
3 262 264 268
1 0 2
3 263 265 269
1 0 1
3 204 226 224
1 0 2
3 205 227 225
1 0 1
3 204 206 226
1 0 2
3 205 207 227
1 0 1
3 224 244 242
1 0 2
3 225 245 243
1 0 1
3 224 226 244
1 0 2
3 225 227 245
1 0 1
3 242 264 262
1 0 2
3 243 265 263
1 0 1
3 242 244 264
1 0 2
3 243 245 265
1 0 1
3 246 266 268
1 0 2
3 247 267 269
1 0 1
3 246 268 248
1 0 2
3 247 269 249
1 0 1
3 0 16 18
1 0 2
3 1 17 19
1 0 1
3 0 18 2
1 0 2
3 1 19 3
1 0 1
3 2 18 20
1 0 2
3 3 19 21
1 0 1
3 2 20 4
1 0 2
3 3 21 5
1 0 1
3 4 20 22
1 0 2
3 5 21 23
1 0 1
3 4 22 6
1 0 2
3 5 23 7
1 0 1
3 6 22 24
1 0 2
3 7 23 25
1 0 1
3 6 24 8
1 0 2
3 7 25 9
1 0 1
3 8 24 26
1 0 2
3 9 25 27
1 0 1
3 8 26 10
1 0 2
3 9 27 11
1 0 1
3 10 26 28
1 0 2
3 11 27 29
1 0 1
3 10 28 12
1 0 2
3 11 29 13
1 0 1
3 12 28 30
1 0 2
3 13 29 31
1 0 1
3 12 30 14
1 0 2
3 13 31 15
1 0 1
3 16 32 34
1 0 2
3 17 33 35
1 0 1
3 16 34 18
1 0 2
3 17 35 19
1 0 1
3 18 34 36
1 0 2
3 19 35 37
1 0 1
3 18 36 20
1 0 2
3 19 37 21
1 0 1
3 20 36 38
1 0 2
3 21 37 39
1 0 1
3 20 38 22
1 0 2
3 21 39 23
1 0 1
3 22 38 40
1 0 2
3 23 39 41
1 0 1
3 22 40 24
1 0 2
3 23 41 25
1 0 1
3 24 40 42
1 0 2
3 25 41 43
1 0 1
3 24 42 26
1 0 2
3 25 43 27
1 0 1
3 26 42 44
1 0 2
3 27 43 45
1 0 1
3 26 44 28
1 0 2
3 27 45 29
1 0 1
3 28 44 46
1 0 2
3 29 45 47
1 0 1
3 28 46 30
1 0 2
3 29 47 31
1 0 1
3 32 48 50
1 0 2
3 33 49 51
1 0 1
3 32 50 34
1 0 2
3 33 51 35
1 0 1
3 34 50 52
1 0 2
3 35 51 53
1 0 1
3 34 52 36
1 0 2
3 35 53 37
1 0 1
3 36 52 54
1 0 2
3 37 53 55
1 0 1
3 36 54 38
1 0 2
3 37 55 39
1 0 1
3 38 54 56
1 0 2
3 39 55 57
1 0 1
3 38 56 40
1 0 2
3 39 57 41
1 0 1
3 40 56 58
1 0 2
3 41 57 59
1 0 1
3 40 58 42
1 0 2
3 41 59 43
1 0 1
3 42 58 60
1 0 2
3 43 59 61
1 0 1
3 42 60 44
1 0 2
3 43 61 45
1 0 1
3 44 60 62
1 0 2
3 45 61 63
1 0 1
3 44 62 46
1 0 2
3 45 63 47
1 0 1
3 48 64 66
1 0 2
3 49 65 67
1 0 1
3 48 66 50
1 0 2
3 49 67 51
1 0 1
3 50 66 68
1 0 2
3 51 67 69
1 0 1
3 50 68 52
1 0 2
3 51 69 53
1 0 1
3 52 68 70
1 0 2
3 53 69 71
1 0 1
3 52 70 54
1 0 2
3 53 71 55
1 0 1
3 54 70 72
1 0 2
3 55 71 73
1 0 1
3 54 72 56
1 0 2
3 55 73 57
1 0 1
3 56 72 74
1 0 2
3 57 73 75
1 0 1
3 56 74 58
1 0 2
3 57 75 59
1 0 1
3 58 74 76
1 0 2
3 59 75 77
1 0 1
3 58 76 60
1 0 2
3 59 77 61
1 0 1
3 60 76 78
1 0 2
3 61 77 79
1 0 1
3 60 78 62
1 0 2
3 61 79 63
1 0 1
3 64 80 82
1 0 2
3 65 81 83
1 0 1
3 64 82 66
1 0 2
3 65 83 67
1 0 1
3 66 82 84
1 0 2
3 67 83 85
1 0 1
3 66 84 68
1 0 2
3 67 85 69
1 0 1
3 68 84 86
1 0 2
3 69 85 87
1 0 1
3 68 86 70
1 0 2
3 69 87 71
1 0 1
3 70 86 88
1 0 2
3 71 87 89
1 0 1
3 70 88 72
1 0 2
3 71 89 73
1 0 1
3 72 88 90
1 0 2
3 73 89 91
1 0 1
3 72 90 74
1 0 2
3 73 91 75
1 0 1
3 74 90 92
1 0 2
3 75 91 93
1 0 1
3 74 92 76
1 0 2
3 75 93 77
1 0 1
3 76 92 94
1 0 2
3 77 93 95
1 0 1
3 76 94 78
1 0 2
3 77 95 79
1 0 1
3 80 96 98
1 0 2
3 81 97 99
1 0 1
3 80 98 82
1 0 2
3 81 99 83
1 0 1
3 82 98 100
1 0 2
3 83 99 101
1 0 1
3 82 100 84
1 0 2
3 83 101 85
1 0 1
3 84 100 102
1 0 2
3 85 101 103
1 0 1
3 84 102 86
1 0 2
3 85 103 87
1 0 1
3 86 102 104
1 0 2
3 87 103 105
1 0 1
3 86 104 88
1 0 2
3 87 105 89
1 0 1
3 88 104 106
1 0 2
3 89 105 107
1 0 1
3 88 106 90
1 0 2
3 89 107 91
1 0 1
3 90 106 108
1 0 2
3 91 107 109
1 0 1
3 90 108 92
1 0 2
3 91 109 93
1 0 1
3 92 108 110
1 0 2
3 93 109 111
1 0 1
3 92 110 94
1 0 2
3 93 111 95
1 0 1
3 96 112 114
1 0 2
3 97 113 115
1 0 1
3 96 114 98
1 0 2
3 97 115 99
1 0 1
3 98 114 116
1 0 2
3 99 115 117
1 0 1
3 98 116 100
1 0 2
3 99 117 101
1 0 1
3 100 116 118
1 0 2
3 101 117 119
1 0 1
3 100 118 102
1 0 2
3 101 119 103
1 0 1
3 102 118 120
1 0 2
3 103 119 121
1 0 1
3 102 120 104
1 0 2
3 103 121 105
1 0 1
3 104 120 122
1 0 2
3 105 121 123
1 0 1
3 104 122 106
1 0 2
3 105 123 107
1 0 1
3 106 122 124
1 0 2
3 107 123 125
1 0 1
3 106 124 108
1 0 2
3 107 125 109
1 0 1
3 108 124 126
1 0 2
3 109 125 127
1 0 1
3 108 126 110
1 0 2
3 109 127 111
1 0 1
3 112 128 130
1 0 2
3 113 129 131
1 0 1
3 112 130 114
1 0 2
3 113 131 115
1 0 1
3 114 130 132
1 0 2
3 115 131 133
1 0 1
3 114 132 116
1 0 2
3 115 133 117
1 0 1
3 116 132 134
1 0 2
3 117 133 135
1 0 1
3 116 134 118
1 0 2
3 117 135 119
1 0 1
3 118 134 136
1 0 2
3 119 135 137
1 0 1
3 118 136 120
1 0 2
3 119 137 121
1 0 1
3 120 136 138
1 0 2
3 121 137 139
1 0 1
3 120 138 122
1 0 2
3 121 139 123
1 0 1
3 122 138 140
1 0 2
3 123 139 141
1 0 1
3 122 140 124
1 0 2
3 123 141 125
1 0 1
3 124 140 142
1 0 2
3 125 141 143
1 0 1
3 124 142 126
1 0 2
3 125 143 127
1 0 1
3 128 144 146
1 0 2
3 129 145 147
1 0 1
3 128 146 130
1 0 2
3 129 147 131
1 0 1
3 130 146 148
1 0 2
3 131 147 149
1 0 1
3 130 148 132
1 0 2
3 131 149 133
1 0 1
3 132 148 150
1 0 2
3 133 149 151
1 0 1
3 132 150 134
1 0 2
3 133 151 135
1 0 1
3 134 150 152
1 0 2
3 135 151 153
1 0 1
3 134 152 136
1 0 2
3 135 153 137
1 0 1
3 136 152 154
1 0 2
3 137 153 155
1 0 1
3 136 154 138
1 0 2
3 137 155 139
1 0 1
3 138 154 156
1 0 2
3 139 155 157
1 0 1
3 138 156 140
1 0 2
3 139 157 141
1 0 1
3 140 156 158
1 0 2
3 141 157 159
1 0 1
3 140 158 142
1 0 2
3 141 159 143
1 0 1
3 144 160 162
1 0 2
3 145 161 163
1 0 1
3 144 162 146
1 0 2
3 145 163 147
1 0 1
3 146 162 164
1 0 2
3 147 163 165
1 0 1
3 146 164 148
1 0 2
3 147 165 149
1 0 1
3 148 164 166
1 0 2
3 149 165 167
1 0 1
3 148 166 150
1 0 2
3 149 167 151
1 0 1
3 150 166 168
1 0 2
3 151 167 169
1 0 1
3 150 168 152
1 0 2
3 151 169 153
1 0 1
3 152 168 170
1 0 2
3 153 169 171
1 0 1
3 152 170 154
1 0 2
3 153 171 155
1 0 1
3 154 170 172
1 0 2
3 155 171 173
1 0 1
3 154 172 156
1 0 2
3 155 173 157
1 0 1
3 156 172 174
1 0 2
3 157 173 175
1 0 1
3 156 174 158
1 0 2
3 157 175 159
1 0 1
3 160 176 178
1 0 2
3 161 177 179
1 0 1
3 160 178 162
1 0 2
3 161 179 163
1 0 1
3 162 178 180
1 0 2
3 163 179 181
1 0 1
3 162 180 164
1 0 2
3 163 181 165
1 0 1
3 164 180 182
1 0 2
3 165 181 183
1 0 1
3 164 182 166
1 0 2
3 165 183 167
1 0 1
3 166 182 184
1 0 2
3 167 183 185
1 0 1
3 166 184 168
1 0 2
3 167 185 169
1 0 1
3 168 184 186
1 0 2
3 169 185 187
1 0 1
3 168 186 170
1 0 2
3 169 187 171
1 0 1
3 170 186 188
1 0 2
3 171 187 189
1 0 1
3 170 188 172
1 0 2
3 171 189 173
1 0 1
3 172 188 190
1 0 2
3 173 189 191
1 0 1
3 172 190 174
1 0 2
3 173 191 175
1 0 1
3 176 192 194
1 0 2
3 177 193 195
1 0 1
3 176 194 178
1 0 2
3 177 195 179
1 0 1
3 178 194 196
1 0 2
3 179 195 197
1 0 1
3 178 196 180
1 0 2
3 179 197 181
1 0 1
3 180 196 198
1 0 2
3 181 197 199
1 0 1
3 180 198 182
1 0 2
3 181 199 183
1 0 1
3 182 198 200
1 0 2
3 183 199 201
1 0 1
3 182 200 184
1 0 2
3 183 201 185
1 0 1
3 184 200 202
1 0 2
3 185 201 203
1 0 1
3 184 202 186
1 0 2
3 185 203 187
1 0 1
3 186 202 206
1 0 2
3 187 203 207
1 0 1
3 186 206 188
1 0 2
3 187 207 189
1 0 1
3 188 206 210
1 0 2
3 189 207 211
1 0 1
3 188 210 190
1 0 2
3 189 211 191
1 0 1
3 192 212 214
1 0 2
3 193 213 215
1 0 1
3 192 214 194
1 0 2
3 193 215 195
1 0 1
3 194 214 216
1 0 2
3 195 215 217
1 0 1
3 194 216 196
1 0 2
3 195 217 197
1 0 1
3 196 216 218
1 0 2
3 197 217 219
1 0 1
3 196 218 198
1 0 2
3 197 219 199
1 0 1
3 198 218 220
1 0 2
3 199 219 221
1 0 1
3 198 220 200
1 0 2
3 199 221 201
1 0 1
3 200 220 222
1 0 2
3 201 221 223
1 0 1
3 200 222 202
1 0 2
3 201 223 203
1 0 1
3 202 222 226
1 0 2
3 203 223 227
1 0 1
3 202 226 206
1 0 2
3 203 227 207
1 0 1
3 204 224 228
1 0 2
3 205 225 229
1 0 1
3 204 228 208
1 0 2
3 205 229 209
1 0 1
3 212 230 232
1 0 2
3 213 231 233
1 0 1
3 212 232 214
1 0 2
3 213 233 215
1 0 1
3 214 232 234
1 0 2
3 215 233 235
1 0 1
3 214 234 216
1 0 2
3 215 235 217
1 0 1
3 216 234 236
1 0 2
3 217 235 237
1 0 1
3 216 236 218
1 0 2
3 217 237 219
1 0 1
3 218 236 238
1 0 2
3 219 237 239
1 0 1
3 218 238 220
1 0 2
3 219 239 221
1 0 1
3 220 238 240
1 0 2
3 221 239 241
1 0 1
3 220 240 222
1 0 2
3 221 241 223
1 0 1
3 222 240 244
1 0 2
3 223 241 245
1 0 1
3 222 244 226
1 0 2
3 223 245 227
1 0 1
3 224 242 246
1 0 2
3 225 243 247
1 0 1
3 224 246 228
1 0 2
3 225 247 229
1 0 1
3 230 250 252
1 0 2
3 231 251 253
1 0 1
3 230 252 232
1 0 2
3 231 253 233
1 0 1
3 232 252 254
1 0 2
3 233 253 255
1 0 1
3 232 254 234
1 0 2
3 233 255 235
1 0 1
3 234 254 256
1 0 2
3 235 255 257
1 0 1
3 234 256 236
1 0 2
3 235 257 237
1 0 1
3 236 256 258
1 0 2
3 237 257 259
1 0 1
3 236 258 238
1 0 2
3 237 259 239
1 0 1
3 238 258 260
1 0 2
3 239 259 261
1 0 1
3 238 260 240
1 0 2
3 239 261 241
1 0 1
3 240 260 264
1 0 2
3 241 261 265
1 0 1
3 240 264 244
1 0 2
3 241 265 245
1 0 1
3 242 262 266
1 0 2
3 243 263 267
1 0 1
3 242 266 246
1 0 2
3 243 267 247
1 0 2
3 0 2 1
1 0 2
3 2 1 3
1 0 2
3 0 16 1
1 0 2
3 16 1 17
1 0 2
3 2 4 3
1 0 2
3 4 3 5
1 0 2
3 4 6 5
1 0 2
3 6 5 7
1 0 2
3 6 8 7
1 0 2
3 8 7 9
1 0 2
3 8 10 9
1 0 2
3 10 9 11
1 0 2
3 10 12 11
1 0 2
3 12 11 13
1 0 2
3 12 14 13
1 0 2
3 14 13 15
1 0 2
3 14 30 15
1 0 2
3 30 15 31
1 0 2
3 16 32 17
1 0 2
3 32 17 33
1 0 2
3 30 46 31
1 0 2
3 46 31 47
1 0 2
3 32 48 33
1 0 2
3 48 33 49
1 0 2
3 46 62 47
1 0 2
3 62 47 63
1 0 2
3 48 64 49
1 0 2
3 64 49 65
1 0 2
3 62 78 63
1 0 2
3 78 63 79
1 0 2
3 64 80 65
1 0 2
3 80 65 81
1 0 2
3 78 94 79
1 0 2
3 94 79 95
1 0 2
3 80 96 81
1 0 2
3 96 81 97
1 0 2
3 94 110 95
1 0 2
3 110 95 111
1 0 2
3 96 112 97
1 0 2
3 112 97 113
1 0 2
3 110 126 111
1 0 2
3 126 111 127
1 0 2
3 112 128 113
1 0 2
3 128 113 129
1 0 2
3 126 142 127
1 0 2
3 142 127 143
1 0 2
3 128 144 129
1 0 2
3 144 129 145
1 0 2
3 142 158 143
1 0 2
3 158 143 159
1 0 2
3 144 160 145
1 0 2
3 160 145 161
1 0 2
3 158 174 159
1 0 2
3 174 159 175
1 0 2
3 160 176 161
1 0 2
3 176 161 177
1 0 2
3 174 190 175
1 0 2
3 190 175 191
1 0 2
3 176 192 177
1 0 2
3 192 177 193
1 0 2
3 190 210 191
1 0 2
3 210 191 211
1 0 2
3 192 212 193
1 0 2
3 212 193 213
1 0 2
3 208 210 209
1 0 2
3 210 209 211
1 0 2
3 208 228 209
1 0 2
3 228 209 229
1 0 2
3 212 230 213
1 0 2
3 230 213 231
1 0 2
3 228 246 229
1 0 2
3 246 229 247
1 0 2
3 230 250 231
1 0 2
3 250 231 251
1 0 2
3 246 248 247
1 0 2
3 248 247 249
1 0 2
3 248 268 249
1 0 2
3 268 249 269
1 0 2
3 250 252 251
1 0 2
3 252 251 253
1 0 2
3 252 254 253
1 0 2
3 254 253 255
1 0 2
3 254 256 255
1 0 2
3 256 255 257
1 0 2
3 256 258 257
1 0 2
3 258 257 259
1 0 2
3 258 260 259
1 0 2
3 260 259 261
1 0 2
3 260 264 261
1 0 2
3 264 261 265
1 0 2
3 264 268 265
1 0 2
3 268 265 269
1 0 3
3 270 271 274
1 0 3
3 270 271 286
1 0 3
3 270 273 274
1 0 3
3 270 273 288
1 0 3
3 270 285 286
1 0 3
3 270 285 288
1 0 3
3 271 272 275
1 0 3
3 271 272 287
1 0 3
3 271 274 275
1 0 3
3 271 286 287
1 0 3
3 272 275 289
1 0 3
3 272 287 289
1 0 3
3 273 274 277
1 0 3
3 273 276 277
1 0 3
3 273 276 290
1 0 3
3 273 288 290
1 0 3
3 274 275 278
1 0 3
3 274 277 278
1 0 3
3 275 278 291
1 0 3
3 275 289 291
1 0 3
3 276 277 280
1 0 3
3 276 279 280
1 0 3
3 276 279 292
1 0 3
3 276 290 292
1 0 3
3 277 278 281
1 0 3
3 277 280 281
1 0 3
3 278 281 293
1 0 3
3 278 291 293
1 0 3
3 279 280 283
1 0 3
3 279 282 283
1 0 3
3 279 282 294
1 0 3
3 279 292 294
1 0 3
3 280 281 284
1 0 3
3 280 283 284
1 0 3
3 281 284 296
1 0 3
3 281 293 296
1 0 3
3 282 283 295
1 0 3
3 282 294 295
1 0 3
3 283 284 296
1 0 3
3 283 295 296
1 0 3
3 285 286 298
1 0 3
3 285 288 300
1 0 3
3 285 297 298
1 0 3
3 285 297 300
1 0 3
3 286 287 299
1 0 3
3 286 298 299
1 0 3
3 287 289 301
1 0 3
3 287 299 301
1 0 3
3 288 290 302
1 0 3
3 288 300 302
1 0 3
3 289 291 303
1 0 3
3 289 301 303
1 0 3
3 290 292 304
1 0 3
3 290 302 304
1 0 3
3 291 293 305
1 0 3
3 291 303 305
1 0 3
3 292 294 306
1 0 3
3 292 304 306
1 0 3
3 293 296 308
1 0 3
3 293 305 308
1 0 3
3 294 295 307
1 0 3
3 294 306 307
1 0 3
3 295 296 308
1 0 3
3 295 307 308
1 0 3
3 297 298 310
1 0 3
3 297 300 312
1 0 3
3 297 309 310
1 0 3
3 297 309 312
1 0 3
3 298 299 311
1 0 3
3 298 310 311
1 0 3
3 299 301 313
1 0 3
3 299 311 313
1 0 3
3 300 302 314
1 0 3
3 300 312 314
1 0 3
3 301 303 315
1 0 3
3 301 313 315
1 0 3
3 302 304 316
1 0 3
3 302 314 316
1 0 3
3 303 305 317
1 0 3
3 303 315 317
1 0 3
3 304 306 318
1 0 3
3 304 316 318
1 0 3
3 305 308 320
1 0 3
3 305 317 320
1 0 3
3 306 307 319
1 0 3
3 306 318 319
1 0 3
3 307 308 320
1 0 3
3 307 319 320
1 0 3
3 309 310 322
1 0 3
3 309 312 324
1 0 3
3 309 321 322
1 0 3
3 309 321 324
1 0 3
3 310 311 323
1 0 3
3 310 322 323
1 0 3
3 311 313 325
1 0 3
3 311 323 325
1 0 3
3 312 314 326
1 0 3
3 312 324 326
1 0 3
3 313 315 327
1 0 3
3 313 325 327
1 0 3
3 314 316 328
1 0 3
3 314 326 328
1 0 3
3 315 317 329
1 0 3
3 315 327 329
1 0 3
3 316 318 330
1 0 3
3 316 328 330
1 0 3
3 317 320 332
1 0 3
3 317 329 332
1 0 3
3 318 319 331
1 0 3
3 318 330 331
1 0 3
3 319 320 332
1 0 3
3 319 331 332
1 0 3
3 321 322 334
1 0 3
3 321 324 336
1 0 3
3 321 333 334
1 0 3
3 321 333 336
1 0 3
3 322 323 335
1 0 3
3 322 334 335
1 0 3
3 323 325 337
1 0 3
3 323 335 337
1 0 3
3 324 326 338
1 0 3
3 324 336 338
1 0 3
3 325 327 339
1 0 3
3 325 337 339
1 0 3
3 326 328 340
1 0 3
3 326 338 340
1 0 3
3 327 329 341
1 0 3
3 327 339 341
1 0 3
3 328 330 342
1 0 3
3 328 340 342
1 0 3
3 329 332 344
1 0 3
3 329 341 344
1 0 3
3 330 331 343
1 0 3
3 330 342 343
1 0 3
3 331 332 344
1 0 3
3 331 343 344
1 0 3
3 333 334 346
1 0 3
3 333 336 348
1 0 3
3 333 345 346
1 0 3
3 333 345 348
1 0 3
3 334 335 347
1 0 3
3 334 346 347
1 0 3
3 335 337 349
1 0 3
3 335 347 349
1 0 3
3 336 338 350
1 0 3
3 336 348 350
1 0 3
3 337 339 351
1 0 3
3 337 349 351
1 0 3
3 338 340 352
1 0 3
3 338 350 352
1 0 3
3 339 341 353
1 0 3
3 339 351 353
1 0 3
3 340 342 354
1 0 3
3 340 352 354
1 0 3
3 341 344 356
1 0 3
3 341 353 356
1 0 3
3 342 343 355
1 0 3
3 342 354 355
1 0 3
3 343 344 356
1 0 3
3 343 355 356
1 0 3
3 345 346 358
1 0 3
3 345 348 360
1 0 3
3 345 357 358
1 0 3
3 345 357 360
1 0 3
3 346 347 359
1 0 3
3 346 358 359
1 0 3
3 347 349 361
1 0 3
3 347 359 361
1 0 3
3 348 350 362
1 0 3
3 348 360 362
1 0 3
3 349 351 363
1 0 3
3 349 361 363
1 0 3
3 350 352 364
1 0 3
3 350 362 364
1 0 3
3 351 353 365
1 0 3
3 351 363 365
1 0 3
3 352 354 366
1 0 3
3 352 364 366
1 0 3
3 353 356 368
1 0 3
3 353 365 368
1 0 3
3 354 355 367
1 0 3
3 354 366 367
1 0 3
3 355 356 368
1 0 3
3 355 367 368
1 0 3
3 357 358 370
1 0 3
3 357 360 372
1 0 3
3 357 369 370
1 0 3
3 357 369 372
1 0 3
3 358 359 371
1 0 3
3 358 370 371
1 0 3
3 359 361 373
1 0 3
3 359 371 373
1 0 3
3 360 362 374
1 0 3
3 360 372 374
1 0 3
3 361 363 375
1 0 3
3 361 373 375
1 0 3
3 362 364 376
1 0 3
3 362 374 376
1 0 3
3 363 365 377
1 0 3
3 363 375 377
1 0 3
3 364 366 378
1 0 3
3 364 376 378
1 0 3
3 365 368 380
1 0 3
3 365 377 380
1 0 3
3 366 367 379
1 0 3
3 366 378 379
1 0 3
3 367 368 380
1 0 3
3 367 379 380
1 0 3
3 369 370 382
1 0 3
3 369 372 384
1 0 3
3 369 381 382
1 0 3
3 369 381 384
1 0 3
3 370 371 383
1 0 3
3 370 382 383
1 0 3
3 371 373 385
1 0 3
3 371 383 385
1 0 3
3 372 374 386
1 0 3
3 372 384 386
1 0 3
3 373 375 387
1 0 3
3 373 385 387
1 0 3
3 374 376 388
1 0 3
3 374 386 388
1 0 3
3 375 377 389
1 0 3
3 375 387 389
1 0 3
3 376 378 390
1 0 3
3 376 388 390
1 0 3
3 377 380 392
1 0 3
3 377 389 392
1 0 3
3 378 379 391
1 0 3
3 378 390 391
1 0 3
3 379 380 392
1 0 3
3 379 391 392
1 0 3
3 381 382 394
1 0 3
3 381 384 396
1 0 3
3 381 393 394
1 0 3
3 381 393 396
1 0 3
3 382 383 395
1 0 3
3 382 394 395
1 0 3
3 383 385 397
1 0 3
3 383 395 397
1 0 3
3 384 386 398
1 0 3
3 384 396 398
1 0 3
3 385 387 399
1 0 3
3 385 397 399
1 0 3
3 386 388 400
1 0 3
3 386 398 400
1 0 3
3 387 389 401
1 0 3
3 387 399 401
1 0 3
3 388 390 402
1 0 3
3 388 400 402
1 0 3
3 389 392 404
1 0 3
3 389 401 404
1 0 3
3 390 391 403
1 0 3
3 390 402 403
1 0 3
3 391 392 404
1 0 3
3 391 403 404
1 0 3
3 393 394 406
1 0 3
3 393 396 408
1 0 3
3 393 405 406
1 0 3
3 393 405 408
1 0 3
3 394 395 407
1 0 3
3 394 406 407
1 0 3
3 395 397 409
1 0 3
3 395 407 409
1 0 3
3 396 398 410
1 0 3
3 396 408 410
1 0 3
3 397 399 411
1 0 3
3 397 409 411
1 0 3
3 398 400 412
1 0 3
3 398 410 412
1 0 3
3 399 401 413
1 0 3
3 399 411 413
1 0 3
3 400 402 414
1 0 3
3 400 412 414
1 0 3
3 401 404 416
1 0 3
3 401 413 416
1 0 3
3 402 403 415
1 0 3
3 402 414 415
1 0 3
3 403 404 416
1 0 3
3 403 415 416
1 0 3
3 405 406 418
1 0 3
3 405 408 420
1 0 3
3 405 417 418
1 0 3
3 405 417 420
1 0 3
3 406 407 419
1 0 3
3 406 418 419
1 0 3
3 407 409 422
1 0 3
3 407 419 422
1 0 3
3 408 410 423
1 0 3
3 408 420 423
1 0 3
3 409 411 425
1 0 3
3 409 422 425
1 0 3
3 410 412 426
1 0 3
3 410 423 426
1 0 3
3 411 413 428
1 0 3
3 411 425 428
1 0 3
3 412 414 429
1 0 3
3 412 426 429
1 0 3
3 413 416 431
1 0 3
3 413 428 431
1 0 3
3 414 415 430
1 0 3
3 414 429 430
1 0 3
3 415 416 431
1 0 3
3 415 430 431
1 0 3
3 417 418 421
1 0 3
3 417 420 421
1 0 3
3 418 419 422
1 0 3
3 418 421 422
1 0 3
3 420 421 424
1 0 3
3 420 423 424
1 0 3
3 421 422 425
1 0 3
3 421 424 425
1 0 3
3 423 424 427
1 0 3
3 423 426 427
1 0 3
3 424 425 428
1 0 3
3 424 427 428
1 0 3
3 426 427 430
1 0 3
3 426 429 430
1 0 3
3 427 428 431
1 0 3
3 427 430 431
1
0 0 0 -0.5
0
