1312  4  0
    0     289    49    67    65
    1     122   345   120   333
    2      39   268    23   265
    3       5   262    21   265
    4      33   262   278   277
    5     135   153   137   354
    6      33    35   277    51
    7      31    46   275    47
    8     186   206   396   188
    9     292   289    53    69
   10     313    99   101   325
   11       7    25     9   268
   12     302   315    80   314
   13     114   128   130   112
   14     272    10   276   275
   15      41    59    43   284
   16     394   407   406   211
   17     222   423   408   224
   18      55    73    57   294
   19      70   305    86    68
   20     315   327   100    98
   21      52    50   291    68
   22      71    73   294   306
   23     293   291   305    68
   24      95   310   311    79
   25      18    16   264    32
   26      52   279   293   291
   27      45    47   274   286
   28      70    88    86    72
   29      19    37    21   262
   30     285   273    40    42
   31     359   372   371   174
   32     134   116   341   132
   33     106   336   122   333
   34     310   323    95   311
   35     282   268    39   265
   36     120   343   331   345
   37      33    17    32   263
   38     141   159   358   157
   39      94    78    92    76
   40      71    89    73   306
   41     292   277    53   289
   42     141   346   358   143
   43     256   258   242   240
   44     164   180   377   166
   45      40   273    24    26
   46     369   170   372   154
   47     151   354   135   352
   48      22     6    20     4
   49     119   328   330   103
   50     367   150   152   355
   51      74    92   312    76
   52     305    68    70   293
   53      72    56    58   297
   54     244   423   422   260
   55     114   128   112   339
   56     360   138   357   154
   57     134   148   150   132
   58     152   355   357   369
   59     178   180   375   162
   60     302   290   289    65
   61     297   300    58    74
   62     266     5     4     6
   63     375   164   377   363
   64     317   319   102   331
   65     101   119   103   328
   66      40    56    38    54
   67      20    22    38    36
   68     305   319    86   317
   69     192   210   396   208
   70      94   312    92    78
   71     146   132   130   148
   72     100   329   102   118
   73     387   176   196   178
   74      47    63    62   287
   75     329   327   341   116
   76     222   240   420   423
   77     129   145   350   144
   78     114    98   100   327
   79     307   295    70    72
   80     345   333   331   120
   81      40    56   283   285
   82     132   339   341   353
   83     305   307    86   319
   84     319   321   307    88
   85     118   116   341   134
   86     331   319   102   104
   87     146   132   351   130
   88     327    96   112    98
   89     374   176   386   387
   90     407   423   226   408
   91     288    46    44    62
   92     421   223   241   418
   93     417   414   236   218
   94     152   168   369   170
   95      74    88    90    72
   96     313   328   101   316
   97      86   319   102   317
   98     209   226   208   407
   99     188   206   396   210
  100     322   335   334   111
  101     345   333   122   348
  102     333   336   122   348
  103     375   178   387   180
  104     167   185   378   183
  105     324   309    90   312
  106      74    56    58    72
  107      32    16   264   263
  108     334   123   346   332
  109     141   346   139   358
  110     353   150   355   134
  111      15    30    14   275
  112       7   269     6   266
  113     375   180   389   377
  114     383   396   190   384
  115     153   354   368   356
  116     181   201   388   199
  117     408   204   396   393
  118     217   237   219   412
  119     156   174   372   158
  120     229   422   227   407
  121      49    33   278   277
  122     275   288   287    46
  123     341   353   355   134
  124     166   180   377   182
  125     203   223   404   221
  126     334   123   125   346
  127     359   372   174   360
  128     137   344   356   139
  129     132   116   341   339
  130     167   364   366   151
  131     266   263     4     5
  132     182   379   391   377
  133     245   260   422   261
  134     103   121   105   330
  135     277    51    53   289
  136     182   180   164   166
  137     401   218   198   216
  138     163   165   361   373
  139     370   383   175   371
  140      85    87   304   316
  141      34    50    32    48
  142     129   349   350   145
  143      32   263   279   278
  144     351   144   350   363
  145     144   146   351   128
  146     130   132   351   339
  147     170   186   381   384
  148     378   167   376   364
  149     299   312    78   300
  150     179   385   197   199
  151     128   113   338   129
  152     343   329   341   118
  153     212   230   410   411
  154     164   162   146   148
  155     409   413   251   412
  156     135   153   354   151
  157     322   320    91   107
  158      33   262   277    35
  159      49    33   277    51
  160      37   280    39   265
  161      72   309   307   295
  162     314   302   301    81
  163      17    35    19   262
  164     147   165   361   163
  165       1    19     3   262
  166      21   262    37   265
  167     268   282    41   284
  168      20     4   267   264
  169       1     3     2   263
  170      99   117   101   325
  171     364   149   361   349
  172       1     3   263   262
  173       3     4     2   263
  174      49   277   278   290
  175       1   262   263    17
  176      99    97   325   313
  177     327   339   112   326
  178     325   328   340   117
  179     306   304   292    71
  180      37    55    39   280
  181     129   147   349   145
  182       6   266   267     4
  183      65    83    67   301
  184      17     1    16   263
  185      20     6   267     4
  186     298   311   310    79
  187     279    50   291    52
  188     339   128   338   351
  189      54    56   283    40
  190     278    33   263   262
  191      17   262   263    33
  192     289    51    67    49
  193     192   190   396   384
  194      61    79   298    77
  195      85   103    87   316
  196     316   301    85   313
  197      96   315    98   327
  198     322   308    91   320
  199      69    87    71   304
  200      59   284    57   296
  201      99   117   325   115
  202     165   376   361   373
  203      18     4     2    20
  204     413   417   414   252
  205      16    18     2     0
  206      97   115    99   325
  207      43    61   286    59
  208     184   379   393   391
  209     187   207   394   205
  210      51    49   289   277
  211      97   326   325   313
  212     296    73   308   294
  213      41    59   284    57
  214     290    49   289    65
  215     290   277   289    49
  216      65   302   301   289
  217      65    81   301   302
  218     301   289    67    65
  219      15    30   275    31
  220     316   328   101   103
  221     304    87   318   316
  222      97   113   325   326
  223     340   352   337   133
  224     201   221   402   219
  225     119   117   340   328
  226      97   326   313   314
  227     339   327   112   114
  228     395   408   407   208
  229     301    81   313   314
  230      97   314   313    81
  231      81   301   313    83
  232      81    99    83   313
  233      57    75   296    73
  234       3    21     5   262
  235      86   305    84    68
  236      75    93    77   310
  237     265   262    37   280
  238     306   304    71    87
  239     304    87   306   318
  240     316   313    85   101
  241     372   192   371   174
  242     325   328   101   313
  243     117   328   101   325
  244     301    83    85   313
  245      83   101    85   313
  246     401   403   218   417
  247     302    65    80    64
  248       3    21   262    19
  249     316    87   318   103
  250      29    47   274    45
  251      67    85    69   301
  252     301   289    69    67
  253      69   301   304   289
  254      69    85   304   301
  255     316   301   304    85
  256      75   296   298    59
  257     280   277    37    53
  258     306    73   308    89
  259     154   138   156   140
  260      44   276    28    46
  261     304    69   292    71
  262      93   322   310    91
  263      89   320   308   306
  264     104   333   331   319
  265     316   103   330   328
  266     318   103   330   316
  267      57    75    59   296
  268     306    71   292   294
  269     237   255   415   253
  270     278    48   291   279
  271     310    75   298    77
  272     280   277    53   292
  273     169   187   380   185
  274      39    57    41   282
  275     294   282    57    55
  276     334   320   322   107
  277      55   282    39   280
  278     192   193   191   383
  279     308   296    75    73
  280     221   241   418   239
  281     265   280    39   282
  282     304   289   292    69
  283     280   262    37   277
  284      52    54   293   281
  285      52    54    38    36
  286     239   257   418   255
  287     412   416   413   253
  288       8   269     6     7
  289     277   262    37    35
  290      21    39    23   265
  291     265   266     5   262
  292     217   237   412   235
  293     266   263     5   262
  294       3   262     5   263
  295     109   127   334   125
  296      54   295   293   281
  297      51    69    53   289
  298      35    53    37   277
  299      23    41    25   268
  300     419   423   256   422
  301     284   282    57   296
  302     294   282    55   280
  303      53   292    55   280
  304      53    71    55   292
  305     292   294    55   280
  306     292    71    55   294
  307      53    71   292    69
  308       5    23     7   265
  309      23   268     7   265
  310      22    36   267    38
  311     268   269     7   265
  312       5   265     7   266
  313     269   266     7   265
  314     268   269     9     7
  315       1    19   262    17
  316      30    46    28   276
  317     297    56    58   285
  318     310    77   298    79
  319     282   294    57   296
  320     273   276    42   288
  321     111   322   323    95
  322     276   272   273    10
  323     310   296   298    75
  324     142   348   360   140
  325      77    95    79   310
  326      91   109    93   322
  327       9    25   271   268
  328       9    27    11   271
  329     103   121   330   119
  330     180   164   377   375
  331     381   184   393   186
  332      41   282    57   284
  333     294    73   308   306
  334     296   294    57    73
  335     226   407   227   422
  336     332   107   334   123
  337     282   268    41    39
  338     322   308   310    91
  339     213   233   409   231
  340     347   360   359   142
  341     330   344   121   332
  342     271   268    41   284
  343     271    25    41   268
  344      43   271    41   284
  345      25    43    27   271
  346      17    35   262    33
  347      87   105    89   318
  348     121   344   123   332
  349     318   320    89   306
  350     306    87    89   318
  351     286    61   298    59
  352      42   273    40    26
  353     109   334   111   322
  354      75    91   310   308
  355     406   422   229   407
  356     186   168   381   184
  357     286    63   298    61
  358     330   332   121   105
  359     251   253   413   252
  360     164   148   365   363
  361     163   181   165   373
  362      94   324    92   312
  363      89   107    91   320
  364     332   318   105   330
  365     318   103   105   330
  366     332   320   105   318
  367      89   318   105   320
  368     344   332   346   123
  369     153   171   368   169
  370     322   107   109   334
  371     231   249   409   247
  372     105   123   107   332
  373      73    91    75   308
  374     332   320   107   105
  375     142   347   127   143
  376     286   299    63   287
  377      81    96    97   314
  378     133   151   352   149
  379     332   320   334   107
  380      74   309    90    88
  381     299   312   311    78
  382      93   111    95   322
  383      11    12   275    13
  384      93   322    95   310
  385     308    89    91   320
  386     346   334   127   125
  387     205   225   406   223
  388     108   324    92    94
  389     300   285    42   288
  390     371   384   383   192
  391     395   190   191   383
  392      46   287    62   288
  393      16   263    32    17
  394      59    77   298    75
  395     177   197   385   195
  396      61    79    63   298
  397     109   127   111   334
  398     107   125   109   334
  399      75   308   310   296
  400     322   335   111   323
  401      90   321   106   104
  402     229   407   209   211
  403      25    43   271    41
  404     287   300    62   288
  405     271    11   275   274
  406      13    31    15   274
  407     154   138   357   136
  408     283    54   281   295
  409     140   124   142   348
  410     296   284   298    59
  411     173   193   382   189
  412     274   287    47   275
  413     125   143   346   141
  414      15    31   275   274
  415      29    47    31   274
  416      12    14    28   276
  417     311    95    94   323
  418     106   333   120   104
  419     271    43   274   286
  420       8    26    24   273
  421      13    15   275   274
  422     145   163   361   161
  423     175   192   174   371
  424      11     9   272    10
  425      59    77    61   298
  426     271    27   274    43
  427     286    43   274    45
  428      27    45    29   274
  429     286    59   298   284
  430     274    11   275    13
  431     204   224   408   206
  432     284   271   286    43
  433     298   311    79   299
  434      31    47   275   274
  435      11    12    10   275
  436      43    61    45   286
  437      59   284   286    43
  438      45    63    47   286
  439      11    27   274   271
  440     110   336   108   324
  441      47    63   287   286
  442      63    78   299    79
  443      11    29    13   274
  444      11    10   272   275
  445     114    98   112    96
  446     334   347   346   127
  447     111   347   335   334
  448     110   347   111   126
  449     275    47    46   287
  450      30   276    28    14
  451      63    79   299   298
  452     286   299   298    63
  453     299    78   311    79
  454     271    11   272   275
  455     311   324    94   312
  456     324   312    90    92
  457     395   407   209   208
  458     270   273    24    40
  459     287    63    62   299
  460     271     9   272    11
  461     285   270    40   273
  462     268     9   272   271
  463     268   269   272     9
  464      26   276    42   273
  465     206   228   408   210
  466     288   285    42   273
  467      46   288    44   276
  468      74    92    90   312
  469     317   315    84   303
  470      13    15    14   275
  471     288   300    62    60
  472     299    63    62    78
  473      76    78    92   312
  474      52    36   279    34
  475      60   300    62    78
  476      47   287    62    46
  477     128   326   112   339
  478     118   329   341   116
  479     116   327   341   339
  480      79    95    94   311
  481     275   288    46   276
  482     153   354   356   137
  483     136   343   120   345
  484      81    80   302    65
  485     110   323    95   111
  486     136   343   118   120
  487     124   108   122   106
  488     323   336   110   324
  489     311    78    94    79
  490     312    78    94   311
  491     108    94    92   110
  492     321   319   104    88
  493      44    60    42   288
  494     299    78    62   300
  495     287   300   299    62
  496      62    60    44   288
  497      30    14    28    12
  498     275   276    30    14
  499      46   276    30   275
  500     410   414   411   250
  501     107   125   334   123
  502      31    46    30   275
  503     276   275    12    14
  504     276    10    12   275
  505     297   295    72    56
  506     150   148   164   166
  507     321   309    90   324
  508     275    13    12    14
  509      27    45   274    43
  510     323   110    95    94
  511     106   104   120   122
  512      94   110   108   324
  513      32    34   279   264
  514     423   240   224   222
  515     348   110   347   335
  516     110   348   347   126
  517     134   136   355   343
  518     126   347   111   127
  519     311   324   323    94
  520     323   111   110   335
  521     335   348   110   336
  522      72   297    74   309
  523     323   336   335   110
  524     108   336   106   324
  525     122   136   120   345
  526     300    78    76   312
  527      60    78    76   300
  528     305   291   303    68
  529     108    92   106    90
  530     144   160   362   363
  531     145   160   362   144
  532     321   333   104   319
  533     124   348   122   336
  534     387   178   198   180
  535     386   177   195   194
  536     124   336   122   108
  537      74   312    90   309
  538     321   324   106   336
  539      88   321   307   309
  540     108   110   124   336
  541     126   110   124   108
  542     110   348   124   336
  543     126   348   124   110
  544     104    88    90   321
  545       6    24    22   270
  546      90    92   106   324
  547     108   324   106    92
  548      88   309    90   321
  549     321   336   106   333
  550      44   276    26    28
  551     309   295    72   297
  552     367   150   355   353
  553      90   324   106   321
  554     106   108   122   336
  555     303    82    84    66
  556      72   309    74    88
  557     309   297    74   312
  558     128   113   112   326
  559      76   312    74   300
  560     297   300    74   312
  561      88   309   307    72
  562     120   333   331   104
  563      26    42    24    40
  564      32    48   279    34
  565     347   143   142   359
  566     104   321   106   333
  567     269     7     8     9
  568     122   333   120   106
  569     104    88   106    90
  570     148   132   351   146
  571     273    10    26   276
  572      72   297    58    74
  573      12    10    26    28
  574      12   276    26    10
  575      28   276    26    12
  576       7   266     6     5
  577      44   276    42    26
  578      44   288    42   276
  579     278    33    32   263
  580      42   285    58    56
  581      40   270    38    24
  582      48    33    32   278
  583      42    56    40   285
  584      42   300    58   285
  585     297   285    58   300
  586      76   300    58    60
  587      74   300    58    76
  588      42    60    58   288
  589     300   288    58    60
  590      42   288    58   300
  591      48    50   279    34
  592      42    56    58    40
  593      22    24    38   270
  594     129   337   338   350
  595       4   266   267   263
  596     118   329   102   331
  597      38   270   267    22
  598      34    50   279    52
  599     272     9     8    10
  600     269     9     8   272
  601     270   269     8   273
  602       8    26   273    10
  603     270   273     8    24
  604     272    10     8   273
  605     273   269     8   272
  606     264    34   279    36
  607     285    56   283   297
  608     327   326   112    96
  609      38   270   283   267
  610      40    24    38    22
  611     270   269     6     8
  612     270   266     6   269
  613      18     4   264     2
  614      32   278   279    48
  615       1   263     2     0
  616       3     4   263     5
  617     303    82    80   315
  618      49    33    48   278
  619     187   207   189   394
  620      22   270   267     6
  621     303    82    66    64
  622     290    49    48   278
  623       4   263   267   264
  624       6   270   267   266
  625     100   315    84   317
  626     148   363   164   162
  627     264   263   279    32
  628      16    34    32    18
  629     116   114   130   132
  630      34    36   264    18
  631      38    54   283    40
  632       1   263     0    16
  633      32    34   264    18
  634     339   128   130   114
  635      96   314    80   315
  636     291    68    66   303
  637      20     4   264    18
  638      36    20   264    18
  639      16    18   264     2
  640       2     4   264   263
  641     291    48    66    50
  642     291   303    66    64
  643       0    16   264     2
  644       0   263   264    16
  645       2   263   264     0
  646      40   270   283    38
  647     291    68   293    52
  648     297    56   283   295
  649      48    50   291   279
  650      88   319    86   307
  651     278   290   291    48
  652      97   326   112   113
  653     281   279   293    52
  654      40   285   283   270
  655      54   295   283    56
  656      36    20   267   264
  657      22     6   267    20
  658      36    22   267    20
  659      66    68    84   303
  660     114   327   116   339
  661     283    38   281    54
  662     267    38   281   283
  663      52    54   281    38
  664     279    52   281    36
  665      36    38   281   267
  666      36    52   281    38
  667      36   264   281   279
  668     267   264   281    36
  669      64    49    48   290
  670     213   230   410   212
  671      70   307    86   305
  672     114    98   116   100
  673     293   307    70   305
  674     303   302    64   290
  675     290   302    64    65
  676     144   363   351   146
  677     303    68    84   305
  678     202   391   405   403
  679      84   317   102   100
  680     293    54    70   295
  681     331   329   102   317
  682     293   295    70   307
  683     315   329   100   327
  684     290   291    64   303
  685     327    98   112   114
  686     290    48    64   291
  687      64    48    66   291
  688     331   120   118   343
  689      50    68    66   291
  690      96   326   112    97
  691      97   314    96   326
  692      98    82   100   315
  693     307    72    86    88
  694     305   317    84   303
  695     365   150   367   353
  696     327   326    96   314
  697     327   314    96   315
  698      64    82    80   303
  699      98   315    80    82
  700      96   315    80    98
  701     303   302    80    64
  702     303   315    80   302
  703     170   384   381   369
  704      86   104   102   319
  705     329   315   100   317
  706     351   148   353   132
  707     100    82    84   315
  708      52    54    70   293
  709     104   319    86    88
  710      86   317    84   305
  711     100   317   102   329
  712     329   327   116   100
  713     100   327   116   114
  714     303   315    84    82
  715     293    68    70    52
  716     343   329   118   331
  717     100   329   118   116
  718     331   104   102   120
  719     331   120   102   118
  720      86   317   102    84
  721     116   339   130   114
  722      72   295    70    56
  723      54    56    70   295
  724      72    56    70    54
  725      70    72    86   307
  726     132   339   130   116
  727     138   124   140   348
  728     182   379   184   391
  729     194   196   212   399
  730     176   178   375   160
  731     373   385   386   177
  732     150   134   152   355
  733     411   250   234   232
  734     234   414   236   252
  735      89   107   320   105
  736     166   150   365   164
  737     339   326   338   128
  738     411   399   398   212
  739     341   134   355   343
  740     131   337   129   349
  741     353   148   365   150
  742     118   136   134   343
  743     355   134   152   136
  744     377   164   365   363
  745     196   178   198   387
  746     337   352   349   133
  747     200   218   198   401
  748     399   194   398   212
  749     150   148   365   164
  750     148   162   146   363
  751     176   178   387   375
  752     132   148   353   134
  753     196   387   194   176
  754     130   128   351   146
  755     204   224   222   408
  756     181   385   179   199
  757     214   399   212   196
  758     216   196   198   399
  759     146   363   351   148
  760     130   339   351   128
  761     351   128   350   144
  762     371   384   192   372
  763     162   363   144   146
  764     160   363   144   162
  765      87   105   318   103
  766     113   131   115   337
  767     134   148   353   150
  768     343   118   341   134
  769     160   162   375   363
  770     178   162   375   160
  771     164   363   375   162
  772     417   236   254   238
  773     164   162   375   180
  774     168   166   379   182
  775     258   423   422   256
  776     389   375   387   180
  777     161   373   374   177
  778     377   182   389   391
  779     129   113   338   337
  780     134   132   341   353
  781     393   204   396   186
  782     405   202   393   391
  783     404   221   402   203
  784     417   252   236   414
  785     351   132   353   339
  786     377   379   365   166
  787     377   166   365   164
  788     192   188   396   210
  789     351   363   365   148
  790     419   423   420   256
  791     166   182   377   379
  792     351   148   365   353
  793     163   181   373   179
  794     173   193   175   382
  795     377   180   389   182
  796     151   352   366   354
  797     156   154   372   172
  798     369   154   357   152
  799     154   170   372   172
  800     166   168   367   150
  801     379   168   367   166
  802     365   166   367   150
  803     379   166   367   365
  804     101   119   328   117
  805     355   367   369   152
  806     378   169   366   380
  807     207   229   211   406
  808     234   411   216   414
  809     122   124   138   348
  810     192   193   383   175
  811     402   219   415   400
  812     399   414   216   411
  813     408   208   396   210
  814     184   391   393   202
  815     390   201   402   388
  816     153   171   155   368
  817     214   196   212   194
  818     413   250   410   251
  819     232   411   248   246
  820     240   238   420   254
  821     219   237   415   412
  822     350   128   338   129
  823     260   258   244   423
  824     200   182   198   180
  825     369   168   381   170
  826     232   250   248   411
  827     253   251   413   412
  828     381   186   396   384
  829     200   401   198   389
  830     252   250   234   414
  831     411   399   212   214
  832     411   232   234   214
  833      37    55   280    53
  834     214   230   212   411
  835     232   230   214   411
  836     412   217   400   219
  837      83   101   313    99
  838     399   387   194   196
  839     247   248   249   410
  840     161   177   374   176
  841     212   213   398   410
  842     411   230   246   232
  843     411   414   234   250
  844     399   401   216   414
  845     389   401   198   387
  846     387   401   198   399
  847     216   399   198   401
  848     238   240   222   220
  849     248   250   410   411
  850     213   233   215   409
  851     389   182   200   391
  852     400   199   397   385
  853     230   232   248   246
  854     202   204   393   184
  855     232   230   212   214
  856     218   414   216   401
  857     204   220   405   222
  858     381   379   393   184
  859     417   414   218   401
  860     387   180   198   389
  861     240   222   242   224
  862     387   399   198   196
  863     196   399   216   214
  864     389   180   198   182
  865     389   182   198   200
  866     236   234   216   414
  867     236   414   216   218
  868     234   214   216   411
  869     399   411   216   214
  870     182   391   184   200
  871     166   168   184   182
  872     182   200   184   202
  873     389   391   200   403
  874     237   255   239   415
  875     403   401   200   389
  876     218   401   200   403
  877     184   168   381   379
  878     244   260   242   258
  879     222   220   202   204
  880     174   158   359   360
  881     417   252   254   236
  882     347   360   142   348
  883     138   348   360   345
  884     202   200   184   391
  885     396   208   395   190
  886     403   417   220   218
  887     182   168   184   379
  888     202   403   405   220
  889     260   423   422   258
  890     238   236   220   417
  891     218   236   220   238
  892     218   417   220   236
  893     238   256   254   240
  894     200   391   202   403
  895     210   190   208   192
  896     220   200   202   218
  897     403   218   202   200
  898     220   218   202   403
  899     407   423   422   226
  900     394   406   392   205
  901     152   136   357   355
  902     370   171   368   155
  903     122   348   138   345
  904     208   210   408   226
  905     382   171   370   173
  906     222   423   420   405
  907     345   136   138   122
  908     120   122   138   136
  909     228   422   244   423
  910     384   188   396   192
  911     138   154   360   140
  912     168   150   152   367
  913     259   260   261   422
  914     355   136   357   343
  915     360   158   372   174
  916     138   122   140   124
  917     402   221   415   219
  918      13    31   274    29
  919     137   155   139   356
  920     206   228   224   408
  921     347   142   127   126
  922     384   172   372   170
  923     416   420   254   419
  924     224   423   242   240
  925     110   347   335   111
  926     369   384   372   170
  927     408   204   393   405
  928     126   348   142   124
  929     383   192   175   371
  930     191   383   193   395
  931     170   168   381   186
  932     406   422   421   229
  933     158   142   359   360
  934     156   158   372   360
  935     390   388   376   183
  936     422   228   226   423
  937     190   192   383   384
  938     256   423   242   258
  939     360   154   372   156
  940     408   206   396   204
  941     360   345   357   138
  942     372   154   357   369
  943     240   423   242   256
  944     172   174   372   156
  945     172   192   384   174
  946     152   367   369   168
  947     140   348   360   138
  948     191   192   383   190
  949     140   154   360   156
  950     139   157   141   358
  951     423   228   242   244
  952     384   174   372   172
  953     254   256   420   240
  954     186   188   396   384
  955     224   244   242   228
  956     235   253   237   412
  957     188   172   384   170
  958     204   222   405   408
  959     188   170   384   186
  960     244   258   242   423
  961     152   154   357   136
  962     210   228   226   208
  963     384   192   372   174
  964     224   228   242   423
  965     408   222   405   423
  966     378   364   366   167
  967     158   142   143   359
  968     170   154   369   152
  969     372   360   357   154
  970     343   136   357   345
  971     142   140   360   158
  972     345   136   357   138
  973     167   185   169   378
  974     408   210   396   206
  975     240   256   420   423
  976     202   220   405   204
  977     418   419   255   257
  978     158   140   360   156
  979     367   168   381   369
  980     367   379   381   168
  981     405   204   393   202
  982     186   184   393   204
  983     238   417   420   254
  984     382   189   394   187
  985     159   371   370   175
  986     404   223   421   418
  987     415   255   416   253
  988     358   371   370   159
  989     407   208   408   226
  990     254   256   419   420
  991     226   228   408   423
  992     210   228   408   226
  993     228   224   408   423
  994     417   238   420   220
  995     383   396   395   190
  996     393   186   396   381
  997     204   206   396   186
  998     238   240   420   222
  999     220   222   420   405
 1000     220   238   420   222
 1001     220   403   420   417
 1002     405   403   420   220
 1003     192   208   396   190
 1004     395   408   208   396
 1005      69    87   304    85
 1006     404   406   421   223
 1007     235   409   412   217
 1008     203   223   205   404
 1009     413   417   252   416
 1010     259   243   421   261
 1011     165   183   376   181
 1012     169   187   171   380
 1013     368   382   380   171
 1014     208   395   191   209
 1015     259   260   422   258
 1016     392   205   404   203
 1017     253   254   416   252
 1018     123   344   139   346
 1019      11    29   274    27
 1020     215   235   409   233
 1021      19    37   262    35
 1022     416   420   417   254
 1023     207   406   394   205
 1024      71    89   306    87
 1025     221   241   223   418
 1026     411   246   410   248
 1027     211   407   209   395
 1028     257   419   255   256
 1029     211   189   394   193
 1030     229   244   422   245
 1031      75    93   310    91
 1032     382   187   394   380
 1033     241   259   421   257
 1034     400   201   402   219
 1035     183   203   390   201
 1036     414   250   413   252
 1037     245   260   244   422
 1038     208   190   191   395
 1039     394   407   211   395
 1040     229   407   227   209
 1041     209   226   407   227
 1042     257   258   422   256
 1043     211   406   229   407
 1044     117   135   340   133
 1045     370   157   155   358
 1046     155   173   157   370
 1047     123   141   125   346
 1048      81    99   313    97
 1049     211   191   193   395
 1050     347   127   143   346
 1051     412   217   397   400
 1052     125   143   127   346
 1053     151   354   366   153
 1054     157   159   358   370
 1055     231   246   410   230
 1056     189   211   394   207
 1057     187   171   380   382
 1058     174   175   371   159
 1059      97   115   325   113
 1060     199   219   201   400
 1061     390   203   402   201
 1062     143   359   159   158
 1063     174   158   159   359
 1064     371   174   159   359
 1065     358   346   139   344
 1066     382   173   370   175
 1067     346   359   143   347
 1068     151   169   366   167
 1069     141   159   143   358
 1070     337   349   350   129
 1071     382   193   394   189
 1072     157   175   159   370
 1073     143   359   358   159
 1074     382   171   368   370
 1075     358   370   356   155
 1076     404   223   418   221
 1077     171   189   173   382
 1078     167   169   366   378
 1079     410   414   250   413
 1080     346   359   358   143
 1081     370   383   382   175
 1082     175   383   382   193
 1083     358   371   159   359
 1084     119   137   121   342
 1085     261   422   421   259
 1086      77    95   310    93
 1087     356   155   368   153
 1088     239   257   241   418
 1089     197   217   397   215
 1090     390   183   376   378
 1091     375   176   374   387
 1092       6    24   270     8
 1093     121   139   123   344
 1094     113   131   337   129
 1095     199   219   400   217
 1096     135   352   340   133
 1097     342   354   135   137
 1098     133   352   349   149
 1099     370   155   368   356
 1100     380   171   169   368
 1101     392   406   404   205
 1102     139   358   356   155
 1103     139   344   356   358
 1104     223   205   404   406
 1105     115   133   117   337
 1106     274   287   286    47
 1107     217   199   397   400
 1108     368   380   366   169
 1109     205   225   207   406
 1110     406   207   394   211
 1111     193   395   394   211
 1112     382   395   394   193
 1113     382   395   193   383
 1114     251   409   412   235
 1115     223   243   225   421
 1116     185   205   187   392
 1117     380   187   392   185
 1118     187   380   392   394
 1119     394   205   392   187
 1120     203   185   390   392
 1121     203   392   390   404
 1122     145   361   362   161
 1123     121   344   342   137
 1124     243   225   421   245
 1125     229   225   421   406
 1126     121   139   344   137
 1127     223   406   421   225
 1128     261   243   421   245
 1129     245   422   421   261
 1130     229   245   421   225
 1131     422   245   421   229
 1132     241   259   243   421
 1133     418   421   257   241
 1134     412   237   415   253
 1135     418   422   419   257
 1136      93   111   322   109
 1137     257   258   259   422
 1138     419   256   257   422
 1139     169   153   366   368
 1140     422   259   257   421
 1141     415   419   255   418
 1142     254   256   255   419
 1143     137   344   342   356
 1144     388   201   183   390
 1145      39    57   282    55
 1146     179   385   373   177
 1147     121   330   342   344
 1148     149   147   361   349
 1149     249   250   410   248
 1150     422   228   227   226
 1151     183   167   376   378
 1152     254   417   416   252
 1153     412   416   253   415
 1154     364   165   361   149
 1155     419   254   416   255
 1156     251   252   413   250
 1157     117   135   119   340
 1158     119   137   342   135
 1159     385   199   388   400
 1160     199   201   388   400
 1161     217   409   397   215
 1162     325   115   337   113
 1163     201   221   203   402
 1164     356   354   342   137
 1165     135   354   340   352
 1166     415   419   416   255
 1167     413   253   416   252
 1168     404   203   402   390
 1169     418   221   402   404
 1170     388   201   402   400
 1171     364   352   366   151
 1172     400   219   415   412
 1173     253   254   255   416
 1174     255   239   415   418
 1175     402   418   415   221
 1176     219   239   221   415
 1177     151   169   153   366
 1178     368   153   366   354
 1179     239   221   415   418
 1180     194   399   386   387
 1181     412   409   397   217
 1182     183   203   185   390
 1183     119   328   342   330
 1184     119   330   342   121
 1185     167   364   165   376
 1186     172   192   188   384
 1187     165   183   167   376
 1188     133   151   135   352
 1189     185   390   378   183
 1190     380   185   378   169
 1191     215   235   217   409
 1192     185   392   378   390
 1193     185   380   378   392
 1194     337   113   338   325
 1195     165   364   361   376
 1196     149   167   151   364
 1197     149   352   349   364
 1198     128   326   338   113
 1199     385   199   181   388
 1200     388   183   181   376
 1201     181   201   183   388
 1202     151   352   149   364
 1203     111   347   334   127
 1204     310   323   322    95
 1205     349   133   131   337
 1206     207   229   406   225
 1207     342   354   340   135
 1208     119   342   340   135
 1209     119   328   340   342
 1210     325   113   338   326
 1211      45    63   286    61
 1212     376   181   373   165
 1213     194   398   195   386
 1214     340   133   337   117
 1215     340   117   337   325
 1216     117   115   337   325
 1217     229   422   228   227
 1218     131   149   133   349
 1219     386   385   195   177
 1220     179   181   373   385
 1221     142   347   348   126
 1222     409   213   397   215
 1223     181   376   373   388
 1224     181   388   373   385
 1225     375   160   374   176
 1226     144   363   362   350
 1227     387   176   386   194
 1228     147   165   149   361
 1229       9    27   271    25
 1230     123   141   346   139
 1231     129   147   131   349
 1232     409   413   410   251
 1233      23    41   268    39
 1234     161   361   374   373
 1235     373   163   161   361
 1236     161   179   163   373
 1237     350   351   338   128
 1238     361   147   145   349
 1239     145   163   147   361
 1240     129   144   350   128
 1241     374   177   386   176
 1242     194   176   386   177
 1243     411   230   410   246
 1244     375   363   362   160
 1245     362   361   374   161
 1246     219   239   415   237
 1247     398   399   386   194
 1248     161   160   374   362
 1249     410   409   231   213
 1250     161   176   374   160
 1251     362   160   374   375
 1252     411   212   398   410
 1253      21    39   265    37
 1254     373   177   386   374
 1255     350   145   362   144
 1256     145   160   161   362
 1257     349   145   362   350
 1258     349   361   362   145
 1259     105   123   332   121
 1260      73    91   308    89
 1261     422   228   244   229
 1262     171   189   382   187
 1263     386   398   195   385
 1264     212   213   195   398
 1265     398   194   195   212
 1266     177   197   179   385
 1267     213   230   231   410
 1268     115   133   337   131
 1269     251   409   249   410
 1270      81    96   314    80
 1271     233   251   235   409
 1272     249   250   251   410
 1273     247   248   410   246
 1274     231   249   233   409
 1275     231   246   247   410
 1276     249   409   247   410
 1277     231   410   247   409
 1278     213   410   397   398
 1279     213   409   397   410
 1280     195   398   397   385
 1281     213   398   397   195
 1282     197   217   199   397
 1283     197   385   397   199
 1284     195   215   197   397
 1285     195   385   397   197
 1286       7    25   268    23
 1287      64    49   290    65
 1288     149   167   364   165
 1289      35    53   277    51
 1290      80    81   302   314
 1291     185   205   392   203
 1292      85   103   316   101
 1293      51    69   289    67
 1294     235   253   412   251
 1295     131   149   349   147
 1296     139   157   358   155
 1297      65    83   301    81
 1298     223   243   421   241
 1299     418   422   257   421
 1300      91   109   322   107
 1301     110   323   324    94
 1302     233   251   409   249
 1303      67    85   301    83
 1304      55    73   294    71
 1305     161   179   373   177
 1306     211   191   395   209
 1307       5    23   265    21
 1308     137   155   356   153
 1309     195   215   397   213
 1310     157   175   370   173
 1311     155   173   370   171
# Generated by /tmp/dc-viability.8juxjd/tetgen-build/tetgen -pYM /tmp/dc-viability.8juxjd/shell-n8-phase2.poly
