1314  4  0
    0      43   271    41   284
    1      38    54   283    56
    2     113   131   337   129
    3       1     3   263   262
    4      12    10    26    28
    5     135   153   354   151
    6     314   302   301    81
    7      16    34    32    18
    8      99    97   325   313
    9     369   168   381   170
   10     121   139   123   344
   11      38    22   267    20
   12     338   128   350   351
   13       5     3    21   262
   14     414   230   232   214
   15     265     5    23    21
   16     297   295    72    56
   17     275   288   287    46
   18     358   159   370   157
   19     300   299    62    78
   20     113   326   112   338
   21     360   154   372   156
   22     403   417   214   401
   23       1   262   263    17
   24     304    87    71   306
   25     383   174   371   384
   26     302    81    80    65
   27     330   332   121   105
   28     334   347   346   127
   29     276   275    12    14
   30     197   385   400   388
   31      39   268    23   265
   32     177   195   385   193
   33     214   232   216   234
   34     303   315    84    82
   35      61    79   298    77
   36     297    56   283   295
   37      41    59   284    57
   38     303   315    80   302
   39       7     8     6   269
   40      41    59    43   284
   41     362   160   374   375
   42     287    63    62   299
   43      29    47   274    45
   44      33    51   277    49
   45      72   297    58    74
   46     276   273    26    10
   47       4   266   267   263
   48     293   307    70   305
   49     147   349   145   361
   50      19   262    21     3
   51      72   309   307   295
   52      34    50    32    48
   53     339   114   132   116
   54     248   230   232   414
   55     332   320   334   107
   56     241   240   223   422
   57     312   300    74    76
   58       7    25     9   268
   59      33   262   278   277
   60     231   409   412   213
   61      20    22   267     4
   62      32    34   279   264
   63      32   263   264    48
   64     335   127   126   347
   65     388   183   181   376
   66     373   177   386   374
   67     304    69   292    71
   68       6   266   267     4
   69     194   178   196   180
   70     351   148   365   353
   71     178   162   375   176
   72      34    20    18    36
   73     144   146   130   128
   74     123   344   139   346
   75      12   276    26    10
   76     325   115   337   113
   77     225   407   207   406
   78     290   291    64   303
   79      97   314    96   326
   80     120   343   331   345
   81     390   388   376   183
   82     174   383   190   384
   83     247   409   245   410
   84      88   319   307   321
   85     104   333   331   319
   86      94   312    92    76
   87     377   379   365   166
   88     134   136   355   343
   89     166   180   377   182
   90     110   335   126   336
   91     184   379   393   391
   92     312   297    74   300
   93     286    59   298   284
   94     410   411   398   208
   95     334   123   125   346
   96      45    63   286    61
   97       7     8   269     9
   98      17    35   262    33
   99     308   296    75    73
  100     309   295    72   297
  101     122   333   120   106
  102      74   324    90   309
  103     345   333   122   348
  104     405   200   393   391
  105     179   197   385   195
  106     365   379   367   166
  107      35    53    37   277
  108     234   232   216   417
  109     351   148   353   132
  110     193   211   195   397
  111     101   119   103   328
  112     141   159   358   157
  113     130   146   351   132
  114     161   179   373   177
  115     149   167   151   364
  116     275    13    12    14
  117     316   103   330   328
  118     374   177   386   176
  119     165   183   167   376
  120     119   328   330   103
  121     388   385   181   197
  122     213   233   215   412
  123     125   143   346   141
  124     220   204   408   202
  125     204   188   396   186
  126     133   352   349   149
  127      18     4   264     2
  128     254   236   420   252
  129     329   327   341   116
  130      46   288    44   276
  131      24   270     6     8
  132     126   348   124   336
  133     327   339   112   326
  134     132   148   130   146
  135     337   352   349   133
  136     112   339   130   128
  137     362   145   350   349
  138     296    73   308   294
  139     293   291   305    68
  140     117   328   101   325
  141      97   112   326    96
  142     292   289    53    69
  143     233   253   415   251
  144     144   363   351   146
  145     280   262    37   277
  146     341   132   353   134
  147      17    35    19   262
  148     375   180   377   164
  149     164   180   377   166
  150     399   210   194   192
  151     165   376   373   181
  152     395   408   224   396
  153     379   166   377   182
  154     148   132   351   146
  155      33    17    32   263
  156      72    88   307   309
  157     147   165   361   163
  158      69    87    71   304
  159     321   309   307    88
  160       1    19     3   262
  161      56   285   283    40
  162     313   328   101   316
  163     265   280    39   282
  164     243   223   422   241
  165      36    52    34    50
  166      85   103    87   316
  167     185   203   392   201
  168     237   257   421   255
  169     315   327   100    98
  170     306    71   292   294
  171      33    51    35   277
  172      33   262   277    35
  173      49   277   278   290
  174       1   263     2     0
  175     325   328   340   117
  176      49    33   278   277
  177     399   387   386   192
  178     117   135   340   133
  179      85    87   304   316
  180     318   103   330   316
  181      71    89    73   306
  182      86   317    84   305
  183       4   263   267   264
  184     270   266     6   269
  185     316   301    85   313
  186     331   104   102   118
  187      65   290    64   302
  188       2     4   264   263
  189      32    34   264    18
  190     278    33   263   262
  191      17   262   263    33
  192      65    83    67   301
  193     169   187   380   185
  194      40   285   283   270
  195     409   213   397   412
  196     195   213   197   397
  197      99   117   101   325
  198      21    39    23   265
  199      97   115    99   325
  200     325   328   101   313
  201     301   289    67    65
  202      51    69    53   289
  203     329   315   100   317
  204     100    82    84   315
  205       4   263     2     3
  206     420   252   419   254
  207     213   233   412   231
  208      21   262    37   265
  209     316   328   101   103
  210     302   290   289    65
  211     362   144   350   145
  212     313    99   101   325
  213      51    49   289   277
  214      49    67    51   289
  215      99   117   325   115
  216     290    49   289    65
  217     290   277   289    49
  218      65   302   301   289
  219      65    81   301   302
  220     304    87   318   316
  221     301    83    85   313
  222      37   280    39   265
  223      97   326   325   313
  224     361   376   373   165
  225      97   113   325   326
  226     145   163   147   361
  227     131   149   133   349
  228     265   262    37   280
  229      37    55    39   280
  230     119   117   340   328
  231      97   326   313   314
  232     156   174   172   372
  233     301    81   313   314
  234      97   314   313    81
  235      81   301   313    83
  236      81    99    83   313
  237       5   262    21   265
  238      55   294    57   282
  239     280   277    37    53
  240     170   186   381   384
  241     376   388   373   181
  242     129   147   349   145
  243     304    87   306   318
  244     316   313    85   101
  245      83   101    85   313
  246     121   139   344   137
  247     277   262    37    35
  248     316    87   318   103
  249      67    85    69   301
  250     301   289    69    67
  251      69   301   304   289
  252      69    85   304   301
  253     316   301   304    85
  254      78   299    63    79
  255     308    89    91   320
  256     113   128   338   112
  257      89   320   308   306
  258     239   261   243   421
  259     105   123   107   332
  260      55   282    39   280
  261     306   304   292    71
  262     282   268    39   265
  263     167   185   378   183
  264      65    49    64   290
  265      18     4     2    20
  266      50    52   291   279
  267       5     6     4   266
  268      20     4   267   264
  269      73   306   294    71
  270      53    71   292    69
  271      47    63   287   286
  272      36    50   279    52
  273     330   344   121   332
  274     322   335   111   323
  275     282   294    57   296
  276      87   105   318   103
  277     304   289   292    69
  278     201   219   404   217
  279     302    65    80    64
  280      59   284    57   296
  281      52    54   293   281
  282     296   294    57    73
  283     284   282    57   296
  284     334   322   109   107
  285      19    37    21   262
  286     229   249   409   247
  287     277    51    53   289
  288     263   278   279    48
  289     265   266     5   262
  290     280   277    53   292
  291      33   263    32    48
  292     266   263     5   262
  293       3   262     5   263
  294     109   127   334   125
  295     292   277    53   289
  296     294    73   308   306
  297     235   255   418   253
  298      23    41    25   268
  299     419   423   420   254
  300      57    75    59   296
  301     416   420   417   252
  302     294   282    55   280
  303      53   292    55   280
  304      53    71    55   292
  305     292   294    55   280
  306     292    71    55   294
  307     190   174   384   172
  308     265     5     7    23
  309      23   268     7   265
  310     263     3     4     5
  311     268   269     7   265
  312       5   265     7   266
  313     269   266     7   265
  314     327   326   112    96
  315     268   269     9     7
  316     111   322   323    95
  317     286    63   298    61
  318     215   235   415   233
  319     310   323    95   311
  320     332   320   107   105
  321      91   107   322   320
  322     299   312    78   300
  323     171   189   173   382
  324     296   284   298    59
  325       9    25   271   268
  326       9    27    11   271
  327     121   344   123   332
  328     306    73   308    89
  329      41   282    57   284
  330      92   312    74    76
  331      43    61   286    59
  332     219   239   421   237
  333      71    89   306    87
  334      55    73    57   294
  335     268   282    41   284
  336      25    43    27   271
  337     271   268    41   284
  338     271    25    41   268
  339     282   268    41    39
  340      39    57    41   282
  341     322   335   334   111
  342     111   335   126   110
  343     123   141   125   346
  344      89   107    91   320
  345      87   105    89   318
  346     197   215   400   213
  347     318   320    89   306
  348     306    87    89   318
  349     153   354   356   137
  350     103   121   105   330
  351     406   422   421   225
  352     332   318   105   330
  353     318   103   105   330
  354     187   171   380   382
  355     332   320   105   318
  356      89   318   105   320
  357     275   288    46   276
  358      75    93    77   310
  359      91   109    93   322
  360     346   334   127   125
  361      93   111    95   322
  362     193   211   397   209
  363     370   155   368   356
  364      73    91    75   308
  365      91   320   322   308
  366     275    11   272    10
  367      47    62    46   287
  368     344   332   346   123
  369     191   189   394   382
  370     122   348   138   345
  371     107   125   109   334
  372      25    43   271    41
  373     346   332   334   123
  374     123   332   334   107
  375      29    47    31   274
  376     322   107   334   320
  377      91    93   310   322
  378     138   348   360   345
  379      97   115   325   113
  380      27    45    29   274
  381     310    93    95   322
  382      46   275    30    31
  383     286   299    63   287
  384      91   308   310    75
  385     322   308   310    91
  386      75   308   310   296
  387      13    31    15   274
  388       1    19   262    17
  389     321   309    90   324
  390     157   175   159   370
  391       1    16   263     0
  392     287   300    62   288
  393     296    59   298    75
  394      77    95    79   310
  395     109   127   111   334
  396     284   271   286    43
  397      44   276    28    30
  398     334   322   111   109
  399     347   348   142   126
  400     134   116   341   132
  401      60    46    44    62
  402     183   201   390   199
  403     274   287    47   275
  404      61    79    63   298
  405     296    75   298   310
  406     271    43   274   286
  407      27    45   274    43
  408     173   191   382   189
  409      13    15   275   274
  410     370   383   382   175
  411      45    47   274   286
  412     274    11   275    13
  413     329   327   116   100
  414      59    77    61   298
  415     238   260   256   423
  416     118   104   102   120
  417     108   110   124   336
  418     286    43   274    45
  419     271    27   274    43
  420     310    75   298    77
  421     224   222   408   407
  422     286    61   298    59
  423     310    77   298    79
  424      15    31   275   274
  425     126   336   124   110
  426     271    11   275   274
  427     403   401   214   198
  428     347   142   127   126
  429      31    47   275   274
  430      43    61    45   286
  431      59   284   286    43
  432      95   310   311    79
  433      11    27   274   271
  434      45    63    47   286
  435      12    30   276    14
  436      11    29    13   274
  437     298   311   310    79
  438     140   348   360   138
  439      15   275    30    14
  440      14   275    30   276
  441     334   347   127   335
  442     298   311    79   299
  443     271    11   272   275
  444      94   110    92   324
  445      63    79   299   298
  446      60   300    62    78
  447     408   202   393   405
  448     127   334   335   111
  449     299    78   311    79
  450     347   360   359   142
  451     124   126   140   348
  452     271     9   272    11
  453     152   355   357   369
  454     268     9   272   271
  455     268   269   272     9
  456     260   258   242   240
  457     275    11    12    13
  458     311    95    94   323
  459      46   276    30   275
  460     275    47    46   287
  461      28   276    26    12
  462     372   154   357   369
  463      31    47    46   275
  464     272    10   276   275
  465     108   324    92   110
  466     273    10   276   272
  467      20     4   264    18
  468     391   403   405   200
  469     299    78    63    62
  470      13    15    14   275
  471     275    10    12    11
  472     140   156   360   142
  473     142   156   360   158
  474     129   144   350   128
  475     238   260   423   242
  476     312    78    94   311
  477     335   348   126   336
  478     110   323    94    95
  479     254   256   422   423
  480     321   333   104   319
  481     288    60    62    46
  482     158   142   372   360
  483      26   276    42   273
  484     288   300    62    60
  485      15    31    30   275
  486      46    60    44   288
  487     101   119   328   117
  488     287   288    62    46
  489     287   300   299    62
  490     297   300    58    74
  491     273   285    40   270
  492     264    48   279    32
  493     285   273    40    42
  494     276    46    30    44
  495     311   324    94   312
  496     276    10    12   275
  497     335   348   347   126
  498      40    58   285    42
  499      74   309    90    88
  500      95   111   110   323
  501     154   170   156   172
  502      94   324    92   312
  503     345   136   357   138
  504      12    30    28   276
  505      30    46    28    44
  506     323   111   110   335
  507     126   110   124   108
  508      76    78    94   312
  509     111   127   126   335
  510     323   336   335   110
  511      88   309    90   321
  512     323   336   110   324
  513     110   324    94   323
  514     170   168   381   186
  515      79    95    94   311
  516     311   324   323    94
  517     122   124   140   138
  518     311    78    94    79
  519      72   297    74   309
  520     240   423   224   222
  521     300    78    76   312
  522      60    78    76   300
  523     321   319   104    88
  524     106   104   120   122
  525      24    42   273    26
  526     124   348   122   336
  527     152   168   369   154
  528     106   336   122   333
  529     124   336   106   108
  530     110   336   108   324
  531     297    56    58   285
  532     136   345   120   122
  533     124   336   122   106
  534     315   329   100   327
  535     333   336   122   348
  536      64   291    66   303
  537     104    88    90   321
  538     300   288    58    60
  539      74    92    90   312
  540     228   411   248   246
  541     108   324    90    92
  542     122   136   138   120
  543     324   312    90    92
  544      72   309    74    88
  545     240   258   242   423
  546     309   297    74   312
  547      40   270    24   273
  548     324   309    74   312
  549      24    42    40   273
  550     172   170   384   186
  551     288   276    42    44
  552     106   333   120   104
  553      74   312    90   324
  554     285    56   283   297
  555     136   343   120   345
  556     104    88   106    90
  557     371   384   158   372
  558      76   300    58    60
  559     150   148   365   166
  560      74   300    58    76
  561     186   168   381   184
  562     288   273    42   276
  563     285   273    42   288
  564      74    88    90    72
  565     122   345   120   333
  566     345   333   331   120
  567     104   321   106   333
  568      90   321   106   104
  569     108   324   106    90
  570     108   336   106   324
  571     180   166   164   182
  572     321   336   106   333
  573     324   321   106    90
  574     324   336   106   321
  575     297   285    58   300
  576     270   269     6     8
  577      26    28    42   276
  578      44    28    42    26
  579      44   276    42    28
  580      72    56    58   297
  581      74    56    58    72
  582      42   288    58   285
  583     300   285    58   288
  584      44   288    58    42
  585      44    60    58   288
  586      42    60    58    44
  587      24    40    22   270
  588      54   295   293   281
  589      52    54    38    36
  590       7   269     6   266
  591       1     3     2   263
  592       9    10     8   272
  593      24   270    22     6
  594      16    18     2     0
  595      32    48   279    34
  596       5   266     4   263
  597     272   269     8     9
  598     270   269     8   273
  599     291    68   293    52
  600      24   270     8   273
  601     272    10     8   273
  602     273   269     8   272
  603     273    26     8    24
  604     273    10     8    26
  605     305   319    86   317
  606     283    54   281   295
  607      34    50   279    36
  608      52   279   293   291
  609      48    50   279    34
  610     263    48   279   264
  611     264    36   267    20
  612      38   270   267    22
  613      38    56   283    40
  614      22    40    38   270
  615     100   315    84   317
  616      16   263    32    17
  617      34    36   279   264
  618     291    48    64    50
  619      49    33    48   278
  620      50    68    66   291
  621     278    33    48   263
  622     189   207   394   205
  623      52    68   293    54
  624      96   315    98   327
  625     133   151   352   149
  626       1    16    17   263
  627      96   314    80   315
  628      64    50    66   291
  629     303   302    64   290
  630      96    82    98   315
  631     104    88   102    86
  632      20    36   267    38
  633       7    25   268    23
  634      34    20   264    18
  635      36    20   264    34
  636      32    16   264   263
  637      18    16   264    32
  638      16    18   264     2
  639      64    48    66    50
  640       0    16   264     2
  641       0   263   264    16
  642       2   263   264     0
  643      40   270   283    38
  644      38   270   283   267
  645     279    48   291    50
  646     331   104   118   120
  647     232   250   234   252
  648      50    68   291    52
  649      54   295   283    56
  650      22     6   267     4
  651     281   279   293    52
  652       6   270   267   266
  653     331   319   102   104
  654      22   270   267     6
  655     120   333   331   104
  656     114    98   116   327
  657      66    68    84   303
  658     100   317    84    86
  659     283    38   281    54
  660     267    38   281   283
  661      52    54   281    38
  662     279    52   281    36
  663      36    38   281   267
  664      36    52   281    38
  665      36   264   281   279
  666     267   264   281    36
  667     290    49    64   278
  668     291   290    64   278
  669     114   327   116   339
  670     339   114   130   132
  671      64   303    80   302
  672     305   291   303    68
  673     100   327   116    98
  674      48   278    64    49
  675      98   327   114    96
  676      86    88   102   319
  677     331   120   118   343
  678     327   326    96   314
  679     302   314    80    81
  680     327   314    96   315
  681     180   164   375   178
  682     204   202   396   408
  683     291    68    66   303
  684     239   261   421   257
  685     218   202   408   405
  686      52    54    70    68
  687     343   329   118   331
  688     100   329   118   116
  689     302   315    80   314
  690     317   319   102   331
  691      81    96    97   314
  692     291   279    64    48
  693     278   279    64   291
  694     278    48    64   279
  695      66    64    80    82
  696     303    64    80    66
  697      66    82    80   303
  698      96    82    80    98
  699      96   315    80    82
  700     303    82    80   315
  701     100   329   102   118
  702      70    68    84    86
  703      70   305    84    68
  704      86   305    84    70
  705      86   317   102   100
  706     303    82    84    66
  707     305   317    84   303
  708     387   180   196   389
  709     114   339   112   327
  710     114   327   112    96
  711     305    68    70   293
  712     293    68    70    54
  713     317   315    84   303
  714     246   228   244   226
  715      98    82   100   315
  716     136   343   118   120
  717     226   411   410   208
  718     303    68    84   305
  719     293   295    70   307
  720     293    54    70   295
  721     295    72    70   307
  722      72   295    70    56
  723      54    56    70   295
  724      72    56    70    54
  725      86   319   102   317
  726      88   319    86   307
  727     305   307    86   319
  728      70   307    86   305
  729     104   319   102    88
  730     188   190   396   384
  731      72   307    86    70
  732      72    88    86   307
  733      70    88    86    72
  734     375   176   374   387
  735     341   134   355   343
  736     100   317   102   329
  737      84    86   102   100
  738     256   260   257   422
  739     331   329   102   317
  740     118   329   102   331
  741     409   413   249   412
  742     118   136   134   343
  743     353   134   355   341
  744     366   167   378   364
  745     182   379   391   377
  746     148   363   164   162
  747     198   403   200   214
  748     366   380   378   169
  749     386   192   398   399
  750     144   146   351   130
  751     130   339   351   128
  752     146   363   351   148
  753     116   327   341   339
  754     134   132   353   150
  755     341   339   353   132
  756     375   164   377   363
  757     353   150   355   134
  758     351   144   350   363
  759     117   135   119   340
  760     228   230   248   411
  761     130   132   351   339
  762     164   162   178   180
  763     132   116   341   339
  764     164   162   146   148
  765     148   162   146   363
  766     212   401   214   414
  767     375   178   387   180
  768     343   118   341   134
  769     389   375   387   180
  770     349   133   131   337
  771     164   363   365   377
  772     164   148   365   363
  773     114   339   130   112
  774     349   361   362   145
  775     197   385   397   400
  776     144   146   160   363
  777     162   146   160   144
  778     162   363   160   146
  779     226   228   244   411
  780     130   128   351   144
  781      40    58    56   285
  782      93   111   322   109
  783     132   148   353   150
  784     178   162   176   160
  785     339   128   338   351
  786     166   168   367   150
  787     164   162   375   178
  788     164   363   375   162
  789     118   329   341   116
  790     118   116   341   134
  791     160   162   375   363
  792     176   162   375   160
  793     343   329   341   118
  794     119   137   342   135
  795      49    67   289    65
  796     351   132   353   339
  797     145   361   362   161
  798     166   148   365   164
  799     379   168   367   166
  800     377   180   389   182
  801     365   166   367   150
  802     351   363   365   148
  803     377   182   389   391
  804     367   150   355   353
  805     166   164   365   377
  806     353   148   365   150
  807     150   353   367   365
  808     352   364   149   151
  809     299   312   311    78
  810     423   222   408   224
  811     142   348   360   140
  812     216   218   420   405
  813     156   174   372   158
  814     167   185   169   378
  815     154   170   372   156
  816     154   152   357   369
  817     170   384   381   369
  818     257   260   261   422
  819     223   224   407   222
  820     124   348   138   122
  821     407   423   422   222
  822     375   180   389   377
  823     115   133   117   337
  824     384   190   396   206
  825     239   221   421   243
  826     423   256   238   236
  827     384   186   396   188
  828     224   206   396   408
  829     393   202   396   186
  830     176   178   387   375
  831     411   230   210   228
  832     218   423   420   405
  833     214   198   216   200
  834     397   410   209   409
  835     217   237   418   235
  836     224   206   408   204
  837     248   250   232   230
  838     142   372   371   158
  839     411   230   248   414
  840     136   355   357   152
  841     212   194   196   399
  842     421   219   237   418
  843     407   423   222   408
  844     403   214   216   200
  845     194   180   196   387
  846     140   124   142   126
  847     210   228   208   411
  848     152   138   357   136
  849     214   417   216   232
  850     246   411   244   228
  851     410   414   248   413
  852     212   198   214   401
  853     403   417   216   214
  854     140   126   142   348
  855     209   229   211   409
  856     383   396   206   384
  857     212   414   214   230
  858     192   210   208   399
  859     411   399   208   210
  860     387   178   194   180
  861     208   228   226   411
  862     208   226   209   410
  863     192   387   194   399
  864     387   176   194   178
  865     192   176   194   387
  866     382   187   394   380
  867     214   230   232   212
  868     417   414   232   214
  869     198   212   214   196
  870     403   401   198   389
  871     389   182   198   391
  872     389   391   198   403
  873     417   250   232   414
  874     198   391   200   403
  875     417   250   234   232
  876     204   186   396   202
  877     194   399   212   210
  878     417   252   234   250
  879     220   218   408   423
  880     414   250   232   248
  881     138   154   360   140
  882     140   154   156   138
  883     401   414   212   399
  884     188   206   396   190
  885     210   411   212   230
  886     399   411   212   210
  887     417   414   214   401
  888     411   414   212   230
  889     399   414   212   411
  890     387   399   196   194
  891     153   354   368   356
  892     198   182   196   180
  893     389   182   196   198
  894     389   180   196   182
  895     401   198   196   212
  896     401   389   196   198
  897     389   401   196   387
  898     212   399   196   401
  899     387   401   196   399
  900     182   391   200   198
  901     158   371   143   159
  902     138   124   140   348
  903     243   223   225   422
  904     200   403   405   216
  905     242   222   240   224
  906     241   258   240   422
  907     244   246   410   411
  908     381   186   396   384
  909     236   256   254   423
  910     405   423   408   218
  911     236   252   254   234
  912     182   379   184   391
  913     154   138   152   136
  914     355   367   369   152
  915     355   367   152   150
  916     345   136   138   122
  917     220   202   408   218
  918     168   150   152   367
  919     252   254   253   419
  920     379   182   184   166
  921     379   166   184   168
  922     170   168   152   154
  923     369   170   372   154
  924     200   216   405   218
  925     393   186   396   381
  926     216   236   420   218
  927     154   168   369   170
  928     138   154   357   360
  929     182   391   184   200
  930     203   221   205   406
  931     224   204   408   220
  932     371   174   158   384
  933     382   173   370   175
  934     200   218   405   202
  935     367   168   369   152
  936     220   423   408   224
  937     240   423   422   258
  938     355   134   152   136
  939     150   134   152   355
  940     181   388   373   385
  941     222   407   223   422
  942     184   391   393   200
  943     242   423   220   224
  944     142   156   158   140
  945     259   260   258   422
  946     172   186   188   170
  947     423   218   238   220
  948     360   154   357   372
  949     206   188   396   204
  950     345   343   357   136
  951     408   206   396   204
  952     392   201   390   185
  953     417   252   420   234
  954     408   202   396   393
  955     355   136   357   343
  956     260   423   242   258
  957     172   186   384   188
  958     172   188   384   190
  959     224   240   242   423
  960     423   236   238   218
  961     407   422   225   223
  962     242   423   238   220
  963     141   346   358   143
  964     384   158   372   174
  965     142   347   127   143
  966     209   226   227   410
  967     241   422   243   261
  968     137   344   342   356
  969      11    29   274    27
  970     142   371   359   143
  971     347   127   143   346
  972     224   225   223   407
  973     422   257   421   261
  974     156   170   372   172
  975     360   156   372   158
  976     360   345   357   138
  977     218   236   420   423
  978     140   154   360   156
  979     193   208   398   192
  980     369   384   372   170
  981     384   172   372   170
  982     184   186   393   381
  983     405   202   393   200
  984     423   240   422   222
  985     384   174   372   172
  986     152   154   357   138
  987     380   171   169   368
  988     200   202   393   184
  989     184   202   393   186
  990     381   379   393   184
  991     184   168   381   379
  992     422   240   223   222
  993     254   423   420   236
  994      13    31   274    29
  995     103   121   330   119
  996     367   168   381   369
  997     367   379   381   168
  998     255   419   253   254
  999     347   360   142   348
 1000     260   423   422   256
 1001     260   258   422   423
 1002     419   423   254   422
 1003     121   344   342   137
 1004     236   234   420   252
 1005     216   417   420   234
 1006     403   216   420   405
 1007     403   417   420   216
 1008     234   236   420   216
 1009     384   206   383   190
 1010     121   330   342   344
 1011     402   201   390   404
 1012     125   143   127   346
 1013     392   203   404   201
 1014     406   422   225   407
 1015     181   199   388   197
 1016     167   364   165   376
 1017     153   171   155   368
 1018     159   371   370   175
 1019     398   208   209   410
 1020     135   153   137   354
 1021     201   219   203   404
 1022     383   396   395   206
 1023     141   346   139   358
 1024     206   207   395   191
 1025     407   224   207   395
 1026     224   206   395   396
 1027     395   408   407   224
 1028     359   372   142   360
 1029     372   142   371   359
 1030     394   407   207   395
 1031     141   159   143   358
 1032     137   344   356   139
 1033     137   155   139   356
 1034     143   371   359   358
 1035     417   250   416   252
 1036     241   258   422   259
 1037     165   183   376   181
 1038     139   157   141   358
 1039     153   171   368   169
 1040     261   422   259   241
 1041     142   347   143   359
 1042     422   261   421   243
 1043     397   409   211   213
 1044     187   205   189   394
 1045     368   382   380   171
 1046      75    93   310    91
 1047     346   359   358   143
 1048     203   205   394   406
 1049     358   346   139   344
 1050     205   225   207   406
 1051     383   174   190   175
 1052     370   157   155   358
 1053     171   173   370   382
 1054     356   155   368   153
 1055     400   213   397   197
 1056     209   229   409   227
 1057     370   171   368   155
 1058     151   169   366   167
 1059     155   173   370   171
 1060     346   359   143   347
 1061     383   174   175   371
 1062     383   206   191   190
 1063     224   225   407   207
 1064     206   207   224   395
 1065     167   364   366   151
 1066     383   395   191   206
 1067     155   173   157   370
 1068     175   371   174   159
 1069     191   190   175   383
 1070     371   174   159   158
 1071     370   383   175   371
 1072     199   201   390   402
 1073     173   191   175   382
 1074     189   187   394   382
 1075     412   213   400   215
 1076     394   406   392   203
 1077     383   191   382   175
 1078     163   181   373   179
 1079     382   171   368   370
 1080     142   371   143   158
 1081     358   371   370   159
 1082     169   187   171   380
 1083     375   160   374   176
 1084     358   370   356   155
 1085     412   416   251   415
 1086     181   199   183   388
 1087     415   253   416   251
 1088     119   137   121   342
 1089     342   354   135   137
 1090     151   354   135   352
 1091     390   185   378   392
 1092     183   185   378   390
 1093     404   406   421   219
 1094     392   406   404   203
 1095     139   358   356   155
 1096     139   344   356   358
 1097     412   416   413   251
 1098     183   167   376   378
 1099      37    55   280    53
 1100     219   239   221   421
 1101     203   406   404   219
 1102     274   287   286    47
 1103     418   422   419   255
 1104     169   368   366   380
 1105     169   167   378   366
 1106     135   352   340   133
 1107      47    62   287    63
 1108     135   354   340   352
 1109     404   219   421   418
 1110     189   207   191   394
 1111     191   395   394   207
 1112     382   395   394   191
 1113     382   395   191   383
 1114     207   406   394   205
 1115     231   251   233   412
 1116     247   248   249   410
 1117     388   199   390   402
 1118     416   420   252   419
 1119     394   203   392   187
 1120     394   187   392   380
 1121     185   203   187   392
 1122     380   187   392   185
 1123       9    27   271    25
 1124     418   419   253   255
 1125     237   257   239   421
 1126     404   201   390   392
 1127     219   217   418   404
 1128     208   399   398   192
 1129     225   422   421   243
 1130     219   406   421   221
 1131     225   243   421   221
 1132     225   221   421   406
 1133     392   185   378   380
 1134     418   421   255   237
 1135     388   199   183   390
 1136      51    69   289    67
 1137     235   255   237   418
 1138      69    87   304    85
 1139     217   237   219   418
 1140     422   257   255   421
 1141     418   422   255   421
 1142     422   256   255   257
 1143     422   254   255   256
 1144     422   419   255   254
 1145     415   419   416   253
 1146     413   417   250   416
 1147     231   249   412   409
 1148     253   419   416   252
 1149     364   376   361   165
 1150     248   250   413   414
 1151     235   418   415   253
 1152     192   176   386   177
 1153     195   213   397   211
 1154     215   400   415   402
 1155     248   411   410   246
 1156     400   199   402   215
 1157     217   404   402   418
 1158     413   250   249   251
 1159     199   217   201   402
 1160     250   413   249   248
 1161     129   349   350   145
 1162     378   167   376   364
 1163     400   388   402   199
 1164     217   201   402   404
 1165     259   260   422   261
 1166     410   246   245   247
 1167     199   197   400   388
 1168     183   201   185   390
 1169     197   215   199   400
 1170     356   354   342   137
 1171     373   177   374   161
 1172     215   233   415   412
 1173     233   251   415   412
 1174     179   385   373   177
 1175     413   251   416   250
 1176     251   249   413   412
 1177     215   412   415   400
 1178     233   253   235   415
 1179     402   418   415   217
 1180     217   418   415   235
 1181     413   417   414   250
 1182     251   252   253   416
 1183     217   215   415   402
 1184     215   235   217   415
 1185     351   128   350   144
 1186     352   364   349   149
 1187     119   328   342   330
 1188     119   330   342   121
 1189     169   380   378   185
 1190     400   412   397   213
 1191     151   169   153   366
 1192     151   354   366   153
 1193     153   368   366   169
 1194     153   354   366   368
 1195     390   183   376   378
 1196     151   364   366   352
 1197     151   352   366   354
 1198     163   181   165   373
 1199      81    96   314    80
 1200     199   217   402   215
 1201     133   151   135   352
 1202     361   373   374   161
 1203     161   176   374   160
 1204     205   225   406   221
 1205     209   410   227   409
 1206     394   407   406   207
 1207     227   247   409   245
 1208     310   323   322    95
 1209      83   101   313    99
 1210     208   411   398   399
 1211     342   354   340   135
 1212     119   342   340   135
 1213     119   328   340   342
 1214     363   160   362   375
 1215     361   165   373   163
 1216     179   181   373   385
 1217     145   160   362   144
 1218     340   352   337   133
 1219     117   115   337   325
 1220     340   133   337   117
 1221     340   117   337   325
 1222     193   208   209   398
 1223     149   364   361   165
 1224     349   364   361   149
 1225     145   161   362   160
 1226      57    75   296    73
 1227     248   249   410   413
 1228     147   165   149   361
 1229     349   149   361   147
 1230     229   249   231   409
 1231     161   179   163   373
 1232     373   163   161   361
 1233     363   144   362   160
 1234     171   189   382   187
 1235     161   177   374   176
 1236     244   411   410   226
 1237      23    41   268    39
 1238     362   363   350   144
 1239     373   385   386   177
 1240     409   413   410   249
 1241     113   131   115   337
 1242     129   147   131   349
 1243     337   349   129   131
 1244     361   161   374   362
 1245     129   113   338   337
 1246     113   128   129   338
 1247     112   339   338   326
 1248     128   339   338   112
 1249     161   160   374   362
 1250     325   113   338   326
 1251     337   113   338   325
 1252     129   144   145   350
 1253     397   197   195   385
 1254      19    37   262    35
 1255     337   349   350   129
 1256     129   128   350   338
 1257     337   129   350   338
 1258     387   176   386   192
 1259     374   176   386   387
 1260     245   409   227   410
 1261     410   244   245   246
 1262     193   398   209   397
 1263     247   248   410   246
 1264     397   409   209   211
 1265     249   409   247   410
 1266     227   247   229   409
 1267     179   197   181   385
 1268     397   398   209   410
 1269     231   409   211   229
 1270     231   213   211   409
 1271     115   133   337   131
 1272     123   141   346   139
 1273     105   123   332   121
 1274      73    91   308    89
 1275     143   371   358   159
 1276     177   195   179   385
 1277     195   385   193   397
 1278     415   419   253   418
 1279     397   385   193   398
 1280     386   192   193   398
 1281     386   177   193   192
 1282     386   385   193   177
 1283     398   385   193   386
 1284     410   244   227   245
 1285     410   226   227   244
 1286     326   113   112    97
 1287     251   252   416   250
 1288      77    95   310    93
 1289     107   125   334   123
 1290       5     6   266     7
 1291     187   205   394   203
 1292     149   167   364   165
 1293      35    53   277    51
 1294      81    99   313    97
 1295      85   103   316   101
 1296     410   414   411   248
 1297     131   149   349   147
 1298     139   157   358   155
 1299      65    83   301    81
 1300     231   251   412   249
 1301      91   109   322   107
 1302     145   163   361   161
 1303      89   107   320   105
 1304      21    39   265    37
 1305     286   299   298    63
 1306      67    85   301    83
 1307      59    77   298    75
 1308      55    73   294    71
 1309       9    10   272    11
 1310      39    57   282    55
 1311     137   155   356   153
 1312     203   221   406   219
 1313     157   175   370   173
# Generated by /tmp/dc-viability.8juxjd/tetgen-build/tetgen -pYM /tmp/dc-viability.8juxjd/shell-n8-nearzero.poly
