609  4  0
    0      39   156   162    41
    1     100   193   195   112
    2     161    44    42   167
    3      55    69    57   172
    4      42   167   165   159
    5     164    53    55   170
    6      17    31    19   152
    7      49   163   169   162
    8     150    25   157   151
    9      31   158   160   152
   10       8    20     6    18
   11      11    22   155    23
   12      51   168   162    49
   13      28    40   159    30
   14      66   171    64    54
   15      54   173   165   167
   16      30    40   159    42
   17      54   171   165   173
   18     141   142   201   140
   19      53   168   162    51
   20      37    51    39   162
   21     170   168   162    53
   22       6    18   153   155
   23      69    71   172   178
   24      37   156   162    39
   25     183    76   175   181
   26     120   106   107   191
   27      18    32    30   155
   28      28    40   157   159
   29     169   168   175    61
   30      82   179    71    83
   31      64   169   177   175
   32      34   155    23    35
   33      84    86    98    96
   34     135   148   132   134
   35      14    26    12    24
   36     111   127   198   125
   37      22    34    20    32
   38      61   168   175   174
   39     185    94   191   106
   40       5    19     7   152
   41      65   168   170    53
   42      74    60   175    72
   43      86    88   181    74
   44      37   163   162   156
   45     157    40   165   159
   46     167    56    42    54
   47     167    58    56   173
   48     167    44    56    58
   49     114   195   102   197
   50     164   156   158    41
   51     114   197   102   116
   52      54   167   165    42
   53      66   171   177    64
   54      15    29    17   150
   55     186   187    97   193
   56     157   163    36    37
   57     157   163   165    40
   58     196   121   105   107
   59     161    44   167    46
   60     151    26   157    28
   61       5   152   153   150
   62     109   125   198   123
   63      27    41   156    39
   64       9    23    11   154
   65      91   184   182   190
   66     161   155    32    34
   67     123   139   198   137
   68      74    72   175   181
   69      61    72   175    60
   70      73    87   180    85
   71     201   126   128   114
   72     161    46   167    47
   73      49   163   162    37
   74      49    63    51   168
   75      55    69   172    67
   76     108   193    97   187
   77     148   149   145   203
   78      60   169   175    61
   79     161    46    32    44
   80     154   161   160    35
   81     182    79    77   176
   82     159    40   165    42
   83      51    65    53   168
   84       7     9   155   154
   85      81    95   184    93
   86      63   168    61   174
   87      25    24    36   157
   88      25    39    27   156
   89     174   168    65    63
   90      36   163    50    48
   91     150   156    29   158
   92     182   180    89   188
   93      76    64   177   175
   94     162   156   164    41
   95     104    90   191   102
   96      34    46    32   161
   97      23    35   155   154
   98      39    53    41   162
   99      47    58   167    59
  100     162    41   164    53
  101     162    53   164   170
  102     158   156    29    41
  103      29   152    17   150
  104     150   158    29   152
  105     166   158   160    43
  106     119   203   120   121
  107      35    46   161    47
  108     118   135   203   119
  109       1    15     3   150
  110      13    27    15   150
  111     158    41    43   164
  112      62   169   175    60
  113      25    27   150   156
  114      31    45   160    43
  115      27   156    29   150
  116      27    41    29   156
  117       3    17     5   150
  118      17   152     5   150
  119      46    44   167    58
  120     129   145   202   143
  121      33    47   160    45
  122      91   105   190   103
  123     154   161    35   155
  124      55    67   172   170
  125      29    43    31   158
  126     160    31   154    33
  127      35    47   161   160
  128      41    55    43   164
  129     158   152    31    29
  130     160   152   154    31
  131       9    23   154    21
  132     200   203   201   143
  133     173    59   167    58
  134     190   197   107   191
  135      53    67    55   170
  136      11    22    10   155
  137      19    33    21   154
  138     154    11   155    23
  139     160   167    47   161
  140     155    18   153    30
  141     161   155   153    30
  142      18    32   155    20
  143      57    71    59   172
  144      47    46   167    58
  145      56    70    68    58
  146      43   158   160    31
  147      61    75   174    73
  148     167    44    42    56
  149      31    45    33   160
  150     160   167   166    47
  151     178   170   172    67
  152      55   170   172   164
  153       5    19   152    17
  154      33    47    35   160
  155     119   203   118   120
  156     103   117   196   115
  157      83   178    81   184
  158      21    35    23   154
  159     183    76   177   175
  160     184   191   190    95
  161      73    87    75   180
  162     160    33   154    35
  163     154   152   155     7
  164     176    65    77   174
  165      79   178   176   184
  166       7    19   154   152
  167      62    60   175    74
  168     134   135   148   203
  169      31   152   154    19
  170       7    21     9   154
  171       9    11   155   154
  172      55   164   166    43
  173       7     8     6   155
  174     172   164   166    55
  175      43    57    45   166
  176      43   164   166   158
  177      68    78    80    66
  178     162   168   169    49
  179     155    34    23    22
  180     102   189   191   197
  181     178    67   172    69
  182     172    57   166    59
  183      45    59    47   166
  184      55    57   166   172
  185      43    45   160   166
  186     166    45   160    47
  187     173   179    66   171
  188     172    59   173    71
  189     183   189   191    90
  190      24    26   157   151
  191     172   179   178    71
  192      66    56    68   173
  193      49    60    61   169
  194     201   140   126   199
  195     128   201   203   142
  196     173    70    59    58
  197     172   179    71   173
  198       9    10   155    11
  199      70   179    80    68
  200      34   155    32    22
  201       3    17   150    15
  202      47    59   167   166
  203     166   173   172    59
  204     166   173    59   167
  205     161    35    34    46
  206     155    35    34   161
  207     106   197   191   120
  208      37    51   162    49
  209      30    42    28    40
  210     179   173    68    70
  211      71   179    70   173
  212      70   173    59    71
  213      26    28   151    16
  214      54    56    66   173
  215      66   179    68    78
  216     183    78   177    76
  217     173    58    68    70
  218      56    58    68   173
  219      42   161    30    44
  220      54   173    66   171
  221      56   173    54   167
  222      66   173    68   179
  223      66    54    68    56
  224     179    78    80    68
  225     126   112   128   114
  226     189   197   102   195
  227     155    10    20    22
  228     157    37    36    25
  229      37    48    49   163
  230      54    66    52    64
  231      32    44    30   161
  232      32   161    30   155
  233     155    22    20    32
  234      20    10     8    22
  235      38    40    50   163
  236      50   169    62    48
  237      16    30    28    18
  238      14    28    26    16
  239      20   155     8    10
  240      18   155     8    20
  241      14    16   151     2
  242      64    78    76    66
  243     190   197   196   107
  244     155     9     8    10
  245     187    88   181    86
  246       8    18     6   155
  247      62    50    64   169
  248       4     5   153   151
  249      28    30   153    18
  250      84    74   181    72
  251     150   156   157    25
  252      42   161   159    30
  253     151    28   157   159
  254      37   156   157   163
  255      26    16   151    14
  256      65    79   176    77
  257      16     4   151     2
  258      49    48   169   163
  259      12    14   151     2
  260     159    30   153    28
  261      67   178   176    79
  262     116   130   203   134
  263       1     2   151     3
  264     167   161   159    42
  265      12    14     2     0
  266      49   168   169    61
  267     169    48    50   163
  268      26    14   151    24
  269       4     3   151     2
  270      24    14   151    12
  271       0    12   151     2
  272      37    25   157   156
  273       6     7   153     5
  274     161    30   153   159
  275       5     3   151     4
  276       5   150   151     3
  277      13    24   151    12
  278       1    12   151     0
  279      28   151   153   159
  280      16     4   153   151
  281       6   155   153     7
  282     118   135   119   132
  283       1     3   151   150
  284       1     2     0   151
  285      25    13   151   150
  286      24    13   151    25
  287      13     1   151   150
  288      12     1   151    13
  289     152     7   153   155
  290      25    24   157   151
  291      73    84   181    72
  292      38   163    50    36
  293      28    16   153   151
  294      16    18   153     4
  295     152     5   153     7
  296       5   150   153   151
  297       4    18   153     6
  298       6     5   153     4
  299      64   171   177   169
  300      28    18   153    16
  301     157    40    38   163
  302     157    28    38    40
  303      26    28    38   157
  304      26    40    38    28
  305      36   157    38   163
  306      24   157    38    36
  307      24    26    38   157
  308      65   168   176   170
  309      54   171    52   165
  310      92    78    80    90
  311       7     8   155     9
  312     100    88   187    86
  313      62   169    60    48
  314     202   143   200   129
  315      66   179   177   171
  316      64   171    52    54
  317      42    54    52   165
  318      42    40    52    54
  319     165    40    52    42
  320     165   163    52    40
  321      38    40    52    50
  322     171   163    52   165
  323      50    40    52   163
  324      64   169    52   171
  325     163   171    52   169
  326      50   169    52    64
  327      50   163    52   169
  328     191   197   107   120
  329     183    90   191   185
  330     100    88   189   187
  331      74    76   175    62
  332      78   179   177    66
  333     182   180    77    89
  334     136   122   138   199
  335      80    70    82   179
  336      81    95    83   184
  337      86    84    72    74
  338     148   135   133   149
  339      76    78   177    66
  340     106   197   120   104
  341     183    76   181    88
  342      66    64   177    76
  343      43    57   166    55
  344     188   186    89   101
  345     189   100   102    88
  346     123   139   125   198
  347     114   100   102   195
  348     106   104   191   197
  349     103   196   194   115
  350     179    82    71    70
  351     100    86   187    98
  352      98   193   187   100
  353      86    84   187    96
  354      25    39   156    37
  355     101   115   194   113
  356     187    86   181    84
  357     186   192    99   101
  358      98    96   187   193
  359      86    96   187    98
  360      84    86   181    74
  361      88    76   181    74
  362     115   202   200   129
  363      97   193   109   192
  364     187    84    85    96
  365      88   183   189   181
  366     181   187   189    88
  367      76    74   175   181
  368     195   100   102   189
  369      76    64   175    62
  370     169    62   175    64
  371      89   103    91   188
  372      90   189   191   102
  373     184   191    95   185
  374     199   112   126   201
  375     187   100   195   189
  376     187   193   195   100
  377      67    81   178    79
  378     203   144   145   148
  379     195   193   201   112
  380     199   112   201   193
  381     199   122   138   124
  382      98   193   108    96
  383     109   125   111   198
  384      96   193   108   187
  385      83    94   185    95
  386      99   186    97   192
  387     123   198   109   199
  388      17    31   152    29
  389     198   201   199   141
  390     189    88   102    90
  391      49    60   169    48
  392      29    43   158    41
  393     202   149   135   203
  394     198   127   200   141
  395      89   103   188   101
  396     143   203   145   202
  397     202   145   149   203
  398     108    98   110   193
  399     100   193   110    98
  400     100   112   110   193
  401      98   112   110   100
  402     199   112   110   124
  403     199   193   110   112
  404      96    98   110   108
  405     108   193   110   199
  406     124   122   110   199
  407     108   122   110   124
  408     108   199   110   122
  409     110   112   126   124
  410     124   112   126   199
  411     138   199   126   140
  412     124   199   126   138
  413     138   140   126   124
  414     202   135   131   117
  415     126   112   114   201
  416     148   135   149   203
  417     120   134   203   118
  418     201   112   114   195
  419     112   100   114   195
  420     127   143   129   200
  421     126   201   128   140
  422     142   140   128   201
  423     126   140   128   142
  424     203   202   121   135
  425     183    78   185   177
  426     130   144   128   142
  427     102   197   191   104
  428     104   197   120   116
  429     104   116   102   197
  430     106    95   191   185
  431      92   106   191    94
  432      90   104   191    92
  433      92    94   191   185
  434      88   183    90   189
  435     183    76    90    78
  436      88    76    90   183
  437     179    83    82   185
  438     177    78   185   179
  439      77    91   182    89
  440      92   104   191   106
  441      90    92   191   185
  442      68    70    82    80
  443     117   196   115   202
  444     132   148   133   146
  445     191   106   107    95
  446     107   190   105   196
  447     144   203   145   143
  448      53    67   170    65
  449      90    78   185   183
  450     106    95   185    94
  451     188    91    89   182
  452      80   179   185    78
  453      80    78   185    90
  454     134   130   203   144
  455      90    92   185    80
  456     134   144   203   148
  457     113   129   200   127
  458     186   193    97   192
  459      80    92   185    94
  460     130   142   203   144
  461     133   147   148   149
  462      82    80   185    94
  463      82   179   185    80
  464     203   120   121   197
  465     128   142   203   130
  466     128   114   203   201
  467     114   116   203   197
  468     130   116   203   114
  469     120   116   203   134
  470     120   197   203   116
  471     195   201   203   114
  472     114   197   203   195
  473     130   114   203   128
  474     105   196   117   121
  475      79    93    81   184
  476      79    93   184    91
  477      75    89   180    87
  478     188   180    89   186
  479     127   143   200   141
  480     125   141   198   139
  481      83    94    82   185
  482      91   105    93   190
  483      65   174   176   168
  484     196   203   202   121
  485      97   111   192   109
  486     121   197   107   196
  487     202   135   117   121
  488     196   203   121   197
  489     146   148   133   147
  490     120   197   107   121
  491     135   134   118   203
  492     132   135   119   133
  493     134   135   118   132
  494      39    53   162    51
  495     184    95    83   185
  496     145   202   149   131
  497      65    79    67   176
  498     190   191   107    95
  499     121   196   117   202
  500     105   190   103   196
  501     178   185   184    83
  502     178   185    83   179
  503     179    71    83   178
  504      37    48   163    36
  505      91   190    93   184
  506      81   178    79   184
  507      69    83    71   178
  508      67    81    69   178
  509      79   184   182    91
  510     190    95    93   184
  511      69    83   178    81
  512      93   107    95   190
  513     198   201   141   200
  514     123   136   199   122
  515      77   174    75   180
  516     182   174    77   180
  517     192   199   109   198
  518      63    77    65   174
  519     115   131   202   129
  520      87   101    89   186
  521     111   192   109   198
  522     203   142   143   144
  523     129   145   131   202
  524      19    33   154    31
  525     202   149   131   135
  526      67   170   176   178
  527     115   131   117   202
  528     200   203   143   202
  529     201   142   143   203
  530     198   113   200   127
  531     103   117   105   196
  532     200   113   194   115
  533     113   129   115   200
  534      63    77   174    75
  535      73    84    85   181
  536     180   174    75    73
  537     139   140   199   138
  538     141   142   143   201
  539     199   140   141   201
  540     198   192   200   113
  541     141   143   200   201
  542      79   184   176   182
  543     176   174    77   182
  544      77    91    79   182
  545     192   113   194   200
  546      45    59   166    57
  547      87   101   186    99
  548      67    65   176   170
  549      57    71   172    69
  550     115   202   194   200
  551     115   196   194   202
  552     180   186    87    89
  553      49    63   168    61
  554      75    89    77   180
  555     103   196   188   194
  556     103   190   188   196
  557     182   190   188    91
  558     103    91   188   190
  559     181    84    85   187
  560     186   194   101   188
  561     192   194   101   186
  562     192   113   101   194
  563      51    65   168    63
  564     194   103   101   188
  565     101   115   103   194
  566      41    55   164    53
  567     198   113   111   192
  568      85    99   186    97
  569     187    96    85    97
  570      15    29   150    27
  571      99   113   101   192
  572       7    21   154    19
  573      97   111    99   192
  574     180   187    85   186
  575     181   187    85   180
  576      97   186    85   187
  577      61    75    63   174
  578     199   198   137   123
  579     123   136   137   199
  580      99   113   192   111
  581      61    72    73   175
  582      85    99    87   186
  583      87   180    85   186
  584     180   174    73   181
  585     181   180    85    73
  586     175    72    73   181
  587     130   148   144   134
  588     175   174    73    61
  589     181   174    73   175
  590     187    96    97   108
  591     119   203   121   135
  592      93   107   190   105
  593       1    15   150    13
  594     111   127   113   198
  595      21    35   154    33
  596     125   141   127   198
  597     199   141   139   198
  598     139   140   141   199
  599     199   198   139   137
  600     138   199   137   136
  601     199   138   137   139
  602     192   193   109   199
  603      97   108   109   193
  604     148   132   133   135
  605     199   193   109   108
  606     199   122   109   123
  607     199   108   109   122
  608      13    27   150    25
# Generated by /tmp/dc-viability.8juxjd/tetgen-build/tetgen -pYM /tmp/dc-viability.8juxjd/shell-n6.poly
