1331  4  0
    0     207   211   402   205
    1     285    49   298   286
    2     284    14    28    30
    3      56   305    58    74
    4     108   344   106   332
    5     118   337   349   116
    6     297    51    67    49
    7     147   145   369   357
    8      65    80    81   310
    9     214   419   234   232
   10     325   100   323   337
   11      71    89   314    87
   12     215   235   217   417
   13     178   180   383   164
   14      66   299    64    48
   15     112   334   346   113
   16     233   255   417   253
   17     270   274   273     5
   18      48   298    64    49
   19      90   106    88   329
   20     107   125   342   123
   21     297    49    67    65
   22     322    96    97   334
   23      43   292   294   279
   24     318   331   330    95
   25      91   109    93   330
   26     174   158   380   156
   27     188   170   392   186
   28     201   223   412   221
   29      34   287    32   272
   30     107   340   342   328
   31     136   363   365   152
   32     299   298    64    48
   33       9    27   279    25
   34     372   165   369   149
   35      63    79   307   306
   36     330   343   111   331
   37     314    73   316    89
   38     276   273    23    39
   39      57    75    59   304
   40      39    57    41   290
   41     342   330   111   109
   42     117   135   348   133
   43       9    27    11   279
   44      21    39    23   273
   45     274   271     4     5
   46       3   271   270     5
   47     271   274   270     5
   48     112   128   346   347
   49     289    36   275   272
   50     340   123   342   354
   51      54    52    68    70
   52     311    66    64    82
   53     277   274   278     6
   54     343   331   110   111
   55      38    20   275    36
   56      38    22   275    20
   57       6   274   275     4
   58      80   323    98    96
   59     350   119   135   348
   60      77    95    79   318
   61      48   287   299   286
   62       9    10     8   280
   63      28    12    26    10
   64     326   314    89    87
   65      61    63   294   306
   66     287   271    32   272
   67     108    94   110   332
   68     117   135   119   348
   69     340   326   328   105
   70     369   145   370   357
   71     176   177   161   382
   72     113   334   333    97
   73      84   100    82   323
   74     120   106   122   341
   75     150   132   361   148
   76      34    36    50   287
   77     113   334   346   333
   78     120   341   122   353
   79     172   154   380   170
   80     329   332   106   344
   81     327    88   102   104
   82      70   313    86    84
   83     118   339   102   104
   84     296   281    42   284
   85     299   301    68   313
   86     188   186   392   404
   87     323   100    98   335
   88     356   341   122   344
   89     194   180   196   395
   90      93    95   318   330
   91     234   236   256   254
   92      45    47   282   294
   93     316    89    91   328
   94     342   355   354   127
   95     186   170   392   389
   96     106   341   104   329
   97     161   179   381   177
   98     254   236   256   422
   99      40   281   278    24
  100     167   185   386   183
  101     312    69   300    71
  102     136   363   152   150
  103      86    84    68    70
  104     380   170   377   392
  105      47    62    46   295
  106     104   106   120   341
  107     203   402   400   414
  108     192   407   214   212
  109     169   388   386   185
  110      72   305    74   317
  111      90   317    88    72
  112     332    92    90   106
  113      42    60    58   296
  114     140   142   368   126
  115     269   263   430   267
  116      69   309   312   297
  117     290   292    41   276
  118     295   308    62   296
  119      44   284    46   296
  120     109   127   111   342
  121      91   109   330   107
  122     223   245   429   241
  123     127   367   355   354
  124     206   204   416   404
  125      36   287    34   272
  126     410   426   423   221
  127     381   163   161   369
  128     334   112    97   113
  129     185   388   386   400
  130     321    97   333   334
  131     395   394   192   382
  132     169   187   171   388
  133     222   431   428   413
  134     285    33   286   270
  135     269   263   265   430
  136     300   285    53   297
  137     185   203   400   201
  138     232   212   214   419
  139      19    37    21   270
  140      20    36    34   272
  141      50   287    32    34
  142      81   310   309    65
  143      45    63   294    61
  144     420   424   421   257
  145      97   115   333   113
  146     298    49    48   286
  147       3    21     5   270
  148     293   281   278    40
  149     139   157   366   155
  150      66   311    64   299
  151     380   154   377   170
  152     417   421   255   420
  153     288   273    39    37
  154      54   301    68    52
  155      82   323    98    80
  156     322   310   309    81
  157     169   187   388   185
  158     120   353   351   339
  159     273     5    21   270
  160     114   335   112    96
  161      51    69    53   297
  162      24   281   278     8
  163     311   298    64   299
  164     297    65   309   310
  165      49    33   286   285
  166       6    22   278    24
  167       3     1   270   271
  168      19     1   270     3
  169      17    35    19   270
  170      33   271   270    17
  171     147   357   369   149
  172      20     4   275   272
  173     270    33   286   271
  174      17     1   270    19
  175      17   271   270     1
  176     309    83    85   321
  177     277     9     8   280
  178     313   301    68    70
  179     422   419   234   216
  180     270    35   285    33
  181      33    51    35   285
  182     173   191   390   189
  183     314   312    87   326
  184     359   132   361   347
  185      33   271    32    48
  186      72   315    70   303
  187     297    65    67   309
  188     337   100   335   116
  189     128   114   347   112
  190      52    36    50    34
  191     322   334   335    96
  192     333   336   117   101
  193     384   396   181   183
  194      97   115    99   333
  195      83   101    85   321
  196      35    53   285    51
  197      65    83    67   309
  198     288   285    37    53
  199     310   298   297    65
  200      55    73   302    71
  201      51    49   297   285
  202     309   321    85   324
  203      75    93    77   318
  204     298    49   297    65
  205     298   285   297    49
  206      69    87    71   312
  207     155   173   378   171
  208      89   107    91   328
  209     304    59    57   292
  210     321    99   333    97
  211     321    99   101   333
  212      99   117   101   333
  213     351   337   349   118
  214      39   288   290   273
  215     227   205   414   225
  216     129   345   346   358
  217      67   309    69   297
  218     336   321   101   333
  219     270   288    37   273
  220      85   103    87   324
  221      97   334   321   322
  222     324   321   101   336
  223     319   332    94   320
  224      81   309   321    83
  225      81    99    83   321
  226     309    81   321   322
  227      97   322   321    81
  228     312   324    87   326
  229     202   200   401   413
  230     300   297    53    69
  231     301   303    70   315
  232     101   324    85   321
  233     333   348   117   336
  234      83   101   321    99
  235      71   312    87   314
  236     145   163   369   161
  237     270    35    37   285
  238     101   119   103   336
  239     251   252   418   250
  240     183   201   398   199
  241     384   396   381   181
  242      67    85    69   309
  243     335   334   112    96
  244     160   162   178   176
  245      69    85   312   309
  246     324   309   312    85
  247     324   326   103    87
  248     288    55   290   302
  249     117   348   119   336
  250     314   312   300    71
  251     288    39   290    55
  252     312    85    87   324
  253      41    59    43   292
  254     101   336   103   324
  255     153   137   362   364
  256      14   283    30   284
  257      91   316   318    75
  258     285    51    53   297
  259      54    36    38    52
  260       9   276   277     7
  261     324   326   338   103
  262     103   336   338   324
  263     119   336   338   103
  264     103   121   105   338
  265     326   105   338   103
  266     328   316   330    91
  267       7   273    23   276
  268     273   276   290    39
  269     312   297   300    69
  270     114    96    98   335
  271      55    73    57   302
  272     157   175   378   173
  273     288   270    37   285
  274      73    91    75   316
  275     304   292    57   290
  276      25   276   279     9
  277     270   273    37    21
  278     285   300    53   288
  279      23    41    25   276
  280     279    43   282   294
  281      37    55    39   288
  282      35    53    37   285
  283       5    23     7   273
  284     273   274     7     5
  285      29    47   282    45
  286       7   273   277   274
  287     129   147   357   145
  288      55   302    57   290
  289      53    71    55   300
  290     300   288    55    53
  291       7    25     9   276
  292     276   273   277     7
  293     121   139   123   352
  294     280   276   277     9
  295     291    54   289   303
  296      99   117   333   115
  297     326   314   328    89
  298      21    39   273    37
  299      87   105    89   326
  300      71   300   302    55
  301      55   300   302   288
  302      71   314   302   300
  303     290   302    57   304
  304     316    89   328   314
  305     101   119   336   117
  306      71    89    73   314
  307      29    47    31   282
  308     431   416   413   222
  309      57   302    73   304
  310      41   290    57   292
  311     290   276    41    39
  312      87   105   326   103
  313     137   155   364   153
  314     279   292    41    43
  315     279   276    41   292
  316      25   276    41   279
  317     302    71    73   314
  318     415   431   228   416
  319      25    43    27   279
  320     340   105   328   107
  321     316   304    75    73
  322     318   331    95   319
  323     283   279   280    11
  324     123   141   125   354
  325     117   115   345   333
  326     202   222   416   226
  327     352   121   340   123
  328      89   105   328   326
  329     177   195   393   193
  330     133   151   360   149
  331     294   307    63   295
  332     330   107   109   342
  333     354   367   366   143
  334      73   302   316   304
  335     314   302   316    73
  336     237   259   423   257
  337     279   276   280     9
  338     105   123   107   340
  339     326   105   340   338
  340     338   121   340   352
  341     338   105   340   121
  342     294    43   282    45
  343     247   430   243   267
  344       9    11   280   279
  345     316   304   318    75
  346     282   295   294    47
  347       3     4   271     5
  348     340   123   354   352
  349     206   202   416   226
  350      91   107   330   328
  351      45    63    47   294
  352     330    91   318    93
  353     294    47   295    63
  354     282   295    47   283
  355     149   167   372   165
  356     387   166   385   182
  357      93   111    95   330
  358     123   139   354   352
  359     107   125   109   342
  360     306   319    79   307
  361     107   328   342   330
  362     354   123   342   125
  363     340   107   342   123
  364     247   229   225   430
  365     330   316   318    91
  366      47    62   295    63
  367     126   367   127   142
  368      11    27   282   279
  369     125   143   127   354
  370     342   125   127   354
  371     410   219   423   408
  372      60    62    46    44
  373     356   124   140   126
  374      95   110    94   331
  375     306   292   294    59
  376      56   303   291   305
  377     246   247   430   229
  378      43    61    45   294
  379      43    59   294   292
  380     259   260   427   258
  381     240   238   428   258
  382      14    15    30   283
  383      30   284    46    44
  384     319    94   331    95
  385     355   368   126   356
  386      27    45    29   282
  387     279    27   282    43
  388      11    29    13   282
  389      95    79   319    94
  390     138   356   368   353
  391     217   237   420   235
  392      76    94   320    78
  393      13    31    15   282
  394     304   292   306    59
  395     415   431   430   228
  396      24    10    26   281
  397      59    77    61   306
  398      61    79    63   306
  399      75   304   306    59
  400     318   304   306    75
  401      77    79   306   318
  402      75    77   306   318
  403     306    59   294    61
  404     330    95   331   111
  405     282   279   283    11
  406     282    31   283    47
  407     110   108    92    94
  408      13    15   283   282
  409     282    15   283    31
  410      31    46    30   283
  411     282    11   283    13
  412     283   296    46   284
  413     329   317    90   332
  414     127   343   355   126
  415     318    79   319    95
  416     306   319   318    79
  417     344   341   106   329
  418     353   341   122   356
  419     404   202   416   206
  420      54   303   291    56
  421      54    56   291    40
  422      42   293    40   281
  423     283   284    46    30
  424     104   341   120   339
  425      92   108   106   332
  426      44   284    42    28
  427      17    35   270    33
  428     329   332    90   106
  429     325    84    86   313
  430     142   126   140   124
  431     225   430   429   243
  432      76    94    92   320
  433     332   320    90    92
  434     404   210   392   190
  435      74   320    90   317
  436      49    33    48   286
  437     332   344   110   108
  438      89   107   328   105
  439     126   108   110   124
  440       8   277     6     7
  441     319   332   331    94
  442      40   281    26    42
  443      92   108    90   106
  444      28   284    26    12
  445     296   284    42    44
  446     332    94   110   331
  447     413   411   428   220
  448     210   190   404   204
  449     138   124   140   356
  450      30    44    28   284
  451     283    47    46   295
  452      13    15    14   283
  453      10   284    26   281
  454     291    38   275   289
  455      62   296    46   295
  456      44   296    46    60
  457      65    80   310    64
  458     153   171   376   169
  459      60   296    46    62
  460     295   308   307    62
  461      40    42    26    24
  462     343   356   110   344
  463     343   355   126   356
  464      63   307    62   295
  465     331   344   110   332
  466     283    15    30    31
  467     331   344   343   110
  468     343   126   111   110
  469     108   332    92    94
  470      30    44    46    28
  471     308   296    60    62
  472     188   210   204   190
  473     408   219   423   420
  474     122   124   140   138
  475      56    72    70   303
  476      74   308    58    76
  477      10    12    26   284
  478      76   308    58    60
  479     305   293    58   308
  480      28    14    12    30
  481     102   327    86    88
  482      72   303    56   305
  483      28   284    12    14
  484     283    13    12    14
  485       9    10   280    11
  486      52   287   299    50
  487     284   283    12    14
  488      72   305    56    74
  489     344   124   110   108
  490     127   343   342   355
  491     152   375   377   168
  492     320    94    92   332
  493      56   293   291    40
  494     317   305    74   320
  495     315   303    72   317
  496     421   425   422   256
  497     106   344   122   341
  498     260   240   264   244
  499      62   307    78   308
  500     319    79    78    94
  501     307    79    78   319
  502      63   307    78    62
  503      63    79    78   307
  504     308   320    78    76
  505      76    60    78   308
  506      62   308    78    60
  507     307   320    78   308
  508     320   319    78    94
  509     307   320   319    78
  510     356   124   110   344
  511     126   124   110   356
  512     103   121   338   119
  513     120   104   122   106
  514      90   329    88   317
  515       7   274     6     5
  516     305   308    58    74
  517     317   303    72   305
  518      56   305   291   293
  519      10    24    26     8
  520      24   281    26    40
  521     132   116   347   114
  522      54   303    70   301
  523     104   329    88   106
  524      74    92    90   320
  525     208   204   416   228
  526     293   281    42   296
  527     344   124   122   356
  528      74   317    90    72
  529     353   339   120   341
  530     118   104   102   120
  531     332   317    90   320
  532      56   303    70    54
  533      92   320    74    76
  534     320   308    74    76
  535     320   305    74   308
  536      66    52    68   299
  537     138   154   368   140
  538     311   310    64   298
  539     178   164   383   162
  540      72   317    88   315
  541     329   315    88   317
  542      38    40   291   278
  543     108   344   122   106
  544     108   124   122   344
  545     106   124   122   108
  546     154   170   152   168
  547     172   170   380   392
  548     190   172   392   188
  549     313   301    70   315
  550      42    28    26    44
  551     284   281    10   280
  552       7     9     8   277
  553       4     5     6   274
  554      60   296    42    44
  555      12    11    13   283
  556     280    11    10   283
  557      12   284    10   283
  558     280   283    10   284
  559     308   296    58    60
  560      54    40   291    38
  561      12    11   283    10
  562      42   284    26    28
  563      56   293    58   305
  564      42   296    58   293
  565     308   293    58   296
  566      40    42    58   293
  567      40   293    58    56
  568      42   281    26   284
  569      77    95   318    93
  570     280   281     8   277
  571      10   281     8   280
  572     327   339   102   325
  573      24   281     8    10
  574     278   274   275     6
  575      40   293   291   278
  576     278    22   275    38
  577     274     7     6   277
  578     186   389   392   404
  579      20   272     2     4
  580      66   311    68    84
  581      50    52    68    66
  582     183   201   185   398
  583       6     4   275    22
  584      16    34    32    18
  585      33    17    32   271
  586     115   133   345   131
  587       1     2     0   271
  588      70    84    68   313
  589     327   104   102   339
  590      69    87   312    85
  591     286   298   299    48
  592      20    22   275     4
  593      54    40    38    56
  594     272    36   275    20
  595     278     6   275    22
  596      18   272     2    20
  597       3     4     2   271
  598     272    18    32    34
  599      16    18    32   272
  600     272   271     2     4
  601      18    36    34    20
  602      20   272    34    18
  603     311    82    64    80
  604       2   272     0   271
  605       1    16    17   271
  606      48   287    32    50
  607      50    52    66   299
  608     286   271    48   287
  609      16   272    32   271
  610      36   272   289   287
  611     335    96    98   323
  612      33   271    48   286
  613      52   287    50    36
  614      48   271    32   287
  615       8   281   278   277
  616      82   100    98   323
  617       2   272    16     0
  618       2    18    16   272
  619       0    18    16     2
  620       0   272    16   271
  621      16   271    32    17
  622     325    84   323   100
  623     102   325    86   327
  624     322    96   335   323
  625      50   287   299    48
  626      52   301   299   287
  627      22    40   278    24
  628       6     8   278   277
  629      24     8   278     6
  630       4   271   275   272
  631     291   278   275    38
  632      38    36   275   289
  633     301   303   289    54
  634     291    38   289    54
  635      52   287   289   301
  636      36   287   289    52
  637      38    36   289    52
  638     323   100   335   337
  639      52    54   289    38
  640      52   301   289    54
  641       4   274   275   271
  642      88   329   327   315
  643     104   329   327    88
  644     341   329   327   104
  645     104   339   327   341
  646      52   301    68   299
  647     114   128   130   112
  648     112   334    97    96
  649     212   407   406   394
  650      48    50    66   299
  651     236   238   258   256
  652     323   325   311    84
  653     313    84   311   325
  654     122   353   136   120
  655     160   162   371   146
  656     310   311    64    80
  657      65   298    64   310
  658      49   298    64    65
  659     311    84    82   323
  660      66    84    82   311
  661     310   322    80    81
  662     156   158   368   140
  663     154   138   365   152
  664     382   394   192   177
  665     323   310    80   311
  666      81    96    97   322
  667     323    96    80   322
  668     323   322    80   310
  669     146   128   130   144
  670     323   311    80    82
  671     130   144   359   146
  672     129   144   145   358
  673     130   132   347   114
  674     130   146   359   148
  675     327   315    86    88
  676     396   197   393   181
  677     120   339   118   104
  678     114   335    98   116
  679     100   116    98   335
  680     313   327    86   325
  681     313   315    86   327
  682     116   100   118   337
  683     118   100   102   337
  684     389   387   168   375
  685     369   382   370   161
  686     377   380   365   154
  687      88   104    86   102
  688     136   353   365   351
  689      70   301    68    54
  690     299   311    68    66
  691     337   100   102   325
  692      54    72    70    56
  693     118   337   102   339
  694     325   339   102   337
  695      70   315    86   313
  696      70    72    86   315
  697      88    72    86    70
  698      88   315    86    72
  699     102    84    86   100
  700     325   100    86    84
  701     102   100    86   325
  702     313    84    68   311
  703     311   299    68   313
  704     359   146   371   148
  705     134   363   349   351
  706      57    75   304    73
  707     395   176   194   178
  708     166   150   373   148
  709     140   126   368   356
  710     113   333   346   345
  711     130   128   359   144
  712     162   176   383   178
  713     181   199   183   396
  714     335   334   347   112
  715     198   411   218   409
  716     132   150   361   134
  717     221   426   423   239
  718     134   132   349   361
  719     182   399   184   200
  720     380   158   368   156
  721     114   128   347   130
  722     256   257   421   424
  723     112   114   347   335
  724     212   394   192   395
  725     114   116   347   335
  726     405   417   213   215
  727     194   214   196   216
  728     151   374   360   372
  729     359   148   361   132
  730     359   144   371   146
  731     144   162   160   146
  732     146   164   162   148
  733     387   166   373   385
  734     283   296   295    46
  735     198   216   218   196
  736     382   177   192   176
  737     248   247   430   246
  738     377   152   365   363
  739     230   419   232   252
  740     395   407   196   194
  741     216   214   196   407
  742     225   245   429   227
  743     162   148   371   146
  744     347   128   359   130
  745     162   180   178   164
  746     118   134   349   351
  747     182   166   385   164
  748     160   176   383   162
  749     257   420   423   237
  750     171   390   388   187
  751     134   361   349   363
  752     182   387   399   385
  753     164   371   373   385
  754     161   179   163   381
  755     383   162   371   160
  756     160   146   371   144
  757     130   148   359   132
  758     118   116   349   134
  759     385   166   373   164
  760     150   134   363   361
  761     130   132   359   347
  762     118   339   351   337
  763       1     2   271     3
  764     361   132   349   347
  765     357   145   358   129
  766     162   164   371   148
  767     383   164   371   162
  768     134   116   349   132
  769     375   166   373   387
  770     118   120   351   339
  771     153   364   362   376
  772     399   385   397   182
  773     180   182   397   385
  774     361   148   373   150
  775     134   120   351   118
  776     364   137   350   352
  777     249   268   248   430
  778     424   428   425   258
  779     164   166   373   148
  780     351   363   365   136
  781     363   361   375   150
  782     132   116   349   347
  783     335   116   349   337
  784     347   116   349   335
  785     375   150   373   166
  786     375   361   373   150
  787     383   180   385   164
  788     182   164   385   180
  789     383   180   397   385
  790     383   164   385   371
  791     367   158   142   368
  792     430   229   225   415
  793     411   425   220   218
  794     164   148   373   371
  795     361   359   373   148
  796     371   148   373   359
  797     194   395   192   176
  798     397   383   395   180
  799     176   178   395   383
  800     217   237   219   420
  801     371   160   370   383
  802     212   419   232   230
  803     397   409   198   196
  804     383   178   395   180
  805     368   126   367   355
  806     406   405   213   193
  807     395   178   194   180
  808     422   425   218   236
  809     357   133   345   360
  810     186   389   401   184
  811     190   174   379   380
  812     222   240   431   244
  813     425   422   256   236
  814     175   174   379   190
  815     407   419   214   212
  816     182   399   198   397
  817     127   367   354   143
  818     213   233   417   231
  819     406   212   418   419
  820     113   128   346   112
  821     405   215   213   193
  822     407   394   212   395
  823     397   180   196   182
  824     397   409   196   395
  825       3    21   270    19
  826     194   407   214   192
  827     409   411   218   425
  828     395   180   196   397
  829     216   419   234   214
  830     383   176   192   395
  831     383   382   192   176
  832     395   382   192   383
  833     411   397   198   399
  834     395   407   192   212
  835     194   407   192   395
  836     421   254   418   255
  837     408   197   393   396
  838     255   256   257   421
  839     230   252   250   419
  840     411   409   198   397
  841     387   166   184   168
  842     194   178   196   180
  843     375   387   168   166
  844     345   357   131   133
  845     409   422   216   407
  846     407   419   216   214
  847     407   422   216   419
  848     223   203   412   414
  849     248   247   249   430
  850     236   422   254   234
  851     236   238   256   425
  852     194   407   196   214
  853     216   407   196   409
  854     395   409   196   407
  855     196   182   198   397
  856     196   409   198   216
  857     196   180   198   182
  858     375   166   168   150
  859     422   409   218   425
  860     234   236   218   216
  861     422   236   218   234
  862     234   216   218   422
  863     216   409   218   422
  864     198   409   218   216
  865     242   224   226   244
  866     172   170   392   188
  867     422   419   254   234
  868     232   419   254   252
  869     234   419   254   232
  870     201   185   398   400
  871       7    25   276    23
  872     387   182   184   166
  873     392   210   391   190
  874     187   207   402   203
  875     256   238   258   425
  876     351   120   136   353
  877     184   202   401   186
  878     198   411   220   218
  879     236   238   220   218
  880     236   425   220   238
  881     218   425   220   236
  882     258   238   260   240
  883     184   389   401   387
  884     229   246   228   430
  885     182   399   200   198
  886     244   260   431   264
  887     380   156   368   154
  888     220   198   200   411
  889     399   411   200   198
  890     190   188   392   404
  891     138   154   365   368
  892     231   253   417   251
  893     138   136   365   152
  894     150   134   136   363
  895     182   387   184   399
  896     134   118   136   120
  897     168   389   184   387
  898     172   156   380   154
  899     351   363   136   134
  900     351   134   136   120
  901     258   260   427   428
  902     209   415   228   208
  903     136   120   138   122
  904     122   124   138   356
  905     122   353   138   136
  906     122   356   138   353
  907     240   260   428   431
  908     138   353   365   136
  909     138   136   152   154
  910     375   150   152   363
  911     168   150   152   375
  912     150   134   152   136
  913     170   168   377   389
  914     184   168   186   389
  915     170   389   186   168
  916     392   170   377   389
  917     427   431   260   430
  918     138   156   154   140
  919     190   174   392   172
  920     200   411   413   220
  921     259   260   261   427
  922     222   240   428   431
  923     220   240   428   222
  924     380   174   368   158
  925     416   228   415   208
  926     367   158   368   174
  927     253   254   418   252
  928     204   224   416   228
  929     379   174   159   367
  930     141   159   143   366
  931     140   158   368   142
  932     260   264   430   431
  933     204   188   404   206
  934     354   141   366   139
  935     256   422   421   254
  936     140   154   368   156
  937     403   416   415   208
  938     415   228   430   229
  939     200   220   413   222
  940     181   199   396   197
  941     154   168   377   170
  942     404   204   416   208
  943     206   224   416   204
  944     403   416   208   404
  945     378   157   366   159
  946     242   246   431   224
  947     402   415   414   205
  948     208   210   404   204
  949     363   375   377   152
  950     226   224   416   206
  951     209   403   210   211
  952     119   336   350   338
  953     140   356   368   138
  954     415   209   229   205
  955     174   175   379   159
  956     414   402   205   207
  957     391   191   390   175
  958     430   269   247   249
  959     225   415   205   414
  960     374   388   386   169
  961     169   376   374   388
  962     225   243   429   245
  963     244   240   431   260
  964     172   174   380   156
  965     119   137   350   135
  966     220   240   238   428
  967     226   244   431   242
  968     247   430   225   243
  969     186   206   202   404
  970     190   188   404   204
  971     168   375   377   389
  972     126   367   355   127
  973     262   242   431   264
  974     242   244   431   264
  975     220   411   428   425
  976     413   416   401   202
  977     368   154   365   380
  978     152   168   377   154
  979     184   200   401   202
  980     190   174   380   392
  981     368   353   365   138
  982     392   174   380   172
  983     258   238   428   425
  984     154   152   365   377
  985     263   265   429   243
  986     126   368   367   142
  987     222   226   431   416
  988     416   224   431   228
  989     242   262   431   266
  990     226   224   431   416
  991     413   220   428   222
  992     266   246   431   242
  993     222   244   431   226
  994     220   425   428   238
  995     399   200   401   184
  996     171   189   173   390
  997     257   258   424   256
  998     246   228   431   224
  999     240   258   428   260
 1000     402   415   205   403
 1001     226   242   431   224
 1002     208   210   403   404
 1003     399   411   413   200
 1004     391   404   403   210
 1005     159   379   378   175
 1006     202   222   413   416
 1007     202   200   413   222
 1008     127   343   126   111
 1009     200   399   401   413
 1010     203   414   223   227
 1011     184   387   401   399
 1012     404   202   401   416
 1013     186   202   401   404
 1014     404   389   401   186
 1015     165   183   384   181
 1016     221   241   223   426
 1017     151   362   360   374
 1018     255   256   421   254
 1019     223   414   429   227
 1020     227   205   207   414
 1021     243   265   429   245
 1022     213   418   231   417
 1023      93   111   330   109
 1024     431   246   430   228
 1025     223   245   227   429
 1026     414   430   429   225
 1027     141   354   366   143
 1028     197   219   199   408
 1029     143   367   366   159
 1030     391   190   175   379
 1031     159   367   158   143
 1032     215   235   417   233
 1033     367   380   174   368
 1034     367   380   379   174
 1035     379   392   190   380
 1036     379   392   391   190
 1037     268   248   430   246
 1038     266   246   430   431
 1039     266   268   430   246
 1040     431   264   430   262
 1041     268   262   430   264
 1042     262   266   430   431
 1043     262   268   430   266
 1044     171   376   169   388
 1045     163   181   165   381
 1046     400   414   412   203
 1047     247   430   267   269
 1048      13    31   282    29
 1049     237   420   423   219
 1050     259   427   424   258
 1051     239   261   241   426
 1052     398   412   410   201
 1053     151   169   374   167
 1054     430   268   265   269
 1055     264   268   265   430
 1056     418   422   254   421
 1057     115   133   117   345
 1058     426   427   259   261
 1059     210   211   403   191
 1060     415   209   205   403
 1061     225   229   205   415
 1062      81    96   322    80
 1063     417   418   253   255
 1064     403   210   191   391
 1065     378   391   175   379
 1066     376   390   388   171
 1067     208   209   403   210
 1068     390   175   173   378
 1069     139   157   141   366
 1070     189   211   191   402
 1071     139   352   366   354
 1072     366   379   378   159
 1073     415   209   403   208
 1074     209   415   229   228
 1075     205   403   211   402
 1076     209   403   211   205
 1077     189   211   402   207
 1078     378   390   376   171
 1079     403   402   191   211
 1080     390   403   402   191
 1081     190   191   391   175
 1082     191   190   391   210
 1083      81    99   321    97
 1084     378   157   155   366
 1085     364   155   376   153
 1086     142   367   127   143
 1087     183   185   386   398
 1088     378   391   390   175
 1089     390   403   191   391
 1090     378   171   376   155
 1091     241   265   429   261
 1092     402   191   189   390
 1093     390   402   187   189
 1094      37    55   288    53
 1095     400   203   412   201
 1096     157   175   159   378
 1097     147   165   369   163
 1098     294   307   306    63
 1099     173   191   175   390
 1100     113   131   345   129
 1101     135   153   137   362
 1102     155   173   157   378
 1103     350   348   135   362
 1104     185   400   386   398
 1105     425   256   424   258
 1106     221   219   423   410
 1107     378   390   171   173
 1108     372   357   360   149
 1109     390   402   388   187
 1110     347   128   346   359
 1111     207   414   203   227
 1112      27    45   282    43
 1113     153   171   155   376
 1114     263   430   429   265
 1115     378   155   376   364
 1116     366   378   364   155
 1117     137   155   139   364
 1118     352   139   364   137
 1119     201   223   203   412
 1120     366   139   364   352
 1121     155   139   364   366
 1122     402   414   203   207
 1123     217   219   408   420
 1124     225   227   429   414
 1125     109   127   342   125
 1126     187   207   189   402
 1127     223   221   426   412
 1128     223   241   429   426
 1129     241   265   245   429
 1130     402   187   400   388
 1131     203   187   400   402
 1132     185   203   187   400
 1133     388   187   400   185
 1134     167   185   169   386
 1135     412   201   398   400
 1136     419   212   418   230
 1137     423   427   424   259
 1138     235   257   237   420
 1139     418   422   419   254
 1140     255   420   421   257
 1141     396   181   393   381
 1142     381   181   393   179
 1143     412   223   429   426
 1144     412   414   429   223
 1145     263   243   429   267
 1146     430   267   429   243
 1147     263   267   429   430
 1148     429   241   261   426
 1149     430   265   261   429
 1150     426   430   261   429
 1151     167   151   372   374
 1152     427   260   261   430
 1153     265   430   261   264
 1154     260   264   261   430
 1155     193   212   213   406
 1156     217   405   215   417
 1157     199   219   410   408
 1158     197   199   396   408
 1159     423   259   424   257
 1160     257   259   424   258
 1161     235   420   417   255
 1162     199   221   410   219
 1163     352   121   350   338
 1164     119   338   350   121
 1165     237   259   239   423
 1166     137   121   350   352
 1167     131   149   133   357
 1168     239   426   423   259
 1169     119   348   350   336
 1170     396   199   410   408
 1171     424   428   258   427
 1172     398   199   410   396
 1173     423   427   259   426
 1174     221   201   410   412
 1175     221   412   410   426
 1176     419   252   418   254
 1177     398   201   410   199
 1178     199   221   201   410
 1179     420   424   257   423
 1180     219   239   221   423
 1181     360   133   345   348
 1182     362   151   360   135
 1183     350   364   362   137
 1184     165   183   167   384
 1185     398   396   183   199
 1186     362   137   135   350
 1187     333   348   345   117
 1188     119   137   121   350
 1189      33    51   285    49
 1190     374   169   386   167
 1191     113   345   346   129
 1192     371   359   358   144
 1193     408   420   405   217
 1194     151   169   153   374
 1195     151   362   374   153
 1196     153   376   374   169
 1197     362   376   374   153
 1198     384   167   165   372
 1199     183   167   384   386
 1200     231   418   251   417
 1201     167   374   372   386
 1202     167   386   372   384
 1203     113   128   129   346
 1204     183   398   384   396
 1205     386   398   384   183
 1206     149   167   151   372
 1207     186   206   404   188
 1208     117   348   345   133
 1209      22    40    38   278
 1210      75    93   318    91
 1211     115   113   345   333
 1212     135   348   360   362
 1213     151   372   360   149
 1214     357   133   360   149
 1215     382   177   161   381
 1216     161   145   370   369
 1217     135   133   360   348
 1218     133   151   135   360
 1219     147   165   149   369
 1220     129   144   358   128
 1221     163   165   369   381
 1222      11    29   282    27
 1223     165   384   381   181
 1224     382   381   161   369
 1225     427   431   428   260
 1226     145   163   147   369
 1227     165   384   369   381
 1228     405   418   213   417
 1229     165   372   369   384
 1230     149   357   369   372
 1231     382   177   381   394
 1232     253   254   255   418
 1233     250   252   418   419
 1234     406   212   213   418
 1235     381   177   393   394
 1236     251   252   253   418
 1237     250   419   418   230
 1238     231   250   251   418
 1239     358   128   346   129
 1240     358   357   370   145
 1241     426   430   427   261
 1242     113   131   115   345
 1243     129   147   131   357
 1244     345   357   129   131
 1245     358   359   346   128
 1246     347   334   346   112
 1247     231   250   418   230
 1248      61    79   306    77
 1249     359   128   358   144
 1250      67    85   309    83
 1251     105   123   340   121
 1252      51    69   297    67
 1253     345   357   358   129
 1254     161   382   370   176
 1255     144   160   370   371
 1256     383   160   370   176
 1257     160   144   370   145
 1258     419   407   406   212
 1259     358   145   370   144
 1260     160   145   370   161
 1261     383   176   370   382
 1262     233   255   235   417
 1263      41    59   292    57
 1264     144   371   370   358
 1265     176   160   370   161
 1266     179   177   393   381
 1267     405   197   393   408
 1268     417   421   418   255
 1269     217   197   405   408
 1270     249   268   430   269
 1271     217   420   417   235
 1272     405   420   417   217
 1273     253   417   251   418
 1274     406   418   213   405
 1275     405   197   195   393
 1276     131   149   357   147
 1277     212   230   213   418
 1278     195   217   197   405
 1279     179   197   181   393
 1280     163   181   381   179
 1281      73    91   316    89
 1282     231   253   233   417
 1283     125   143   354   141
 1284     226   204   224   206
 1285     213   233   215   417
 1286     239   261   426   259
 1287     406   394   193   212
 1288     135   153   362   151
 1289       1    16   271     0
 1290     195   405   193   215
 1291     230   418   231   213
 1292     393   177   193   394
 1293     393   394   193   406
 1294     192   394   193   177
 1295     212   394   193   192
 1296     406   405   193   393
 1297     177   195   179   393
 1298     393   405   193   195
 1299     366   379   159   367
 1300     330   343   342   111
 1301      25    43   279    41
 1302      23    41   276    39
 1303       5    23   273    21
 1304      19    37   270    35
 1305      39    57   290    55
 1306     367   159   158   174
 1307     343   127   342   111
 1308     158   143   367   142
 1309     221   241   426   239
 1310      53    71   300    69
 1311     421   425   256   424
 1312     197   219   408   217
 1313     171   189   390   187
 1314      59    77   306    75
 1315     123   141   354   139
 1316      95   110   331   111
 1317     391   404   210   392
 1318     179   197   393   195
 1319     188   210   206   204
 1320     219   239   423   237
 1321     235   257   420   255
 1322     121   139   352   137
 1323     195   217   405   215
 1324      43    61   294    59
 1325      31    46   283    47
 1326     141   159   366   157
 1327     343   126   110   356
 1328      65    83   309    81
 1329      85   103   324   101
 1330     414   430   225   415
# Generated by /tmp/dc-viability.8juxjd/tetgen-build/tetgen -pYM /tmp/dc-viability.8juxjd/shell-n8.poly
