9 3 0 0
0 0.65146185233723664 0.91324024988277175 0.02585054461674996
1 0.53888888888888886 0.80999999999999994 -0.64236111111111116
2 0.59200939350614135 0.81514941825505605 0.038587637222452273
3 0.56111111111111101 0.82166666666666655 -0.30902777777777785
4 0.74976669639865223 0.93426503795154348 0.032390906042764539
5 0.7055555555555556 0.80333333333333323 -0.63541666666666674
6 0.75022352040679297 0.767916716818978 0.033248208686977546
7 0.72777777777777775 0.81833333333333325 -0.30208333333333337
8 0.6333333333333333 0.81416666666666659 -0.47222222222222227
14 1
1 0 1
3 0 1 2
1 0 2
3 0 1 4
1 0 3
3 0 2 6
1 0 4
3 0 4 6
1 0 5
3 1 2 3
1 0 6
3 1 3 8
1 0 7
3 1 4 5
1 0 8
3 1 5 8
1 0 9
3 2 3 6
1 0 10
3 3 6 7
1 0 11
3 3 7 8
1 0 12
3 4 5 6
1 0 13
3 5 6 7
1 0 14
3 5 7 8
0
0
