# vtk DataFile Version 2.0
Tetrahedron subdivided into four hexahedra
ASCII
DATASET UNSTRUCTURED_GRID
POINTS 32 double
-1 -0.57735026918962584 -0.23899999999999999
0 -0.57735026918962584 -0.23899999999999999
-0.5 0.28867513459481292 -0.23899999999999999
0 1.5641182083243394e-17 -0.23899999999999999
-0.5 -0.28867513459481292 0.36099999999999999
0 -0.38490017945975052 0.16099999999999998
-0.33333333333333331 0.19245008972987529 0.16099999999999998
0 0 0.060999999999999999
1 -0.57735026918962584 -0.23899999999999999
0 -0.57735026918962584 -0.23899999999999999
0.5 0.28867513459481292 -0.23899999999999999
0 1.5641182083243394e-17 -0.23899999999999999
0.5 -0.28867513459481292 0.36099999999999999
0 -0.38490017945975052 0.16099999999999998
0.33333333333333331 0.19245008972987529 0.16099999999999998
0 0 0.060999999999999999
0 1.1547005383792517 -0.23899999999999999
-0.5 0.28867513459481292 -0.23899999999999999
0.5 0.28867513459481292 -0.23899999999999999
0 1.5641182083243394e-17 -0.23899999999999999
0 0.57735026918962584 0.36099999999999999
-0.33333333333333331 0.19245008972987529 0.16099999999999998
0.33333333333333331 0.19245008972987529 0.16099999999999998
0 0 0.060999999999999999
0 0 0.96099999999999997
-0.5 -0.28867513459481292 0.36099999999999999
0.5 -0.28867513459481292 0.36099999999999999
0 -0.38490017945975052 0.16099999999999998
0 0.57735026918962584 0.36099999999999999
-0.33333333333333331 0.19245008972987529 0.16099999999999998
0.33333333333333331 0.19245008972987529 0.16099999999999998
0 0 0.060999999999999999
CELLS 4 36
8 0 1 3 2 4 5 7 6
8 8 9 11 10 12 13 15 14
8 16 17 19 18 20 21 23 22
8 24 25 27 26 28 29 31 30
CELL_TYPES 4
12
12
12
12
CELL_DATA 4
SCALARS hexahedron int 1
LOOKUP_TABLE default
0
1
2
3
