# vtk DataFile Version 2.0
Frozen dual-contouring surface
ASCII
DATASET POLYDATA
POINTS 636 double
-0.22244591677197958 0.038162790111127644 0.11247278516778096
-0.21727022778426672 0.036216279541759093 0.13090371382916896
-0.21962815949181735 0.059568214535289356 0.10161517865395438
-0.21427043262312673 0.059243028318307162 0.12415256891477223
-0.21227855787531938 0.091028451096175744 0.091435231968317196
-0.20490076625112508 0.10029280239634834 0.10813852920321362
-0.22354903478393326 -0.060729501921313898 0.08834664683554122
-0.21831752774416077 -0.061339730820422322 0.11484116593707504
-0.20794969371227556 -0.058597218163206691 0.14955863189141683
-0.22844938598777834 -0.028238014856030294 0.045776506017721187
-0.22736195135739085 -0.03693403438557892 0.073924321065831175
-0.22343766429574163 -0.027893292028527125 0.10991242058763694
-0.21423659448112925 -0.023930686602422965 0.14391345576643141
-0.22421364893900667 0.01324529620713266 0.0093843789721458574
-0.22753860370617099 0.0031978010300769246 0.030904562419843053
-0.22882317458958445 0.01254811522441448 0.067527758271837351
-0.22493286371329174 0.020391746487697645 0.10330906257166098
-0.21728945740656003 0.015356507289266897 0.13586956964229419
-0.21748818151363952 0.048166927597257152 0.00049320576179865457
-0.22133870532586652 0.052388707036286598 0.024963522383686414
-0.22330749047637902 0.056703815396677612 0.058496765569324219
-0.22189954850848478 0.058929698862901773 0.085153149173219533
-0.20349066964932883 0.091624491678902853 -0.0052061571181817937
-0.20725190233267415 0.094485325625864924 0.015473246490238488
-0.21056748961787747 0.097456146649143385 0.047834433008321117
-0.20917771491678269 0.10133244737806886 0.077822820500248774
-0.20224457490178885 0.11547371776040072 0.091129518948338095
-0.20530956880215268 -0.11877929700619315 0.057155660346945247
-0.20361067486513917 -0.11813090726186731 0.082127885235425566
-0.19783258102374041 -0.11509480291671634 0.11847792639920604
-0.1877707934716395 -0.10935160955468444 0.15331754743023901
-0.21242260415232592 -0.087665018357240707 0.013443769534927671
-0.21344646288075092 -0.094591970375134699 0.043535256356556064
-0.21812724599324448 -0.08087517225105563 0.078621545454386446
-0.21137557521453104 -0.085004385887566258 0.11716889293958641
-0.20109959518456444 -0.081246833234167107 0.15212038156525554
-0.21087693060565504 -0.04977859742888411 -0.023710732381024075
-0.21661924418271866 -0.056919527939483336 0.00084957807527194127
-0.22542276427960234 -0.045108990556473348 0.037222605709744908
-0.22602947164235446 -0.057422075486265191 0.063484216500377721
-0.20036631117837422 -0.00014825858172372655 -0.056845045187708332
-0.20837080154953597 -0.011680841693392688 -0.037957954278943773
-0.22154995472752689 -0.0040577166643245618 -0.00069529960771778367
-0.2271069820592094 -0.017407571308495764 0.020209546462745739
-0.19397764123853967 0.031249547813024095 -0.061770974452333378
-0.20294287916391496 0.03727221489336742 -0.042080837951056521
-0.21297885028605806 0.044423318800313874 -0.016293008240119859
-0.1848285444899935 0.06491983457577348 -0.065443895955631146
-0.18598263343367266 0.082532047592818708 -0.051345281769980024
-0.19858698403139347 0.088414074956043587 -0.021376735706501965
-0.16692861877832219 -0.1684931494993982 0.060833549888079437
-0.1675044709312612 -0.16576145503118486 0.079683528802682632
-0.16536179175411281 -0.15961390706752904 0.11616717633778688
-0.15735813170740925 -0.15195143615116524 0.15092940739041213
-0.17751763504767215 -0.14113205953776617 -0.012496263848049046
-0.18192851953322026 -0.14157254122033075 0.0067299511326473632
-0.18555716717789492 -0.14414078701994978 0.046678580660825371
-0.18489600677130463 -0.14524107467169611 0.081293212726617936
-0.18224796289104983 -0.14067053432089394 0.11822162499496344
-0.17345368597654792 -0.13378856722720109 0.15323412276309289
-0.1810849380125307 -0.10492969465685502 -0.052114676849873635
-0.18578110002269116 -0.11532435133871335 -0.027070714159500624
-0.20063401419402696 -0.10798411001622812 0.0036444432298020713
-0.20407408317485054 -0.1174987847342059 0.032055778456212915
-0.17427542471743532 -0.059527234052085938 -0.086409603944643185
-0.18293699821957674 -0.07269139226142543 -0.066242183880604627
-0.20223127744072372 -0.06855609233111655 -0.033476442064689881
-0.20900920838102077 -0.081555400612574047 -0.011547453125640756
-0.17337187536381748 -0.033546507714566423 -0.091448800889637069
-0.19092554507106066 -0.023049914616019723 -0.068305457053748533
-0.20305347412934316 -0.032661554324225212 -0.049003281554925227
-0.16749782478346986 0.015637482632607731 -0.098800690392918861
-0.18309544420228374 0.024707589574544744 -0.078230340192934497
-0.15402055888530744 0.061866760933652377 -0.10137962575722823
-0.16982795127494713 0.072905722212509794 -0.079431844133353358
-0.17300012938703513 0.0940289899125199 -0.065884528360390729
-0.133788760168256 -0.18867407704787231 0.018881391742094727
-0.14592465323733189 -0.18217652312586374 0.043212901075305434
-0.1435856620491249 -0.18377676161256143 0.075717296096245279
-0.13637355346432337 -0.18312277270680488 0.11082217453712939
-0.1282563896488233 -0.17680307214976312 0.14486108423623947
-0.15705411083068058 -0.15496939856461078 -0.02209326311355056
-0.15098178700681411 -0.17090519074196794 0.0068009532430575561
-0.15878436393829118 -0.17162991805662683 0.035060698703604114
-0.14108051833341298 -0.12197301463731047 -0.086958271488893346
-0.15595257891520758 -0.12366087340512655 -0.06590562562141275
-0.1580276287438605 -0.14294936293733479 -0.040030942229040772
-0.15347886436123936 -0.087547701956186524 -0.092976331372117985
-0.16616405221635763 -0.094124236993318747 -0.076778953837782826
-0.13499811412052917 -0.040650222507916008 -0.12500695201168735
-0.15023847440607083 -0.047901550069501211 -0.11010863187355868
-0.13216286924857534 -0.0032309554218718211 -0.12912112123774394
-0.15042586520798712 0.0063621750814352833 -0.11507496725969196
-0.12056659902199306 0.043038256633473715 -0.1313156740006329
-0.13760421214943228 0.052565285617670883 -0.11703134739936498
-0.079128155921231028 -0.21152278919371495 0.11256998664279416
-0.078615345713013499 -0.20580451604511382 0.1313468470720025
-0.1108888686525541 -0.19801317049697814 0.011259739217598125
-0.10836812909241872 -0.20258123028819286 0.033343214554646401
-0.10378404932079546 -0.20638017445459822 0.067941251543632245
-0.095526336807418261 -0.20612328798082863 0.10367627803578508
-0.096832328859438821 -0.19672805394443732 0.13669403256137125
-0.10530673969310278 -0.17283249333041986 -0.056847053596508955
-0.1176014443019037 -0.17551606537768022 -0.038370023277720842
-0.11251785775589088 -0.19197699623131936 -0.00610119950238165
-0.11614793906240045 -0.13512416590654508 -0.092383350551547727
-0.11870863440810311 -0.15525282001678292 -0.068123380103625425
-0.13521703694358991 -0.15998167398927132 -0.049855968989188065
-0.10323073918545539 -0.097255558550735435 -0.1251764645564
-0.11704510912370907 -0.10667981675747354 -0.11092261054215577
-0.11326206417542858 -0.06516943854364525 -0.1306219675937341
-0.13136825766068147 -0.075462873325152405 -0.11955423026828475
-0.10452181101655342 -0.016973669986581751 -0.14233021785316263
-0.097352031404025929 0.030368682565766636 -0.14364609454822502
-0.057908728571997858 -0.2181122583247439 0.10513709794929875
-0.055769241303503803 -0.21362629892994239 0.12374692783232751
-0.067011298822885437 -0.21184206803495023 0.0010168687570935675
-0.065272290842662131 -0.21690443968390025 0.024800335494864229
-0.062504468416414716 -0.22055084134146577 0.058263305915695153
-0.059601994870709198 -0.21985555280529315 0.088719032821449079
-0.069974926587355643 -0.18348909125085466 -0.061712817597513916
-0.069214300152104197 -0.19399310297280861 -0.042126332094389485
-0.068010472505605754 -0.20620392724994918 -0.015740275031251548
-0.070285484784708835 -0.15304693659722701 -0.09896012857075738
-0.070220875613322964 -0.17104373419844321 -0.078148130500779123
-0.068954811565793847 -0.11322587017008073 -0.12922083209489815
-0.069797821200236712 -0.13385055615176367 -0.11522247048184434
-0.066975637806954841 -0.082039618658353297 -0.14238668293669779
-0.049184122970611054 -0.027674912052715214 -0.15955149285232581
-0.06381439112260745 -0.036407568673459158 -0.15433923772338529
-0.046893346932278548 0.0028593814256820081 -0.16111385069758033
-0.06641421447784053 0.01338389562383603 -0.15641503061215239
-0.036176995712690417 -0.22405133803278834 0.099263286905898987
-0.029146781556143277 -0.22123676150716218 0.11441813235725118
-0.03467091249882908 -0.21821990832326024 -0.0024711328944128003
-0.020364645657130104 -0.2227462243931074 0.013009588713925329
-0.020819008906048271 -0.22710136565384456 0.047076701412364627
-0.022153057299581509 -0.22667945094747299 0.082118832400924907
-0.0105495602647543 -0.22416275397410215 0.10742362913667694
-0.041153802611173899 -0.19011936902177276 -0.064103166020675867
-0.024499462100788166 -0.1991209297374486 -0.050040455715234231
-0.021065281199507482 -0.21422965730402405 -0.01691985366786438
-0.0049662163053493759 -0.22089986934342487 -0.0023060310220605466
-0.031831356295839823 -0.16150530824391932 -0.10057765066303122
-0.020954423182358291 -0.17779426320799532 -0.082177443748395654
-0.010129609189311868 -0.19316661845631763 -0.063468573401200878
-0.031413951235573868 -0.12344069952588062 -0.1309440938350904
-0.016199944088691721 -0.14475466603880069 -0.1156940792656122
-0.00064540612279784953 -0.16513880037238327 -0.099818688805316413
-0.018347832938576048 -0.10469664401182817 -0.14020096644521551
-0.00075584088220682162 -0.12749869321895899 -0.13038929294139806
-0.030362152898138334 -0.037011236542423588 -0.16058537571546161
-0.018730860844009094 -0.057532065434848456 -0.15681144044552403
-0.017354353192839456 -0.014649713400888654 -0.16266990402534418
-0.0024489906240552067 -0.038525651752038821 -0.16157143665506976
0.20560788130345684 0.072813680021855287 0.12700643789271018
0.20252843053436531 0.086783065047143018 0.12199133235447553
0.2115930598236552 -0.055508668082561351 0.11838093366018078
0.20257941792866607 -0.052699086208691973 0.14589963328530753
0.22356527607199195 -0.02324221439291756 0.048659612815920628
0.22202841839304266 -0.028956804011933318 0.072511808865943245
0.21687522537829787 -0.035457783103631693 0.10569354705763856
0.20717543414019349 -0.026908463552351162 0.14167548989392273
0.21844221221596619 0.022452974415705571 0.01088579398779152
0.22155304482249255 0.0078853331429669399 0.031786938775518289
0.22314803620514262 0.010049118220896816 0.06622554948643028
0.2196905393264954 0.014059623175393075 0.10018501825708702
0.21125437780159045 0.015925616086934737 0.13318035588178673
0.21326586470510203 0.046685893071568452 0.005175067799945041
0.21606233906509814 0.04983560623419131 0.023951518130642373
0.21837492207677406 0.054286007326275892 0.057391024907188067
0.21609645604999203 0.056601445513182573 0.090428615658489475
0.20960395687898922 0.05877614703967371 0.12127054750085287
0.20489808418889935 0.078984748588211584 -0.0010270314043706443
0.20245496367027208 0.093741575155137813 0.01229957493460688
0.20669990532506199 0.095356176027431627 0.046988582274329421
0.20615580344300954 0.096247338387678141 0.078989981954395813
0.20161109095475602 0.097750355725886848 0.10843589165175145
0.19723741748732537 -0.11429233028069542 0.086270434296497014
0.19216365135216473 -0.11167161650959237 0.11577601691227202
0.18189452433480624 -0.10574930416407972 0.14999606812613336
0.20730788019934124 -0.083651968822219411 0.016460877583616331
0.20845428613421424 -0.087328837200222914 0.041434174968545352
0.20693296411648249 -0.09109412238595449 0.074937195015393726
0.20740049756888182 -0.074948389926317249 0.11031940810667433
0.19464654491409994 -0.075611124853264947 0.14807647399811777
0.20558911300778096 -0.044387694485597318 -0.021300975165130787
0.2102343622480573 -0.054665396386723353 0.0020749937093179727
0.21917452248730571 -0.043302818698317355 0.03833043860922828
0.218875535004664 -0.052745202804355226 0.075581576210568061
0.21717537526112932 -0.055829120015657034 0.094844378134238072
0.20388926486428258 -0.012547039057079722 -0.030574609098236376
0.21483475476266606 0.00017164432245428963 -0.00029502897876911363
0.22070014109571412 -0.0079264661033159028 0.022440198361707308
0.1969642050045104 0.034636236262274883 -0.04105725761771168
0.20832347885538513 0.042753447038978445 -0.01159781204644577
0.18426732716164024 0.079948355629227974 -0.046660178605187799
0.19559506288147963 0.089048198685488675 -0.015976559807718102
0.19432213319334793 0.10697487451410655 -0.0032021475900071449
0.1630756865344633 -0.16331946841199391 0.088574972339309846
0.15997811270662365 -0.15878994087994869 0.11409451753534741
0.15137574115409774 -0.15100735670176479 0.14819979702951777
0.17801024443617219 -0.13971080098356656 0.015071181537587852
0.18122168443584991 -0.13978439752922661 0.042198328852006299
0.18111807204580921 -0.13991120503764085 0.075336160281901307
0.17627748694772816 -0.1371791665408757 0.11540335269686372
0.16693390146984938 -0.13024070186961609 0.14965814275522327
0.18248471176966893 -0.10648275182728199 -0.024830872501970889
0.19084221903437093 -0.11032027933166429 0.0035398765786333734
0.19792934071985419 -0.11356257170912842 0.042581547444531846
0.19932989728788617 -0.11506371990120139 0.06179024191740471
0.17866921822026197 -0.067200219937880071 -0.059748272964989024
0.19087697086028996 -0.071815583933361807 -0.035117484836690728
0.20268839484031187 -0.076011326490692158 -0.0086953748072200656
0.16534247506726041 -0.014799786173920908 -0.091076446375328746
0.1770044877477876 -0.026663004022102487 -0.073175052001583266
0.19500517099616643 -0.018633076294088696 -0.047845324236966261
0.16128657501671442 0.013196204490087184 -0.094824102738257407
0.17553167177790896 0.021461849426695573 -0.076204181845372032
0.18893672595099503 0.029341906782879981 -0.057722415060732987
0.15285078464421806 0.05249034352675111 -0.098650824883518159
0.15939819340222838 0.070592645487203801 -0.085297926480129432
0.17649797233769943 0.075234663186595607 -0.062678887378133152
0.13921645704244145 -0.18498400740578178 0.044652986078201583
0.1457787299936609 -0.17938034633442337 0.074496652436437605
0.13596231391143362 -0.18037272973173368 0.11010629193235114
0.12778310103436669 -0.17323178964657238 0.14378982533918791
0.14570159252082629 -0.15841620031625039 -0.023256809426224573
0.15557281978697848 -0.15921443074152725 0.0020251441902935309
0.1519419635352886 -0.17249947416407641 0.03636310532427809
0.16265506617868819 -0.16655178969621567 0.063999641380411462
0.14834760908633196 -0.12371619620305374 -0.060565834957128604
0.16006397394032887 -0.131016526908249 -0.036056558625991025
0.17134855504793167 -0.13813941307214192 -0.0099049442992656302
0.14238160064096156 -0.083345703230360738 -0.093641675516755882
0.15807406155965073 -0.091764070608606821 -0.071899124446188956
0.17389289810696038 -0.10020566989362141 -0.049399563283736514
0.14964655442566596 -0.041161119423803266 -0.099558348763873497
0.16520361378554402 -0.048229929408352364 -0.084427504730598055
0.1225871626763828 0.0065723562204106261 -0.12702464252236159
0.13875931992307705 -0.00069711441311359128 -0.11343586630599964
0.11847416799800758 0.030657976151298501 -0.12878735452737955
0.13141178931110983 0.056754571354041668 -0.11461976044552084
0.1435096551835883 0.082755051103051591 -0.10008336294870786
0.081034535020033077 -0.21205424261550618 0.1107508067426794
0.079267429446879756 -0.20582961862627397 0.13157196458231338
0.10330958109442549 -0.20092495895719562 0.0091572305161593433
0.1128188624253537 -0.19977574514064567 0.030632479986486778
0.1038032106743192 -0.20673107387060308 0.068011956059144146
0.096646727252231307 -0.20625565085280528 0.10252875220325353
0.097390046834744143 -0.19580475233095954 0.13664843461409368
0.098071407234317842 -0.17348533360077922 -0.056578894475910919
0.11292431307583646 -0.17481642504319223 -0.037602262189697873
0.11594271402509733 -0.19019777870443438 -0.00078772242493028934
0.13151682220461158 -0.18835244688510966 0.019463387593375694
0.10167500418383757 -0.13669655847179468 -0.09186814146120513
0.11449765647137179 -0.14747366831325631 -0.070461131740439539
0.12730666177849909 -0.1585512064058662 -0.048573675714823163
0.090476254990269719 -0.094923491044441158 -0.12373909338037535
0.11029994142579154 -0.10655512068613848 -0.10437815155826431
0.13048982637749465 -0.11853906607646651 -0.08487041994506285
0.097512117484783695 -0.068037942406113897 -0.12783431008858559
0.11833304848824824 -0.058698805735080163 -0.11879617988556054
0.10688990621227819 -0.016986664169346275 -0.13315138785926708
0.12479749026911317 -0.026409039335008568 -0.12349857755548606
0.099531836123229897 0.03527949559993572 -0.13741003326898404
0.11081103818420479 0.061145146596549148 -0.13013641758729769
0.058298813774327378 -0.2193519724493041 0.10233868072671926
0.055793988397144299 -0.21406965315110432 0.12385931326584683
0.067068189930558353 -0.21227403869626321 0.00077980737881796483
0.065338621006575476 -0.21779970315617625 0.024958656172967626
0.06257969697596022 -0.22162035221494289 0.058479828537950244
0.060005687979834507 -0.22125595119741187 0.0859438892198848
0.069709073490827736 -0.1820763160203254 -0.060505886395787731
0.069095101339115408 -0.19273514673927014 -0.042271029104995646
0.068026617949236534 -0.20614878289652139 -0.016052397944106563
0.069697566391881488 -0.14956297392977611 -0.09652830174266197
0.069768622489239124 -0.16773171606786319 -0.077087795377270063
0.067943376389054969 -0.10595876394502038 -0.12646026144299644
0.068813256757330535 -0.12651804498173763 -0.11299721683092337
0.066377196761245719 -0.081432364686120431 -0.13610762945589683
0.06300212995137712 -0.036390660477969849 -0.14861664827378895
0.058945043922093036 0.0096584586597548046 -0.1537644592987788
0.034943896608432716 -0.22512795488566981 0.097399502801082879
0.027929001581466273 -0.22184466351533089 0.1140822194458074
0.034467982422654676 -0.21856674995378111 -0.0027335852803478133
0.02023957655548702 -0.22309101508222531 0.013035635890989092
0.020838750980195348 -0.22753936728503402 0.047162855410600592
0.021415445712737062 -0.22736560221528285 0.081004916584137734
0.0093224821363993068 -0.22452716188030922 0.10702619687318596
0.042361505627857343 -0.18922052827996386 -0.06348541126643055
0.02524600043946653 -0.19865292354102904 -0.049970480189406877
0.020937247457697032 -0.21431215005604276 -0.017097044264913288
0.0047331489211083324 -0.22096360900938686 -0.0023501911580220075
0.031823477003816096 -0.16001407361772352 -0.099486071250297139
0.021605922167432994 -0.17691548988357841 -0.081892458752414715
0.011396998364096416 -0.19280075471570268 -0.063306981281415875
0.031505472900129554 -0.12027070338832517 -0.12957104124152646
0.016325577368360655 -0.14314161401922462 -0.11517659427080144
0.00078928671023159385 -0.16509203015201046 -0.099804179838516346
0.018455861264607642 -0.10442253561359294 -0.13837146988557275
0.0011155846416272218 -0.12736555337515088 -0.13036162034451956
0.021126946678600655 -0.055928989907920119 -0.15437343658121483
0.0085477717463575669 -0.0054249030950637078 -0.16332514364075676
0.020953708114796733 -0.012394380407363816 -0.16082425277448359
0.14200167926285764 0.18004901256630576 0.10817596401319556
0.13568789858372887 0.17605575779702093 0.13374115305561751
0.16302475500811942 0.16231946041978101 0.096739242519427199
0.15972072030269593 0.15680844922256609 0.12456983860992017
0.18209347162495018 0.14135283465077472 0.092288099115511613
0.1830346302429342 0.1323144700673832 0.11278099242966846
0.060162072723466187 0.22103328196135144 0.090049651104665215
0.058179788985076655 0.2164021713312152 0.11347564582237346
0.055684015173789653 0.20573106326033549 0.14780125306603148
0.091417738861853837 0.2126133163376509 0.044288353049402172
0.082723904049648148 0.2151004322988761 0.075503553583326194
0.088122504380487229 0.20782263829150585 0.11006813812547861
0.086637778907955793 0.19763497737687816 0.14397221775691751
0.12287308376334106 0.19092415108868063 0.0080808770738400575
0.11721376598766542 0.19831908301876783 0.030711649767425082
0.12819668892424238 0.19402442904359216 0.068285758525556128
0.12991342449921334 0.18935554921856196 0.10106278530747456
0.11755962548221933 0.18651171455862958 0.13870827925500648
0.15176252648829869 0.165445017728795 -0.0012673853124684398
0.15794334386595762 0.16682275522114606 0.025369895109530954
0.16246665930586962 0.16622170139930539 0.05892001362102274
0.16371556247031982 0.16468625950102314 0.080279052741907456
0.17483527511494032 0.13843070364660123 -0.0047358803742885607
0.18535565981063459 0.1289343957169076 0.012491217733302154
0.18828214274867894 0.13283208239905769 0.047535663854230248
0.18939759828868843 0.13160109197715558 0.078031758181691405
0.19410298518739871 0.11716206898504126 0.10553976684458517
0.0001913311884382228 0.22474892464730414 0.0888780831442086
0.00037197408360161712 0.21961525956951589 0.11471047946117183
0.00041826516567697748 0.20856566508206403 0.14913284966667784
0.032334278314026355 0.22163687148187119 0.016035323327881875
0.031174234725813862 0.22418529233922579 0.0414322546932403
0.030643097033450337 0.22410677550818578 0.077361198975444925
0.03019932132993251 0.21872163329763447 0.11438324249325685
0.0289156522401109 0.20797313054968092 0.14885586003692011
0.0653336040490725 0.20460755714811008 -0.023547518523208202
0.060194846829082084 0.21316725285451282 0.0026948372128926664
0.072974558103442513 0.21677985721930876 0.035912316507789491
0.062785142732301791 0.22228840743581776 0.065542738309925228
0.10031881936692133 0.17498212268892721 -0.057512834620819499
0.094812109749937784 0.18737631174913763 -0.03726186703435961
0.10727179185576463 0.19626821368285682 -0.0014051652039339274
0.097228187027929402 0.20846478639712415 0.019341715515329837
0.12510141829869836 0.15322664812213863 -0.062707079474172228
0.13568622742473463 0.15848214814550018 -0.041786380403053193
0.14629355522751541 0.16343418915248709 -0.018080296804775676
0.14793562953832617 0.12913684200943623 -0.065712058029449114
0.16338379074927617 0.12032447534984465 -0.050433717244706563
0.17748120390672467 0.12527075959322762 -0.018205923244688622
0.19125545638200028 0.11336392258070345 -0.0035753726758676551
-0.057939466925165793 0.2105901486117209 0.11904293454860453
-0.05588277014601057 0.20199523502170075 0.14601602606322645
-0.03181974967770352 0.21941006738702792 0.017153301174033558
-0.029821760570426504 0.22187877204077683 0.040763882673961957
-0.024444711430295262 0.22249908719700168 0.076429462072403531
-0.037675582038191449 0.21577535573572013 0.11028686249554834
-0.030832781705677159 0.20555942083047074 0.14770507085474033
0.0006959486602845672 0.2094950828925751 -0.024433293701401987
1.8717522372371325e-06 0.21809150376386377 0.0043566182132634863
-0.00066347624866231608 0.22476598744492043 0.041588910075687373
-0.00013615929297065379 0.22663801080052462 0.064417010433952815
0.033785191958248577 0.18999121646422693 -0.061118408097372567
0.03377338290005328 0.20292529130985915 -0.035975859311041004
0.033780745816011572 0.2152150263697179 -0.0088249394029298097
0.067714060919941366 0.15984453551818681 -0.093205627143486847
0.069543775219976386 0.17578947892416072 -0.071005036795034282
0.071603334824101195 0.19180781629703766 -0.048289226575002307
0.097835941119740227 0.13762188588650343 -0.098922904175609422
0.11360421426647277 0.14679024665988138 -0.079234650345159363
0.12541506557809956 0.10859524465828239 -0.10117453757239443
0.14582330183076764 0.10613995846652095 -0.083124123019501089
0.16536374073717283 0.10318413199982024 -0.064446829007869535
-0.092127888804636252 0.20710923105601478 0.047114681751639916
-0.087050774161400751 0.20814749672898755 0.072982880181832716
-0.079132600877866457 0.2062576465713987 0.10649514806959444
-0.082250769672209414 0.19432010215641113 0.14237972257956558
-0.065159867157182041 0.20064550282968621 -0.021931539532167855
-0.058293227912365131 0.20936161810932602 0.002788246601826575
-0.071718219188716945 0.21204982319394888 0.037229049459538748
-0.063070541898050975 0.21591294862192792 0.075561675184574892
-0.060238841719838843 0.2154186992145688 0.095453784107523421
-0.032322994919402749 0.18826674165474108 -0.060403443992314655
-0.033578754341508317 0.20065715905359208 -0.035200108719105269
-0.034933151073327819 0.21230622483775288 -0.0077745305041261037
0.0009110803644830634 0.16665645947235949 -0.094661158878747084
0.00037545587148498668 0.18303454387884843 -0.072444939597552452
-0.0001976665610540169 0.19930949952322882 -0.048865791907026106
0.035335991499146548 0.13347800826923822 -0.12491194803594817
0.03582246839595999 0.15395201578327292 -0.10529871861712448
0.036389516274045984 0.17475960862194476 -0.084999175930982093
0.062884712620996139 0.11571151903881882 -0.12878691069360559
0.080361790567263683 0.12681582991728835 -0.11528804538821323
0.091398366708837983 0.089453243590940909 -0.13099135655989999
0.1177492311233423 0.086568602720067708 -0.11592640803724402
0.14345467676782875 0.082876790748264484 -0.10008747554603849
-0.14420978052864719 0.17506232788855391 0.11058036229578933
-0.13986097480138915 0.17060153284226798 0.13113767972085288
-0.12582259053728462 0.18544849817524192 0.0089188047117644224
-0.11736699131913149 0.19343362554479274 0.032052850954544868
-0.12454824877081845 0.19130744722304488 0.067326285126108276
-0.12930426762959013 0.18491531286336754 0.10192390434192093
-0.12044354519930534 0.18006622781532813 0.13562984027630032
-0.10343832009807914 0.16846631211408036 -0.056536553726236193
-0.094792566733036349 0.18187910849156758 -0.036842394732217419
-0.10656665772960087 0.19103527822039812 -0.001367658576160355
-0.099135953308037705 0.20146384069923892 0.0219955644576596
-0.068060372757412696 0.15603776003513323 -0.092187463300767991
-0.07133916288507941 0.17061217165405584 -0.070284998557507181
-0.0748275077491872 0.18501608762340013 -0.04703429356566393
-0.034972066342447837 0.13141120157439265 -0.1245070143645735
-0.036312669395345359 0.151388985751954 -0.10485167010758263
-0.037790833412944619 0.17165956149238415 -0.084422653976730808
-0.00063662675372906305 0.12598880027981788 -0.12978244370624739
-0.0010864047892739672 0.14356728232307767 -0.11803461930969104
0.037544860399972291 0.098908712231909474 -0.1416618226758386
0.081169790085533253 0.068274056483689824 -0.14011089400304733
0.10949150936038622 0.06445249340912107 -0.13024261196206791
-0.16255040116055169 0.16157657947273071 0.098442880756772322
-0.1592128749886671 0.15644067603189446 0.12439035939203104
-0.15092554925140317 0.16460174427803431 0.0001259139864145881
-0.15697460353099071 0.16610997982057646 0.025158725680967171
-0.16189004649636651 0.16578687238391546 0.058768603859345625
-0.16322833043306956 0.16393017279797695 0.081987873039055109
-0.12330775606451737 0.15169003249924085 -0.060932366743469718
-0.13311627050273614 0.15663682340584018 -0.042172302771289659
-0.14505001440732598 0.16230351995423964 -0.016734231837996948
-0.095646696970815223 0.1358610654175201 -0.097400381488240831
-0.11133110274361949 0.14491446915671147 -0.077470163465566511
-0.06101396902899428 0.11429818679660089 -0.128136502258834
-0.078375565584429263 0.1252062733326274 -0.11369649264569651
-0.037500543699288104 0.098796795132489318 -0.14090760294622826
-0.00075312276366032438 0.05712116793885693 -0.15959359984370447
-0.00045361285135232798 0.073854419268882227 -0.15411744043132755
0.017072000871621782 0.045270534081026569 -0.16064690260397113
0.040562583094129231 0.045257484373779085 -0.15657932125899818
-0.18600139659137335 0.13890721610508946 0.089334346306602086
-0.18981496282004509 0.127477636519649 0.1082265427547386
-0.18150509427384387 0.13071842431008371 -0.0056425621695383697
-0.18611747198427175 0.13267068426919809 0.015607518384852397
-0.19037075454042862 0.13406809018782373 0.047994675959244879
-0.19299697174020275 0.13085967595564268 0.076562305489659213
-0.20127801520257974 0.11726645929877834 0.091065751083009114
-0.14881707466814656 0.12745265008458306 -0.065408779519209717
-0.16475310812210869 0.11982620653107738 -0.05133311706567352
-0.17617332883084597 0.1280134756820383 -0.021837871023355774
-0.13024856707231153 0.10220343252888098 -0.10103860779899422
-0.1479098902242883 0.11036539111469783 -0.079437421129144953
-0.16809705289130653 0.10264876504291361 -0.065912662381421225
-0.096929442200576185 0.082459959657682283 -0.13104830321466779
-0.11368008479129801 0.092434398469543808 -0.11670815381423705
-0.074949792568651585 0.069087004461723639 -0.14332775863178621
-0.026356282206821239 0.039473762540136438 -0.16116535244627764
-0.04523111803721571 0.051112326461567839 -0.15638720271351214
0.0036058537730265629 0.022310217709317147 -0.16273664086142398
0.031462269433753347 0.021302032780941203 -0.16148870918593952
0.094192039325041832 0.05661904450000238 0.26124604309458332
0.089053782869270348 0.086291728431265952 0.25376405350982578
0.085776455665757714 0.12823819080826626 0.23404328708322908
0.086119476809331449 0.15459122785338747 0.21273493039295974
0.11713659521106717 0.039139080047926031 0.2501082540188414
0.12183664994712778 0.07040267516407886 0.24001823529599209
0.1220392547099768 0.1124608264025473 0.22186879498169909
0.10840914823556518 0.15292111678843687 0.19834602277402164
0.10927851379802445 0.1693110085575589 0.17918378711212424
0.14906220355226824 0.017344355845758531 0.22819483814646255
0.15343571677867601 0.046882323031704053 0.21969599373856549
0.15481479042006352 0.089439128311797012 0.20430172338486335
0.14814825161653958 0.12758080466895738 0.18539991471767078
0.13271341318715738 0.16250752693109452 0.16283804913015001
0.16596009187188104 0.0070878183122315419 0.21325635720566347
0.17702547553053841 0.022838470844282747 0.19739273488264644
0.17995503949105346 0.062137784109897648 0.18365075395152144
0.17570900274913964 0.10149882522503369 0.16816389986864277
0.16447502184323315 0.13670596179033992 0.15016147846213462
0.19155179058554592 0.020522926742359875 0.17832934438447889
0.194871603113489 0.039972594559819427 0.1672056540563574
0.19739427111284114 0.072096543448883318 0.1472843883522916
0.18953178989253092 0.10885349585291766 0.13190562991729773
5.4768861518339484e-05 0.11027025599687572 0.26248359333250731
5.4768861518339484e-05 0.12904211326673473 0.2517540358530444
0.03269941676713594 0.019495381144687268 0.28332158931359497
0.030557496480490488 0.049786464152563083 0.27871566419579563
0.02436225398665184 0.095772069569575374 0.26636196314622768
0.024338610776478746 0.13860047843946771 0.24155890082532699
0.02879276218108464 0.16881373269189665 0.21304597628998689
0.02865512180489627 0.18454429196505251 0.1946986863474589
0.056749649445030317 0.0036578765498151309 0.27645141846457039
0.072355567942775686 0.043164215032386828 0.26964773533413355
0.06628790158060871 0.093600515731118328 0.26016336261818168
0.062376683218883358 0.13479454163764082 0.23912580226163166
0.066293912788976117 0.1662398525675656 0.20736925426819686
0.051744768945694498 0.18852334180434349 0.18145840288704634
0.095431784414893028 -0.021424060815324764 0.26019769330810699
0.10980606241352386 0.014632358316827593 0.25529023670518886
0.087246931951813142 0.17233509877155009 0.19293551600353318
0.091257026718110326 0.18155113051910901 0.17378152941456487
0.12911276603565738 -0.042430170221519327 0.23785050922134293
0.14249011183093063 -0.0063449625277342599 0.23293108872397184
0.11401638624052707 0.18046444404539788 0.15805345496963585
0.15736614668438037 -0.058632091808607636 0.21090676148638784
0.1682552699416032 -0.020763693100578275 0.20677881749360233
0.18151907363527708 0.00090197338237475722 0.19328064431875769
0.17131645414674904 -0.066019129532878154 0.1945709862760682
0.18447543370389133 -0.049176398740170449 0.18015053550559149
0.19409788014613358 -0.0066305410304993454 0.17225845539994528
0.20240009473394421 0.024318141695148759 0.1555352199069116
0.20504140013080288 0.048876439833594833 0.14345488104174378
0.19406235339432013 0.11101949205373535 0.12015177482824474
-0.032908843193389561 0.019081093084869178 0.28530652585324329
-0.030741578290127507 0.050672568751226041 0.27961278713466187
-0.023924450215771369 0.095476646418157715 0.26612957315043151
-0.023335447471155617 0.13780667286712922 0.2409724895365814
-0.02801831330470346 0.1674336501689882 0.21215411052690231
-0.028518661826201028 0.18228348914851863 0.19470330183386719
-0.00045471978262356477 -0.038115934147217916 0.28349423955798714
0.00018487862614488364 1.6810055053929213e-06 0.28456858568059529
0.00065083988204702771 0.052056432954896321 0.28091930946962096
-2.1378228653892543e-06 0.081368657879493891 0.27594146167745065
-0.00011688513628332145 0.15175523831762031 0.2335065561576827
-0.00053000825420052586 0.16926889589290939 0.21340564409495066
-0.00018603791056554138 0.19029752715137185 0.18427178994357349
0.025447963261359806 -0.051465110727077878 0.27687308687315321
0.042222188628596141 -0.024130174034421581 0.27771071135500114
0.028427712138336756 0.19709428569807408 0.17313273492159967
0.066544829594856469 -0.073083508534009273 0.26088210874087592
0.083006189376815476 -0.047696709854746326 0.2622612383896884
0.10171106495470306 -0.092120650005864085 0.2386755133684369
0.11763760776841808 -0.067636333595503528 0.23989785529683375
0.13053319135891461 -0.10832402304402122 0.21194289269849964
0.1455448455003841 -0.083171529084857768 0.21228151246915508
0.1453517189993199 -0.11687883485119006 0.19445496092471826
0.16502143303225028 -0.095019847136327773 0.18446469114219502
0.18343116444066151 -0.070762190365470004 0.17330812615502353
-0.094467036873663965 0.054253229277362425 0.26413426202761059
-0.089757662701342125 0.086241732185220618 0.25380947886580174
-0.087182044941268383 0.1255692765076801 0.23207471974764879
-0.087355670660537996 0.14844303022640662 0.2130913280052408
-0.059329032902594787 0.0014014058489623081 0.27961535722252895
-0.07396390862968906 0.042528223634277218 0.27219929170201385
-0.066091502819777354 0.092995956392693049 0.25973398471062897
-0.063578950233787374 0.13194733195198616 0.23700764983329109
-0.065806653838452481 0.16161994820414965 0.20702052855988962
-0.050536180334183348 0.18545314962885917 0.18054505090970127
-0.02785502623052287 -0.051464441803826221 0.2787859015109993
-0.044771262776119231 -0.026508785311144374 0.2808916178584876
-0.029688081179054335 0.19440358002978578 0.17300669623257969
-0.0013333618131345752 -0.10958784450366622 0.26200485994767958
-0.00082915577848002441 -0.084423307356088453 0.27027848670584353
0.02667119792197168 -0.12086836485417059 0.25149550061903331
0.044273635081671932 -0.10279118949710421 0.25693848129248958
0.063107952483707777 -0.13798842080006238 0.23058106285238766
0.080380514326095664 -0.12044701422661486 0.23535922737907328
0.084923567715669848 -0.14995606539666143 0.21224337447268496
0.10717188488994825 -0.13864176281021928 0.20679191673187375
0.13759295445417968 -0.13819807066257467 0.18122083561729646
0.15707863525036295 -0.12385514715853585 0.17348541081587796
-0.11996699418687512 0.033379046969052854 0.25459854423809758
-0.12422951304859949 0.071713871990886219 0.24115763408467208
-0.12135644417155418 0.11197444510915165 0.22154521533940813
-0.10889646236302833 0.14835122052989419 0.19811286863620337
-0.1114272209823149 0.16339666965141655 0.17883611851996373
-0.096587673128412058 -0.055827285055314618 0.26388000546344909
-0.095799663686083711 -0.026312192080441631 0.26686384785325845
-0.11443311981052527 0.0097240419430360478 0.26075256956943449
-0.088884869309495365 0.16519221689343624 0.19290755646070265
-0.090567136395905523 0.17651132590322155 0.17277705008603778
-0.070692176822037281 -0.069846744637543159 0.26687626715512425
-0.070219328819717208 -0.040544333289668298 0.27607021309350138
-0.030528741201410269 -0.11996768402562015 0.25389394505786028
-0.048261150922949608 -0.10421930355888281 0.26042273664402227
-2.4515488713405809e-05 -0.14098082496056705 0.24013750530189484
0.036220997622652629 -0.15834538154031863 0.22048038125770797
0.07501228820940424 -0.16740421159759258 0.1977638276580399
0.10040568579534721 -0.16020979643574332 0.1932067410536111
0.087794875833336186 -0.17803834608471336 0.17870086796713291
0.10903070949070244 -0.16878790298810861 0.1734040491815261
-0.15360509704190725 0.0098696601331971431 0.23393627238466147
-0.15852297049109382 0.049554604102828838 0.22192833427869552
-0.15707602967775075 0.090685252583232706 0.20523939864141819
-0.14796225591281809 0.12740437347131661 0.18531389825869829
-0.13397742411369876 0.15830947755205216 0.16242126064622769
-0.12426184049014453 -0.071835525834731767 0.24577000949288516
-0.13674713892303575 -0.043092014702197923 0.24303623024806509
-0.14846529970010067 -0.013254537469794032 0.23940693278604949
-0.11619230911767232 0.17344358053716166 0.15739343656081392
-0.10575965216606488 -0.09762812869446176 0.2433487613775269
-0.069299948608682369 -0.13734958874013459 0.2343605502624245
-0.086815786514677473 -0.12217858243583953 0.24018308249433298
-0.03632588463319103 -0.16054950162091697 0.22134491681986881
-1.1510192194901653e-05 -0.17824242115813035 0.20410497103600062
0.036287755540596336 -0.18898981153959366 0.18434854910688825
0.070930111107889604 -0.19439714103421613 0.16191994237374296
0.093651691332857057 -0.18869165788726139 0.15738405895075494
-0.17609637896837471 -0.0028768828854428331 0.21294122018074266
-0.1855251933358511 0.017648191479843325 0.19804051110068621
-0.18447496780181222 0.064512404789737604 0.18537703719589566
-0.17818207903262348 0.10287890145898074 0.16905983642282824
-0.1649085747425392 0.13692017127721084 0.15030376237571269
-0.14262463663743133 -0.082405898085131865 0.23095030237960171
-0.16052951898034062 -0.067129461745649238 0.21806584757538167
-0.17838422204649845 -0.025029830067803582 0.20822841871003739
-0.19214481214526721 -0.0096682152834038776 0.19287474323704767
-0.13878416798480317 -0.10638883868780516 0.21857389366571978
-0.1591107290876452 -0.091437682929854214 0.21072358992872461
-0.096993513515385585 -0.15418943393741158 0.20784498098677998
-0.11403432563081148 -0.13875011562590048 0.21254919730646377
-0.072280182976740437 -0.17101872339846735 0.19906037620701034
-0.036328596890210341 -0.18981957343875605 0.18463473755878321
-2.5815795323090585e-06 -0.20205775019877242 0.16789181184284871
0.036048636186918115 -0.20817627370415648 0.14938855167619258
-0.19904318578977484 0.011369972934779692 0.1794719928560585
-0.20474881303187961 0.036267674645623707 0.16212336181671499
-0.20060174814523354 0.07412996763893312 0.150163567331287
-0.19102134635642043 0.11029706904842634 0.13521088823050739
-0.18030326484352135 -0.072648041351737205 0.19471925705871887
-0.19319030314223415 -0.051870340055224742 0.18131677368644933
-0.20188432907314047 -0.010749126924071298 0.17409142559360999
-0.21026880431777437 0.013288472070767764 0.15717722940853615
-0.15472833067909436 -0.1212222895249942 0.19459555934119063
-0.17435444575508666 -0.10073631506669926 0.18455222266100288
-0.19274534003900526 -0.077645249135909922 0.17319972791481589
-0.10817284536148881 -0.16250573961137679 0.19295368849215713
-0.1376183543191945 -0.14637515240923257 0.18368341738357863
-0.16633949526447747 -0.12883952754122049 0.17330449641973392
-0.096372920484241315 -0.17421768457607328 0.18286483358139233
-0.1133385497779387 -0.17326749839053787 0.17003517914753152
-0.072096961371828069 -0.19497237477857204 0.16180223264997734
-0.095627330903282903 -0.18969987168299338 0.15718642914920208
-0.036048632791553757 -0.20817738158664956 0.14939193588003241
-0.00016203471907043492 -0.2172307341363427 0.13278786872450771
-0.00027367549150428906 -0.22166809949509028 0.12172695593781245
POLYGONS 1268 5072
3 3 2 0
3 3 0 1
3 617 3 1
3 617 1 616
3 5 4 2
3 5 2 3
3 618 5 3
3 618 3 617
3 618 441 5
3 11 10 6
3 11 6 7
3 12 11 7
3 12 7 8
3 621 12 8
3 621 8 620
3 15 14 9
3 15 9 10
3 16 15 10
3 16 10 11
3 1 0 16
3 1 16 17
3 17 16 11
3 17 11 12
3 616 1 17
3 616 17 622
3 621 622 17
3 621 17 12
3 615 616 622
3 615 622 621
3 19 18 13
3 19 13 14
3 20 19 14
3 20 14 15
3 21 16 0
3 21 0 2
3 21 20 15
3 21 15 16
3 23 22 18
3 23 18 19
3 24 23 19
3 24 19 20
3 25 21 2
3 25 2 4
3 25 24 20
3 25 20 21
3 5 26 25
3 5 25 4
3 442 22 23
3 442 23 443
3 444 443 23
3 444 23 24
3 445 444 24
3 445 24 25
3 446 26 5
3 446 5 441
3 446 445 25
3 446 25 26
3 441 440 445
3 441 445 446
3 33 32 27
3 33 27 28
3 7 6 33
3 7 33 34
3 34 33 28
3 34 28 29
3 8 7 34
3 8 34 35
3 35 34 29
3 35 29 30
3 620 8 35
3 620 35 625
3 625 35 30
3 625 30 624
3 619 620 625
3 619 625 624
3 38 37 31
3 38 31 32
3 39 33 6
3 39 6 10
3 10 9 38
3 10 38 39
3 39 38 32
3 39 32 33
3 42 41 36
3 42 36 37
3 43 38 9
3 43 9 14
3 14 13 42
3 14 42 43
3 43 42 37
3 43 37 38
3 45 44 40
3 45 40 41
3 46 42 13
3 46 13 18
3 46 45 41
3 46 41 42
3 48 47 44
3 48 44 45
3 49 46 18
3 49 18 22
3 49 48 45
3 49 45 46
3 449 49 22
3 449 22 442
3 449 448 48
3 449 48 49
3 28 27 56
3 28 56 57
3 57 56 50
3 57 50 51
3 29 28 57
3 29 57 58
3 58 57 51
3 58 51 52
3 30 29 58
3 30 58 59
3 59 58 52
3 59 52 53
3 624 30 59
3 624 59 628
3 628 59 53
3 628 53 627
3 624 628 627
3 624 627 623
3 62 61 54
3 62 54 55
3 63 56 27
3 63 27 32
3 32 31 62
3 32 62 63
3 63 62 55
3 63 55 56
3 66 65 60
3 66 60 61
3 67 62 31
3 67 31 37
3 37 36 66
3 37 66 67
3 67 66 61
3 67 61 62
3 69 68 64
3 69 64 65
3 70 66 36
3 70 36 41
3 41 40 69
3 41 69 70
3 70 69 65
3 70 65 66
3 72 69 40
3 72 40 44
3 72 71 68
3 72 68 69
3 74 72 44
3 74 44 47
3 74 73 71
3 74 71 72
3 48 75 74
3 48 74 47
3 451 450 73
3 451 73 74
3 452 75 48
3 452 48 448
3 452 451 74
3 452 74 75
3 448 447 451
3 448 451 452
3 51 50 77
3 51 77 78
3 52 51 78
3 52 78 79
3 53 52 79
3 53 79 80
3 627 53 80
3 627 80 630
3 627 630 629
3 627 629 626
3 55 54 81
3 55 81 82
3 83 77 50
3 83 50 56
3 56 55 82
3 56 82 83
3 83 82 76
3 83 76 77
3 86 81 54
3 86 54 61
3 61 60 85
3 61 85 86
3 88 85 60
3 88 60 65
3 65 64 87
3 65 87 88
3 88 87 84
3 88 84 85
3 90 87 64
3 90 64 68
3 92 90 68
3 92 68 71
3 92 91 89
3 92 89 90
3 94 92 71
3 94 71 73
3 94 93 91
3 94 91 92
3 454 94 73
3 454 73 450
3 454 453 93
3 454 93 94
3 77 76 97
3 77 97 98
3 78 77 98
3 78 98 99
3 79 78 99
3 79 99 100
3 80 79 100
3 80 100 101
3 101 100 95
3 101 95 96
3 630 80 101
3 630 101 632
3 632 101 96
3 632 96 631
3 630 632 631
3 630 631 629
3 104 97 76
3 104 76 82
3 82 81 103
3 82 103 104
3 85 84 105
3 85 105 106
3 107 103 81
3 107 81 86
3 86 85 106
3 86 106 107
3 107 106 102
3 107 102 103
3 109 105 84
3 109 84 87
3 111 109 87
3 111 87 90
3 90 89 110
3 90 110 111
3 111 110 108
3 111 108 109
3 112 110 89
3 112 89 91
3 113 112 91
3 113 91 93
3 455 113 93
3 455 93 453
3 96 95 114
3 96 114 115
3 631 96 115
3 631 115 633
3 97 116 117
3 97 117 98
3 99 98 117
3 99 117 118
3 100 119 114
3 100 114 95
3 100 99 118
3 100 118 119
3 103 102 120
3 103 120 121
3 122 116 97
3 122 97 104
3 104 103 121
3 104 121 122
3 124 120 102
3 124 102 106
3 106 105 123
3 106 123 124
3 126 123 105
3 126 105 109
3 109 108 125
3 109 125 126
3 127 125 108
3 127 108 110
3 129 127 110
3 129 110 112
3 131 129 112
3 131 112 113
3 131 130 128
3 131 128 129
3 457 131 113
3 457 113 455
3 456 130 131
3 456 131 457
3 114 132 133
3 114 133 115
3 633 115 133
3 633 133 634
3 117 116 134
3 117 134 135
3 118 117 135
3 118 135 136
3 137 132 114
3 137 114 119
3 119 118 136
3 119 136 137
3 138 133 132
3 138 132 137
3 635 634 133
3 635 133 138
3 120 139 140
3 120 140 121
3 141 134 116
3 141 116 122
3 122 121 140
3 122 140 141
3 142 135 134
3 142 134 141
3 144 139 120
3 144 120 124
3 124 123 143
3 124 143 144
3 145 140 139
3 145 139 144
3 147 143 123
3 147 123 126
3 126 125 146
3 126 146 147
3 148 144 143
3 148 143 147
3 149 146 125
3 149 125 127
3 150 147 146
3 150 146 149
3 152 149 127
3 152 127 129
3 129 128 151
3 129 151 152
3 153 151 128
3 153 128 130
3 154 152 151
3 154 151 153
3 458 153 130
3 458 130 456
3 136 135 286
3 136 286 287
3 137 136 287
3 137 287 288
3 138 137 288
3 138 288 289
3 289 288 283
3 289 283 284
3 635 138 289
3 635 289 284
3 635 284 634
3 141 140 291
3 141 291 292
3 293 286 135
3 293 135 142
3 142 141 292
3 142 292 293
3 293 292 285
3 293 285 286
3 296 291 140
3 296 140 145
3 145 144 295
3 145 295 296
3 296 295 290
3 296 290 291
3 299 295 144
3 299 144 148
3 148 147 298
3 148 298 299
3 299 298 294
3 299 294 295
3 301 298 147
3 301 147 150
3 150 149 300
3 150 300 301
3 301 300 297
3 301 297 298
3 302 300 149
3 302 149 152
3 304 302 152
3 304 152 154
3 153 303 304
3 153 304 154
3 458 303 153
3 458 459 304
3 458 304 303
3 481 155 156
3 481 156 482
3 158 157 161
3 158 161 162
3 508 158 162
3 508 162 509
3 160 159 164
3 160 164 165
3 161 160 165
3 161 165 166
3 162 161 166
3 162 166 167
3 509 162 167
3 509 167 510
3 509 510 480
3 509 480 479
3 164 163 168
3 164 168 169
3 165 164 169
3 165 169 170
3 166 165 170
3 166 170 171
3 167 166 171
3 167 171 172
3 511 172 155
3 511 155 481
3 510 167 172
3 510 172 511
3 510 511 481
3 510 481 480
3 168 173 174
3 168 174 169
3 170 169 174
3 170 174 175
3 171 170 175
3 171 175 176
3 156 155 172
3 156 172 177
3 172 171 176
3 172 176 177
3 512 482 156
3 512 156 177
3 175 174 328
3 175 328 329
3 176 175 329
3 176 329 330
3 177 176 330
3 177 330 331
3 331 330 309
3 331 309 310
3 512 177 331
3 512 331 310
3 512 310 482
3 179 178 183
3 179 183 184
3 185 184 157
3 185 157 158
3 180 179 184
3 180 184 185
3 537 185 158
3 537 158 508
3 536 180 185
3 536 185 537
3 507 536 537
3 507 537 508
3 182 181 187
3 182 187 188
3 189 188 159
3 189 159 160
3 183 182 188
3 183 188 189
3 161 157 184
3 161 184 190
3 190 189 160
3 190 160 161
3 184 183 189
3 184 189 190
3 187 186 191
3 187 191 192
3 164 159 188
3 164 188 193
3 193 192 163
3 193 163 164
3 188 187 192
3 188 192 193
3 168 163 192
3 168 192 195
3 192 191 194
3 192 194 195
3 173 168 195
3 173 195 197
3 195 194 196
3 195 196 197
3 198 174 173
3 198 173 197
3 197 196 352
3 197 352 353
3 328 174 198
3 328 198 354
3 198 197 353
3 198 353 354
3 354 353 327
3 354 327 328
3 205 204 178
3 205 178 179
3 200 199 204
3 200 204 205
3 206 205 179
3 206 179 180
3 201 200 205
3 201 205 206
3 560 206 180
3 560 180 536
3 559 201 206
3 559 206 560
3 535 559 560
3 535 560 536
3 209 208 181
3 209 181 182
3 203 202 208
3 203 208 209
3 183 178 204
3 183 204 210
3 210 209 182
3 210 182 183
3 204 203 209
3 204 209 210
3 187 181 208
3 187 208 213
3 213 212 186
3 213 186 187
3 208 207 212
3 208 212 213
3 191 186 212
3 191 212 216
3 212 211 215
3 212 215 216
3 215 214 217
3 215 217 218
3 194 191 216
3 194 216 219
3 216 215 218
3 216 218 219
3 217 220 221
3 217 221 218
3 196 194 219
3 196 219 222
3 219 218 221
3 219 221 222
3 352 196 222
3 352 222 376
3 222 221 375
3 222 375 376
3 376 375 351
3 376 351 352
3 225 224 199
3 225 199 200
3 226 225 200
3 226 200 201
3 580 226 201
3 580 201 559
3 229 228 202
3 229 202 203
3 204 199 224
3 204 224 230
3 230 229 203
3 230 203 204
3 224 223 229
3 224 229 230
3 208 202 228
3 208 228 233
3 233 232 207
3 233 207 208
3 228 227 232
3 228 232 233
3 212 207 232
3 212 232 236
3 236 235 211
3 236 211 212
3 232 231 235
3 232 235 236
3 215 211 235
3 215 235 238
3 238 237 214
3 238 214 215
3 235 234 237
3 235 237 238
3 217 214 237
3 217 237 240
3 220 217 240
3 220 240 242
3 239 241 242
3 239 242 240
3 243 221 220
3 243 220 242
3 375 221 243
3 375 243 399
3 243 242 398
3 243 398 399
3 399 398 374
3 399 374 375
3 248 247 223
3 248 223 224
3 249 248 224
3 249 224 225
3 250 249 225
3 250 225 226
3 245 244 249
3 245 249 250
3 580 597 250
3 580 250 226
3 596 245 250
3 596 250 597
3 579 596 597
3 579 597 580
3 253 252 227
3 253 227 228
3 229 223 247
3 229 247 254
3 254 253 228
3 254 228 229
3 247 246 253
3 247 253 254
3 232 227 252
3 232 252 257
3 257 256 231
3 257 231 232
3 252 251 256
3 252 256 257
3 235 231 256
3 235 256 260
3 260 259 234
3 260 234 235
3 256 255 259
3 256 259 260
3 237 234 259
3 237 259 262
3 259 258 261
3 259 261 262
3 240 237 262
3 240 262 264
3 264 263 239
3 264 239 240
3 262 261 263
3 262 263 264
3 241 239 263
3 241 263 265
3 266 242 241
3 266 241 265
3 398 242 266
3 398 266 421
3 266 265 420
3 266 420 421
3 421 420 397
3 421 397 398
3 268 267 244
3 268 244 245
3 614 268 245
3 614 245 596
3 270 269 246
3 270 246 247
3 271 270 247
3 271 247 248
3 244 267 272
3 244 272 249
3 272 271 248
3 272 248 249
3 274 273 251
3 274 251 252
3 246 269 275
3 246 275 253
3 275 274 252
3 275 252 253
3 251 273 277
3 251 277 256
3 277 276 255
3 277 255 256
3 259 255 276
3 259 276 279
3 279 278 258
3 279 258 259
3 261 258 278
3 261 278 280
3 263 261 280
3 263 280 281
3 265 263 281
3 265 281 282
3 420 265 282
3 420 282 439
3 284 283 267
3 284 267 268
3 614 634 284
3 614 284 268
3 286 285 269
3 286 269 270
3 287 286 270
3 287 270 271
3 267 283 288
3 267 288 272
3 288 287 271
3 288 271 272
3 291 290 273
3 291 273 274
3 269 285 292
3 269 292 275
3 292 291 274
3 292 274 275
3 273 290 295
3 273 295 277
3 295 294 276
3 295 276 277
3 276 294 298
3 276 298 279
3 298 297 278
3 298 278 279
3 278 297 300
3 278 300 280
3 281 280 300
3 281 300 302
3 282 281 302
3 282 302 304
3 439 282 304
3 439 304 459
3 459 458 438
3 459 438 439
3 308 307 305
3 308 305 306
3 478 308 306
3 478 306 473
3 310 309 307
3 310 307 308
3 478 482 310
3 478 310 308
3 316 315 311
3 316 311 312
3 317 316 312
3 317 312 313
3 500 317 313
3 500 313 496
3 320 319 314
3 320 314 315
3 321 320 315
3 321 315 316
3 306 305 321
3 306 321 322
3 322 321 316
3 322 316 317
3 473 306 322
3 473 322 503
3 500 503 322
3 500 322 317
3 468 473 503
3 468 503 500
3 324 323 318
3 324 318 319
3 325 324 319
3 325 319 320
3 305 307 326
3 305 326 321
3 321 326 325
3 321 325 320
3 328 327 323
3 328 323 324
3 329 328 324
3 329 324 325
3 307 309 330
3 307 330 326
3 330 329 325
3 330 325 326
3 312 311 337
3 312 337 338
3 338 337 332
3 338 332 333
3 313 312 338
3 313 338 339
3 339 338 333
3 339 333 334
3 496 313 339
3 496 339 528
3 528 339 334
3 528 334 525
3 490 496 528
3 490 528 525
3 342 341 335
3 342 335 336
3 311 315 343
3 311 343 337
3 315 314 342
3 315 342 343
3 343 342 336
3 343 336 337
3 346 345 340
3 346 340 341
3 314 319 347
3 314 347 342
3 319 318 346
3 319 346 347
3 347 346 341
3 347 341 342
3 349 348 344
3 349 344 345
3 318 323 350
3 318 350 346
3 350 349 345
3 350 345 346
3 352 351 348
3 352 348 349
3 323 327 353
3 323 353 350
3 353 352 349
3 353 349 350
3 333 332 359
3 333 359 360
3 334 333 360
3 334 360 361
3 361 360 355
3 361 355 356
3 525 334 361
3 525 361 550
3 550 361 356
3 550 356 547
3 518 525 550
3 518 550 547
3 336 335 363
3 336 363 364
3 364 363 357
3 364 357 358
3 332 337 365
3 332 365 359
3 337 336 364
3 337 364 365
3 365 364 358
3 365 358 359
3 335 341 368
3 335 368 363
3 341 340 367
3 341 367 368
3 368 367 362
3 368 362 363
3 340 345 371
3 340 371 367
3 345 344 370
3 345 370 371
3 371 370 366
3 371 366 367
3 344 348 373
3 344 373 370
3 373 372 369
3 373 369 370
3 348 351 375
3 348 375 373
3 375 374 372
3 375 372 373
3 356 355 379
3 356 379 380
3 547 356 380
3 547 380 570
3 358 357 382
3 358 382 383
3 359 358 383
3 359 383 384
3 384 383 377
3 384 377 378
3 360 385 379
3 360 379 355
3 360 359 384
3 360 384 385
3 385 384 378
3 385 378 379
3 363 388 382
3 363 382 357
3 363 362 387
3 363 387 388
3 388 387 381
3 388 381 382
3 367 391 387
3 367 387 362
3 367 366 390
3 367 390 391
3 391 390 386
3 391 386 387
3 366 370 394
3 366 394 390
3 370 369 393
3 370 393 394
3 394 393 389
3 394 389 390
3 369 372 396
3 369 396 393
3 396 395 392
3 396 392 393
3 372 374 398
3 372 398 396
3 398 397 395
3 398 395 396
3 378 377 403
3 378 403 404
3 379 378 404
3 379 404 405
3 380 379 405
3 380 405 406
3 406 405 400
3 406 400 401
3 570 380 406
3 570 406 589
3 589 406 401
3 589 401 585
3 570 589 585
3 570 585 565
3 382 381 408
3 382 408 409
3 383 410 403
3 383 403 377
3 383 382 409
3 383 409 410
3 410 409 402
3 410 402 403
3 387 413 408
3 387 408 381
3 387 386 412
3 387 412 413
3 413 412 407
3 413 407 408
3 390 416 412
3 390 412 386
3 390 389 415
3 390 415 416
3 416 415 411
3 416 411 412
3 393 418 415
3 393 415 389
3 393 392 417
3 393 417 418
3 418 417 414
3 418 414 415
3 392 395 419
3 392 419 417
3 395 397 420
3 395 420 419
3 401 400 422
3 401 422 423
3 585 401 423
3 585 423 602
3 403 402 424
3 403 424 425
3 404 403 425
3 404 425 426
3 405 427 422
3 405 422 400
3 405 404 426
3 405 426 427
3 408 407 428
3 408 428 429
3 409 430 424
3 409 424 402
3 409 408 429
3 409 429 430
3 412 432 428
3 412 428 407
3 412 411 431
3 412 431 432
3 415 434 431
3 415 431 411
3 415 414 433
3 415 433 434
3 414 417 435
3 414 435 433
3 417 419 437
3 417 437 435
3 419 420 439
3 419 439 437
3 439 438 436
3 439 436 437
3 423 422 440
3 423 440 441
3 602 423 441
3 602 441 618
3 425 424 442
3 425 442 443
3 426 425 443
3 426 443 444
3 427 445 440
3 427 440 422
3 427 426 444
3 427 444 445
3 428 447 448
3 428 448 429
3 430 449 442
3 430 442 424
3 430 429 448
3 430 448 449
3 432 451 447
3 432 447 428
3 432 431 450
3 432 450 451
3 434 454 450
3 434 450 431
3 434 433 453
3 434 453 454
3 435 455 453
3 435 453 433
3 437 457 455
3 437 455 435
3 437 436 456
3 437 456 457
3 436 438 458
3 436 458 456
3 460 464 465
3 460 465 461
3 465 466 462
3 465 462 461
3 466 467 463
3 466 463 462
3 464 469 470
3 464 470 465
3 465 470 471
3 465 471 466
3 471 472 467
3 471 467 466
3 472 473 468
3 472 468 467
3 469 474 475
3 469 475 470
3 470 475 476
3 470 476 471
3 471 476 477
3 471 477 472
3 477 478 473
3 477 473 472
3 475 479 480
3 475 480 476
3 480 481 477
3 480 477 476
3 477 481 482
3 477 482 478
3 487 488 484
3 487 484 483
3 485 491 492
3 485 492 486
3 460 461 493
3 460 493 492
3 486 492 493
3 486 493 487
3 461 462 494
3 461 494 493
3 493 494 488
3 493 488 487
3 462 463 495
3 462 495 494
3 494 495 489
3 494 489 488
3 495 496 490
3 495 490 489
3 492 498 464
3 492 464 460
3 491 497 498
3 491 498 492
3 495 463 467
3 495 467 499
3 467 468 500
3 467 500 499
3 499 500 496
3 499 496 495
3 498 502 469
3 498 469 464
3 497 501 502
3 497 502 498
3 502 505 474
3 502 474 469
3 501 504 505
3 501 505 502
3 474 505 506
3 474 506 475
3 504 507 508
3 504 508 505
3 506 509 479
3 506 479 475
3 505 508 509
3 505 509 506
3 483 484 516
3 483 516 515
3 485 486 521
3 485 521 520
3 513 520 521
3 513 521 514
3 483 515 522
3 483 522 487
3 486 487 522
3 486 522 521
3 521 522 515
3 521 515 514
3 484 488 523
3 484 523 516
3 488 489 524
3 488 524 523
3 523 524 517
3 523 517 516
3 489 490 525
3 489 525 524
3 524 525 518
3 524 518 517
3 485 520 527
3 485 527 491
3 519 526 527
3 519 527 520
3 527 530 497
3 527 497 491
3 526 529 530
3 526 530 527
3 530 532 501
3 530 501 497
3 529 531 532
3 529 532 530
3 532 534 504
3 532 504 501
3 531 533 534
3 531 534 532
3 534 536 507
3 534 507 504
3 533 535 536
3 533 536 534
3 513 514 543
3 513 543 542
3 515 544 543
3 515 543 514
3 543 544 539
3 543 539 538
3 515 516 545
3 515 545 544
3 544 545 540
3 544 540 539
3 516 517 546
3 516 546 545
3 545 546 541
3 545 541 540
3 517 518 547
3 517 547 546
3 513 542 549
3 513 549 520
3 519 520 549
3 519 549 548
3 519 548 552
3 519 552 526
3 526 552 554
3 526 554 529
3 551 553 554
3 551 554 552
3 554 556 531
3 554 531 529
3 553 555 556
3 553 556 554
3 556 558 533
3 556 533 531
3 555 557 558
3 555 558 556
3 558 559 535
3 558 535 533
3 538 539 562
3 538 562 561
3 539 540 563
3 539 563 562
3 540 541 564
3 540 564 563
3 538 561 568
3 538 568 543
3 543 568 567
3 543 567 542
3 541 546 569
3 541 569 564
3 546 547 570
3 546 570 569
3 569 570 565
3 569 565 564
3 542 567 572
3 542 572 549
3 549 572 571
3 549 571 548
3 566 571 572
3 566 572 567
3 571 574 552
3 571 552 548
3 552 574 573
3 552 573 551
3 551 573 575
3 551 575 553
3 575 576 555
3 575 555 553
3 576 577 557
3 576 557 555
3 558 557 577
3 558 577 578
3 578 580 559
3 578 559 558
3 577 579 580
3 577 580 578
3 562 582 581
3 562 581 561
3 562 563 583
3 562 583 582
3 563 564 584
3 563 584 583
3 564 565 585
3 564 585 584
3 567 587 586
3 567 586 566
3 561 581 588
3 561 588 568
3 568 588 587
3 568 587 567
3 566 586 590
3 566 590 571
3 571 590 592
3 571 592 574
3 574 592 591
3 574 591 573
3 573 591 593
3 573 593 575
3 575 593 594
3 575 594 576
3 594 595 577
3 594 577 576
3 595 596 579
3 595 579 577
3 582 599 598
3 582 598 581
3 583 600 599
3 583 599 582
3 583 584 601
3 583 601 600
3 584 585 602
3 584 602 601
3 587 604 603
3 587 603 586
3 581 598 605
3 581 605 588
3 588 605 604
3 588 604 587
3 605 598 599
3 605 599 606
3 586 603 607
3 586 607 590
3 603 604 608
3 603 608 607
3 590 607 610
3 590 610 592
3 592 610 609
3 592 609 591
3 591 609 611
3 591 611 593
3 593 611 612
3 593 612 594
3 594 612 613
3 594 613 595
3 613 614 596
3 613 596 595
3 600 616 615
3 600 615 599
3 601 617 616
3 601 616 600
3 601 602 618
3 601 618 617
3 605 620 619
3 605 619 604
3 599 615 621
3 599 621 606
3 606 621 620
3 606 620 605
3 604 619 624
3 604 624 608
3 608 624 623
3 608 623 607
3 607 623 627
3 607 627 610
3 610 627 626
3 610 626 609
3 609 626 629
3 609 629 611
3 629 631 612
3 629 612 611
3 612 631 633
3 612 633 613
3 613 633 634
3 613 634 614
